<?xml version="1.0" encoding="UTF-8" standalone="no"?>
<svg
   xmlns:dc="http://purl.org/dc/elements/1.1/"
   xmlns:cc="http://creativecommons.org/ns#"
   xmlns:rdf="http://www.w3.org/1999/02/22-rdf-syntax-ns#"
   xmlns:svg="http://www.w3.org/2000/svg"
   xmlns="http://www.w3.org/2000/svg"
   xmlns:sodipodi="http://sodipodi.sourceforge.net/DTD/sodipodi-0.dtd"
   xmlns:inkscape="http://www.inkscape.org/namespaces/inkscape"
   version="1.1"
   x="0px"
   y="0px"
   viewBox="0 0 90 50"
   enable-background="new 0 0 100 100"
   xml:space="preserve"
   id="svg2"
   inkscape:version="0.48.4 r9939"
   width="100%"
   height="100%"
   sodipodi:docname="filled_envelope.svg"><metadata
     id="metadata22"><rdf:RDF><cc:Work
         rdf:about=""><dc:format>image/svg+xml</dc:format><dc:type
           rdf:resource="http://purl.org/dc/dcmitype/StillImage" /></cc:Work></rdf:RDF></metadata><defs
     id="defs20" /><sodipodi:namedview
     pagecolor="#ffffff"
     bordercolor="#666666"
     borderopacity="1"
     objecttolerance="10"
     gridtolerance="10"
     guidetolerance="10"
     inkscape:pageopacity="0"
     inkscape:pageshadow="2"
     inkscape:window-width="1920"
     inkscape:window-height="1028"
     id="namedview18"
     showgrid="false"
     inkscape:zoom="1.888"
     inkscape:cx="50"
     inkscape:cy="62.5"
     inkscape:window-x="0"
     inkscape:window-y="0"
     inkscape:window-maximized="1"
     inkscape:current-layer="svg2" /><g
     id="g4"
     transform="translate(-5,-24.494)"><path
       d="M 5.753,30.747 C 5.337,30.37 5,30.519 5,31.074 v 42.4 c 0,0.554 0.337,0.713 0.748,0.326 L 28.223,52.826 c 0.406,-0.387 0.406,-1.001 -0.01,-1.387 L 5.753,30.747 z"
       id="path6"
       inkscape:connector-curvature="0" /><path
       d="M 94.247,30.747 C 94.663,30.37 95,30.519 95,31.074 v 42.4 c 0,0.554 -0.337,0.713 -0.753,0.326 L 71.777,52.826 c -0.406,-0.387 -0.406,-1.001 0.01,-1.387 l 22.46,-20.692 z"
       id="path8"
       inkscape:connector-curvature="0" /><path
       d="m 69.172,55.75 c -0.416,-0.377 -1.11,-0.377 -1.525,0 l -16.88,14.9 c -0.421,0.377 -1.114,0.377 -1.535,0 L 32.354,55.75 c -0.421,-0.377 -1.114,-0.377 -1.525,0 L 10.504,73.821 c -0.412,0.366 -0.303,0.673 0.262,0.673 h 38.168 c 0.564,0 1.046,0 1.065,0 0.019,0 0.5,0 1.064,0 h 38.171 c 0.564,0 0.673,-0.307 0.258,-0.673 L 69.172,55.75 z"
       id="path10"
       inkscape:connector-curvature="0" /><path
       d="m 51.063,25.506 c -0.564,0 -1.045,0 -1.064,0 -0.019,0 -0.501,0 -1.065,0 H 6.104 c -0.564,0 -0.684,0.307 -0.257,0.674 l 26.159,23.605 c 0.426,0.367 1.101,0.981 1.521,1.368 l 1.501,1.347 c 0.421,0.377 1.104,1.002 1.521,1.378 l 12.646,11.393 c 0.416,0.387 0.758,0.704 0.758,0.724 0,0.029 0.01,0.039 0.025,0.029 0.015,-0.019 0.024,-0.019 0.039,0 0.015,0.01 0.024,0 0.024,-0.029 0,-0.02 0.342,-0.337 0.759,-0.724 L 63.444,53.878 c 0.416,-0.376 1.1,-1.001 1.525,-1.378 l 1.496,-1.347 c 0.426,-0.387 1.101,-1.001 1.525,-1.368 L 94.148,26.18 c 0.426,-0.367 0.307,-0.674 -0.258,-0.674 H 51.063 z"
       id="path12"
       inkscape:connector-curvature="0" /></g></svg>