<?xml version="1.0" encoding="UTF-8"?>
<svg width="1200pt" height="1200pt" version="1.1" viewBox="0 0 1200 1200" xmlns="http://www.w3.org/2000/svg">
 <g fill="#010101">
  <path d="m825 0v145.31c0 60.059-23.438 116.61-65.762 158.93l-424.38 422.03c-67.094 66.949-104 154.84-108.11 248.73h-151.75l225 225 225-225h-148.38c3.9492-53.902 25.633-104 64.152-142.68l424.37-421.87c70.895-70.898 109.86-164.94 109.86-265.14v-145.31z"/>
  <path d="m973.25 975c-4.1055-93.887-41.16-181.78-108.25-249.02l-83.641-83.062-106.35 105.78 84.086 83.641c38.676 38.52 60.348 88.766 64.297 142.68h-148.38l225 224.99 225-225z"/>
 </g>
</svg>
