<?xml version="1.0" encoding="UTF-8" standalone="no"?>
<!-- Generator: Adobe Illustrator 15.0.0, SVG Export Plug-In . SVG Version: 6.00 Build 0)  -->

<svg
   xmlns:dc="http://purl.org/dc/elements/1.1/"
   xmlns:cc="http://creativecommons.org/ns#"
   xmlns:rdf="http://www.w3.org/1999/02/22-rdf-syntax-ns#"
   xmlns:svg="http://www.w3.org/2000/svg"
   xmlns="http://www.w3.org/2000/svg"
   xmlns:sodipodi="http://sodipodi.sourceforge.net/DTD/sodipodi-0.dtd"
   xmlns:inkscape="http://www.inkscape.org/namespaces/inkscape"
   version="1.1"
   id="Icons"
   x="0px"
   y="0px"
   width="100px"
   height="100px"
   viewBox="0 0 100 100"
   style="enable-background:new 0 0 100 100;"
   xml:space="preserve"
   inkscape:version="0.48.4 r9939"
   sodipodi:docname="github_alt.svg"><metadata
     id="metadata8"><rdf:RDF><cc:Work
         rdf:about=""><dc:format>image/svg+xml</dc:format><dc:type
           rdf:resource="http://purl.org/dc/dcmitype/StillImage" /></cc:Work></rdf:RDF></metadata><defs
     id="defs6" /><sodipodi:namedview
     pagecolor="#ffffff"
     bordercolor="#666666"
     borderopacity="1"
     objecttolerance="10"
     gridtolerance="10"
     guidetolerance="10"
     inkscape:pageopacity="0"
     inkscape:pageshadow="2"
     inkscape:window-width="1920"
     inkscape:window-height="1053"
     id="namedview4"
     showgrid="false"
     inkscape:zoom="14.276023"
     inkscape:cx="49.985851"
     inkscape:cy="49.985851"
     inkscape:window-x="1920"
     inkscape:window-y="0"
     inkscape:window-maximized="1"
     inkscape:current-layer="Icons" /><path
     id="Github__x28_alt_x29_"
     d="m 70.709,15.029 c 1.17,2.657 1.928,7.07 0.797,10.301 4.625,3.949 6.214,13.549 3.982,21.394 C 80.889192,46.176287 89.931,45.221145 95,48.505 90.262,47.265572 84.91176,46.560905 78.80076,47.467238 76.662095,47.826428 75.226285,47.493285 74.89,48.702 81.965,48.41743 88.994,49.862 94.803,51.675 89.042,50.804048 81.908905,49.58119 74.749905,49.451238 71.792905,55.286238 65.983,57.804 57.768,58.408 c 0.883,1.921 2.574,2.653 2.987,5.744 0.616,4.618 -0.964,11.381 0.595,14.459 0.748,1.475 1.967,1.514 2.789,2.775 -2.012,2.381 -7.001,-0.267 -7.568,-2.775 -0.973,-4.295 1.482,-10.954 -1.193,-13.865 0.189,4.684 -1.108,11.264 0.199,15.449 0.515,1.646 2.002,2.281 1.593,3.765 -9.352,0.95 -5.444,-12.104 -6.972,-19.809 -1.411,0.1 -0.791,2.113 -0.796,2.972 -0.04,7.524 1.54,17.844 -6.57,16.837 -0.237,-1.581 1.088,-2.119 1.593,-3.563 1.479,-4.234 -0.277,-10.542 0.401,-15.651 -3.095,2.333 0.325,10.48 -1.593,14.657 -1.105,2.404 -4.666,3.45 -7.367,2.377 0.352,-1.79 2.2,-1.501 2.984,-3.169 1.096,-2.325 0.008,-5.674 0.399,-9.111 -5.729,1.143 -10.173,-0.166 -12.348,-3.764 -0.973,-1.615 -1.214,-3.52 -2.39,-4.951 -1.17,-1.432 -3.04,-1.625 -3.582,-3.564 7.095,-1.708 7.367,7.302 13.739,7.525 1.954,0.071 2.97,-0.564 4.778,-0.989 0.506,-2.272 1.589,-3.966 3.186,-5.153 C 34.703,57.519 28.084952,55.540333 25.039952,49.590333 18.042095,49.034715 11.306,50.417 5.197,51.871 7.8000041,50.13719 17.581,47.874145 24.912,48.898 24.48,47.282665 21.323428,46.945952 18.131857,46.905857 13.342572,47.029809 8.473,47.853 5,48.505 10.034,46.219667 17.238095,45.042716 23.918,46.569762 21.832,40.029762 22.555,29.991 27.104,26.122 25.815,22.873 26.215,17.559 27.9,15.029 c 5.079,0.228 8.159,2.443 11.35,4.557 3.957,-1.125 8.118,-1.685 13.54,-1.387 2.28,0.126 4.652,1.151 6.369,0.989 1.685,-0.158 3.542,-2.049 5.178,-2.771 2.131,-0.941 3.934,-1.3 6.372,-1.388 z"
     inkscape:connector-curvature="0"
     sodipodi:nodetypes="cccccccccccccccccccccccccccccccccccccccccccc" /></svg>