<?xml version="1.0" encoding="UTF-8" standalone="no"?>
<!-- Generator: Adobe Illustrator 12.0.0, SVG Export Plug-In . SVG Version: 6.00 Build 51448)  -->
<svg xmlns:dc="http://purl.org/dc/elements/1.1/" xmlns:cc="http://creativecommons.org/ns#" xmlns:rdf="http://www.w3.org/1999/02/22-rdf-syntax-ns#" xmlns:svg="http://www.w3.org/2000/svg" xmlns="http://www.w3.org/2000/svg" xmlns:sodipodi="http://sodipodi.sourceforge.net/DTD/sodipodi-0.dtd" xmlns:inkscape="http://www.inkscape.org/namespaces/inkscape" version="1.0" id="Layer_1" sodipodi:modified="true" inkscape:version="0.47pre4 " sodipodi:version="0.32" sodipodi:docname="Courier.svg" inkscape:output_extension="org.inkscape.output.svg.inkscape" width="400" height="450" viewBox="-3.033 -0.385 400 450" overflow="visible" enable-background="new -3.033 -0.385 405 250" xml:space="preserve" style="overflow:visible"><metadata id="metadata3561"><rdf:RDF><cc:Work rdf:about=""><dc:format>image/svg+xml</dc:format><dc:type rdf:resource="http://purl.org/dc/dcmitype/StillImage"/><dc:title/></cc:Work></rdf:RDF></metadata><defs id="defs3559"><inkscape:perspective sodipodi:type="inkscape:persp3d" inkscape:vp_x="0 : 125 : 1" inkscape:vp_y="0 : 1000 : 0" inkscape:vp_z="405 : 125 : 1" inkscape:persp3d-origin="202.5 : 83.333333 : 1" id="perspective3563"/><inkscape:perspective id="perspective3955" inkscape:persp3d-origin="0.5 : 0.33333333 : 1" inkscape:vp_z="1 : 0.5 : 1" inkscape:vp_y="0 : 1000 : 0" inkscape:vp_x="0 : 0.5 : 1" sodipodi:type="inkscape:persp3d"/><inkscape:perspective id="perspective4001" inkscape:persp3d-origin="0.5 : 0.33333333 : 1" inkscape:vp_z="1 : 0.5 : 1" inkscape:vp_y="0 : 1000 : 0" inkscape:vp_x="0 : 0.5 : 1" sodipodi:type="inkscape:persp3d"/><inkscape:perspective id="perspective5023" inkscape:persp3d-origin="0.5 : 0.33333333 : 1" inkscape:vp_z="1 : 0.5 : 1" inkscape:vp_y="0 : 1000 : 0" inkscape:vp_x="0 : 0.5 : 1" sodipodi:type="inkscape:persp3d"/></defs>
<sodipodi:namedview height="250px" width="400px" id="base" objecttolerance="10.0" inkscape:pageopacity="0.0" inkscape:pageshadow="2" inkscape:window-height="874" inkscape:window-width="1360" inkscape:current-layer="Layer_1" inkscape:window-x="76" inkscape:window-y="-4" inkscape:cy="105.80508" inkscape:cx="90.50665" gridtolerance="10.0" borderopacity="1.0" guidetolerance="10.0" pagecolor="#ffffff" inkscape:zoom="3.1249215" bordercolor="#666666" showgrid="true" inkscape:window-maximized="0">
	<inkscape:grid type="xygrid" id="grid3941" empspacing="5" visible="true" enabled="true" snapvisiblegridlinesonly="true"/></sodipodi:namedview>


<path style="fill:#e9e5cd;fill-opacity:1;stroke:none" d="m -3.033,-0.38499999 400,0 0,349.99999999 -400,0 0,-349.99999999 z" id="rect3943"/><g style="font-size:40px;font-style:normal;font-variant:normal;font-weight:normal;font-stretch:normal;text-align:start;line-height:100%;writing-mode:lr-tb;text-anchor:start;fill:#000000;fill-opacity:1;stroke:none;font-family:Courier New;-inkscape-font-specification:Courier New" id="text3937"><path d="m 41.185749,29.009533 0,-1.152344 c -1.9e-5,-0.390603 0.07485,-0.67055 0.224609,-0.839844 0.14972,-0.169248 0.348288,-0.253883 0.595704,-0.253906 0.247375,2.3e-5 0.445943,0.08466 0.595703,0.253906 0.149718,0.169294 0.224588,0.449241 0.224609,0.839844 l 0,4.550781 c -2.1e-5,0.403663 -0.07489,0.690121 -0.224609,0.859375 -0.14976,0.169287 -0.348328,0.253923 -0.595703,0.253907 -0.221374,1.6e-5 -0.406921,-0.07811 -0.556641,-0.234375 -0.149759,-0.156234 -0.23765,-0.41014 -0.263672,-0.761719 -0.06512,-1.093732 -0.657571,-2.063783 -1.777344,-2.910156 -1.510432,-1.158833 -3.229181,-1.73826 -5.15625,-1.738282 -1.263032,2.2e-5 -2.454437,0.27997 -3.574218,0.839844 -0.833342,0.403667 -1.497403,0.898458 -1.992188,1.484375 -0.859381,1.015644 -1.542974,2.141945 -2.050781,3.378906 -0.364588,0.911474 -0.546879,1.940119 -0.546875,3.085938 l 0,2.871094 c -4e-6,2.447924 0.885411,4.573573 2.65625,6.376953 1.770825,1.803387 3.828114,2.705079 6.171875,2.705078 1.406235,1e-6 2.666,-0.305988 3.779297,-0.917969 1.113263,-0.611976 2.190736,-1.536455 3.232422,-2.773437 0.221334,-0.273433 0.468729,-0.410151 0.742187,-0.410157 0.234354,6e-6 0.423156,0.07162 0.566406,0.214844 0.143208,0.143234 0.214823,0.325526 0.214844,0.546875 -2.1e-5,0.299483 -0.279969,0.755212 -0.839844,1.367188 -1.067728,1.197918 -2.268898,2.09961 -3.603515,2.705078 -1.334651,0.605468 -2.685562,0.908202 -4.052735,0.908203 -1.184907,-10e-7 -2.389333,-0.227865 -3.613281,-0.683594 C 30.404491,49.224377 29.629752,48.814221 29.01778,48.34547 28.405795,47.876722 27.653842,47.085707 26.761921,45.972424 25.86999,44.859147 25.261267,43.830502 24.935749,42.886486 24.610226,41.942483 24.447465,40.904073 24.447468,39.771252 l 0,-3.339844 c -3e-6,-1.614569 0.43294,-3.264958 1.298828,-4.951172 0.865881,-1.686178 2.050775,-2.98175 3.554687,-3.886719 1.503898,-0.904925 3.134756,-1.357398 4.892579,-1.357422 2.708318,2.4e-5 5.039045,0.924502 6.992187,2.773438 z" style="" id="path5031"/><path d="m 67.123249,41.197033 c -2.1e-5,2.500006 -0.895203,4.63542 -2.685547,6.40625 -1.790381,1.770834 -3.948582,2.656249 -6.474609,2.65625 -2.552093,-10e-7 -4.72006,-0.888672 -6.503906,-2.666016 -1.783858,-1.77734 -2.675785,-3.909499 -2.675782,-6.396484 -3e-6,-2.499989 0.891924,-4.638659 2.675782,-6.416016 1.783846,-1.777327 3.951813,-2.665998 6.503906,-2.666015 2.526027,1.7e-5 4.684228,0.885433 6.474609,2.65625 1.790344,1.770846 2.685526,3.912771 2.685547,6.425781 z m -1.660156,0 c -2e-5,-2.057281 -0.732441,-3.808582 -2.197266,-5.253906 -1.464859,-1.445298 -3.238946,-2.167953 -5.322265,-2.167969 -2.083344,1.6e-5 -3.85743,0.725927 -5.322266,2.177734 -1.464849,1.451835 -2.19727,3.199881 -2.197266,5.244141 -4e-6,2.031256 0.732417,3.776046 2.197266,5.234375 1.464836,1.458335 3.238922,2.187501 5.322266,2.1875 2.083319,1e-6 3.857406,-0.72591 5.322265,-2.177734 1.464825,-1.451819 2.197246,-3.199864 2.197266,-5.244141 z" style="" id="path5033"/><path d="m 87.552937,49.615002 0,-2.402344 c -2.239599,2.03125 -4.661472,3.046874 -7.265625,3.046875 -1.601572,-10e-7 -2.819018,-0.436198 -3.652344,-1.308594 -1.080735,-1.145831 -1.621099,-2.480465 -1.621094,-4.003906 l 0,-10.585938 -2.207031,0 c -0.390628,1.6e-5 -0.670575,-0.07811 -0.839844,-0.234375 -0.169273,-0.156234 -0.253908,-0.358057 -0.253906,-0.605468 -2e-6,-0.234359 0.08463,-0.429671 0.253906,-0.585938 0.169269,-0.156233 0.449216,-0.234358 0.839844,-0.234375 l 3.847656,0 0,12.246094 c -7e-6,1.067712 0.338535,1.946617 1.015625,2.636719 0.677075,0.690105 1.523428,1.035157 2.539063,1.035156 2.669257,1e-6 5.117172,-1.223956 7.34375,-3.671875 l 0,-10.585938 -3.027344,0 c -0.390639,1.6e-5 -0.670587,-0.07811 -0.839844,-0.234375 -0.169284,-0.156234 -0.25392,-0.358057 -0.253906,-0.605468 -1.4e-5,-0.234359 0.08462,-0.429671 0.253906,-0.585938 0.169257,-0.156233 0.449205,-0.234358 0.839844,-0.234375 l 4.667969,0 0,15.273438 1.386718,0 c 0.390604,1e-6 0.670552,0.07487 0.839844,0.224609 0.169249,0.149741 0.253885,0.348308 0.253906,0.595703 -2.1e-5,0.234376 -0.08466,0.429688 -0.253906,0.585938 -0.169292,0.15625 -0.44924,0.234375 -0.839844,0.234375 z" style="" id="path5035"/><path d="m 103.95919,32.700939 0,4.140625 c 2.1354,-1.927068 3.73371,-3.167302 4.79492,-3.720703 1.06118,-0.553368 2.041,-0.830061 2.93945,-0.830078 0.97655,1.7e-5 1.88475,0.328793 2.72461,0.986328 0.83982,0.657568 1.25974,1.155614 1.25977,1.494141 -3e-5,0.24741 -0.0814,0.452488 -0.24414,0.615234 -0.16279,0.162775 -0.36786,0.244155 -0.61524,0.244141 -0.13023,1.4e-5 -0.2409,-0.02277 -0.33203,-0.06836 -0.0912,-0.04556 -0.26044,-0.192043 -0.50781,-0.439453 -0.45575,-0.455714 -0.85289,-0.768214 -1.19141,-0.9375 -0.33856,-0.169255 -0.67059,-0.25389 -0.99609,-0.253906 -0.71617,1.6e-5 -1.57879,0.286474 -2.58789,0.859375 -1.00913,0.572931 -2.75718,1.972669 -5.24414,4.199219 l 0,8.984375 7.26562,0 c 0.40363,1e-6 0.69009,0.07487 0.85938,0.224609 0.16925,0.149741 0.25388,0.348308 0.2539,0.595703 -2e-5,0.234376 -0.0846,0.429688 -0.2539,0.585938 -0.16929,0.15625 -0.45575,0.234375 -0.85938,0.234375 l -12.871092,0 c -0.390629,0 -0.670577,-0.07487 -0.839844,-0.22461 -0.169274,-0.149739 -0.25391,-0.341796 -0.253906,-0.576172 -4e-6,-0.221353 0.08138,-0.406899 0.24414,-0.55664 0.162757,-0.149738 0.44596,-0.224608 0.84961,-0.22461 l 3.964842,0 0,-13.671875 -3.027342,0 c -0.39063,1.6e-5 -0.670578,-0.07811 -0.839844,-0.234375 -0.169275,-0.156234 -0.25391,-0.358057 -0.253906,-0.605468 -4e-6,-0.234359 0.08138,-0.429671 0.24414,-0.585938 0.162756,-0.156233 0.445959,-0.234358 0.84961,-0.234375 z" style="" id="path5037"/><path d="m 130.717,24.28297 0,4.238282 -2.42188,0 0,-4.238282 z m 0.0586,8.417969 0,15.273438 6.44532,0 c 0.40362,1e-6 0.69008,0.07487 0.85937,0.224609 0.16925,0.149741 0.25389,0.348308 0.25391,0.595703 -2e-5,0.234376 -0.0847,0.429688 -0.25391,0.585938 -0.16929,0.15625 -0.45575,0.234375 -0.85937,0.234375 l -14.53125,0 c -0.39063,0 -0.67058,-0.07813 -0.83985,-0.234375 -0.16927,-0.15625 -0.25391,-0.351562 -0.2539,-0.585938 -1e-5,-0.247395 0.0846,-0.445962 0.2539,-0.595703 0.16927,-0.149738 0.44922,-0.224608 0.83985,-0.224609 l 6.44531,0 0,-13.613282 -4.78516,0 c -0.39063,1.6e-5 -0.67383,-0.07811 -0.84961,-0.234375 -0.17578,-0.156234 -0.26368,-0.351546 -0.26367,-0.585937 -1e-5,-0.24738 0.0846,-0.449202 0.25391,-0.605469 0.16926,-0.156233 0.45572,-0.234358 0.85937,-0.234375 z" style="" id="path5039"/><path d="m 162.76778,41.548595 -16.71875,0 c 0.28645,2.122402 1.17513,3.831385 2.66602,5.126954 1.49087,1.295574 3.33657,1.94336 5.53711,1.943359 1.22394,1e-6 2.50649,-0.201822 3.84765,-0.605469 1.34113,-0.403644 2.43488,-0.937497 3.28125,-1.601562 0.24738,-0.195309 0.46222,-0.292966 0.64453,-0.292969 0.20832,3e-6 0.39061,0.08138 0.54688,0.244141 0.15623,0.162763 0.23435,0.35482 0.23437,0.576171 -2e-5,0.221357 -0.10418,0.436201 -0.3125,0.644532 -0.62502,0.651043 -1.73504,1.259766 -3.33008,1.826172 -1.59506,0.566405 -3.23243,0.849608 -4.9121,0.849609 -2.81251,-10e-7 -5.15952,-0.921224 -7.04102,-2.763672 -1.88151,-1.842444 -2.82227,-4.072259 -2.82227,-6.689453 0,-2.382801 0.88216,-4.42707 2.64649,-6.132813 1.76431,-1.705712 3.94856,-2.558576 6.55273,-2.558593 2.68228,1.7e-5 4.88931,0.875667 6.6211,2.626953 1.73175,1.751315 2.58461,4.020193 2.55859,6.80664 z m -1.66016,-1.660156 c -0.32554,-1.809884 -1.18165,-3.281237 -2.56836,-4.414062 -1.38673,-1.132798 -3.03712,-1.699203 -4.95117,-1.699219 -1.91407,1.6e-5 -3.5612,0.559911 -4.9414,1.679687 -1.38022,1.119805 -2.23959,2.597668 -2.57813,4.433594 z" style="" id="path5041"/><path d="m 175.91231,32.700939 0,4.140625 c 2.13541,-1.927068 3.73371,-3.167302 4.79492,-3.720703 1.06119,-0.553368 2.041,-0.830061 2.93946,-0.830078 0.97654,1.7e-5 1.88474,0.328793 2.72461,0.986328 0.83982,0.657568 1.25974,1.155614 1.25976,1.494141 -2e-5,0.24741 -0.0814,0.452488 -0.24414,0.615234 -0.16278,0.162775 -0.36786,0.244155 -0.61523,0.244141 -0.13023,1.4e-5 -0.24091,-0.02277 -0.33203,-0.06836 -0.0912,-0.04556 -0.26044,-0.192043 -0.50782,-0.439453 -0.45575,-0.455714 -0.85288,-0.768214 -1.1914,-0.9375 -0.33856,-0.169255 -0.67059,-0.25389 -0.9961,-0.253906 -0.71616,1.6e-5 -1.57879,0.286474 -2.58789,0.859375 -1.00913,0.572931 -2.75717,1.972669 -5.24414,4.199219 l 0,8.984375 7.26563,0 c 0.40362,1e-6 0.69008,0.07487 0.85937,0.224609 0.16925,0.149741 0.25389,0.348308 0.25391,0.595703 -2e-5,0.234376 -0.0847,0.429688 -0.25391,0.585938 -0.16929,0.15625 -0.45575,0.234375 -0.85937,0.234375 l -12.8711,0 c -0.39063,0 -0.67057,-0.07487 -0.83984,-0.22461 -0.16928,-0.149739 -0.25391,-0.341796 -0.25391,-0.576172 0,-0.221353 0.0814,-0.406899 0.24414,-0.55664 0.16276,-0.149738 0.44596,-0.224608 0.84961,-0.22461 l 3.96485,0 0,-13.671875 -3.02735,0 c -0.39063,1.6e-5 -0.67057,-0.07811 -0.83984,-0.234375 -0.16928,-0.156234 -0.25391,-0.358057 -0.25391,-0.605468 0,-0.234359 0.0814,-0.429671 0.24414,-0.585938 0.16276,-0.156233 0.44596,-0.234358 0.84961,-0.234375 z" style="" id="path5043"/></g>
<path style="fill:#dab144;fill-opacity:1;stroke:none" d="m -3.033,299.61499 400,0 0,150 -400,0 0,-150 z" id="rect3945"/><g style="font-size:40px;font-style:normal;font-variant:normal;font-weight:bold;font-stretch:normal;text-align:center;line-height:125%;writing-mode:lr-tb;text-anchor:middle;fill:#000000;fill-opacity:1;stroke:none;font-family:Courier New;-inkscape-font-specification:Courier New Bold" id="text3961"><path d="m 43.314655,118.16969 -9.726562,0 -0.976563,2.4414 0.976563,0 c 0.963533,10e-6 1.650382,0.18555 2.060547,0.55664 0.410146,0.3711 0.615224,0.85612 0.615234,1.45508 -1e-5,0.58594 -0.205088,1.06445 -0.615234,1.43555 -0.410165,0.37109 -1.097014,0.55664 -2.060547,0.55664 l -5.390625,0 c -0.963543,0 -1.650391,-0.18555 -2.060547,-0.55664 -0.410156,-0.3711 -0.615234,-0.85612 -0.615234,-1.45508 0,-0.59896 0.214844,-1.08724 0.644531,-1.46484 0.429687,-0.3776 1.139322,-0.55339 2.128906,-0.52735 l 6.289063,-15.66406 -2.617188,0 c -0.963546,2e-5 -1.650394,-0.18553 -2.060547,-0.55664 -0.410159,-0.37107 -0.615237,-0.8561 -0.615234,-1.45508 -3e-6,-0.59894 0.205075,-1.08396 0.615234,-1.45508 0.410153,-0.37107 1.097001,-0.55661 2.060547,-0.55664 l 8.652344,0.0195 7.96875,19.66797 c 0.937477,10e-6 1.555966,0.10417 1.855469,0.3125 0.598933,0.42969 0.898412,0.9961 0.898437,1.69922 -2.5e-5,0.58594 -0.201848,1.06445 -0.605469,1.43555 -0.403669,0.37109 -1.087263,0.55664 -2.050781,0.55664 l -5.390625,0 c -0.963558,0 -1.650406,-0.18555 -2.060547,-0.55664 -0.41017,-0.3711 -0.615248,-0.85612 -0.615234,-1.45508 -1.4e-5,-0.58594 0.205064,-1.06445 0.615234,-1.43555 0.410141,-0.37109 1.096989,-0.55663 2.060547,-0.55664 l 0.976563,0 z m -1.660156,-4.00391 -3.222656,-7.92969 -3.242188,7.92969 z" style="" id="path5047"/><path d="m 66.009968,124.615 0,-0.9375 c -1.002619,0.53385 -2.109389,0.93424 -3.320313,1.20117 -1.210948,0.26693 -2.311208,0.40039 -3.300781,0.40039 -2.148444,0 -3.893234,-0.56966 -5.234375,-1.70898 -1.341148,-1.13932 -2.01172,-2.39909 -2.011719,-3.7793 -1e-6,-1.67968 0.856118,-3.23893 2.56836,-4.67774 1.712233,-1.43879 4.078767,-2.15819 7.099609,-2.1582 1.210925,10e-6 2.610663,0.13022 4.199219,0.39063 l 0,-0.95703 c -1.6e-5,-0.59895 -0.257177,-1.08723 -0.771485,-1.46485 -0.514337,-0.37759 -1.494154,-0.56639 -2.939453,-0.5664 -1.184906,1e-5 -2.721363,0.23438 -4.609375,0.70312 -0.703131,0.16928 -1.250006,0.25392 -1.640625,0.25391 -0.533859,10e-6 -0.986332,-0.19205 -1.357422,-0.57618 -0.371097,-0.3841 -0.556644,-0.87563 -0.55664,-1.4746 -4e-6,-0.33853 0.0651,-0.6315 0.195312,-0.87891 0.130205,-0.24738 0.312496,-0.44595 0.546875,-0.5957 0.234371,-0.14973 0.722651,-0.32876 1.464844,-0.53711 0.989576,-0.27342 1.99869,-0.49152 3.027344,-0.6543 1.028636,-0.16274 1.959624,-0.24412 2.792969,-0.24414 2.486964,2e-5 4.417301,0.53713 5.791015,1.61133 1.373679,1.07423 2.060527,2.54233 2.060547,4.40429 l 0,8.24219 0.683594,0 c 0.96352,10e-6 1.650368,0.18555 2.060547,0.55664 0.410133,0.3711 0.615211,0.85612 0.615234,1.45508 -2.3e-5,0.58594 -0.205101,1.06445 -0.615234,1.43555 -0.410179,0.37109 -1.097027,0.55664 -2.060547,0.55664 z m 0,-7.16797 c -1.601577,-0.31249 -3.07944,-0.46874 -4.433594,-0.46875 -1.627614,1e-5 -3.027352,0.39714 -4.199219,1.19141 -0.729173,0.50781 -1.093756,1.02214 -1.09375,1.54296 -6e-6,0.37761 0.175775,0.6836 0.527344,0.91797 0.651035,0.42969 1.542961,0.64454 2.675781,0.64453 0.963532,1e-5 2.054026,-0.18879 3.271485,-0.5664 1.217434,-0.3776 2.301417,-0.89192 3.251953,-1.54297 z" style="" id="path5049"/></g>
<g style="font-size:40px;font-style:normal;font-variant:normal;font-weight:bold;font-stretch:normal;text-align:center;line-height:125%;writing-mode:lr-tb;text-anchor:middle;fill:#000000;fill-opacity:1;stroke:none;font-family:Courier New;-inkscape-font-specification:Courier New Bold" id="text3965"><path d="m 105.87247,114.73219 0,5.8789 10.21484,0 0,-2.16797 c -2e-5,-0.96353 0.18553,-1.65038 0.55664,-2.06054 0.37108,-0.41015 0.8561,-0.61523 1.45508,-0.61524 0.58592,10e-6 1.06443,0.20509 1.43555,0.61524 0.37107,0.41016 0.55661,1.09701 0.55664,2.06054 l 0,6.17188 -18.84766,0 c -0.96354,0 -1.650391,-0.18555 -2.060546,-0.55664 -0.410157,-0.3711 -0.615235,-0.85612 -0.615234,-1.45508 -10e-7,-0.58594 0.208332,-1.06445 0.625,-1.43555 0.416665,-0.37109 1.10026,-0.55663 2.05078,-0.55664 l 0.625,0 0,-15.66406 -0.625,0 c -0.96354,2e-5 -1.650391,-0.18553 -2.060546,-0.55664 -0.410157,-0.37107 -0.615235,-0.8561 -0.615234,-1.45508 -10e-7,-0.59894 0.205077,-1.08396 0.615234,-1.45508 0.410155,-0.37107 1.097006,-0.55661 2.060546,-0.55664 l 17.96875,0.0195 0,6.09375 c -2e-5,0.95054 -0.18231,1.63088 -0.54687,2.04102 -0.36461,0.41017 -0.84638,0.61525 -1.44532,0.61523 -0.59897,2e-5 -1.084,-0.2018 -1.45507,-0.60547 -0.37112,-0.40363 -0.55666,-1.08722 -0.55665,-2.05078 l 0,-2.08984 -9.33593,0 0,5.78125 3.51562,0 c -1e-5,-1.04165 0.0977,-1.71222 0.29297,-2.01172 0.40363,-0.638 0.97655,-0.95701 1.71875,-0.95703 0.58592,2e-5 1.06444,0.20509 1.43555,0.61523 0.37108,0.41018 0.55662,1.09702 0.55664,2.06055 l 0,4.60938 c -2e-5,0.8724 -0.10418,1.45834 -0.3125,1.75781 -0.41668,0.61198 -0.97658,0.91797 -1.67969,0.91797 -0.7422,0 -1.31512,-0.31901 -1.71875,-0.95703 -0.19532,-0.29948 -0.29298,-0.97656 -0.29297,-2.03125 z" style="" id="path5052"/><path d="m 144.017,117.77906 -16.42578,0 c 0.41666,1.04167 1.15559,1.88152 2.21679,2.51953 1.06119,0.63803 2.49674,0.95704 4.30664,0.95703 1.48437,1e-5 3.45702,-0.319 5.91797,-0.95703 1.01561,-0.26041 1.71873,-0.39062 2.10938,-0.39062 0.53383,0 0.98305,0.1888 1.34765,0.5664 0.36457,0.37761 0.54686,0.85287 0.54688,1.42578 -2e-5,0.52084 -0.19533,0.96355 -0.58594,1.32813 -0.52085,0.48177 -1.79038,0.94075 -3.80859,1.37695 -2.01825,0.4362 -3.95835,0.6543 -5.82031,0.6543 -3.20314,0 -5.76498,-0.90495 -7.68555,-2.71484 -1.92058,-1.8099 -2.88086,-4.03646 -2.88086,-6.67969 0,-2.81249 1.03841,-5.1009 3.11523,-6.86524 2.07682,-1.7643 4.4694,-2.64646 7.17774,-2.64648 1.62759,2e-5 3.12173,0.28648 4.48242,0.85937 1.36066,0.57294 2.37303,1.19143 3.03711,1.85547 0.93748,0.96356 1.71222,2.15496 2.32422,3.57422 0.41664,0.9896 0.62498,2.13543 0.625,3.4375 z m -4.4336,-4.00391 c -0.61199,-1.14582 -1.41277,-2.00194 -2.40234,-2.56836 -0.9896,-0.56639 -2.16798,-0.84959 -3.53516,-0.8496 -1.35417,1e-5 -2.52605,0.28321 -3.51562,0.8496 -0.98959,0.56642 -1.79688,1.42254 -2.42188,2.56836 z" style="" id="path5054"/></g>
<g style="font-size:40px;font-style:normal;font-variant:normal;font-weight:bold;font-stretch:normal;text-align:center;line-height:125%;writing-mode:lr-tb;text-anchor:middle;fill:#000000;fill-opacity:1;stroke:none;font-family:Courier New;-inkscape-font-specification:Courier New Bold" id="text3969"><path d="m 182.24043,125.16187 -0.11718,0.17578 c 1.38019,0 2.67576,0.27995 3.88671,0.83985 0.49478,0.23437 0.90493,0.35156 1.23047,0.35156 0.46873,0 1.04165,-0.22136 1.71875,-0.66406 0.67707,-0.44271 1.21092,-0.66407 1.60157,-0.66406 0.55987,-1e-5 1.03187,0.19205 1.41601,0.57617 0.38409,0.38411 0.57615,0.86263 0.57617,1.43554 -2e-5,0.6901 -0.35809,1.28906 -1.07422,1.79688 -1.41929,1.01562 -2.84507,1.52343 -4.27734,1.52344 -0.72918,-1e-5 -1.46486,-0.14324 -2.20703,-0.42969 -1.19793,-0.46876 -2.14845,-0.70313 -2.85156,-0.70313 -1.13283,0 -2.85809,0.29297 -5.17578,0.87891 -0.48178,0.11718 -0.85939,0.17578 -1.13282,0.17578 -0.50782,0 -0.95378,-0.19857 -1.33789,-0.5957 -0.38412,-0.39714 -0.57617,-0.89519 -0.57617,-1.49414 0,-0.52084 0.26041,-1.03516 0.78125,-1.54297 l 2.55859,-2.48047 c -2.10938,-0.91146 -3.83138,-2.39583 -5.16601,-4.45312 -1.33464,-2.05729 -2.00196,-4.42708 -2.00195,-7.10938 -1e-5,-3.88019 1.33463,-7.04425 4.0039,-9.49219 2.13541,-1.96612 4.53775,-2.94919 7.20703,-2.94922 2.68228,3e-5 5.09113,0.9831 7.22657,2.94922 2.66924,2.44794 4.00388,5.612 4.0039,9.49219 -2e-5,3.33334 -1.00914,6.16212 -3.02734,8.48633 -2.01825,2.32422 -4.44012,3.62305 -7.26563,3.89648 z m 6.28907,-12.38281 c -2e-5,-2.43488 -0.7357,-4.44985 -2.20704,-6.04492 -1.47137,-1.59503 -3.14454,-2.39256 -5.01953,-2.39258 -1.86199,2e-5 -3.52865,0.8008 -5,2.40234 -1.47136,1.60158 -2.20703,3.6133 -2.20703,6.03516 0,2.42188 0.73567,4.43035 2.20703,6.02539 1.47135,1.59506 3.13801,2.39258 5,2.39258 1.87499,0 3.54816,-0.79427 5.01953,-2.38281 1.47134,-1.58854 2.20702,-3.60025 2.20704,-6.03516 z" style="" id="path5057"/><path d="m 214.58418,110.88453 0,18.08594 0.70313,0 c 0.9505,-1e-5 1.63083,0.18554 2.04101,0.55664 0.41014,0.37109 0.61521,0.85611 0.61524,1.45508 -3e-5,0.58593 -0.20185,1.06444 -0.60547,1.43554 -0.40367,0.37109 -1.08726,0.55663 -2.05078,0.55664 l -7.08985,0 c -0.96355,-1e-5 -1.6504,-0.18555 -2.06054,-0.55664 -0.41017,-0.3711 -0.61525,-0.84961 -0.61524,-1.43554 -1e-5,-0.59897 0.20507,-1.08399 0.61524,-1.45508 0.41014,-0.3711 1.09699,-0.55665 2.06054,-0.55664 l 2.38282,0 0,-6.5625 c -0.97658,0.59896 -1.96942,1.04817 -2.97852,1.34765 -1.00913,0.29948 -2.02801,0.44922 -3.05664,0.44922 -2.38282,0 -4.52475,-0.71614 -6.42578,-2.14844 -2.27865,-1.71874 -3.41797,-3.89973 -3.41797,-6.54296 0,-2.39583 0.96354,-4.52148 2.89063,-6.37696 1.92707,-1.85545 4.26431,-2.78318 7.01171,-2.7832 1.05468,2e-5 2.08007,0.15627 3.07618,0.46875 0.99607,0.31252 1.96287,0.78778 2.90039,1.42578 l 0,-1.36719 4.70703,0 c 0.9505,2e-5 1.63083,0.18557 2.04101,0.55664 0.41014,0.37111 0.61521,0.85614 0.61524,1.45508 -3e-5,0.58595 -0.20185,1.06447 -0.60547,1.43555 -0.40367,0.37111 -1.08726,0.55665 -2.05078,0.55664 z m -4.0039,4.64844 c -2e-5,-0.55989 -0.22137,-1.27278 -0.66407,-2.13868 -0.44272,-0.86587 -1.12631,-1.58852 -2.05078,-2.16796 -0.92449,-0.57942 -1.99871,-0.86913 -3.22265,-0.86914 -2.00522,1e-5 -3.58725,0.74871 -4.7461,2.24609 -0.79427,1.02866 -1.19141,2.01824 -1.1914,2.96875 -10e-6,1.08074 0.56965,2.1224 1.70898,3.125 1.13932,1.00261 2.54882,1.50391 4.22852,1.50391 1.69269,0 3.10545,-0.5013 4.23828,-1.50391 1.13279,-1.0026 1.6992,-2.05728 1.69922,-3.16406 z" style="" id="path5059"/></g>



<g style="font-size:223.53553772px;font-style:normal;font-variant:normal;font-weight:bold;font-stretch:normal;text-align:start;line-height:100%;writing-mode:lr-tb;text-anchor:start;fill:#ffffff;fill-opacity:1;stroke:none;font-family:Adobe Jenson Pro;-inkscape-font-specification:Courier New Bold" id="text3989"><path d="m 334.17642,174.61501 0,-5.23912 c -5.60302,2.98339 -11.78808,5.22092 -18.55519,6.71262 -6.76725,1.49169 -12.91593,2.23753 -18.44605,2.23753 -12.00634,0 -21.7569,-3.18349 -29.25172,-9.55046 -7.49486,-6.36697 -11.24228,-13.40702 -11.24227,-21.12018 -1e-5,-9.38671 4.78432,-18.10037 14.35299,-26.141 9.56863,-8.04052 22.79374,-12.06081 39.67538,-12.06088 6.76712,7e-5 14.5894,0.72772 23.46686,2.18297 l 0,-5.34827 c -8e-5,-3.34714 -1.4372,-6.07584 -4.31135,-8.186111 -2.87432,-2.11012 -8.34991,-3.165218 -16.42681,-3.165298 -6.62171,8e-5 -15.20803,1.309857 -25.75897,3.929336 -3.92938,0.946025 -6.98552,1.419003 -9.16845,1.418923 -2.98342,8e-5 -5.51201,-1.073212 -7.5858,-3.219869 -2.07384,-2.146502 -3.11075,-4.893396 -3.11073,-8.24069 -2e-5,-1.891815 0.36381,-3.529036 1.09148,-4.911669 0.72764,-1.382452 1.74635,-2.492125 3.05615,-3.329021 1.30976,-0.836708 4.03846,-1.837232 8.18612,-3.001576 5.53014,-1.527976 11.16946,-2.746797 16.91797,-3.656465 5.74842,-0.909467 10.95115,-1.36425 15.6082,-1.364353 13.89812,1.03e-4 24.68559,3.001675 32.36244,9.004728 7.67665,6.003239 11.51503,14.207538 11.51514,24.612925 l 0,46.06054 3.82019,0 c 5.38452,2e-5 9.2229,1.03693 11.51513,3.11073 2.29199,2.07383 3.43804,4.78434 3.43817,8.13154 -1.3e-4,3.27445 -1.14618,5.94858 -3.43817,8.02239 -2.29223,2.07382 -6.13061,3.11073 -11.51513,3.11073 z m 0,-40.0574 c -8.95023,-1.74633 -17.2091,-2.61951 -24.77664,-2.61956 -9.09574,5e-5 -16.91802,2.21939 -23.46687,6.65805 -4.0749,2.83788 -6.11233,5.71212 -6.1123,8.6227 -3e-5,2.11023 0.9823,3.82022 2.94701,5.12997 3.63823,2.40128 8.62266,3.60191 14.9533,3.60189 5.38459,2e-5 11.47869,-1.05508 18.28233,-3.1653 6.80349,-2.11017 12.86121,-4.98441 18.17317,-8.62271 z" style="text-align:end;line-height:100%;text-anchor:end;font-family:Courier New;-inkscape-font-specification:Courier New Bold" id="path5062"/></g>
<g style="font-size:72px;font-style:normal;font-variant:normal;font-weight:normal;font-stretch:normal;text-align:end;line-height:100%;writing-mode:lr-tb;text-anchor:end;fill:#dab144;fill-opacity:1;stroke:none;overflow:visible;font-family:Courier New;-inkscape-font-specification:Courier New" id="text3937-4"><path d="m 151.64478,236.4353 0,35.22657 7.66406,0 c 0.70309,0 1.207,0.13476 1.51172,0.40429 0.30465,0.26954 0.457,0.62696 0.45703,1.07227 -3e-5,0.42187 -0.15238,0.77344 -0.45703,1.05469 -0.30472,0.28125 -0.80863,0.42187 -1.51172,0.42187 l -18.31641,0 c -0.70314,0 -1.20704,-0.14062 -1.51172,-0.42187 -0.3047,-0.28125 -0.45704,-0.63282 -0.45703,-1.05469 -1e-5,-0.44531 0.15233,-0.80273 0.45703,-1.07227 0.30468,-0.26953 0.80858,-0.40429 1.51172,-0.40429 l 7.66406,0 0,-35.22657 -12.09375,0 0,10.23047 c 0,0.72659 -0.13477,1.24222 -0.40429,1.54688 -0.26954,0.30471 -0.62696,0.45705 -1.07227,0.45703 -0.42188,2e-5 -0.77344,-0.15232 -1.05469,-0.45703 -0.28125,-0.30466 -0.42188,-0.82029 -0.42187,-1.54688 l 0,-13.18359 33.08203,0 0,13.18359 c -4e-5,0.72659 -0.1348,1.24222 -0.4043,1.54688 -0.26957,0.30471 -0.62699,0.45705 -1.07226,0.45703 -0.44535,2e-5 -0.80277,-0.15232 -1.07227,-0.45703 -0.26956,-0.30466 -0.40433,-0.82029 -0.40429,-1.54688 l 0,-10.23047 z" style="" id="path5065"/><path d="m 183.63696,230.4939 0,18.17578 c 1.87499,-2.03904 3.67382,-3.47458 5.39649,-4.30664 1.72263,-0.832 3.65037,-1.24802 5.7832,-1.24805 2.29685,3e-5 4.24802,0.40433 5.85352,1.21289 1.60543,0.80862 2.94723,2.05081 4.02539,3.72656 1.07809,1.67581 1.61715,3.43948 1.61718,5.29102 l 0,18.31641 3.30469,0 c 0.72653,0 1.23629,0.13476 1.5293,0.40429 0.29293,0.26954 0.43941,0.62696 0.43945,1.07227 -4e-5,0.42187 -0.14652,0.77344 -0.43945,1.05469 -0.29301,0.28125 -0.80277,0.42187 -1.5293,0.42187 l -9.59765,0 c -0.72659,0 -1.24222,-0.14062 -1.54688,-0.42187 -0.30471,-0.28125 -0.45706,-0.63282 -0.45703,-1.05469 -3e-5,-0.44531 0.15232,-0.80273 0.45703,-1.07227 0.30466,-0.26953 0.82029,-0.40429 1.54688,-0.40429 l 3.30468,0 0,-18.10547 c -3e-5,-2.13279 -0.76761,-3.91404 -2.30273,-5.34375 -1.53519,-1.42966 -3.67386,-2.14451 -6.41602,-2.14453 -2.15627,2e-5 -3.99611,0.52737 -5.51953,1.58203 -1.10158,0.75002 -2.91798,2.51955 -5.44922,5.30859 l 0,18.70313 3.33985,0 c 0.70311,0 1.20701,0.13476 1.51172,0.40429 0.30467,0.26954 0.45701,0.62696 0.45703,1.07227 -2e-5,0.42187 -0.15236,0.77344 -0.45703,1.05469 -0.30471,0.28125 -0.80861,0.42187 -1.51172,0.42187 l -9.63282,0 c -0.70313,0 -1.20703,-0.14062 -1.51171,-0.42187 -0.3047,-0.28125 -0.45704,-0.63282 -0.45704,-1.05469 0,-0.44531 0.15234,-0.80273 0.45704,-1.07227 0.30468,-0.26953 0.80858,-0.40429 1.51171,-0.40429 l 3.33985,0 0,-38.17969 -3.97266,0 c -0.70313,4e-5 -1.20703,-0.14059 -1.51172,-0.42188 -0.30469,-0.28121 -0.45703,-0.64449 -0.45703,-1.08984 0,-0.42183 0.15234,-0.7734 0.45703,-1.05469 0.30469,-0.2812 0.80859,-0.42183 1.51172,-0.42187 z" style="" id="path5067"/><path d="m 237.98853,229.01733 0,7.62891 -4.35938,0 0,-7.62891 z m 0.10546,15.15235 0,27.49219 11.60157,0 c 0.72652,0 1.24215,0.13476 1.54687,0.40429 0.30465,0.26954 0.457,0.62696 0.45703,1.07227 -3e-5,0.42187 -0.15238,0.77344 -0.45703,1.05469 -0.30472,0.28125 -0.82035,0.42187 -1.54687,0.42187 l -26.15625,0 c -0.70314,0 -1.20704,-0.14062 -1.51172,-0.42187 -0.3047,-0.28125 -0.45704,-0.63282 -0.45703,-1.05469 -1e-5,-0.44531 0.15233,-0.80273 0.45703,-1.07227 0.30468,-0.26953 0.80858,-0.40429 1.51172,-0.40429 l 11.60156,0 0,-24.50391 -8.61328,0 c -0.70314,3e-5 -1.2129,-0.1406 -1.5293,-0.42188 -0.31641,-0.28122 -0.47462,-0.63278 -0.47461,-1.05468 -1e-5,-0.44529 0.15234,-0.80857 0.45703,-1.08985 0.30468,-0.28122 0.8203,-0.42184 1.54688,-0.42187 z" style="" id="path5069"/><path d="m 270.15649,244.16968 0,4.46484 c 2.06249,-2.08591 3.92577,-3.52731 5.58985,-4.32422 1.66404,-0.79684 3.53904,-1.19528 5.625,-1.19531 2.24997,3e-5 4.30075,0.4805 6.15234,1.44141 1.31247,0.70315 2.50192,1.86917 3.56836,3.49804 1.06637,1.62893 1.59958,3.29885 1.59961,5.00977 l 0,18.59766 2.49609,0 c 0.70309,0 1.207,0.13476 1.51172,0.40429 0.30465,0.26954 0.457,0.62696 0.45703,1.07227 -3e-5,0.42187 -0.15238,0.77344 -0.45703,1.05469 -0.30472,0.28125 -0.80863,0.42187 -1.51172,0.42187 l -7.91015,0 c -0.72659,0 -1.24222,-0.14062 -1.54688,-0.42187 -0.30471,-0.28125 -0.45706,-0.63282 -0.45703,-1.05469 -3e-5,-0.44531 0.15232,-0.80273 0.45703,-1.07227 0.30466,-0.26953 0.82029,-0.40429 1.54688,-0.40429 l 2.46094,0 0,-18.10547 c -4e-5,-2.08592 -0.76175,-3.84959 -2.28516,-5.29102 -1.52347,-1.44138 -3.56253,-2.16208 -6.11719,-2.16211 -1.94533,3e-5 -3.63283,0.39261 -5.0625,1.17774 -1.4297,0.78518 -3.46876,2.73635 -6.11719,5.85351 l 0,18.52735 3.33985,0 c 0.70311,0 1.20701,0.13476 1.51172,0.40429 0.30467,0.26954 0.45701,0.62696 0.45703,1.07227 -2e-5,0.42187 -0.15236,0.77344 -0.45703,1.05469 -0.30471,0.28125 -0.80861,0.42187 -1.51172,0.42187 l -9.63281,0 c -0.70313,0 -1.20704,-0.14062 -1.51172,-0.42187 -0.30469,-0.28125 -0.45704,-0.63282 -0.45703,-1.05469 -1e-5,-0.44531 0.15234,-0.80273 0.45703,-1.07227 0.30468,-0.26953 0.80859,-0.40429 1.51172,-0.40429 l 3.33984,0 0,-24.50391 -2.49609,0 c -0.70314,3e-5 -1.20704,-0.1406 -1.51172,-0.42188 -0.3047,-0.28122 -0.45704,-0.6445 -0.45703,-1.08984 -1e-5,-0.42185 0.15233,-0.77341 0.45703,-1.05469 0.30468,-0.28122 0.80858,-0.42184 1.51172,-0.42187 z" style="" id="path5071"/><path d="m 316.87915,261.46655 0,13.14844 -6.92578,0 c -0.70313,0 -1.20704,-0.14062 -1.51172,-0.42187 -0.30469,-0.28125 -0.45704,-0.63282 -0.45703,-1.05469 -1e-5,-0.44531 0.15234,-0.80273 0.45703,-1.07227 0.30468,-0.26953 0.80859,-0.40429 1.51172,-0.40429 l 3.97266,0 0,-38.17969 -3.97266,0 c -0.70313,4e-5 -1.20704,-0.14059 -1.51172,-0.42188 -0.30469,-0.28121 -0.45704,-0.64449 -0.45703,-1.08984 -1e-5,-0.42183 0.15234,-0.7734 0.45703,-1.05469 0.30468,-0.2812 0.80859,-0.42183 1.51172,-0.42187 l 6.92578,0 0,27.21093 12.55078,-10.54687 -1.51172,0 c -0.70315,3e-5 -1.20705,-0.1406 -1.51172,-0.42188 -0.30471,-0.28122 -0.45705,-0.63278 -0.45703,-1.05468 -2e-5,-0.44529 0.15232,-0.80857 0.45703,-1.08985 0.30467,-0.28122 0.80857,-0.42184 1.51172,-0.42187 l 9.45703,0 c 0.72653,3e-5 1.24215,0.14065 1.54688,0.42187 0.30465,0.28128 0.45699,0.64456 0.45703,1.08985 -4e-5,0.4219 -0.15238,0.77346 -0.45703,1.05468 -0.30473,0.28128 -0.82035,0.42191 -1.54688,0.42188 l -3.41015,0 -11.53125,9.63281 14.58984,14.8711 3.41016,0 c 0.72652,0 1.24214,0.13476 1.54687,0.40429 0.30465,0.26954 0.45699,0.62696 0.45703,1.07227 -4e-5,0.42187 -0.15238,0.77344 -0.45703,1.05469 -0.30473,0.28125 -0.82035,0.42187 -1.54687,0.42187 l -9.5625,0 c -0.70316,0 -1.20706,-0.14062 -1.51172,-0.42187 -0.30472,-0.28125 -0.45706,-0.63282 -0.45703,-1.05469 -3e-5,-0.44531 0.15231,-0.80273 0.45703,-1.07227 0.30466,-0.26953 0.80856,-0.40429 1.51172,-0.40429 l 2.07422,0 -12.69141,-13.04297 z" style="" id="path5073"/><path d="m 365.42993,266.14233 1.26563,0 c 1.31247,10e-6 2.43747,0.4629 3.375,1.38868 0.93747,0.92578 1.40622,2.04492 1.40625,3.35742 -3e-5,1.35938 -0.47464,2.49609 -1.42383,3.41015 -0.94924,0.91407 -2.06838,1.3711 -3.35742,1.3711 l -1.26563,0 c -1.31252,0 -2.43752,-0.46289 -3.375,-1.38867 -0.93752,-0.92578 -1.40626,-2.04492 -1.40625,-3.35743 -1e-5,-1.35937 0.47459,-2.49608 1.42383,-3.41015 0.9492,-0.91406 2.06834,-1.37109 3.35742,-1.3711 z" style="" id="path5075"/></g>

<g style="font-size:40px;font-style:normal;font-variant:normal;font-weight:normal;font-stretch:normal;text-align:start;line-height:108.00000429%;writing-mode:lr-tb;text-anchor:start;fill:#000000;fill-opacity:1;stroke:none;font-family:Courier New;-inkscape-font-specification:Courier New" id="text4022"><path d="m 38.685749,339.61499 0,-2.36328 c -2.382827,2.00521 -4.928397,3.00781 -7.636719,3.00781 -1.966153,0 -3.502609,-0.49805 -4.609375,-1.49414 -1.106774,-0.99609 -1.660159,-2.21679 -1.660156,-3.66211 -3e-6,-1.58853 0.729163,-2.97525 2.1875,-4.16015 1.458327,-1.18489 3.587231,-1.77734 6.386719,-1.77735 0.755196,10e-6 1.575508,0.0488 2.460937,0.14649 0.885402,0.0977 1.842433,0.25066 2.871094,0.45898 l 0,-2.65625 c -1.7e-5,-0.89842 -0.416683,-1.67967 -1.25,-2.34375 -0.833348,-0.66405 -2.083347,-0.99608 -3.75,-0.99609 -1.276052,1e-5 -3.066415,0.37111 -5.371094,1.11328 -0.416672,0.13022 -0.683599,0.19532 -0.800781,0.19531 -0.208339,1e-5 -0.387375,-0.0781 -0.537109,-0.23437 -0.149745,-0.15624 -0.224614,-0.35155 -0.22461,-0.58594 -4e-6,-0.22134 0.0651,-0.39712 0.195313,-0.52735 0.182286,-0.19529 0.917963,-0.46222 2.207031,-0.80078 2.031241,-0.54686 3.567698,-0.82029 4.609375,-0.82031 2.070299,2e-5 3.68488,0.51108 4.84375,1.5332 1.158836,1.02215 1.738263,2.17775 1.738281,3.4668 l 0,10.85938 2.1875,0 c 0.403625,0 0.690083,0.0749 0.859375,0.2246 0.16925,0.14975 0.253885,0.34831 0.253907,0.59571 -2.2e-5,0.23437 -0.08466,0.42969 -0.253907,0.58594 -0.169292,0.15625 -0.45575,0.23437 -0.859375,0.23437 z m 0,-8.16406 c -0.768245,-0.22135 -1.582046,-0.38411 -2.441406,-0.48828 -0.859389,-0.10416 -1.764336,-0.15624 -2.714844,-0.15625 -2.382822,1e-5 -4.244799,0.51433 -5.585937,1.54297 -1.01563,0.76823 -1.523442,1.6862 -1.523438,2.7539 -4e-6,0.98959 0.387365,1.82292 1.162109,2.5 0.774734,0.67709 1.90429,1.01563 3.388672,1.01563 1.419261,0 2.737619,-0.28321 3.955078,-0.84961 1.217434,-0.56641 2.470688,-1.4681 3.759766,-2.70508 z" style="line-height:108.00000429%;font-family:Courier New;-inkscape-font-specification:Courier New" id="path5083"/><path d="m 51.771687,315.10327 0,10.87891 c 1.979158,-2.57811 4.368479,-3.86717 7.167968,-3.86719 2.395818,2e-5 4.446597,0.86916 6.152344,2.60742 1.705708,1.7383 2.558572,3.87046 2.558594,6.39649 -2.2e-5,2.55209 -0.862651,4.71354 -2.587891,6.48437 -1.725278,1.77084 -3.766291,2.65625 -6.123047,2.65625 -2.864593,0 -5.253914,-1.28906 -7.167968,-3.86719 l 0,3.22266 -3.847657,0 c -0.390626,0 -0.670574,-0.0781 -0.839843,-0.23437 -0.169272,-0.15625 -0.253908,-0.35157 -0.253907,-0.58594 -1e-6,-0.2474 0.08463,-0.44596 0.253907,-0.59571 0.169269,-0.14973 0.449217,-0.2246 0.839843,-0.2246 l 2.207032,0 0,-21.21094 -2.207032,0 c -0.390626,2e-5 -0.670574,-0.0781 -0.839843,-0.23438 -0.169272,-0.15622 -0.253908,-0.35805 -0.253907,-0.60547 -1e-6,-0.23435 0.08463,-0.42966 0.253907,-0.58593 0.169269,-0.15623 0.449217,-0.23435 0.839843,-0.23438 z m 14.238281,16.09375 c -2e-5,-2.0703 -0.709655,-3.82486 -2.128906,-5.26367 -1.419288,-1.43879 -3.079442,-2.15819 -4.980469,-2.1582 -1.901053,1e-5 -3.561208,0.71941 -4.980469,2.1582 -1.419277,1.43881 -2.128912,3.19337 -2.128906,5.26367 -6e-6,2.07032 0.709629,3.82488 2.128906,5.26367 1.419261,1.43881 3.079416,2.15821 4.980469,2.15821 1.901027,0 3.561181,-0.7194 4.980469,-2.15821 1.419251,-1.43879 2.128886,-3.19335 2.128906,-5.26367 z" style="line-height:108.00000429%;font-family:Courier New;-inkscape-font-specification:Courier New" id="path5085"/><path d="m 88.783405,324.36108 0,-0.54687 c -1.9e-5,-0.40363 0.07811,-0.69009 0.234375,-0.85938 0.156231,-0.16925 0.351543,-0.25389 0.585938,-0.2539 0.247376,10e-6 0.449198,0.0846 0.605469,0.2539 0.156229,0.16929 0.234354,0.45575 0.234375,0.85938 l 0,3.71094 c -0.01304,0.40365 -0.09442,0.69011 -0.244141,0.85937 -0.14976,0.16928 -0.348327,0.25392 -0.595703,0.25391 -0.221374,10e-6 -0.40692,-0.0749 -0.556641,-0.22461 -0.149758,-0.14973 -0.237649,-0.40038 -0.263672,-0.75195 -0.07814,-0.92447 -0.686867,-1.80338 -1.826172,-2.63672 -1.139338,-0.83332 -2.67254,-1.24999 -4.599609,-1.25 -2.434906,1e-5 -4.283862,0.76173 -5.546875,2.28515 -1.263026,1.52345 -1.894536,3.26824 -1.894531,5.23438 -5e-6,2.1224 0.696609,3.8737 2.089844,5.2539 1.39322,1.38021 3.196604,2.07032 5.410156,2.07032 1.276028,0 2.574855,-0.23438 3.896484,-0.70313 1.321597,-0.46875 2.516257,-1.22395 3.583985,-2.26562 0.273417,-0.26042 0.514302,-0.39062 0.722656,-0.39063 0.221333,10e-6 0.40688,0.0749 0.55664,0.22461 0.149719,0.14974 0.224588,0.33529 0.22461,0.55664 -2.2e-5,0.5599 -0.657573,1.26954 -1.972656,2.12891 -2.122414,1.39323 -4.485693,2.08984 -7.089844,2.08984 -2.643239,0 -4.814461,-0.8431 -6.513672,-2.5293 -1.699223,-1.68619 -2.548832,-3.82486 -2.548828,-6.41601 -4e-6,-2.64322 0.869136,-4.83723 2.607422,-6.58203 1.738273,-1.74478 3.929026,-2.61717 6.572265,-2.61719 2.513006,2e-5 4.622379,0.74871 6.328125,2.24609 z" style="line-height:108.00000429%;font-family:Courier New;-inkscape-font-specification:Courier New" id="path5087"/><path d="m 113.95919,315.10327 0,22.8711 2.1875,0 c 0.40362,0 0.69008,0.0749 0.85937,0.2246 0.16925,0.14975 0.25388,0.34831 0.25391,0.59571 -3e-5,0.23437 -0.0847,0.42969 -0.25391,0.58594 -0.16929,0.15625 -0.45575,0.23437 -0.85937,0.23437 l -3.84766,0 0,-3.26172 c -1.90106,2.60417 -4.31642,3.90625 -7.24609,3.90625 -1.48439,0 -2.90691,-0.39388 -4.26758,-1.18164 -1.360684,-0.78776 -2.434902,-1.9108 -3.222658,-3.36914 -0.787763,-1.45833 -1.181643,-2.96223 -1.18164,-4.51172 -3e-6,-1.56249 0.393877,-3.06965 1.18164,-4.52148 0.787756,-1.45181 1.861974,-2.57486 3.222658,-3.36914 1.36067,-0.79426 2.7897,-1.19139 4.28711,-1.19141 2.86457,2e-5 5.27342,1.3021 7.22656,3.90625 l 0,-9.25781 -2.1875,0 c -0.40366,2e-5 -0.69012,-0.0781 -0.85937,-0.23438 -0.16929,-0.15622 -0.25393,-0.35805 -0.25391,-0.60547 -2e-5,-0.23435 0.0846,-0.42966 0.25391,-0.58593 0.16925,-0.15623 0.45571,-0.23435 0.85937,-0.23438 z m -1.66016,16.09375 c -2e-5,-2.08332 -0.70314,-3.84113 -2.10937,-5.27344 -1.40627,-1.43227 -3.07944,-2.14842 -5.01954,-2.14843 -1.95313,1e-5 -3.63282,0.71616 -5.03906,2.14843 -1.406253,1.43231 -2.109378,3.19012 -2.109373,5.27344 -5e-6,2.07032 0.70312,3.82488 2.109373,5.26367 1.40624,1.43881 3.08593,2.15821 5.03906,2.15821 1.9401,0 3.61327,-0.7194 5.01954,-2.15821 1.40623,-1.43879 2.10935,-3.19335 2.10937,-5.26367 z" style="line-height:108.00000429%;font-family:Courier New;-inkscape-font-specification:Courier New" id="path5089"/><path d="m 138.78341,331.54858 -16.71875,0 c 0.28645,2.12241 1.17512,3.83139 2.66601,5.12696 1.49088,1.29557 3.33658,1.94336 5.53711,1.94336 1.22395,0 2.5065,-0.20183 3.84766,-0.60547 1.34112,-0.40365 2.43487,-0.9375 3.28125,-1.60156 0.24737,-0.19531 0.46222,-0.29297 0.64453,-0.29297 0.20831,0 0.3906,0.0814 0.54687,0.24414 0.15623,0.16276 0.23436,0.35482 0.23438,0.57617 -2e-5,0.22136 -0.10419,0.4362 -0.3125,0.64453 -0.62502,0.65104 -1.73505,1.25977 -3.33008,1.82617 -1.59507,0.56641 -3.23244,0.84961 -4.91211,0.84961 -2.81251,0 -5.15951,-0.92122 -7.04102,-2.76367 -1.88151,-1.84244 -2.82226,-4.07226 -2.82226,-6.68945 0,-2.3828 0.88216,-4.42707 2.64648,-6.13282 1.76432,-1.70571 3.94856,-2.55857 6.55274,-2.55859 2.68228,2e-5 4.8893,0.87567 6.62109,2.62695 1.73175,1.75132 2.58462,4.0202 2.5586,6.80664 z m -1.66016,-1.66015 c -0.32554,-1.80989 -1.18166,-3.28124 -2.56836,-4.41406 -1.38673,-1.1328 -3.03712,-1.69921 -4.95117,-1.69922 -1.91407,1e-5 -3.56121,0.55991 -4.94141,1.67968 -1.38021,1.11981 -2.23959,2.59767 -2.57812,4.4336 z" style="line-height:108.00000429%;font-family:Courier New;-inkscape-font-specification:Courier New" id="path5091"/><path d="m 152.80684,324.36108 0,13.61329 7.20703,0 c 0.39061,0 0.67056,0.0749 0.83985,0.2246 0.16925,0.14975 0.25388,0.34831 0.2539,0.59571 -2e-5,0.23437 -0.0847,0.42969 -0.2539,0.58594 -0.16929,0.15625 -0.44924,0.23437 -0.83985,0.23437 l -12.83203,0 c -0.39063,0 -0.67057,-0.0781 -0.83984,-0.23437 -0.16928,-0.15625 -0.25391,-0.35157 -0.25391,-0.58594 0,-0.2474 0.0846,-0.44596 0.25391,-0.59571 0.16927,-0.14973 0.44921,-0.2246 0.83984,-0.2246 l 3.96485,0 0,-13.61329 -3.55469,0 c -0.39063,2e-5 -0.67058,-0.0781 -0.83984,-0.23437 -0.16928,-0.15624 -0.25392,-0.35806 -0.25391,-0.60547 -1e-5,-0.23436 0.0846,-0.42967 0.25391,-0.58594 0.16926,-0.15623 0.44921,-0.23436 0.83984,-0.23437 l 3.55469,0 0,-2.48047 c -1e-5,-1.38019 0.55988,-2.5781 1.67968,-3.59375 1.11978,-1.0156 2.60416,-1.52341 4.45313,-1.52344 1.54946,3e-5 3.20311,0.14326 4.96094,0.42969 0.66404,0.10419 1.06443,0.22789 1.20117,0.37109 0.1367,0.14326 0.20505,0.33206 0.20508,0.56641 -3e-5,0.2344 -0.0781,0.42645 -0.23438,0.57617 -0.15627,0.14976 -0.3646,0.22463 -0.625,0.22461 -0.10419,2e-5 -0.27997,-0.0195 -0.52734,-0.0586 -1.96617,-0.29946 -3.62632,-0.4492 -4.98047,-0.44922 -1.43231,2e-5 -2.53582,0.35158 -3.31055,1.05469 -0.77475,0.70314 -1.16212,1.50392 -1.16211,2.40234 l 0,2.48047 7.67578,0 c 0.39061,10e-6 0.67056,0.0781 0.83985,0.23437 0.16925,0.15627 0.25388,0.35809 0.2539,0.60547 -2e-5,0.23439 -0.0847,0.4297 -0.2539,0.58594 -0.16929,0.15626 -0.44924,0.23439 -0.83985,0.23437 z" style="line-height:108.00000429%;font-family:Courier New;-inkscape-font-specification:Courier New" id="path5093"/><path d="m 183.39278,325.70874 0,-3.00781 3.84766,0 c 0.3906,10e-6 0.67055,0.0781 0.83984,0.23437 0.16925,0.15627 0.25388,0.35809 0.25391,0.60547 -3e-5,0.23439 -0.0847,0.4297 -0.25391,0.58594 -0.16929,0.15626 -0.44924,0.23439 -0.83984,0.23437 l -2.20703,0 0,16.38672 c -2e-5,1.09375 -0.2344,2.07031 -0.70313,2.92969 -0.31252,0.57291 -0.83335,1.16536 -1.5625,1.77734 -0.72918,0.61198 -1.39324,1.04817 -1.99219,1.3086 -0.59897,0.26041 -1.39975,0.39062 -2.40234,0.39062 l -4.64844,0 c -0.39063,0 -0.67058,-0.0749 -0.83984,-0.22461 -0.16928,-0.14974 -0.25392,-0.34831 -0.25391,-0.5957 -1e-5,-0.2474 0.0846,-0.44922 0.25391,-0.60547 0.16926,-0.15625 0.44921,-0.23438 0.83984,-0.23437 l 4.70703,0.0195 c 0.96353,-1e-5 1.83267,-0.2474 2.60742,-0.74219 0.77473,-0.4948 1.416,-1.21745 1.92383,-2.16797 0.28644,-0.54688 0.42967,-1.24349 0.42969,-2.08984 l 0,-4.92188 c -1.75783,2.40886 -4.02345,3.61328 -6.79687,3.61328 -2.25262,0 -4.19597,-0.83658 -5.83008,-2.50976 -1.63412,-1.67317 -2.45118,-3.68815 -2.45117,-6.04492 -1e-5,-2.35676 0.81705,-4.36848 2.45117,-6.03516 1.63411,-1.66665 3.57746,-2.49998 5.83008,-2.5 2.77342,2e-5 5.03904,1.19793 6.79687,3.59375 z m 0,4.94141 c -2e-5,-1.92708 -0.66082,-3.55468 -1.98242,-4.88282 -1.32163,-1.32811 -2.9004,-1.99217 -4.73633,-1.99218 -1.83595,1e-5 -3.41147,0.66733 -4.72656,2.00195 -1.31511,1.33465 -1.97266,2.95899 -1.97266,4.87305 0,1.92709 0.65755,3.55794 1.97266,4.89257 1.31509,1.33464 2.89061,2.00196 4.72656,2.00196 1.83593,0 3.4147,-0.66732 4.73633,-2.00196 1.3216,-1.33463 1.9824,-2.96548 1.98242,-4.89257 z" style="line-height:108.00000429%;font-family:Courier New;-inkscape-font-specification:Courier New" id="path5095"/><path d="m 196.45919,315.10327 0,10.09766 c 1.04166,-1.1328 2.041,-1.93032 2.99804,-2.39258 0.95702,-0.46222 2.02799,-0.69334 3.21289,-0.69336 1.27603,2e-5 2.36001,0.22463 3.25196,0.67383 0.89191,0.44923 1.63735,1.13934 2.23633,2.07031 0.59893,0.931 0.89841,1.91082 0.89843,2.93945 l 0,10.17579 1.83594,0 c 0.40362,0 0.68683,0.0749 0.84961,0.2246 0.16274,0.14975 0.24412,0.34831 0.24414,0.59571 -2e-5,0.23437 -0.0814,0.42969 -0.24414,0.58594 -0.16278,0.15625 -0.44599,0.23437 -0.84961,0.23437 l -5.33203,0 c -0.40366,0 -0.69012,-0.0781 -0.85938,-0.23437 -0.16928,-0.15625 -0.25392,-0.35157 -0.2539,-0.58594 -2e-5,-0.2474 0.0846,-0.44596 0.2539,-0.59571 0.16926,-0.14973 0.45572,-0.2246 0.85938,-0.2246 l 1.83594,0 0,-10.0586 c -2e-5,-1.18488 -0.42645,-2.17446 -1.2793,-2.96875 -0.85288,-0.79425 -2.04103,-1.19139 -3.56445,-1.1914 -1.19793,10e-6 -2.22007,0.29298 -3.06641,0.8789 -0.61199,0.41668 -1.6211,1.39975 -3.02734,2.94922 l 0,10.39063 1.85547,0 c 0.39061,0 0.67056,0.0749 0.83984,0.2246 0.16926,0.14975 0.2539,0.34831 0.25391,0.59571 -1e-5,0.23437 -0.0847,0.42969 -0.25391,0.58594 -0.16928,0.15625 -0.44923,0.23437 -0.83984,0.23437 l -5.35157,0 c -0.39062,0 -0.67057,-0.0781 -0.83984,-0.23437 -0.16927,-0.15625 -0.25391,-0.35157 -0.25391,-0.58594 0,-0.2474 0.0846,-0.44596 0.25391,-0.59571 0.16927,-0.14973 0.44922,-0.2246 0.83984,-0.2246 l 1.85547,0 0,-21.21094 -2.20703,0 c -0.39063,2e-5 -0.67057,-0.0781 -0.83984,-0.23438 -0.16928,-0.15622 -0.25391,-0.35805 -0.25391,-0.60547 0,-0.23435 0.0846,-0.42966 0.25391,-0.58593 0.16927,-0.15623 0.44921,-0.23435 0.83984,-0.23438 z" style="line-height:108.00000429%;font-family:Courier New;-inkscape-font-specification:Courier New" id="path5097"/><path d="m 226.6545,314.28296 0,4.23828 -2.42188,0 0,-4.23828 z m 0.0586,8.41797 0,15.27344 6.44532,0 c 0.40362,0 0.69008,0.0749 0.85937,0.2246 0.16925,0.14975 0.25389,0.34831 0.25391,0.59571 -2e-5,0.23437 -0.0847,0.42969 -0.25391,0.58594 -0.16929,0.15625 -0.45575,0.23437 -0.85937,0.23437 l -14.53125,0 c -0.39063,0 -0.67058,-0.0781 -0.83985,-0.23437 -0.16927,-0.15625 -0.25391,-0.35157 -0.2539,-0.58594 -1e-5,-0.2474 0.0846,-0.44596 0.2539,-0.59571 0.16927,-0.14973 0.44922,-0.2246 0.83985,-0.2246 l 6.44531,0 0,-13.61329 -4.78516,0 c -0.39063,2e-5 -0.67383,-0.0781 -0.84961,-0.23437 -0.17578,-0.15624 -0.26368,-0.35155 -0.26367,-0.58594 -10e-6,-0.24738 0.0846,-0.4492 0.25391,-0.60547 0.16926,-0.15623 0.45572,-0.23436 0.85937,-0.23437 z" style="line-height:108.00000429%;font-family:Courier New;-inkscape-font-specification:Courier New" id="path5099"/><path d="m 252.18184,314.28296 0,4.23828 -2.42187,0 0,-4.23828 z m 0.0977,10.07812 -9.74609,0 c -0.39063,2e-5 -0.67058,-0.0781 -0.83985,-0.23437 -0.16927,-0.15624 -0.25391,-0.35806 -0.2539,-0.60547 -1e-5,-0.23436 0.0814,-0.42967 0.24414,-0.58594 0.16275,-0.15623 0.44596,-0.23436 0.84961,-0.23437 l 11.38671,0 0,18.0664 c -1e-5,1.39323 -0.28647,2.55859 -0.85937,3.4961 -0.57293,0.93749 -1.43231,1.69921 -2.57813,2.28515 -0.79428,0.40364 -1.73829,0.60547 -2.83203,0.60547 l -5.21484,0 c -0.39063,0 -0.67058,-0.0749 -0.83984,-0.22461 -0.16928,-0.14974 -0.25391,-0.34831 -0.25391,-0.5957 0,-0.2474 0.0846,-0.44922 0.25391,-0.60547 0.16926,-0.15625 0.44921,-0.23438 0.83984,-0.23437 l 5.17578,0.0195 c 1.39322,-1e-5 2.51952,-0.45574 3.37891,-1.36719 0.85936,-0.91146 1.28904,-2.03776 1.28906,-3.37891 z" style="line-height:108.00000429%;font-family:Courier New;-inkscape-font-specification:Courier New" id="path5101"/><path d="m 270.48262,332.3103 0,7.30469 -3.84765,0 c -0.39063,0 -0.67058,-0.0781 -0.83985,-0.23437 -0.16927,-0.15625 -0.25391,-0.35157 -0.2539,-0.58594 -1e-5,-0.2474 0.0846,-0.44596 0.2539,-0.59571 0.16927,-0.14973 0.44922,-0.2246 0.83985,-0.2246 l 2.20703,0 0,-21.21094 -2.20703,0 c -0.39063,2e-5 -0.67058,-0.0781 -0.83985,-0.23438 -0.16927,-0.15622 -0.25391,-0.35805 -0.2539,-0.60547 -1e-5,-0.23435 0.0846,-0.42966 0.2539,-0.58593 0.16927,-0.15623 0.44922,-0.23435 0.83985,-0.23438 l 3.84765,0 0,15.11719 6.97266,-5.85938 -0.83984,0 c -0.39064,2e-5 -0.67059,-0.0781 -0.83985,-0.23437 -0.16928,-0.15624 -0.25392,-0.35155 -0.2539,-0.58594 -2e-5,-0.24738 0.0846,-0.4492 0.2539,-0.60547 0.16926,-0.15623 0.44921,-0.23436 0.83985,-0.23437 l 5.2539,0 c 0.40363,10e-6 0.69009,0.0781 0.85938,0.23437 0.16925,0.15627 0.25388,0.35809 0.2539,0.60547 -2e-5,0.23439 -0.0847,0.4297 -0.2539,0.58594 -0.16929,0.15626 -0.45575,0.23439 -0.85938,0.23437 l -1.89453,0 -6.40625,5.35157 8.10547,8.26172 1.89453,0 c 0.40363,0 0.69008,0.0749 0.85938,0.2246 0.16924,0.14975 0.25388,0.34831 0.2539,0.59571 -2e-5,0.23437 -0.0847,0.42969 -0.2539,0.58594 -0.1693,0.15625 -0.45575,0.23437 -0.85938,0.23437 l -5.3125,0 c -0.39064,0 -0.67059,-0.0781 -0.83984,-0.23437 -0.16929,-0.15625 -0.25392,-0.35157 -0.25391,-0.58594 -10e-6,-0.2474 0.0846,-0.44596 0.25391,-0.59571 0.16925,-0.14973 0.4492,-0.2246 0.83984,-0.2246 l 1.15235,0 -7.05079,-7.2461 z" style="line-height:108.00000429%;font-family:Courier New;-inkscape-font-specification:Courier New" id="path5103"/><path d="m 298.62716,315.10327 0,22.8711 6.44531,0 c 0.40362,0 0.69008,0.0749 0.85937,0.2246 0.16925,0.14975 0.25389,0.34831 0.25391,0.59571 -2e-5,0.23437 -0.0847,0.42969 -0.25391,0.58594 -0.16929,0.15625 -0.45575,0.23437 -0.85937,0.23437 l -14.53125,0 c -0.39063,0 -0.67058,-0.0781 -0.83985,-0.23437 -0.16927,-0.15625 -0.25391,-0.35157 -0.2539,-0.58594 -1e-5,-0.2474 0.0846,-0.44596 0.2539,-0.59571 0.16927,-0.14973 0.44922,-0.2246 0.83985,-0.2246 l 6.44531,0 0,-21.21094 -4.72656,0 c -0.39063,2e-5 -0.67384,-0.0781 -0.84961,-0.23438 -0.17579,-0.15622 -0.26368,-0.35805 -0.26367,-0.60547 -10e-6,-0.23435 0.0846,-0.42966 0.2539,-0.58593 0.16927,-0.15623 0.45573,-0.23435 0.85938,-0.23438 z" style="line-height:108.00000429%;font-family:Courier New;-inkscape-font-specification:Courier New" id="path5105"/><path d="m 314.31075,322.70093 0,1.66015 c 1.39322,-1.49738 2.79296,-2.24607 4.19922,-2.24609 0.84634,2e-5 1.58853,0.22463 2.22656,0.67383 0.63801,0.44923 1.17186,1.12957 1.60156,2.04101 0.72916,-0.91144 1.46809,-1.59178 2.2168,-2.04101 0.74868,-0.4492 1.50063,-0.67381 2.25586,-0.67383 1.18488,2e-5 2.12889,0.38413 2.83203,1.15234 0.92446,0.9896 1.3867,2.07033 1.38672,3.24219 l 0,11.46485 1.38672,0 c 0.3906,0 0.67055,0.0749 0.83984,0.2246 0.16925,0.14975 0.25388,0.34831 0.25391,0.59571 -3e-5,0.23437 -0.0847,0.42969 -0.25391,0.58594 -0.16929,0.15625 -0.44924,0.23437 -0.83984,0.23437 l -3.02735,0 0,-12.94922 c -2e-5,-0.83332 -0.25392,-1.52342 -0.76171,-2.07031 -0.50784,-0.54686 -1.09377,-0.8203 -1.75782,-0.82031 -0.59897,1e-5 -1.23048,0.22462 -1.89453,0.67382 -0.66408,0.44924 -1.41928,1.3314 -2.26562,2.64649 l 0,10.87891 1.36718,0 c 0.39061,0 0.67056,0.0749 0.83985,0.2246 0.16925,0.14975 0.25389,0.34831 0.2539,0.59571 -10e-6,0.23437 -0.0847,0.42969 -0.2539,0.58594 -0.16929,0.15625 -0.44924,0.23437 -0.83985,0.23437 l -3.02734,0 0,-12.83203 c -1e-5,-0.87238 -0.25717,-1.59178 -0.77148,-2.1582 -0.51434,-0.56639 -1.09051,-0.8496 -1.72852,-0.84961 -0.58595,1e-5 -1.16537,0.18881 -1.73828,0.5664 -0.79428,0.53387 -1.62761,1.45184 -2.5,2.75391 l 0,10.87891 1.38672,0 c 0.39062,0 0.67056,0.0749 0.83984,0.2246 0.16927,0.14975 0.2539,0.34831 0.25391,0.59571 -1e-5,0.23437 -0.0846,0.42969 -0.25391,0.58594 -0.16928,0.15625 -0.44922,0.23437 -0.83984,0.23437 l -4.41406,0 c -0.39063,0 -0.67058,-0.0781 -0.83985,-0.23437 -0.16927,-0.15625 -0.25391,-0.35157 -0.2539,-0.58594 -1e-5,-0.2474 0.0846,-0.44596 0.2539,-0.59571 0.16927,-0.14973 0.44922,-0.2246 0.83985,-0.2246 l 1.38671,0 0,-13.61329 -1.38671,0 c -0.39063,2e-5 -0.67058,-0.0781 -0.83985,-0.23437 -0.16927,-0.15624 -0.25391,-0.35806 -0.2539,-0.60547 -1e-5,-0.23436 0.0846,-0.42967 0.2539,-0.58594 0.16927,-0.15623 0.44922,-0.23436 0.83985,-0.23437 z" style="line-height:108.00000429%;font-family:Courier New;-inkscape-font-specification:Courier New" id="path5107"/><path d="m 28.666218,365.90093 0,2.48047 c 1.145825,-1.15884 2.180981,-1.95962 3.105469,-2.40235 0.924468,-0.44269 1.966134,-0.66404 3.125,-0.66406 1.249985,2e-5 2.389307,0.26695 3.417968,0.80078 0.72915,0.39064 1.389957,1.03843 1.982422,1.94336 0.592429,0.90496 0.888653,1.8327 0.888672,2.78321 l 0,10.33203 1.386719,0 c 0.390604,0 0.670551,0.0749 0.839844,0.22461 0.169249,0.14974 0.253884,0.3483 0.253906,0.5957 -2.2e-5,0.23438 -0.08466,0.42969 -0.253906,0.58594 -0.169293,0.15625 -0.44924,0.23437 -0.839844,0.23437 l -4.394531,0 c -0.403662,0 -0.69012,-0.0781 -0.859375,-0.23437 -0.169286,-0.15625 -0.253922,-0.35156 -0.253907,-0.58594 -1.5e-5,-0.2474 0.08462,-0.44596 0.253907,-0.5957 0.169255,-0.14974 0.455713,-0.22461 0.859375,-0.22461 l 1.367187,0 0,-10.0586 c -1.8e-5,-1.15884 -0.423194,-2.13865 -1.269531,-2.93945 -0.84637,-0.80077 -1.979181,-1.20116 -3.398438,-1.20117 -1.080741,1e-5 -2.01824,0.21811 -2.8125,0.6543 -0.79428,0.43621 -1.927091,1.52019 -3.398437,3.25195 l 0,10.29297 1.855469,0 c 0.390616,0 0.670563,0.0749 0.839843,0.22461 0.169262,0.14974 0.253897,0.3483 0.253907,0.5957 -10e-6,0.23438 -0.08464,0.42969 -0.253907,0.58594 -0.16928,0.15625 -0.449227,0.23437 -0.839843,0.23437 l -5.351563,0 c -0.390628,0 -0.670575,-0.0781 -0.839844,-0.23437 -0.169273,-0.15625 -0.253908,-0.35156 -0.253906,-0.58594 -2e-6,-0.2474 0.08463,-0.44596 0.253906,-0.5957 0.169269,-0.14974 0.449216,-0.22461 0.839844,-0.22461 l 1.855469,0 0,-13.61328 -1.386719,0 c -0.390628,1e-5 -0.670576,-0.0781 -0.839844,-0.23438 -0.169273,-0.15623 -0.253909,-0.35806 -0.253906,-0.60547 -3e-6,-0.23436 0.08463,-0.42967 0.253906,-0.58594 0.169268,-0.15623 0.449216,-0.23435 0.839844,-0.23437 z" style="line-height:108.00000429%;font-family:Courier New;-inkscape-font-specification:Courier New" id="path5109"/><path d="m 67.123249,374.39702 c -2.1e-5,2.50001 -0.895203,4.63542 -2.685547,6.40625 -1.790381,1.77084 -3.948582,2.65625 -6.474609,2.65625 -2.552093,0 -4.72006,-0.88867 -6.503906,-2.66601 -1.783858,-1.77734 -2.675785,-3.9095 -2.675782,-6.39649 -3e-6,-2.49999 0.891924,-4.63866 2.675782,-6.41601 1.783846,-1.77733 3.951813,-2.666 6.503906,-2.66602 2.526027,2e-5 4.684228,0.88544 6.474609,2.65625 1.790344,1.77085 2.685526,3.91277 2.685547,6.42578 z m -1.660156,0 c -2e-5,-2.05728 -0.732441,-3.80858 -2.197266,-5.2539 -1.464859,-1.4453 -3.238946,-2.16796 -5.322265,-2.16797 -2.083344,1e-5 -3.85743,0.72592 -5.322266,2.17773 -1.464849,1.45184 -2.19727,3.19988 -2.197266,5.24414 -4e-6,2.03126 0.732417,3.77605 2.197266,5.23438 1.464836,1.45833 3.238922,2.1875 5.322266,2.1875 2.083319,0 3.857406,-0.72591 5.322265,-2.17774 1.464825,-1.45181 2.197246,-3.19986 2.197266,-5.24414 z" style="line-height:108.00000429%;font-family:Courier New;-inkscape-font-specification:Courier New" id="path5111"/><path d="m 75.756062,365.90093 0,2.98828 c 0.976555,-1.18488 2.024731,-2.07681 3.144531,-2.67578 1.119781,-0.59894 2.441395,-0.89842 3.964844,-0.89844 1.614568,2e-5 3.105452,0.37762 4.472656,1.13281 1.367169,0.75523 2.42511,1.80666 3.173828,3.1543 0.748677,1.34767 1.123025,2.76368 1.123047,4.24805 -2.2e-5,2.35678 -0.84312,4.37175 -2.529297,6.04492 -1.686215,1.67318 -3.759781,2.50977 -6.220703,2.50977 -2.929698,0 -5.305997,-1.19141 -7.128906,-3.57422 l 0,9.88281 3.984375,0 c 0.390614,-1e-5 0.670562,0.0749 0.839843,0.22461 0.16926,0.14973 0.253896,0.3483 0.253907,0.5957 -1.1e-5,0.23437 -0.08465,0.42968 -0.253907,0.58594 -0.169281,0.15624 -0.449229,0.23437 -0.839843,0.23437 l -7.832032,0 c -0.390626,0 -0.670574,-0.0749 -0.839843,-0.2246 -0.169272,-0.14975 -0.253908,-0.34832 -0.253907,-0.59571 -10e-7,-0.2474 0.08463,-0.44597 0.253907,-0.5957 0.169269,-0.14975 0.449217,-0.22462 0.839843,-0.22461 l 2.207032,0 0,-21.15234 -2.207032,0 c -0.390626,1e-5 -0.670574,-0.0781 -0.839843,-0.23438 -0.169272,-0.15623 -0.253908,-0.35806 -0.253907,-0.60547 -10e-7,-0.23436 0.08463,-0.42967 0.253907,-0.58594 0.169269,-0.15623 0.449217,-0.23435 0.839843,-0.23437 z m 14.21875,7.94922 c -2e-5,-1.88801 -0.686869,-3.50585 -2.060547,-4.85352 -1.373715,-1.34764 -3.050145,-2.02147 -5.029297,-2.02148 -1.992199,1e-5 -3.678395,0.6771 -5.058594,2.03125 -1.380215,1.35418 -2.070318,2.96876 -2.070312,4.84375 -6e-6,1.88803 0.690097,3.50912 2.070312,4.86328 1.380199,1.35417 3.066395,2.03125 5.058594,2.03125 1.966131,0 3.639306,-0.67383 5.019531,-2.02148 1.380189,-1.34766 2.070293,-2.972 2.070313,-4.87305 z" style="line-height:108.00000429%;font-family:Courier New;-inkscape-font-specification:Courier New" id="path5113"/><path d="m 112.2795,368.88921 0,-2.98828 3.84766,0 c 0.40362,2e-5 0.69008,0.0781 0.85937,0.23437 0.16925,0.15627 0.25388,0.35809 0.25391,0.60547 -3e-5,0.23439 -0.0847,0.42971 -0.25391,0.58594 -0.16929,0.15627 -0.45575,0.23439 -0.85937,0.23438 l -2.1875,0 0,21.15234 2.1875,0 c 0.40362,-1e-5 0.69008,0.0749 0.85937,0.22461 0.16925,0.14973 0.25388,0.3483 0.25391,0.5957 -3e-5,0.23437 -0.0847,0.42968 -0.25391,0.58594 -0.16929,0.15624 -0.45575,0.23437 -0.85937,0.23437 l -7.8125,0 c -0.39064,0 -0.67059,-0.0749 -0.83985,-0.2246 -0.16928,-0.14975 -0.25392,-0.34832 -0.2539,-0.59571 -2e-5,-0.2474 0.0846,-0.44597 0.2539,-0.5957 0.16926,-0.14975 0.44921,-0.22462 0.83985,-0.22461 l 3.96484,0 0,-9.88281 c -1.80991,2.38281 -4.18621,3.57422 -7.12891,3.57422 -2.44792,0 -4.51498,-0.83659 -6.201169,-2.50977 -1.686201,-1.67317 -2.529299,-3.68814 -2.529297,-6.04492 -2e-6,-2.36978 0.843096,-4.38475 2.529297,-6.04492 1.686189,-1.66014 3.766269,-2.49022 6.240239,-2.49024 2.91665,2e-5 5.27993,1.19142 7.08984,3.57422 z m 0,4.96094 c -2e-5,-1.88801 -0.69012,-3.50585 -2.07031,-4.85352 -1.38023,-1.34764 -3.05991,-2.02147 -5.03907,-2.02148 -1.97917,1e-5 -3.65886,0.67384 -5.03906,2.02148 -1.380212,1.34767 -2.070315,2.96551 -2.070311,4.85352 -4e-6,1.88803 0.690099,3.50912 2.070311,4.86328 1.3802,1.35417 3.05989,2.03125 5.03906,2.03125 1.97916,0 3.65884,-0.67708 5.03907,-2.03125 1.38019,-1.35416 2.07029,-2.97525 2.07031,-4.86328 z" style="line-height:108.00000429%;font-family:Courier New;-inkscape-font-specification:Courier New" id="path5115"/><path d="m 127.94356,365.90093 0,4.14062 c 2.13541,-1.92706 3.73371,-3.1673 4.79492,-3.7207 1.06119,-0.55337 2.041,-0.83006 2.93946,-0.83008 0.97654,2e-5 1.88474,0.3288 2.72461,0.98633 0.83982,0.65757 1.25974,1.15562 1.25976,1.49414 -2e-5,0.24741 -0.0814,0.45249 -0.24414,0.61524 -0.16278,0.16277 -0.36786,0.24415 -0.61523,0.24414 -0.13023,10e-6 -0.24091,-0.0228 -0.33203,-0.0684 -0.0912,-0.0456 -0.26044,-0.19205 -0.50782,-0.43946 -0.45575,-0.45571 -0.85288,-0.76821 -1.1914,-0.9375 -0.33856,-0.16925 -0.67059,-0.25389 -0.9961,-0.2539 -0.71616,1e-5 -1.57879,0.28647 -2.58789,0.85937 -1.00913,0.57293 -2.75717,1.97267 -5.24414,4.19922 l 0,8.98438 7.26563,0 c 0.40362,0 0.69008,0.0749 0.85937,0.22461 0.16925,0.14974 0.25389,0.3483 0.25391,0.5957 -2e-5,0.23438 -0.0847,0.42969 -0.25391,0.58594 -0.16929,0.15625 -0.45575,0.23437 -0.85937,0.23437 l -12.8711,0 c -0.39063,0 -0.67057,-0.0749 -0.83984,-0.22461 -0.16928,-0.14974 -0.25391,-0.34179 -0.25391,-0.57617 0,-0.22135 0.0814,-0.4069 0.24414,-0.55664 0.16276,-0.14974 0.44596,-0.22461 0.84961,-0.22461 l 3.96485,0 0,-13.67187 -3.02735,0 c -0.39063,1e-5 -0.67057,-0.0781 -0.83984,-0.23438 -0.16928,-0.15623 -0.25391,-0.35806 -0.25391,-0.60547 0,-0.23436 0.0814,-0.42967 0.24414,-0.58594 0.16276,-0.15623 0.44596,-0.23435 0.84961,-0.23437 z" style="line-height:108.00000429%;font-family:Courier New;-inkscape-font-specification:Courier New" id="path5117"/><path d="m 159.31075,366.97515 c -2e-5,-0.37759 0.0781,-0.65103 0.23437,-0.82031 0.15624,-0.16926 0.35155,-0.25389 0.58594,-0.25391 0.24738,2e-5 0.4492,0.0847 0.60547,0.25391 0.15623,0.16928 0.23436,0.45574 0.23438,0.85937 l 0,2.8125 c -2e-5,0.39064 -0.0781,0.67059 -0.23438,0.83984 -0.15627,0.16929 -0.35809,0.25392 -0.60547,0.25391 -0.22137,1e-5 -0.40692,-0.0716 -0.55664,-0.21484 -0.14976,-0.14322 -0.23765,-0.37759 -0.26367,-0.70313 -0.0781,-0.78123 -0.48179,-1.42577 -1.21094,-1.93359 -1.06772,-0.72915 -2.48048,-1.09374 -4.23828,-1.09375 -1.83595,1e-5 -3.26173,0.37111 -4.27734,1.11328 -0.76824,0.55991 -1.15235,1.18491 -1.15235,1.875 0,0.78126 0.45572,1.4323 1.36719,1.95312 0.62499,0.3646 1.80989,0.64455 3.55469,0.83985 2.27863,0.2474 3.86066,0.52735 4.74609,0.83984 1.263,0.45574 2.20376,1.08725 2.82227,1.89453 0.61847,0.8073 0.92771,1.6797 0.92773,2.61719 -2e-5,1.39323 -0.67059,2.63347 -2.01172,3.7207 -1.34116,1.08724 -3.3073,1.63086 -5.89843,1.63086 -2.59116,0 -4.71355,-0.65755 -6.36719,-1.97265 -1e-5,0.44271 -0.026,0.72916 -0.0781,0.85937 -0.0521,0.13021 -0.14649,0.24089 -0.2832,0.33203 -0.13672,0.0912 -0.28972,0.13672 -0.45898,0.13672 -0.23438,0 -0.4297,-0.0846 -0.58594,-0.2539 -0.15626,-0.16927 -0.23438,-0.44922 -0.23438,-0.83985 l 0,-3.3789 c 0,-0.39062 0.0749,-0.67057 0.22461,-0.83985 0.14974,-0.16926 0.3483,-0.2539 0.59571,-0.2539 0.23437,0 0.43293,0.0814 0.5957,0.24414 0.16275,0.16276 0.24413,0.38086 0.24414,0.65429 -1e-5,0.59897 0.14973,1.10027 0.44922,1.50391 0.45572,0.625 1.18163,1.14258 2.17773,1.55273 0.99609,0.41016 2.21679,0.61524 3.66211,0.61524 2.1354,0 3.72394,-0.39714 4.76563,-1.19141 1.04165,-0.79427 1.56248,-1.63411 1.5625,-2.51953 -2e-5,-1.01562 -0.52736,-1.82942 -1.58203,-2.44141 -1.06773,-0.61197 -2.62046,-1.02212 -4.65821,-1.23046 -2.03777,-0.20833 -3.49936,-0.48177 -4.38476,-0.82032 -0.88543,-0.33853 -1.57553,-0.84634 -2.07032,-1.52343 -0.49479,-0.67708 -0.74219,-1.40624 -0.74218,-2.1875 -1e-5,-1.40624 0.6901,-2.52278 2.07031,-3.34961 1.3802,-0.82681 3.02733,-1.24022 4.94141,-1.24024 2.26561,2e-5 4.10805,0.5534 5.52734,1.66016 z" style="line-height:108.00000429%;font-family:Courier New;-inkscape-font-specification:Courier New" id="path5119"/><path d="m 174.50606,365.90093 8.90625,0 c 0.39061,2e-5 0.67056,0.0781 0.83985,0.23437 0.16925,0.15627 0.25388,0.35809 0.2539,0.60547 -2e-5,0.23439 -0.0846,0.42971 -0.2539,0.58594 -0.16929,0.15627 -0.44924,0.23439 -0.83985,0.23438 l -8.90625,0 0,10.91796 c -1e-5,0.95053 0.38085,1.7448 1.14258,2.38282 0.76171,0.63802 1.87824,0.95703 3.34961,0.95703 1.10676,0 2.30467,-0.16602 3.59375,-0.49805 1.28904,-0.33203 2.29165,-0.70638 3.00781,-1.12305 0.2604,-0.16926 0.47524,-0.2539 0.64453,-0.2539 0.20832,0 0.39061,0.0814 0.54688,0.24414 0.15623,0.16276 0.23435,0.35482 0.23437,0.57617 -2e-5,0.19532 -0.0846,0.37761 -0.2539,0.54688 -0.41669,0.42968 -1.42906,0.89518 -3.03711,1.39648 -1.60809,0.5013 -3.1478,0.75195 -4.61914,0.75195 -1.91408,0 -3.43751,-0.44922 -4.57032,-1.34765 -1.13282,-0.89844 -1.69922,-2.10938 -1.69921,-3.63282 l 0,-10.91796 -3.02735,0 c -0.39063,1e-5 -0.67057,-0.0781 -0.83984,-0.23438 -0.16928,-0.15623 -0.25391,-0.35806 -0.25391,-0.60547 0,-0.23436 0.0846,-0.42967 0.25391,-0.58594 0.16927,-0.15623 0.44921,-0.23435 0.83984,-0.23437 l 3.02735,0 0,-4.84375 c -1e-5,-0.3906 0.0781,-0.67055 0.23437,-0.83984 0.15624,-0.16925 0.35156,-0.25389 0.58594,-0.25391 0.24739,2e-5 0.44921,0.0847 0.60547,0.25391 0.15624,0.16929 0.23436,0.44924 0.23437,0.83984 z" style="line-height:108.00000429%;font-family:Courier New;-inkscape-font-specification:Courier New" id="path5121"/><path d="m 207.47481,382.81499 0,-2.40234 c -2.2396,2.03125 -4.66147,3.04687 -7.26562,3.04687 -1.60157,0 -2.81902,-0.43619 -3.65235,-1.30859 -1.08073,-1.14583 -1.6211,-2.48047 -1.62109,-4.00391 l 0,-10.58593 -2.20703,0 c -0.39063,1e-5 -0.67058,-0.0781 -0.83985,-0.23438 -0.16927,-0.15623 -0.2539,-0.35806 -0.2539,-0.60547 0,-0.23436 0.0846,-0.42967 0.2539,-0.58594 0.16927,-0.15623 0.44922,-0.23435 0.83985,-0.23437 l 3.84765,0 0,12.24609 c 0,1.06772 0.33854,1.94662 1.01563,2.63672 0.67707,0.69011 1.52343,1.03516 2.53906,1.03516 2.66926,0 5.11717,-1.22396 7.34375,-3.67188 l 0,-10.58593 -3.02734,0 c -0.39064,1e-5 -0.67059,-0.0781 -0.83985,-0.23438 -0.16928,-0.15623 -0.25392,-0.35806 -0.2539,-0.60547 -2e-5,-0.23436 0.0846,-0.42967 0.2539,-0.58594 0.16926,-0.15623 0.44921,-0.23435 0.83985,-0.23437 l 4.66797,0 0,15.27344 1.38672,0 c 0.3906,0 0.67055,0.0749 0.83984,0.22461 0.16925,0.14974 0.25388,0.3483 0.25391,0.5957 -3e-5,0.23438 -0.0847,0.42969 -0.25391,0.58594 -0.16929,0.15625 -0.44924,0.23437 -0.83984,0.23437 z" style="line-height:108.00000429%;font-family:Courier New;-inkscape-font-specification:Courier New" id="path5123"/><path d="m 227.2795,382.81499 -2.77344,0 -6.73828,-15.2539 -1.67969,0 c -0.39062,1e-5 -0.67057,-0.0781 -0.83984,-0.23438 -0.16927,-0.15623 -0.25391,-0.35806 -0.25391,-0.60547 0,-0.23436 0.0846,-0.42967 0.25391,-0.58594 0.16927,-0.15623 0.44922,-0.23435 0.83984,-0.23437 l 6.15235,0 c 0.39061,2e-5 0.67056,0.0781 0.83984,0.23437 0.16926,0.15627 0.2539,0.35809 0.25391,0.60547 -1e-5,0.23439 -0.0847,0.42971 -0.25391,0.58594 -0.16928,0.15627 -0.44923,0.23439 -0.83984,0.23438 l -2.71485,0 6.01563,13.61328 0.72265,0 5.89844,-13.61328 -2.73437,0 c -0.39064,1e-5 -0.67059,-0.0781 -0.83985,-0.23438 -0.16928,-0.15623 -0.25392,-0.35806 -0.2539,-0.60547 -2e-5,-0.23436 0.0846,-0.42967 0.2539,-0.58594 0.16926,-0.15623 0.44921,-0.23435 0.83985,-0.23437 l 6.17187,0 c 0.40363,2e-5 0.68683,0.0781 0.84961,0.23437 0.16274,0.15627 0.24412,0.35809 0.24414,0.60547 -2e-5,0.23439 -0.0814,0.42971 -0.24414,0.58594 -0.16278,0.15627 -0.44598,0.23439 -0.84961,0.23438 l -1.66015,0 z" style="line-height:108.00000429%;font-family:Courier New;-inkscape-font-specification:Courier New" id="path5125"/><path d="m 255.48262,382.81499 -2.03125,0.0195 -3.61328,-10.54687 -3.59375,10.54687 -2.03125,-0.0195 -3.39843,-15.2539 -0.80079,0 c -0.39062,1e-5 -0.67057,-0.0781 -0.83984,-0.23438 -0.16927,-0.15623 -0.25391,-0.35806 -0.25391,-0.60547 0,-0.23436 0.0846,-0.42967 0.25391,-0.58594 0.16927,-0.15623 0.44922,-0.23435 0.83984,-0.23437 l 4.51172,0 c 0.39062,2e-5 0.67057,0.0781 0.83985,0.23437 0.16926,0.15627 0.2539,0.35809 0.2539,0.60547 0,0.23439 -0.0846,0.42971 -0.2539,0.58594 -0.16928,0.15627 -0.44923,0.23439 -0.83985,0.23438 l -2.08984,0 2.91016,13.00781 3.49609,-10.39063 1.95312,0 3.59375,10.39063 2.79297,-13.00781 -2.07031,0 c -0.39064,1e-5 -0.67384,-0.0781 -0.84961,-0.23438 -0.1758,-0.15623 -0.26369,-0.35806 -0.26367,-0.60547 -2e-5,-0.23436 0.0846,-0.42967 0.25391,-0.58594 0.16925,-0.15623 0.45571,-0.23435 0.85937,-0.23437 l 4.49219,0 c 0.40362,2e-5 0.69008,0.0781 0.85937,0.23437 0.16925,0.15627 0.25389,0.35809 0.25391,0.60547 -2e-5,0.23439 -0.0847,0.42971 -0.25391,0.58594 -0.16929,0.15627 -0.45575,0.23439 -0.85937,0.23438 l -0.78125,0 z" style="line-height:108.00000429%;font-family:Courier New;-inkscape-font-specification:Courier New" id="path5127"/><path d="m 274.93575,373.96734 7.51953,7.20703 c 0.49477,0 0.80727,0.0228 0.9375,0.0684 0.13019,0.0456 0.24412,0.13997 0.3418,0.2832 0.0976,0.14323 0.14646,0.29948 0.14648,0.46875 -2e-5,0.23438 -0.0847,0.42969 -0.2539,0.58594 -0.1693,0.15625 -0.45576,0.23437 -0.85938,0.23437 l -5.27344,0 c -0.40366,0 -0.69012,-0.0781 -0.85937,-0.23437 -0.16929,-0.15625 -0.25392,-0.35156 -0.25391,-0.58594 -10e-6,-0.2474 0.0846,-0.44596 0.25391,-0.5957 0.16925,-0.14974 0.45571,-0.22461 0.85937,-0.22461 l 2.71485,0 -6.38672,-6.11328 -6.34766,6.11328 2.73438,0 c 0.39061,0 0.67056,0.0749 0.83984,0.22461 0.16926,0.14974 0.2539,0.3483 0.25391,0.5957 -10e-6,0.23438 -0.0846,0.42969 -0.25391,0.58594 -0.16928,0.15625 -0.44923,0.23437 -0.83984,0.23437 l -5.33203,0 c -0.39063,0 -0.67058,-0.0781 -0.83985,-0.23437 -0.16927,-0.15625 -0.25391,-0.35156 -0.2539,-0.58594 -1e-5,-0.16927 0.0488,-0.32552 0.14648,-0.46875 0.0976,-0.14323 0.20833,-0.23763 0.33203,-0.2832 0.1237,-0.0456 0.43294,-0.0684 0.92774,-0.0684 l 7.51953,-7.20703 -6.67969,-6.40625 c -0.46875,1e-5 -0.76498,-0.026 -0.88867,-0.0781 -0.1237,-0.0521 -0.23438,-0.14972 -0.33203,-0.29297 -0.0977,-0.14321 -0.14649,-0.29946 -0.14649,-0.46875 0,-0.23436 0.0846,-0.42967 0.25391,-0.58594 0.16927,-0.15623 0.45572,-0.23435 0.85937,-0.23437 l 4.47266,0 c 0.40364,2e-5 0.68684,0.0781 0.84961,0.23437 0.16275,0.15627 0.24413,0.35809 0.24414,0.60547 -10e-6,0.23439 -0.0814,0.42971 -0.24414,0.58594 -0.16277,0.15627 -0.44597,0.23439 -0.84961,0.23438 l -1.95313,0 5.52735,5.33203 5.5664,-5.33203 -1.95312,0 c -0.39064,1e-5 -0.67384,-0.0781 -0.84961,-0.23438 -0.1758,-0.15623 -0.26369,-0.35806 -0.26367,-0.60547 -2e-5,-0.23436 0.0846,-0.42967 0.2539,-0.58594 0.16926,-0.15623 0.45572,-0.23435 0.85938,-0.23437 l 4.47266,0 c 0.3906,2e-5 0.67055,0.0781 0.83984,0.23437 0.16925,0.15627 0.25388,0.35809 0.25391,0.60547 -3e-5,0.15627 -0.0489,0.30601 -0.14649,0.44922 -0.0977,0.14325 -0.20835,0.2409 -0.33203,0.29297 -0.12372,0.0521 -0.41994,0.0781 -0.88867,0.0781 z" style="line-height:108.00000429%;font-family:Courier New;-inkscape-font-specification:Courier New" id="path5129"/><path d="m 297.9045,382.81499 -7.61719,-15.2539 -0.48828,0 c -0.39063,1e-5 -0.67058,-0.0781 -0.83984,-0.23438 -0.16928,-0.15623 -0.25391,-0.35155 -0.25391,-0.58594 0,-0.16925 0.0423,-0.32225 0.12695,-0.45898 0.0846,-0.1367 0.19531,-0.23436 0.33203,-0.29297 0.13672,-0.0586 0.34831,-0.0879 0.63477,-0.0879 l 4.49219,0 c 0.39061,2e-5 0.67056,0.0781 0.83984,0.23437 0.16926,0.15627 0.2539,0.35809 0.25391,0.60547 -1e-5,0.23439 -0.0847,0.42971 -0.25391,0.58594 -0.16928,0.15627 -0.44923,0.23439 -0.83984,0.23438 l -2.20703,0 6.69922,13.45703 6.60156,-13.45703 -2.20703,0 c -0.39065,1e-5 -0.67059,-0.0781 -0.83985,-0.23438 -0.16928,-0.15623 -0.25392,-0.35806 -0.2539,-0.60547 -2e-5,-0.23436 0.0846,-0.42967 0.2539,-0.58594 0.16926,-0.15623 0.4492,-0.23435 0.83985,-0.23437 l 4.47265,0 c 0.40363,2e-5 0.69008,0.0781 0.85938,0.23437 0.16925,0.15627 0.25388,0.35809 0.2539,0.60547 -2e-5,0.16929 -0.0521,0.32554 -0.15625,0.46875 -0.10419,0.14325 -0.22137,0.23765 -0.35156,0.28321 -0.13023,0.0456 -0.49481,0.0684 -1.09375,0.0684 l -10.39062,21.15234 2.55859,0 c 0.39061,-1e-5 0.67056,0.0749 0.83984,0.22461 0.16926,0.14973 0.2539,0.3483 0.25391,0.5957 -1e-5,0.23437 -0.0847,0.42968 -0.25391,0.58594 -0.16928,0.15624 -0.44923,0.23437 -0.83984,0.23437 l -9.45312,0 c -0.39063,0 -0.67058,-0.0749 -0.83985,-0.2246 -0.16927,-0.14975 -0.25391,-0.34832 -0.2539,-0.59571 -1e-5,-0.2474 0.0846,-0.44597 0.2539,-0.5957 0.16927,-0.14975 0.44922,-0.22462 0.83985,-0.22461 l 5.13671,0 z" style="line-height:108.00000429%;font-family:Courier New;-inkscape-font-specification:Courier New" id="path5131"/><path d="m 328.95919,365.90093 0,1.46484 -12.28516,13.8086 11.09375,0 0,-2.26563 c -2e-5,-0.39062 0.0748,-0.67057 0.22461,-0.83984 0.14972,-0.16927 0.34829,-0.2539 0.5957,-0.25391 0.24738,10e-6 0.4492,0.0846 0.60547,0.25391 0.15623,0.16927 0.23436,0.44922 0.23438,0.83984 l -0.0195,3.90625 -15,0 0,-1.46484 12.22656,-13.78906 -10.19531,0 0,2.22656 c -1e-5,0.39064 -0.0781,0.67058 -0.23438,0.83984 -0.15626,0.16928 -0.35157,0.25392 -0.58594,0.25391 -0.2474,1e-5 -0.44922,-0.0846 -0.60547,-0.25391 -0.15625,-0.16926 -0.23438,-0.4492 -0.23437,-0.83984 l 0,-3.88672 z" style="line-height:108.00000429%;font-family:Courier New;-inkscape-font-specification:Courier New" id="path5133"/></g>
<g style="font-size:40px;font-style:normal;font-variant:normal;font-weight:normal;font-stretch:normal;text-align:start;line-height:108.00000429%;writing-mode:lr-tb;text-anchor:start;fill:#ffffff;fill-opacity:1;stroke:none;font-family:Courier New;-inkscape-font-specification:Courier New" id="text4028"><path d="m 166.49825,410.33765 0,4.0625 c -2e-5,3.52865 -0.83987,6.32161 -2.51954,8.3789 -1.31512,1.61459 -2.97527,2.42188 -4.98046,2.42188 -0.96356,0 -1.87176,-0.19206 -2.72461,-0.57617 -0.85288,-0.38412 -1.57879,-0.92123 -2.17774,-1.61133 -0.37761,-0.42969 -0.79102,-1.11979 -1.24023,-2.07031 -0.44923,-0.95052 -0.77149,-1.82292 -0.9668,-2.61719 -0.29948,-1.11979 -0.44922,-2.42838 -0.44922,-3.92578 l 0,-4.0625 c 0,-3.54165 0.83984,-6.34113 2.51953,-8.39844 1.3151,-1.61456 2.97525,-2.42185 4.98047,-2.42188 0.97655,3e-5 1.88801,0.19209 2.73438,0.57618 0.84634,0.38413 1.56899,0.92124 2.16797,1.61132 0.3906,0.44273 0.80727,1.13935 1.25,2.08985 0.44269,0.95054 0.76821,1.81642 0.97656,2.59765 0.28644,1.11981 0.42967,2.43492 0.42969,3.94532 z m -1.64063,0.21484 c -2e-5,-1.54946 -0.21812,-2.99152 -0.6543,-4.32617 -0.43621,-1.33462 -0.92775,-2.39907 -1.47461,-3.19336 -0.32553,-0.45571 -0.74871,-0.84633 -1.26953,-1.17188 -0.7422,-0.4557 -1.57553,-0.68357 -2.5,-0.68359 -1.83594,2e-5 -3.27475,0.93752 -4.3164,2.8125 -1.04168,1.87502 -1.56251,4.06252 -1.5625,6.5625 l 0,3.61328 c -10e-6,1.54949 0.21809,2.9948 0.65429,4.33594 0.43619,1.34115 0.93424,2.40886 1.49414,3.20312 0.3125,0.44271 0.72916,0.82683 1.25,1.15235 0.74218,0.46875 1.58202,0.70312 2.51954,0.70312 1.8229,0 3.25519,-0.94075 4.29687,-2.82226 1.04165,-1.88151 1.56248,-4.07226 1.5625,-6.57227 z" style="" id="path5136"/><path d="m 183.76387,399.77124 0,23.20313 5.625,0 c 0.39061,0 0.67055,0.0749 0.83984,0.2246 0.16926,0.14975 0.25389,0.34831 0.25391,0.59571 -2e-5,0.23437 -0.0847,0.42969 -0.25391,0.58594 -0.16929,0.15625 -0.44923,0.23437 -0.83984,0.23437 l -12.89062,0 c -0.39063,0 -0.67058,-0.0781 -0.83985,-0.23437 -0.16927,-0.15625 -0.25391,-0.35157 -0.2539,-0.58594 -1e-5,-0.2474 0.0846,-0.44596 0.2539,-0.59571 0.16927,-0.14973 0.44922,-0.2246 0.83985,-0.2246 l 5.625,0 0,-20.9375 -5.35157,1.67968 c -0.26042,0.0781 -0.44922,0.11721 -0.5664,0.11719 -0.19532,2e-5 -0.37436,-0.0814 -0.53711,-0.24414 -0.16277,-0.16274 -0.24415,-0.3548 -0.24414,-0.57617 -10e-6,-0.19529 0.0651,-0.37758 0.19531,-0.54688 0.10416,-0.10414 0.319,-0.21482 0.64453,-0.33203 z" style="" id="path5138"/><path d="m 199.87715,422.97437 12.59766,0 0,-0.64454 c -2e-5,-0.39062 0.0781,-0.67057 0.23437,-0.83984 0.15623,-0.16927 0.35806,-0.2539 0.60547,-0.25391 0.23436,10e-6 0.42967,0.0846 0.58594,0.25391 0.15623,0.16927 0.23435,0.44922 0.23437,0.83984 l 0,2.28516 -15.85937,0 0,-2.42187 c 3.33333,-2.99479 6.57551,-6.04166 9.72656,-9.14063 1.47134,-1.4453 2.48045,-2.5065 3.02735,-3.18359 0.54685,-0.67707 0.9212,-1.27277 1.12304,-1.78711 0.20181,-0.51431 0.30272,-1.03189 0.30274,-1.55274 -2e-5,-1.40623 -0.56643,-2.64972 -1.69922,-3.73047 -1.13283,-1.0807 -2.50002,-1.62107 -4.10156,-1.62109 -1.43231,2e-5 -2.70184,0.41018 -3.8086,1.23047 -1.10678,0.82033 -1.82292,1.83596 -2.14844,3.04687 -0.0781,0.31252 -0.17578,0.51435 -0.29296,0.60547 -0.15626,0.13023 -0.33855,0.19533 -0.54688,0.19532 -0.22136,10e-6 -0.40691,-0.0749 -0.55664,-0.22461 -0.14974,-0.14972 -0.22461,-0.32876 -0.22461,-0.53711 0,-0.62498 0.34179,-1.47134 1.02539,-2.53907 0.68359,-1.06768 1.6276,-1.90752 2.83203,-2.51953 1.20442,-0.61195 2.43814,-0.91794 3.70117,-0.91797 2.04426,3e-5 3.80207,0.70966 5.27344,2.12891 1.47134,1.41929 2.20701,3.02736 2.20703,4.82422 -2e-5,0.75522 -0.12371,1.44858 -0.37109,2.08008 -0.24742,0.63152 -0.66734,1.32163 -1.25977,2.07031 -0.59246,0.74871 -1.65691,1.87827 -3.19336,3.38867 -3.85417,3.80209 -6.99219,6.75131 -9.41406,8.84766 z" style="" id="path5140"/><path d="m 234.29121,411.27515 c 1.5104,0.67709 2.66275,1.60483 3.45704,2.7832 0.79425,1.17839 1.19138,2.40561 1.1914,3.68164 -2e-5,1.96615 -0.79754,3.70118 -2.39258,5.20508 -1.59506,1.5039 -3.59051,2.25586 -5.98632,2.25586 -1.40626,0 -2.8646,-0.29948 -4.375,-0.89844 -1.51043,-0.59896 -2.56511,-1.21094 -3.16407,-1.83594 -0.19531,-0.20833 -0.29297,-0.42968 -0.29297,-0.66406 0,-0.20833 0.0749,-0.39062 0.22461,-0.54687 0.14974,-0.15625 0.32878,-0.23438 0.53711,-0.23438 0.20833,0 0.44271,0.0977 0.70313,0.29297 2.01822,1.4974 4.15363,2.24609 6.40625,2.24609 1.90103,0 3.49282,-0.5957 4.77539,-1.78711 1.28253,-1.1914 1.92381,-2.51627 1.92383,-3.97461 -2e-5,-0.97655 -0.31578,-1.93358 -0.94727,-2.87109 -0.63153,-0.93749 -1.53973,-1.67642 -2.72461,-2.2168 -1.18491,-0.54035 -2.38282,-0.81053 -3.59375,-0.81054 -0.39063,1e-5 -0.67058,-0.0749 -0.83984,-0.22461 -0.16928,-0.14973 -0.25392,-0.3483 -0.25391,-0.59571 -1e-5,-0.23436 0.0814,-0.42967 0.24414,-0.58593 0.16275,-0.15624 0.40689,-0.23436 0.73242,-0.23438 l 1.40625,0.0195 c 1.47134,2e-5 2.68554,-0.4492 3.64258,-1.34765 0.95702,-0.89842 1.43553,-1.94009 1.43555,-3.125 -2e-5,-1.22394 -0.50132,-2.30467 -1.50391,-3.24219 -1.00262,-0.93748 -2.31121,-1.40623 -3.92578,-1.40625 -1.13282,2e-5 -2.17449,0.19533 -3.125,0.58594 -0.95053,0.39064 -1.71225,0.9245 -2.28515,1.60156 -0.20834,0.26044 -0.36785,0.41994 -0.47852,0.47851 -0.11068,0.0586 -0.23764,0.0879 -0.38086,0.0879 -0.22136,2e-5 -0.41016,-0.0749 -0.56641,-0.22461 -0.15625,-0.14972 -0.23438,-0.32876 -0.23437,-0.53711 -1e-5,-0.52081 0.5664,-1.17837 1.69922,-1.97266 1.57551,-1.10675 3.36587,-1.66013 5.37109,-1.66016 2.0703,3e-5 3.76952,0.62177 5.09766,1.86524 1.3281,1.24351 1.99217,2.72463 1.99219,4.44336 -2e-5,1.09377 -0.31903,2.12892 -0.95704,3.10547 -0.63803,0.97657 -1.57553,1.75782 -2.8125,2.34375 z" style="" id="path5142"/><path d="m 257.96309,417.75952 -10.87891,0 0,-1.89453 9.1211,-15.76172 3.41797,0 0,16.01563 1.36718,0 c 0.40363,0 0.69009,0.0749 0.85938,0.22461 0.16925,0.14974 0.25388,0.34831 0.2539,0.5957 -2e-5,0.23438 -0.0846,0.42969 -0.2539,0.58594 -0.16929,0.15625 -0.45575,0.23438 -0.85938,0.23437 l -1.36718,0 0,5.21485 1.36718,0 c 0.40363,0 0.69009,0.0749 0.85938,0.2246 0.16925,0.14975 0.25388,0.34831 0.2539,0.59571 -2e-5,0.23437 -0.0846,0.42969 -0.2539,0.58594 -0.16929,0.15625 -0.45575,0.23437 -0.85938,0.23437 l -6.09375,0 c -0.40365,0 -0.69011,-0.0781 -0.85937,-0.23437 -0.16928,-0.15625 -0.25392,-0.35157 -0.25391,-0.58594 -1e-5,-0.2474 0.0846,-0.44596 0.25391,-0.59571 0.16926,-0.14973 0.45572,-0.2246 0.85937,-0.2246 l 3.06641,0 z m 0,-1.64062 0,-14.35547 -0.85938,0 -8.30078,14.35547 z" style="" id="path5144"/><path d="m 274.36934,401.76343 0,8.02734 c 0.96353,-0.40363 1.88801,-0.70636 2.77344,-0.9082 0.8854,-0.20181 1.72524,-0.30272 2.51953,-0.30274 2.05727,2e-5 3.77928,0.72268 5.16601,2.16797 1.3867,1.44533 2.08006,3.34637 2.08008,5.70313 -2e-5,2.60417 -0.78127,4.71354 -2.34375,6.32812 -1.56251,1.61459 -3.51564,2.42188 -5.85937,2.42188 -1.54949,0 -3.04038,-0.34505 -4.47266,-1.03516 -1.01563,-0.48177 -1.94011,-1.08073 -2.77344,-1.79687 -0.49479,-0.42969 -0.74219,-0.78776 -0.74218,-1.07422 -10e-6,-0.23437 0.0781,-0.43294 0.23437,-0.59571 0.15625,-0.16275 0.33854,-0.24413 0.54688,-0.24414 0.22134,10e-6 0.45572,0.1172 0.70312,0.35157 1.96614,1.83594 4.10806,2.7539 6.42578,2.7539 1.91405,0 3.49608,-0.65429 4.7461,-1.96289 1.24998,-1.30859 1.87498,-3.05012 1.875,-5.22461 -2e-5,-1.84895 -0.54039,-3.33657 -1.6211,-4.46289 -1.08074,-1.12629 -2.45444,-1.68944 -4.12109,-1.68945 -1.70574,10e-6 -3.41147,0.44923 -5.11719,1.34766 -0.41667,0.20834 -0.70964,0.31251 -0.87891,0.3125 -0.23438,10e-6 -0.42318,-0.0781 -0.5664,-0.23438 -0.14324,-0.15624 -0.21485,-0.37759 -0.21485,-0.66406 l 0,-10.87891 11.44532,0 c 0.3906,3e-5 0.67055,0.0781 0.83984,0.23438 0.16925,0.15627 0.25389,0.35809 0.25391,0.60547 -2e-5,0.23439 -0.0847,0.42971 -0.25391,0.58593 -0.16929,0.15628 -0.44924,0.2344 -0.83984,0.23438 z" style="" id="path5146"/><path d="m 297.98262,414.2439 c 1.01562,-1.49739 2.06054,-2.60416 3.13477,-3.32032 1.0742,-0.71613 2.26886,-1.0742 3.58398,-1.07421 1.74478,10e-6 3.29425,0.72592 4.64844,2.17773 1.35414,1.45183 2.03123,3.24545 2.03125,5.38086 -2e-5,1.95313 -0.61851,3.74024 -1.85547,5.36133 -1.237,1.62109 -2.94273,2.43164 -5.11719,2.43164 -1.41928,0 -2.74415,-0.4362 -3.97461,-1.3086 -1.23047,-0.87239 -2.19727,-2.21353 -2.90039,-4.02343 -0.8724,-2.2526 -1.3086,-4.74609 -1.30859,-7.48047 -10e-6,-2.05728 0.41015,-3.97134 1.23047,-5.74219 0.62499,-1.36717 1.45832,-2.56834 2.5,-3.60352 1.04165,-1.03513 2.25584,-1.88148 3.64257,-2.53906 1.38671,-0.65753 2.88736,-0.9863 4.50196,-0.98633 1.09373,3e-5 2.00519,0.22138 2.73437,0.66407 0.31248,0.19533 0.46873,0.45575 0.46875,0.78125 -2e-5,0.23439 -0.0716,0.42645 -0.21484,0.57617 -0.14325,0.14976 -0.32554,0.22463 -0.54688,0.22461 -0.16929,2e-5 -0.37111,-0.0651 -0.60546,-0.19531 -0.53388,-0.2604 -1.19794,-0.39061 -1.99219,-0.39063 -2.53908,2e-5 -4.85353,1.09052 -6.94336,3.27148 -2.08985,2.18101 -3.13477,4.77541 -3.13477,7.78321 0,0.4297 0.0391,1.10027 0.11719,2.01172 z m 0.37109,2.71484 c 0.49479,2.3698 1.27278,4.0625 2.33399,5.07813 1.06119,1.01562 2.31444,1.52343 3.75976,1.52343 1.45832,0 2.70507,-0.56966 3.74024,-1.70898 1.03514,-1.13932 1.55271,-2.62044 1.55273,-4.44336 -2e-5,-1.70572 -0.52085,-3.11848 -1.5625,-4.23828 -1.04168,-1.11978 -2.22006,-1.67968 -3.53515,-1.67969 -1.26304,1e-5 -2.48048,0.54038 -3.65235,1.62109 -0.78126,0.71616 -1.66016,1.99871 -2.63672,3.84766 z" style="" id="path5148"/><path d="m 332.37715,402.50562 0,-0.74219 -11.75781,0 0,1.44531 c -1e-5,0.39065 -0.0749,0.67059 -0.22461,0.83984 -0.14975,0.1693 -0.34831,0.25393 -0.5957,0.25391 -0.23438,2e-5 -0.4297,-0.0846 -0.58594,-0.25391 -0.15626,-0.16925 -0.23438,-0.44919 -0.23438,-0.83984 l 0,-3.10547 15.0586,0 0,2.61719 -6.60156,21.09375 c -0.10418,0.33854 -0.22788,0.56315 -0.3711,0.67383 -0.14324,0.11067 -0.306,0.16601 -0.48828,0.16601 -0.23439,0 -0.4297,-0.0781 -0.58594,-0.23437 -0.15626,-0.15625 -0.23438,-0.33854 -0.23437,-0.54688 -10e-6,-0.1302 0.0391,-0.3125 0.11719,-0.54687 z" style="" id="path5150"/><path d="m 354.21309,411.90015 c 1.36717,0.66407 2.39907,1.53972 3.0957,2.62695 0.6966,1.08725 1.0449,2.25587 1.04492,3.50586 -2e-5,1.94011 -0.72918,3.61979 -2.1875,5.03906 -1.45835,1.41927 -3.22918,2.12891 -5.3125,2.12891 -2.08334,0 -3.85417,-0.70964 -5.3125,-2.12891 -1.45833,-1.41927 -2.1875,-3.09895 -2.1875,-5.03906 0,-1.23697 0.34831,-2.39908 1.04493,-3.48633 0.6966,-1.08723 1.73501,-1.96939 3.11523,-2.64648 -1.19792,-0.69009 -2.07032,-1.40624 -2.61719,-2.14844 -0.75521,-1.05467 -1.13281,-2.22004 -1.13281,-3.49609 0,-1.79686 0.69335,-3.36912 2.08008,-4.7168 1.38671,-1.34763 3.05663,-2.02146 5.00976,-2.02149 1.96614,3e-5 3.63931,0.67386 5.01954,2.02149 1.38019,1.34768 2.07029,2.91994 2.07031,4.7168 -2e-5,1.27605 -0.37763,2.43491 -1.13281,3.47656 -0.53388,0.75522 -1.39976,1.47788 -2.59766,2.16797 z m 2.05078,-5.58594 c -2e-5,-1.40623 -0.52411,-2.61391 -1.57227,-3.62305 -1.04819,-1.00909 -2.33399,-1.51365 -3.85742,-1.51367 -1.51042,2e-5 -2.78972,0.50784 -3.83789,1.52344 -1.04818,1.01564 -1.57227,2.21356 -1.57226,3.59375 -1e-5,1.27606 0.51757,2.39259 1.55273,3.34961 1.03515,0.95704 2.32095,1.43556 3.85742,1.43554 1.54947,2e-5 2.84178,-0.4785 3.87696,-1.43554 1.03514,-0.95702 1.55271,-2.06704 1.55273,-3.33008 z m 0.44922,11.75781 c -2e-5,-1.4453 -0.55991,-2.70181 -1.67969,-3.76953 -1.11981,-1.0677 -2.51303,-1.60155 -4.17969,-1.60156 -1.66667,10e-6 -3.0599,0.53386 -4.17968,1.60156 -1.1198,1.06772 -1.6797,2.31772 -1.67969,3.75 -1e-5,1.48438 0.56314,2.77344 1.68945,3.86719 1.1263,1.09375 2.51627,1.64062 4.16992,1.64062 1.65364,0 3.04361,-0.54687 4.16993,-1.64062 1.12628,-1.09375 1.68943,-2.3763 1.68945,-3.84766 z" style="" id="path5152"/><path d="m 381.55684,410.7478 c -0.84637,1.49741 -1.85223,2.62371 -3.01758,3.37891 -1.16538,0.75522 -2.36004,1.13282 -3.58398,1.13281 -1.13283,10e-6 -2.22983,-0.32551 -3.29102,-0.97656 -1.0612,-0.65103 -1.9043,-1.60481 -2.5293,-2.86133 -0.625,-1.2565 -0.9375,-2.57485 -0.9375,-3.95508 0,-2.00519 0.62174,-3.83136 1.86524,-5.47851 1.24348,-1.64711 2.90689,-2.47068 4.99023,-2.47071 1.48436,3e-5 2.83853,0.46227 4.0625,1.38672 1.22394,0.9245 2.17446,2.26565 2.85157,4.02344 0.87237,2.25262 1.30857,4.86981 1.30859,7.85156 -2e-5,2.31772 -0.37111,4.2448 -1.11328,5.78125 -0.49481,1.04167 -1.22072,2.05079 -2.17774,3.02735 -0.95704,0.97656 -2.03452,1.77083 -3.23242,2.38281 -1.64064,0.82031 -3.34636,1.23047 -5.11719,1.23047 -1.17188,0 -2.12891,-0.22136 -2.87109,-0.66406 -0.33855,-0.20834 -0.50782,-0.46875 -0.50781,-0.78125 -10e-6,-0.22136 0.0781,-0.4069 0.23437,-0.55665 0.15625,-0.14973 0.34505,-0.2246 0.56641,-0.2246 0.15624,0 0.38411,0.0716 0.68359,0.21484 0.50781,0.2474 1.09374,0.37109 1.75782,0.37109 2.77342,0 5.15623,-0.99934 7.14843,-2.99804 1.99217,-1.9987 2.98827,-4.50195 2.98828,-7.50977 -10e-6,-0.54686 -0.0261,-1.31509 -0.0781,-2.30469 z m -0.3125,-2.73437 c -0.69012,-2.64321 -1.54624,-4.44334 -2.56836,-5.40039 -1.02215,-0.95701 -2.21681,-1.43553 -3.58398,-1.43555 -1.39324,2e-5 -2.6172,0.58596 -3.67188,1.75781 -1.05469,1.1719 -1.58204,2.6758 -1.58203,4.51172 -1e-5,1.78387 0.52734,3.25848 1.58203,4.42383 1.05468,1.16538 2.24608,1.74806 3.57422,1.74805 0.76822,1e-5 1.52668,-0.20833 2.27539,-0.625 0.74868,-0.41666 1.45506,-1.04166 2.11914,-1.875 0.42967,-0.55989 1.04816,-1.59504 1.85547,-3.10547 z" style="" id="path5154"/></g>
<g style="font-size:40px;font-style:italic;font-variant:normal;font-weight:normal;font-stretch:normal;text-align:center;line-height:125%;writing-mode:lr-tb;text-anchor:middle;fill:#000000;fill-opacity:1;stroke:none;font-family:Courier New;-inkscape-font-specification:Courier New Italic" id="text5003"><path d="m 46.283405,166.97829 -10.78125,0 -3.496093,5.99609 3.144531,0 c 0.377595,0 0.631501,0.0553 0.761719,0.16602 0.130198,0.11067 0.195302,0.27018 0.195312,0.47851 -1e-5,0.27344 -0.110687,0.50781 -0.332031,0.70313 -0.221363,0.19531 -0.546884,0.29297 -0.976563,0.29297 l -6.113281,0 c -0.364585,0 -0.611981,-0.0586 -0.742187,-0.17579 -0.13021,-0.11718 -0.195314,-0.27994 -0.195313,-0.48828 -1e-6,-0.26041 0.10742,-0.48828 0.322266,-0.68359 0.214842,-0.19531 0.537107,-0.29297 0.966797,-0.29297 l 1.25,0 11.425781,-19.57031 -4.84375,0 c -0.364594,2e-5 -0.611989,-0.0553 -0.742188,-0.16602 -0.130218,-0.11065 -0.195322,-0.27667 -0.195312,-0.49804 -1e-5,-0.2604 0.107412,-0.48826 0.322265,-0.6836 0.214834,-0.19529 0.537099,-0.29294 0.966797,-0.29297 l 8.242188,0 3.515625,21.21094 1.269531,0 c 0.364559,0 0.611955,0.0553 0.742188,0.16602 0.130183,0.11067 0.195287,0.27018 0.195312,0.47851 -2.5e-5,0.27344 -0.107446,0.50781 -0.322266,0.70313 -0.214868,0.19531 -0.537133,0.29297 -0.966796,0.29297 l -6.132813,0 c -0.3646,0 -0.611996,-0.0586 -0.742187,-0.17579 -0.130225,-0.11718 -0.195329,-0.27994 -0.195313,-0.48828 -1.6e-5,-0.26041 0.107405,-0.48828 0.322266,-0.68359 0.214826,-0.19531 0.537092,-0.29297 0.966797,-0.29297 l 3.144531,0 z m -0.273437,-1.64063 -1.992188,-11.93359 -0.605468,0 -6.953125,11.93359 z" style="" id="path5157"/><path d="m 67.14278,174.61501 0.488282,-2.36329 c -2.799494,2.00521 -5.559908,3.00782 -8.28125,3.00782 -1.744799,0 -3.059902,-0.39063 -3.945313,-1.17188 -0.885421,-0.78125 -1.328129,-1.75781 -1.328125,-2.92969 -4e-6,-1.78384 0.781246,-3.31379 2.34375,-4.58984 1.940096,-1.60155 4.472646,-2.40233 7.597656,-2.40234 1.497381,1e-5 3.235661,0.20183 5.214844,0.60547 l 0.566406,-2.65625 c 0.03904,-0.1953 0.05858,-0.39062 0.05859,-0.58594 -1.9e-5,-0.7552 -0.299498,-1.36066 -0.898437,-1.81641 -0.80731,-0.62498 -1.959652,-0.93748 -3.457032,-0.9375 -1.263034,2e-5 -3.203137,0.39064 -5.820312,1.17188 -0.299488,0.0912 -0.514332,0.13673 -0.644531,0.13672 -0.16928,10e-6 -0.312509,-0.0586 -0.429688,-0.17579 -0.117196,-0.11717 -0.175789,-0.27342 -0.175781,-0.46875 -8e-6,-0.24738 0.09439,-0.46873 0.283203,-0.66406 0.188794,-0.19529 0.921215,-0.45571 2.197266,-0.78125 2.252591,-0.58592 3.925766,-0.87889 5.019531,-0.8789 1.861962,10e-6 3.264955,0.41017 4.208984,1.23046 0.94399,0.82033 1.415995,1.74481 1.416016,2.77344 -2.1e-5,0.33856 -0.03908,0.67059 -0.117188,0.9961 l -2.304687,10.85937 2.207031,0 c 0.364562,0 0.611958,0.0553 0.742188,0.16602 0.130186,0.11067 0.19529,0.27018 0.195312,0.47851 -2.2e-5,0.27344 -0.107444,0.50781 -0.322266,0.70313 -0.214865,0.19531 -0.53713,0.29297 -0.966796,0.29297 z m 1.738282,-8.16407 c -1.471372,-0.42968 -3.151057,-0.64452 -5.039063,-0.64453 -2.617198,1e-5 -4.71355,0.60548 -6.289062,1.81641 -1.184902,0.91146 -1.77735,1.95313 -1.777344,3.125 -6e-6,0.84636 0.309239,1.53646 0.927734,2.07031 0.618483,0.53386 1.572258,0.80078 2.861328,0.80078 1.419261,0 2.799468,-0.27669 4.140625,-0.83008 1.341131,-0.55338 2.805974,-1.46158 4.394532,-2.72461 z" style="" id="path5159"/></g><g style="font-size:40px;font-style:italic;font-variant:normal;font-weight:normal;font-stretch:normal;text-align:center;line-height:125%;writing-mode:lr-tb;text-anchor:middle;fill:#000000;fill-opacity:1;stroke:none;font-family:Courier New;-inkscape-font-specification:Courier New Italic" id="text5007"><path d="m 106.98575,163.57985 -1.99219,9.39453 12.61719,0 1.01562,-4.84375 c 0.0911,-0.39062 0.2311,-0.67057 0.41993,-0.83984 0.18878,-0.16927 0.40687,-0.2539 0.65429,-0.25391 0.18227,1e-5 0.33527,0.0586 0.45899,0.17578 0.12367,0.1172 0.18552,0.25392 0.18554,0.41016 -2e-5,0.11719 -0.0195,0.28646 -0.0586,0.50781 l -1.38672,6.48438 -18.10547,0 c -0.36458,0 -0.61198,-0.0586 -0.74219,-0.17579 -0.130206,-0.11718 -0.19531,-0.27994 -0.195308,-0.48828 -2e-6,-0.26041 0.10742,-0.48828 0.322268,-0.68359 0.21484,-0.19531 0.5371,-0.29297 0.96679,-0.29297 l 2.20704,0 4.16015,-19.57031 -2.20703,0 c -0.36459,2e-5 -0.61199,-0.0553 -0.74219,-0.16602 -0.13021,-0.11065 -0.19532,-0.27667 -0.19531,-0.49804 -1e-5,-0.2604 0.10742,-0.48826 0.32227,-0.6836 0.21483,-0.19529 0.5371,-0.29294 0.96679,-0.29297 l 17.2461,0 -1.21094,5.64453 c -0.0781,0.40367 -0.21161,0.68687 -0.40039,0.84961 -0.18883,0.16278 -0.40693,0.24416 -0.6543,0.24414 -0.19533,2e-5 -0.35484,-0.0586 -0.47851,-0.17578 -0.12372,-0.11717 -0.18557,-0.25389 -0.18555,-0.41015 -2e-5,-0.11717 0.026,-0.28644 0.0781,-0.50782 l 0.83985,-4.0039 -11.73828,0 -1.81641,8.53515 5.87891,0 0.39062,-1.85546 c 0.0911,-0.39061 0.23111,-0.67056 0.41992,-0.83985 0.18879,-0.16925 0.40689,-0.25389 0.6543,-0.2539 0.18228,10e-6 0.33853,0.0586 0.46875,0.17578 0.13019,0.1172 0.1953,0.26043 0.19531,0.42968 -10e-6,0.10419 -0.0261,0.26695 -0.0781,0.48829 l -1.13281,5.35156 c -0.0912,0.39063 -0.23114,0.67058 -0.41993,0.83984 -0.18881,0.16928 -0.40691,0.25392 -0.65429,0.25391 -0.18231,1e-5 -0.3353,-0.0586 -0.45899,-0.17578 -0.12371,-0.11718 -0.18556,-0.26041 -0.18554,-0.42969 -2e-5,-0.11718 0.0195,-0.27994 0.0586,-0.48828 l 0.39062,-1.85547 z" style="" id="path5162"/><path d="m 144.5834,166.5486 -16.71875,0 c -0.0391,0.40365 -0.0586,0.70964 -0.0586,0.91797 -1e-5,1.78386 0.60546,3.25521 1.81641,4.41406 1.21093,1.15886 2.85155,1.73828 4.92187,1.73828 1.21093,0 2.52603,-0.19856 3.94531,-0.5957 1.41926,-0.39713 2.6367,-0.93424 3.65235,-1.61133 0.29946,-0.19531 0.54034,-0.29296 0.72265,-0.29297 0.16925,1e-5 0.31248,0.0618 0.42969,0.18555 0.11717,0.1237 0.17576,0.2832 0.17578,0.47851 -2e-5,0.23438 -0.10418,0.45574 -0.3125,0.66407 -0.59898,0.63802 -1.79689,1.26627 -3.59375,1.88476 -1.79689,0.61849 -3.6198,0.92774 -5.46875,0.92774 -2.39584,0 -4.31967,-0.70964 -5.77148,-2.12891 -1.45183,-1.41927 -2.17774,-3.22265 -2.17774,-5.41016 0,-1.4453 0.3125,-2.80923 0.9375,-4.09179 0.625,-1.28254 1.44857,-2.38931 2.47071,-3.32032 1.02212,-0.93097 2.20051,-1.69594 3.53515,-2.29492 1.33463,-0.59894 2.7897,-0.89842 4.36524,-0.89843 2.23956,10e-6 4.03969,0.65756 5.40039,1.97265 1.36065,1.31512 2.04099,2.99481 2.04101,5.03906 -2e-5,0.6771 -0.10418,1.48439 -0.3125,2.42188 z m -1.32812,-1.66016 c 0.0651,-1.79686 -0.46877,-3.26821 -1.60156,-4.41406 -1.14585,-1.1328 -2.68231,-1.6992 -4.60938,-1.69922 -1.87501,2e-5 -3.62631,0.5534 -5.2539,1.66016 -1.62762,1.10678 -2.81902,2.59116 -3.57422,4.45312 z" style="" id="path5164"/></g><g style="font-size:40px;font-style:italic;font-variant:normal;font-weight:normal;font-stretch:normal;text-align:center;line-height:125%;writing-mode:lr-tb;text-anchor:middle;fill:#000000;fill-opacity:1;stroke:none;font-family:Courier New;-inkscape-font-specification:Courier New Italic" id="text5011"><path d="m 181.38106,175.25954 -2.51953,1.64062 c 1.11978,-0.22135 2.03775,-0.33203 2.7539,-0.33203 1.1328,0 2.21353,0.20833 3.24219,0.625 0.71613,0.29948 1.28905,0.44922 1.71875,0.44922 0.75519,0 1.66014,-0.30599 2.71484,-0.91797 0.41665,-0.23438 0.70311,-0.35156 0.85938,-0.35156 0.19529,0 0.35154,0.0553 0.46875,0.16601 0.11717,0.11068 0.17576,0.26367 0.17578,0.45899 -2e-5,0.23437 -0.0781,0.4427 -0.23437,0.625 -0.24742,0.28645 -0.86266,0.63476 -1.84571,1.04492 -0.98309,0.41015 -1.84572,0.61523 -2.58789,0.61523 -0.54689,0 -1.26629,-0.17578 -2.1582,-0.52734 -0.89194,-0.35157 -1.78712,-0.52735 -2.68555,-0.52734 -0.62501,-10e-6 -1.41277,0.0781 -2.36328,0.23437 -1.38022,0.22135 -2.4935,0.44271 -3.33984,0.66406 -0.27345,0.0651 -0.46876,0.0977 -0.58594,0.0977 -0.19532,0 -0.35157,-0.0586 -0.46875,-0.17578 -0.11719,-0.11719 -0.17579,-0.27344 -0.17578,-0.46875 -1e-5,-0.35157 0.20833,-0.65756 0.625,-0.91797 l 4.21875,-2.63672 c -1.66668,-0.41666 -3.04363,-1.39648 -4.13086,-2.93945 -1.08725,-1.54297 -1.63087,-3.46028 -1.63086,-5.75195 -1e-5,-2.14843 0.42968,-4.19921 1.28906,-6.15235 0.85937,-1.95311 1.9401,-3.60024 3.24219,-4.9414 1.30207,-1.34113 2.65624,-2.34373 4.0625,-3.00782 1.40623,-0.66404 2.83201,-0.99607 4.27734,-0.99609 2.22655,2e-5 4.07876,0.8008 5.55664,2.40234 1.47784,1.60158 2.21678,3.77606 2.2168,6.52344 -2e-5,2.56512 -0.6413,5.05535 -1.92383,7.4707 -1.28257,2.41537 -2.91994,4.28061 -4.91211,5.59571 -1.9922,1.3151 -3.94532,1.99218 -5.85937,2.03125 z m 0.11719,-1.64063 c 1.62759,0 3.31053,-0.58268 5.04882,-1.74805 1.73827,-1.16536 3.14451,-2.81249 4.21875,-4.9414 1.0742,-2.1289 1.61131,-4.28059 1.61133,-6.45508 -2e-5,-2.31769 -0.61851,-4.16339 -1.85547,-5.53711 -1.237,-1.37368 -2.72788,-2.06052 -4.47265,-2.06055 -1.22398,3e-5 -2.43166,0.28974 -3.62305,0.86914 -1.19142,0.57945 -2.33725,1.44859 -3.4375,2.60743 -1.10027,1.15887 -2.02149,2.5879 -2.76367,4.28711 -0.7422,1.69923 -1.11329,3.44076 -1.11328,5.22461 -10e-6,2.40886 0.62173,4.30339 1.86523,5.68359 1.24348,1.38021 2.75064,2.07031 4.52149,2.07031 z" style="" id="path5167"/><path d="m 214.62325,160.68922 0.64453,-2.98828 3.84765,0 c 0.36456,2e-5 0.61196,0.0586 0.74219,0.17578 0.13018,0.11721 0.19529,0.27997 0.19531,0.48829 -2e-5,0.26043 -0.10745,0.49155 -0.32226,0.69335 -0.21487,0.20184 -0.53714,0.30275 -0.9668,0.30274 l -2.20703,0 -4.49219,21.15234 2.1875,0 c 0.29946,0 0.49803,0.0195 0.5957,0.0586 0.0976,0.0391 0.18227,0.11392 0.25391,0.22461 0.0716,0.11067 0.1074,0.23111 0.10742,0.36132 -2e-5,0.27343 -0.1107,0.50781 -0.33203,0.70313 -0.22137,0.1953 -0.54689,0.29296 -0.97656,0.29297 l -7.8125,0 c -0.3646,-1e-5 -0.61199,-0.0586 -0.74219,-0.17578 -0.13022,-0.1172 -0.19532,-0.27345 -0.19531,-0.46875 -1e-5,-0.27345 0.10741,-0.50782 0.32226,-0.70313 0.21484,-0.19532 0.5371,-0.29297 0.9668,-0.29297 l 3.96485,0 2.10937,-9.88281 c -2.31772,2.38281 -4.95444,3.57422 -7.91016,3.57422 -2.10938,0 -3.81836,-0.64128 -5.12695,-1.92383 -1.3086,-1.28255 -1.96289,-2.89387 -1.96289,-4.83398 0,-1.64062 0.48502,-3.28775 1.45508,-4.94141 0.97004,-1.65363 2.3177,-2.96548 4.04297,-3.93555 1.72525,-0.97003 3.4798,-1.45506 5.26367,-1.45507 2.92967,10e-6 5.04555,1.19142 6.34766,3.57421 z m -9.6875,11.85547 c 1.45832,1e-5 2.89712,-0.40039 4.3164,-1.20117 1.41925,-0.80078 2.51626,-1.86197 3.29102,-3.18359 0.77472,-1.32161 1.16209,-2.63997 1.16211,-3.95508 -2e-5,-1.53645 -0.53713,-2.82551 -1.61133,-3.86719 -1.07424,-1.04165 -2.45119,-1.56248 -4.13086,-1.5625 -2.31772,2e-5 -4.35874,0.85288 -6.12305,2.5586 -1.76433,1.70574 -2.64649,3.61329 -2.64648,5.72265 -1e-5,1.56251 0.5371,2.86784 1.61133,3.91602 1.07421,1.04818 2.45116,1.57227 4.13086,1.57226 z" style="" id="path5169"/></g></svg>