<?xml version="1.0" encoding="utf-8"?>
<!-- Generator: Adobe Illustrator 12.0.1, SVG Export Plug-In . SVG Version: 6.00 Build 51448)  -->
<!DOCTYPE svg PUBLIC "-//W3C//DTD SVG 1.1//EN" "http://www.w3.org/Graphics/SVG/1.1/DTD/svg11.dtd" [
	<!ENTITY ns_svg "http://www.w3.org/2000/svg">
	<!ENTITY ns_xlink "http://www.w3.org/1999/xlink">
]>
<svg  version="1.1" id="Layer_1" xmlns="&ns_svg;" xmlns:xlink="&ns_xlink;" width="396" height="468" viewBox="0 0 396 468"
	 overflow="visible" enable-background="new 0 0 396 468" xml:space="preserve">
<g>
	<g>
		<defs>
			<rect id="XMLID_1_" width="396" height="468"/>
		</defs>
		<clipPath id="XMLID_3_">
			<use xlink:href="#XMLID_1_" />
		</clipPath>
		<rect clip-path="url(#XMLID_3_)" fill-rule="evenodd" clip-rule="evenodd" fill="#FFFFFF" width="396" height="468"/>
		<path clip-path="url(#XMLID_3_)" fill-rule="evenodd" clip-rule="evenodd" fill="#E8E6CB" d="M0,0h396v312H0V0z M0,0"/>
	</g>
	<rect y="312" fill-rule="evenodd" clip-rule="evenodd" fill="#6B9BC3" width="396" height="156"/>
	<g>
		<path fill="#1A1A1A" d="M23.917,61.133l13.462-35.094h5.003l14.343,35.094h-5.287l-4.049-10.625H32.671l-3.828,10.625H23.917z
			 M34.02,46.727h11.896l-3.642-9.709c-1.119-2.95-1.955-5.381-2.509-7.291c-0.452,2.252-1.085,4.486-1.9,6.703L34.02,46.727z"/>
		<path fill="#1A1A1A" d="M60.703,61.133V35.695h3.875v3.852c0.986-1.797,1.897-2.982,2.733-3.555s1.754-0.859,2.757-0.859
			c1.448,0,2.92,0.459,4.416,1.376l-1.499,3.983c-1.046-0.614-2.092-0.922-3.138-0.922c-0.936,0-1.775,0.283-2.521,0.851
			s-1.276,1.354-1.595,2.36c-0.478,1.533-0.717,3.211-0.717,5.031v13.32H60.703z"/>
		<path fill="#1A1A1A" d="M77.916,30.977v-4.938h4.312v4.938H77.916z M77.916,61.133V35.695h4.312v25.438H77.916z"/>
		<path fill="#1A1A1A" d="M106.167,58.008c-1.596,1.348-3.129,2.3-4.601,2.855c-1.472,0.555-3.05,0.832-4.737,0.832
			c-2.784,0-4.924-0.683-6.419-2.048c-1.496-1.365-2.243-3.11-2.243-5.233c0-1.246,0.282-2.383,0.847-3.414
			c0.564-1.029,1.304-1.855,2.219-2.479c0.915-0.623,1.944-1.094,3.09-1.413c0.843-0.224,2.115-0.438,3.817-0.647
			c3.468-0.414,6.021-0.909,7.659-1.484c0.016-0.589,0.024-0.963,0.024-1.123c0-1.75-0.405-2.984-1.214-3.701
			c-1.095-0.971-2.722-1.457-4.88-1.457c-2.016,0-3.503,0.354-4.463,1.061s-1.67,1.957-2.13,3.752l-4.219-0.562
			c0.382-1.8,1.011-3.253,1.886-4.359c0.875-1.107,2.141-1.959,3.796-2.557s3.574-0.896,5.755-0.896
			c2.165,0,3.923,0.255,5.276,0.765s2.348,1.151,2.985,1.924s1.082,1.748,1.337,2.927c0.143,0.732,0.215,2.057,0.215,3.973v5.745
			c0,4.006,0.092,6.541,0.277,7.605c0.185,1.064,0.551,2.085,1.098,3.062h-4.5C106.587,60.242,106.296,59.201,106.167,58.008z
			 M105.823,48.352c-1.561,0.639-3.901,1.182-7.021,1.629c-1.767,0.256-3.017,0.544-3.749,0.863
			c-0.732,0.32-1.298,0.787-1.696,1.402s-0.597,1.297-0.597,2.049c0,1.15,0.433,2.109,1.299,2.875
			c0.866,0.768,2.133,1.15,3.802,1.15c1.652,0,3.123-0.363,4.41-1.09c1.287-0.728,2.232-1.723,2.836-2.984
			c0.461-0.975,0.691-2.412,0.691-4.312L105.823,48.352z"/>
		<path fill="#1A1A1A" d="M117.595,61.133V26.039h4.312v35.094H117.595z"/>
	</g>
	<g>
		<path d="M40.25,352.704c-1.315,1.119-2.579,1.91-3.789,2.371c-1.211,0.461-2.51,0.691-3.897,0.691
			c-2.291,0-4.051-0.558-5.281-1.673s-1.845-2.54-1.845-4.274c0-1.018,0.232-1.947,0.697-2.788s1.073-1.517,1.826-2.025
			s1.601-0.894,2.543-1.154c0.693-0.183,1.741-0.358,3.142-0.528c2.854-0.339,4.955-0.743,6.303-1.213
			c0.013-0.483,0.02-0.791,0.02-0.922c0-1.438-0.335-2.45-1.005-3.039c-0.906-0.797-2.252-1.195-4.038-1.195
			c-1.668,0-2.899,0.289-3.694,0.867c-0.795,0.578-1.382,1.602-1.763,3.07l-3.438-0.469c0.314-1.469,0.831-2.654,1.55-3.559
			c0.72-0.902,1.76-1.598,3.121-2.086c1.361-0.486,2.938-0.73,4.73-0.73c1.779,0,3.225,0.208,4.337,0.624s1.93,0.938,2.454,1.569
			s0.89,1.427,1.099,2.389c0.118,0.598,0.177,1.681,0.177,3.249v4.706c0,3.281,0.071,5.354,0.214,6.221
			c0.143,0.867,0.425,1.697,0.848,2.492h-3.688C40.551,354.559,40.342,353.694,40.25,352.704z M39.969,344.86
			c-1.288,0.523-3.219,0.967-5.794,1.333c-1.459,0.21-2.49,0.444-3.095,0.706s-1.071,0.645-1.399,1.146
			c-0.329,0.504-0.493,1.062-0.493,1.677c0,0.941,0.357,1.726,1.072,2.353c0.715,0.628,1.761,0.941,3.138,0.941
			c1.364,0,2.577-0.297,3.64-0.893c1.062-0.595,1.843-1.408,2.341-2.441c0.38-0.797,0.571-1.973,0.571-3.528L39.969,344.86z"/>
		<path d="M57.072,355.298h-3.281v-28.656h3.531v10.215c1.484-1.873,3.378-2.809,5.682-2.809c1.275,0,2.483,0.258,3.622,0.773
			c1.139,0.516,2.076,1.238,2.812,2.172c0.735,0.932,1.312,2.058,1.728,3.375s0.625,2.727,0.625,4.227
			c0,3.561-0.878,6.313-2.635,8.257s-3.865,2.915-6.325,2.915c-2.447,0-4.366-1.027-5.759-3.083V355.298z M57.041,344.751
			c0,2.488,0.337,4.286,1.011,5.393c1.102,1.812,2.593,2.717,4.474,2.717c1.53,0,2.852-0.668,3.967-2.003s1.673-3.325,1.673-5.97
			c0-2.709-0.535-4.709-1.604-5.999c-1.07-1.29-2.363-1.935-3.88-1.935c-1.53,0-2.853,0.668-3.968,2.003
			S57.041,342.224,57.041,344.751z"/>
		<path d="M94.488,347.673l3.469,0.469c-0.377,2.386-1.342,4.253-2.895,5.602c-1.553,1.35-3.46,2.023-5.721,2.023
			c-2.833,0-5.111-0.93-6.833-2.788s-2.583-4.523-2.583-7.993c0-2.243,0.37-4.207,1.11-5.889c0.74-1.684,1.867-2.945,3.379-3.787
			c1.513-0.841,3.159-1.262,4.938-1.262c2.247,0,4.084,0.57,5.513,1.709c1.428,1.14,2.344,2.758,2.747,4.854l-3.406,0.531
			c-0.324-1.389-0.898-2.435-1.721-3.136s-1.818-1.052-2.985-1.052c-1.763,0-3.196,0.635-4.297,1.905
			c-1.102,1.271-1.653,3.28-1.653,6.028c0,2.788,0.531,4.813,1.593,6.077s2.448,1.896,4.158,1.896c1.373,0,2.519-0.424,3.438-1.272
			C93.659,350.739,94.242,349.435,94.488,347.673z"/>
		<path d="M119.346,355.298v-2.634c-1.317,2.068-3.254,3.103-5.81,3.103c-1.656,0-3.179-0.457-4.568-1.369
			c-1.389-0.914-2.465-2.188-3.228-3.826c-0.763-1.637-1.144-3.518-1.144-5.645c0-2.074,0.344-3.955,1.033-5.645
			s1.723-2.984,3.101-3.885c1.378-0.899,2.918-1.35,4.622-1.35c1.248,0,2.359,0.264,3.334,0.79c0.975,0.526,1.768,1.213,2.379,2.058
			v-10.254h3.531v28.656H119.346z M108.221,344.917c0,2.661,0.562,4.65,1.687,5.967c1.125,1.318,2.452,1.977,3.982,1.977
			c1.542,0,2.853-0.629,3.932-1.888c1.079-1.259,1.618-3.179,1.618-5.763c0-2.843-0.549-4.93-1.647-6.26
			c-1.099-1.33-2.452-1.996-4.06-1.996c-1.569,0-2.88,0.639-3.933,1.918C108.747,340.149,108.221,342.165,108.221,344.917z"/>
		<path d="M147.254,348.61l3.64,0.469c-0.573,2.119-1.634,3.764-3.184,4.934s-3.529,1.754-5.938,1.754
			c-3.035,0-5.441-0.936-7.218-2.808c-1.778-1.872-2.667-4.497-2.667-7.876c0-3.496,0.898-6.209,2.696-8.139
			c1.797-1.932,4.128-2.896,6.994-2.896c2.774,0,5.04,0.945,6.798,2.835c1.758,1.89,2.637,4.549,2.637,7.977
			c0,0.209-0.007,0.521-0.02,0.938h-15.48c0.13,2.283,0.775,4.03,1.934,5.243s2.605,1.819,4.337,1.819
			c1.29,0,2.39-0.338,3.302-1.014S146.72,350.093,147.254,348.61z M135.7,342.892h11.594c-0.156-1.738-0.6-3.043-1.33-3.913
			c-1.121-1.35-2.574-2.024-4.36-2.024c-1.616,0-2.975,0.539-4.077,1.615C136.426,339.647,135.817,341.088,135.7,342.892z"/>
		<path d="M161.061,355.298v-18.031h-3.094v-2.75h3.094v-2.197c0-1.388,0.124-2.418,0.372-3.093
			c0.339-0.907,0.935-1.644,1.789-2.208c0.854-0.563,2.049-0.846,3.585-0.846c0.989,0,2.083,0.117,3.281,0.352l-0.527,3.062
			c-0.729-0.13-1.419-0.194-2.07-0.194c-1.068,0-1.823,0.227-2.266,0.68c-0.443,0.453-0.664,1.301-0.664,2.543v1.902h4.031v2.75h-4
			v18.031H161.061z"/>
		<path d="M175.61,357.017l3.406,0.469c0.143,1.064,0.541,1.84,1.192,2.326c0.873,0.658,2.065,0.986,3.577,0.986
			c1.629,0,2.886-0.326,3.772-0.977c0.886-0.65,1.485-1.562,1.798-2.732c0.182-0.716,0.267-2.219,0.254-4.51
			c-1.538,1.812-3.454,2.719-5.747,2.719c-2.854,0-5.063-1.03-6.626-3.092c-1.564-2.061-2.346-4.533-2.346-7.416
			c0-1.982,0.358-3.812,1.076-5.488s1.757-2.971,3.12-3.885c1.363-0.912,2.964-1.369,4.803-1.369c2.451,0,4.473,1,6.064,3v-2.531
			h3.219v17.946c0,3.232-0.329,5.522-0.985,6.872c-0.657,1.348-1.698,2.414-3.123,3.196s-3.178,1.173-5.259,1.173
			c-2.472,0-4.469-0.556-5.991-1.667C176.292,360.926,175.558,359.252,175.61,357.017z M178.516,344.536
			c0,2.729,0.54,4.721,1.619,5.975s2.433,1.881,4.059,1.881c1.613,0,2.965-0.623,4.058-1.871c1.093-1.246,1.639-3.203,1.639-5.867
			c0-2.547-0.563-4.467-1.688-5.76s-2.481-1.939-4.068-1.939c-1.561,0-2.888,0.637-3.98,1.91S178.516,342.028,178.516,344.536z"/>
		<path d="M203.408,355.298v-28.656h3.531v10.262c1.637-1.903,3.701-2.855,6.195-2.855c1.532,0,2.863,0.304,3.993,0.91
			s1.938,1.445,2.425,2.514c0.487,1.07,0.73,2.623,0.73,4.657v13.169h-3.531v-13.17c0-1.761-0.379-3.043-1.137-3.846
			c-0.758-0.802-1.83-1.203-3.215-1.203c-1.037,0-2.012,0.271-2.925,0.812s-1.563,1.275-1.952,2.201s-0.584,2.205-0.584,3.836
			v11.369H203.408z"/>
		<path d="M230.605,330.642v-4h3.531v4H230.605z M230.605,355.298v-20.781h3.531v20.781H230.605z"/>
		<path d="M239.92,363.332l0.652-2.997c0.706,0.184,1.261,0.275,1.666,0.275c0.718,0,1.254-0.238,1.605-0.713
			c0.354-0.477,0.529-1.666,0.529-3.568v-21.812h3.531v21.896c0,2.554-0.332,4.333-0.998,5.337
			c-0.848,1.303-2.257,1.955-4.227,1.955C241.728,363.704,240.808,363.58,239.92,363.332z M244.373,330.735v-4.094h3.531v4.094
			H244.373z"/>
		<path d="M258.22,355.298v-28.656h3.531v16.318l8.299-8.443h4.545l-7.913,7.719l8.726,13.062h-4.334l-6.878-10.637l-2.444,2.383
			v8.254H258.22z"/>
		<path d="M283.046,355.298v-28.656h3.531v28.656H283.046z"/>
		<path d="M296.927,355.298v-20.781h3.156v2.926c0.65-1.02,1.515-1.841,2.595-2.463c1.08-0.621,2.311-0.932,3.689-0.932
			c1.535,0,2.793,0.32,3.775,0.961c0.982,0.642,1.676,1.537,2.078,2.688c1.646-2.433,3.791-3.649,6.432-3.649
			c2.064,0,3.652,0.57,4.764,1.713c1.111,1.141,1.667,2.898,1.667,5.272v14.265h-3.531v-13.084c0-1.407-0.114-2.421-0.343-3.04
			s-0.643-1.118-1.242-1.496s-1.303-0.567-2.111-0.567c-1.461,0-2.673,0.486-3.638,1.457c-0.965,0.972-1.447,2.526-1.447,4.664
			v12.066h-3.531v-13.494c0-1.564-0.286-2.738-0.856-3.52c-0.572-0.783-1.506-1.174-2.805-1.174c-0.986,0-1.898,0.261-2.734,0.782
			c-0.838,0.521-1.445,1.284-1.821,2.288s-0.564,2.451-0.564,4.342v10.775H296.927z"/>
	</g>
	<g>
		<path d="M26.625,397.298v-20.781h3.188v2.949c1.523-2.278,3.723-3.418,6.6-3.418c1.25,0,2.398,0.225,3.446,0.676
			c1.048,0.449,1.832,1.039,2.353,1.77s0.885,1.599,1.094,2.604c0.13,0.652,0.195,1.793,0.195,3.424v12.777h-3.531v-12.633
			c0-1.435-0.137-2.507-0.41-3.218c-0.273-0.71-0.758-1.277-1.454-1.701s-1.512-0.636-2.448-0.636c-1.496,0-2.787,0.477-3.873,1.428
			c-1.086,0.952-1.629,2.758-1.629,5.417v11.343H26.625z"/>
		<path d="M52.47,386.907c0-3.848,1.066-6.697,3.199-8.551c1.781-1.539,3.953-2.309,6.514-2.309c2.848,0,5.175,0.936,6.982,2.809
			c1.807,1.871,2.711,4.457,2.711,7.758c0,2.674-0.4,4.777-1.2,6.311c-0.8,1.532-1.963,2.723-3.491,3.57s-3.195,1.271-5.002,1.271
			c-2.899,0-5.243-0.933-7.031-2.798S52.47,390.416,52.47,386.907z M56.095,386.897c0,2.661,0.577,4.653,1.731,5.977
			c1.154,1.324,2.606,1.986,4.357,1.986c1.737,0,3.183-0.665,4.337-1.996c1.154-1.33,1.731-3.357,1.731-6.084
			c0-2.569-0.581-4.516-1.741-5.84c-1.161-1.324-2.603-1.986-4.328-1.986c-1.751,0-3.203,0.658-4.357,1.977
			C56.671,382.247,56.095,384.237,56.095,386.897z"/>
		<path d="M80.877,405.235v-28.719h3.219v2.691c0.754-1.053,1.605-1.844,2.554-2.37s2.1-0.79,3.452-0.79
			c1.768,0,3.328,0.457,4.68,1.369c1.352,0.914,2.373,2.201,3.062,3.865c0.689,1.662,1.034,3.486,1.034,5.469
			c0,2.126-0.38,4.041-1.141,5.742c-0.761,1.703-1.866,3.008-3.315,3.914c-1.45,0.906-2.974,1.359-4.573,1.359
			c-1.17,0-2.22-0.249-3.149-0.746s-1.693-1.125-2.291-1.885v10.1H80.877z M84.064,387.015c0,2.674,0.538,4.65,1.615,5.929
			s2.38,1.917,3.911,1.917c1.556,0,2.889-0.662,3.998-1.986c1.109-1.323,1.664-3.374,1.664-6.152c0-2.647-0.542-4.631-1.625-5.947
			c-1.083-1.318-2.377-1.977-3.882-1.977c-1.492,0-2.812,0.701-3.959,2.104S84.064,384.341,84.064,387.015z"/>
		<path d="M121.207,405.235v-10.159c-0.546,0.772-1.311,1.414-2.292,1.925c-0.982,0.51-2.026,0.766-3.131,0.766
			c-2.458,0-4.575-0.984-6.351-2.955c-1.775-1.969-2.663-4.67-2.663-8.1c0-2.088,0.36-3.959,1.082-5.615
			c0.722-1.657,1.768-2.912,3.14-3.768c1.372-0.854,2.876-1.281,4.515-1.281c2.561,0,4.576,1.084,6.045,3.25v-2.781h3.188v28.719
			H121.207z M110.394,386.845c0,2.672,0.558,4.676,1.674,6.012s2.453,2.004,4.011,2.004c1.493,0,2.778-0.635,3.855-1.906
			c1.077-1.271,1.616-3.203,1.616-5.797c0-2.763-0.568-4.842-1.704-6.236s-2.47-2.092-4.001-2.092c-1.519,0-2.807,0.648-3.865,1.945
			C110.923,382.071,110.394,384.095,110.394,386.845z"/>
		<path d="M135.098,397.298v-20.781h3.188v3.137c0.806-1.468,1.55-2.436,2.233-2.904c0.683-0.467,1.434-0.701,2.253-0.701
			c1.183,0,2.385,0.377,3.608,1.131l-1.223,3.263c-0.857-0.513-1.715-0.769-2.572-0.769c-0.767,0-1.455,0.232-2.065,0.695
			c-0.61,0.464-1.045,1.107-1.305,1.93c-0.39,1.253-0.584,2.623-0.584,4.111v10.889H135.098z"/>
		<path d="M151.923,391.11l3.469-0.562c0.195,1.393,0.74,2.459,1.634,3.2s2.143,1.112,3.748,1.112c1.618,0,2.818-0.328,3.601-0.986
			c0.783-0.656,1.174-1.428,1.174-2.312c0-0.793-0.343-1.418-1.029-1.873c-0.479-0.312-1.676-0.71-3.592-1.191
			c-2.581-0.652-4.37-1.217-5.368-1.693s-1.755-1.135-2.27-1.977c-0.516-0.842-0.773-1.771-0.773-2.789
			c0-0.927,0.211-1.785,0.635-2.574s1-1.445,1.73-1.967c0.547-0.404,1.293-0.748,2.238-1.028c0.945-0.28,1.958-0.421,3.04-0.421
			c1.629,0,3.06,0.234,4.292,0.702c1.231,0.468,2.141,1.103,2.727,1.901c0.586,0.801,0.991,1.87,1.212,3.209l-3.438,0.469
			c-0.156-1.061-0.609-1.888-1.358-2.482c-0.75-0.595-1.809-0.893-3.177-0.893c-1.616,0-2.77,0.268-3.46,0.801
			c-0.691,0.533-1.036,1.157-1.036,1.873c0,0.455,0.143,0.865,0.43,1.229c0.286,0.378,0.736,0.69,1.349,0.938
			c0.352,0.13,1.388,0.43,3.108,0.897c2.489,0.665,4.225,1.21,5.208,1.634c0.983,0.425,1.755,1.041,2.315,1.851
			c0.56,0.81,0.84,1.813,0.84,3.015c0,1.174-0.342,2.28-1.027,3.317s-1.672,1.84-2.963,2.407c-1.291,0.567-2.751,0.852-4.381,0.852
			c-2.699,0-4.756-0.56-6.171-1.679S152.314,393.31,151.923,391.11z"/>
		<path d="M185.897,394.161l0.469,3.105c-0.989,0.208-1.873,0.312-2.653,0.312c-1.275,0-2.264-0.202-2.966-0.606
			c-0.703-0.404-1.197-0.936-1.483-1.595c-0.286-0.658-0.429-2.044-0.429-4.157v-11.954h-2.594v-2.75h2.594v-5.137l3.531-2.109
			v7.246h3.531v2.75h-3.531v12.154c0,1.005,0.062,1.65,0.185,1.938s0.325,0.516,0.605,0.686c0.279,0.17,0.679,0.254,1.2,0.254
			C184.746,394.298,185.259,394.253,185.897,394.161z"/>
		<path d="M207.797,397.298v-3.052c-1.613,2.347-3.805,3.521-6.574,3.521c-1.223,0-2.364-0.234-3.424-0.704s-1.847-1.06-2.36-1.771
			s-0.875-1.582-1.083-2.613c-0.143-0.691-0.214-1.787-0.214-3.287v-12.875h3.531v11.526c0,1.839,0.071,3.079,0.214,3.718
			c0.221,0.927,0.688,1.654,1.401,2.182c0.713,0.529,1.596,0.793,2.646,0.793s2.037-0.271,2.958-0.812
			c0.921-0.541,1.573-1.277,1.956-2.211c0.383-0.932,0.574-2.286,0.574-4.061v-11.135h3.531v20.781H207.797z"/>
		<path d="M227.106,397.298l-7.934-20.781h3.712l4.499,12.445c0.484,1.344,0.93,2.74,1.336,4.188
			c0.312-1.096,0.749-2.413,1.311-3.953l4.623-12.68h3.613l-7.866,20.781H227.106z"/>
		<path d="M250.051,397.298l-6.357-20.781h3.631l3.343,12.002l1.2,4.455c0.051-0.221,0.413-1.643,1.088-4.266l3.281-12.191h3.617
			l3.109,12.069l1.012,3.957l1.188-4.002l3.582-12.024h3.418l-6.528,20.781h-3.618l-3.289-12.424l-0.814-3.563l-4.215,15.987
			H250.051z"/>
		<path d="M277.601,397.298l7.584-10.754l-7.021-10.027h4.331l3.279,4.912c0.596,0.928,1.071,1.68,1.426,2.26
			c0.585-0.83,1.114-1.58,1.587-2.251l3.471-4.921h4.217l-7.015,9.973l7.548,10.809h-4.293l-4.267-6.42l-1.035-1.589l-5.557,8.009
			H277.601z"/>
		<path d="M304.699,405.28l-0.406-3.264c0.773,0.208,1.449,0.312,2.025,0.312c0.787,0,1.416-0.131,1.888-0.392
			s0.858-0.627,1.16-1.097c0.223-0.353,0.583-1.228,1.081-2.625c0.066-0.195,0.17-0.482,0.314-0.861l-7.875-20.838h3.773
			l4.324,12.02c0.561,1.525,1.062,3.128,1.507,4.809c0.406-1.594,0.89-3.158,1.452-4.694l4.443-12.134h3.516l-7.874,21.139
			c-0.851,2.273-1.513,3.84-1.983,4.697c-0.629,1.156-1.35,2.004-2.16,2.543c-0.812,0.539-1.781,0.809-2.906,0.809
			C306.297,405.704,305.537,405.562,304.699,405.28z"/>
		<path d="M327.893,397.298v-2.855l13.176-15.145c-1.494,0.084-2.813,0.125-3.957,0.125h-8.438v-2.906h16.969v2.364l-11.256,13.155
			l-2.192,2.449c1.581-0.146,3.063-0.219,4.449-0.219h9.624v3.031H327.893z"/>
	</g>
	<g>
		<path fill="#FFFFFF" d="M100.126,425.167c0-3.383,0.349-6.108,1.046-8.176c0.697-2.068,1.733-3.658,3.108-4.772
			s3.105-1.671,5.19-1.671c1.538,0,2.889,0.309,4.054,0.928c1.165,0.617,2.123,1.509,2.874,2.674
			c0.75,1.164,1.341,2.583,1.771,4.255c0.43,1.672,0.645,3.927,0.645,6.763c0,3.357-0.346,6.07-1.036,8.137
			c-0.691,2.068-1.724,3.662-3.099,4.783c-1.375,1.119-3.111,1.68-5.209,1.68c-2.763,0-4.933-0.983-6.509-2.951
			C101.071,434.424,100.126,430.541,100.126,425.167z M103.751,425.157c0,4.705,0.549,7.832,1.649,9.381s2.456,2.322,4.07,2.322
			c1.613,0,2.97-0.777,4.069-2.332c1.1-1.556,1.649-4.68,1.649-9.371c0-4.707-0.549-7.834-1.646-9.382s-2.468-2.321-4.112-2.321
			c-1.614,0-2.905,0.683-3.873,2.048C104.353,417.245,103.751,420.463,103.751,425.157z"/>
		<path fill="#FFFFFF" d="M137.622,439.298h-3.531v-22.402c-0.847,0.808-1.957,1.615-3.33,2.422
			c-1.374,0.808-2.607,1.413-3.701,1.816v-3.398c1.967-0.924,3.687-2.044,5.16-3.359c1.472-1.314,2.515-2.591,3.127-3.828h2.276
			V439.298z"/>
	</g>
	<g>
		<path fill="#FFFFFF" d="M167.091,435.923v3.375h-18.938c-0.026-0.848,0.111-1.662,0.412-2.443
			c0.483-1.291,1.258-2.561,2.323-3.809s2.599-2.69,4.6-4.326c3.105-2.558,5.206-4.582,6.302-6.072s1.645-2.901,1.645-4.234
			c0-1.393-0.499-2.566-1.495-3.523c-0.997-0.957-2.296-1.436-3.898-1.436c-1.693,0-3.048,0.509-4.064,1.525
			c-1.016,1.018-1.531,2.426-1.543,4.225l-3.625-0.375c0.248-2.695,1.18-4.749,2.797-6.162c1.617-1.412,3.789-2.119,6.514-2.119
			c2.751,0,4.929,0.762,6.533,2.285s2.406,3.412,2.406,5.664c0,1.146-0.235,2.273-0.705,3.38s-1.25,2.272-2.339,3.496
			s-2.896,2.904-5.418,5.04c-2.111,1.771-3.466,2.973-4.065,3.605c-0.599,0.631-1.094,1.266-1.484,1.904H167.091z"/>
		<path fill="#FFFFFF" d="M175.14,431.704l3.531-0.469c0.403,1.992,1.087,3.428,2.052,4.307c0.964,0.879,2.148,1.318,3.551,1.318
			c1.663,0,3.062-0.571,4.196-1.715c1.134-1.143,1.701-2.559,1.701-4.247c0-1.61-0.527-2.938-1.582-3.985
			c-1.055-1.045-2.395-1.568-4.022-1.568c-0.664,0-1.49,0.131-2.479,0.391l0.39-3.094c0.234,0.026,0.423,0.039,0.565,0.039
			c1.491,0,2.833-0.389,4.025-1.168c1.193-0.778,1.79-1.979,1.79-3.602c0-1.284-0.436-2.348-1.306-3.191s-1.995-1.266-3.372-1.266
			c-1.365,0-2.502,0.43-3.412,1.289s-1.494,2.148-1.754,3.867l-3.531-0.625c0.43-2.361,1.407-4.191,2.931-5.49
			c1.524-1.298,3.419-1.947,5.686-1.947c1.563,0,3.002,0.335,4.318,1.005c1.315,0.67,2.322,1.584,3.019,2.741
			c0.697,1.158,1.045,2.387,1.045,3.688c0,1.236-0.332,2.361-0.996,3.377c-0.664,1.014-1.647,1.82-2.949,2.419
			c1.692,0.39,3.008,1.199,3.945,2.428s1.406,2.766,1.406,4.611c0,2.496-0.912,4.612-2.734,6.347
			c-1.823,1.736-4.128,2.604-6.914,2.604c-2.513,0-4.6-0.748-6.26-2.245S175.375,434.086,175.14,431.704z"/>
		<path fill="#FFFFFF" d="M212.845,439.298v-6.844h-12.438v-3.219l13.094-18.562h2.875v18.562h3.875v3.219h-3.875v6.844H212.845z
			 M212.845,429.235v-12.891l-8.979,12.891H212.845z"/>
		<path fill="#FFFFFF" d="M228.081,431.767l3.688-0.281c0.274,1.785,0.907,3.127,1.901,4.026s2.201,1.349,3.621,1.349
			c1.713,0,3.153-0.639,4.32-1.918c1.167-1.277,1.751-2.973,1.751-5.086c0-2.01-0.56-3.594-1.681-4.755
			c-1.119-1.161-2.6-1.741-4.441-1.741c-1.145,0-2.171,0.264-3.078,0.791c-0.908,0.527-1.622,1.212-2.144,2.053l-3.312-0.469
			l2.781-14.719h14.25v3.375h-11.438l-1.555,7.665c1.721-1.193,3.527-1.79,5.418-1.79c2.504,0,4.615,0.867,6.337,2.602
			s2.582,3.964,2.582,6.689c0,2.594-0.756,4.837-2.268,6.728c-1.837,2.321-4.346,3.481-7.525,3.481c-2.606,0-4.733-0.73-6.382-2.19
			S228.315,434.179,228.081,431.767z"/>
		<path fill="#FFFFFF" d="M272.879,417.673l-3.5,0.281c-0.314-1.377-0.759-2.377-1.335-3c-0.956-1-2.134-1.5-3.534-1.5
			c-1.127,0-2.12,0.311-2.981,0.934c-1.103,0.803-1.975,1.976-2.616,3.518s-0.976,3.744-1.002,6.607
			c0.848-1.289,1.885-2.246,3.111-2.871s2.511-0.938,3.854-0.938c2.348,0,4.347,0.863,5.997,2.588
			c1.65,1.726,2.475,3.955,2.475,6.689c0,1.797-0.388,3.467-1.164,5.01c-0.775,1.543-1.842,2.725-3.198,3.545
			s-2.896,1.23-4.616,1.23c-2.936,0-5.328-1.076-7.181-3.23c-1.853-2.152-2.778-5.702-2.778-10.646
			c0-5.531,1.026-9.551,3.078-12.062c1.791-2.186,4.203-3.279,7.234-3.279c2.262,0,4.115,0.631,5.559,1.894
			C271.727,413.704,272.592,415.448,272.879,417.673z M258.441,429.987c0,1.211,0.258,2.369,0.772,3.476s1.232,1.95,2.153,2.528
			c0.92,0.58,1.893,0.869,2.92,0.869c1.496,0,2.777-0.599,3.84-1.797c1.064-1.197,1.596-2.824,1.596-4.881
			c0-1.979-0.525-3.537-1.576-4.676s-2.383-1.709-3.996-1.709c-1.59,0-2.939,0.57-4.047,1.709S258.441,428.14,258.441,429.987z"/>
		<path fill="#FFFFFF" d="M281.303,414.392v-3.375h18.531v2.731c-1.82,1.94-3.625,4.521-5.414,7.74
			c-1.788,3.22-3.17,6.53-4.146,9.931c-0.702,2.398-1.151,5.025-1.347,7.879h-3.625c0.039-2.255,0.482-4.979,1.33-8.172
			s2.062-6.271,3.646-9.236s3.27-5.465,5.055-7.498H281.303z"/>
		<path fill="#FFFFFF" d="M312.988,423.772c-1.468-0.533-2.556-1.295-3.264-2.285c-0.707-0.99-1.061-2.175-1.061-3.556
			c0-2.083,0.748-3.835,2.244-5.255c1.496-1.419,3.487-2.129,5.973-2.129c2.498,0,4.508,0.727,6.031,2.178
			c1.521,1.453,2.283,3.221,2.283,5.304c0,1.329-0.35,2.484-1.047,3.468c-0.698,0.983-1.758,1.742-3.18,2.275
			c1.766,0.572,3.109,1.496,4.031,2.77c0.922,1.275,1.383,2.796,1.383,4.564c0,2.445-0.866,4.5-2.599,6.164
			s-4.013,2.496-6.839,2.496c-2.827,0-5.106-0.836-6.839-2.506c-1.732-1.672-2.599-3.755-2.599-6.252
			c0-1.859,0.475-3.416,1.424-4.672C309.881,425.083,311.233,424.228,312.988,423.772z M311.133,431.021c0,1,0.234,1.967,0.703,2.9
			c0.469,0.936,1.172,1.658,2.112,2.171s1.948,0.769,3.026,0.769c1.685,0,3.07-0.539,4.155-1.615
			c1.085-1.078,1.628-2.446,1.628-4.107c0-1.688-0.559-3.082-1.677-4.186c-1.118-1.103-2.525-1.654-4.224-1.654
			c-1.658,0-3.027,0.545-4.106,1.635S311.133,429.386,311.133,431.021z M312.289,417.821c0,1.352,0.431,2.457,1.293,3.314
			c0.862,0.858,1.991,1.287,3.387,1.287c1.356,0,2.463-0.426,3.318-1.277s1.283-1.895,1.283-3.129c0-1.287-0.441-2.369-1.322-3.246
			c-0.882-0.877-1.988-1.316-3.318-1.316c-1.344,0-2.453,0.43-3.328,1.287S312.289,416.626,312.289,417.821z"/>
		<path fill="#FFFFFF" d="M334.557,432.642l3.375-0.281c0.286,1.578,0.833,2.723,1.641,3.434c0.807,0.711,1.842,1.066,3.105,1.066
			c1.08,0,2.03-0.246,2.85-0.74c0.818-0.492,1.486-1.151,2.002-1.976s0.949-1.938,1.301-3.341c0.352-1.402,0.527-2.832,0.527-4.291
			c0-0.156-0.007-0.391-0.02-0.703c-0.703,1.12-1.664,2.028-2.881,2.725c-1.218,0.697-2.536,1.045-3.955,1.045
			c-2.37,0-4.375-0.859-6.016-2.576c-1.641-1.719-2.461-3.982-2.461-6.793c0-2.902,0.856-5.238,2.57-7.008s3.861-2.654,6.441-2.654
			c1.863,0,3.566,0.501,5.111,1.503c1.544,1.002,2.717,2.431,3.519,4.284c0.802,1.854,1.202,4.538,1.202,8.051
			c0,3.657-0.397,6.568-1.192,8.735s-1.978,3.815-3.547,4.948c-1.57,1.131-3.411,1.697-5.521,1.697
			c-2.242,0-4.072-0.623-5.492-1.869S334.844,434.899,334.557,432.642z M348.963,420.038c0-2.019-0.535-3.621-1.604-4.807
			c-1.07-1.185-2.365-1.777-3.887-1.777c-1.574,0-2.938,0.639-4.092,1.914c-1.154,1.277-1.73,2.932-1.73,4.963
			c0,1.824,0.547,3.305,1.643,4.445c1.096,1.139,2.456,1.709,4.082,1.709c1.628,0,2.967-0.57,4.016-1.709
			C348.438,423.636,348.963,422.058,348.963,420.038z"/>
	</g>
	<g>
		<path fill="#FFFFFF" d="M336.16,183.304c-6.516,5.531-12.783,9.434-18.803,11.711c-6.021,2.275-12.482,3.414-19.381,3.414
			c-11.391,0-20.146-2.785-26.264-8.359c-6.119-5.574-9.178-12.695-9.178-21.365c0-5.084,1.154-9.729,3.465-13.934
			c2.311-4.203,5.338-7.576,9.08-10.119s7.957-4.465,12.645-5.77c3.449-0.912,8.656-1.793,15.621-2.641
			c14.189-1.695,24.637-3.715,31.342-6.062c0.064-2.414,0.098-3.949,0.098-4.602c0-7.18-1.66-12.238-4.977-15.176
			c-4.488-3.98-11.154-5.973-20-5.973c-8.26,0-14.357,1.451-18.291,4.352c-3.936,2.9-6.846,8.033-8.732,15.398l-17.25-2.375
			c1.561-7.344,4.131-13.273,7.711-17.789c3.578-4.516,8.752-7.992,15.52-10.43s14.609-3.656,23.525-3.656
			c8.85,0,16.041,1.041,21.572,3.119s9.598,4.693,12.201,7.844c2.604,3.152,4.426,7.131,5.467,11.939
			c0.586,2.988,0.879,8.4,0.879,16.232v23.5c0,16.387,0.377,26.74,1.135,31.061c0.756,4.322,2.252,8.465,4.49,12.43H339.66
			C337.844,192.421,336.678,188.171,336.16,183.304z M334.66,143.929c-6.375,2.613-15.938,4.832-28.688,6.66
			c-7.223,1.047-12.328,2.223-15.32,3.527c-2.992,1.307-5.303,3.217-6.928,5.73c-1.627,2.516-2.439,5.307-2.439,8.375
			c0,4.703,1.773,8.621,5.32,11.756s8.736,4.701,15.572,4.701c6.768,0,12.787-1.484,18.061-4.453
			c5.271-2.969,9.145-7.035,11.617-12.195c1.887-3.984,2.832-9.861,2.832-17.635L334.66,143.929z"/>
	</g>
	<g>
		<path d="M23.921,134.987l13.19-34.375h4.904l14.071,34.375h-5.18l-3.976-10.406H32.504l-3.754,10.406H23.921z M33.833,120.862
			h11.646l-3.572-9.5c-1.099-2.889-1.916-5.264-2.453-7.125c-0.435,2.201-1.052,4.387-1.852,6.557L33.833,120.862z"/>
		<path d="M75.422,131.925c-1.57,1.325-3.076,2.261-4.519,2.807c-1.443,0.545-2.991,0.818-4.644,0.818
			c-2.73,0-4.828-0.668-6.294-2.006c-1.466-1.337-2.199-3.046-2.199-5.126c0-1.22,0.277-2.334,0.831-3.343s1.279-1.818,2.176-2.428
			c0.896-0.61,1.907-1.072,3.03-1.385c0.826-0.219,2.074-0.43,3.743-0.633c3.4-0.406,5.903-0.892,7.51-1.455
			c0.016-0.577,0.023-0.943,0.023-1.1c0-1.717-0.398-2.926-1.193-3.629c-1.076-0.951-2.675-1.428-4.796-1.428
			c-1.981,0-3.443,0.347-4.387,1.039c-0.943,0.693-1.641,1.92-2.093,3.68l-4.125-0.562c0.375-1.764,0.991-3.188,1.85-4.273
			c0.858-1.084,2.1-1.92,3.724-2.505s3.505-0.878,5.645-0.878c2.123,0,3.849,0.25,5.176,0.75s2.303,1.128,2.927,1.885
			c0.625,0.758,1.062,1.715,1.312,2.869c0.141,0.719,0.211,2.017,0.211,3.893v5.629c0,3.925,0.09,6.408,0.271,7.449
			s0.538,2.039,1.073,2.994h-4.406C75.828,134.114,75.547,133.094,75.422,131.925z M75.078,122.487
			c-1.53,0.625-3.826,1.156-6.886,1.594c-1.733,0.25-2.959,0.531-3.678,0.844s-1.272,0.77-1.663,1.371s-0.585,1.27-0.585,2.004
			c0,1.125,0.424,2.062,1.274,2.812s2.093,1.125,3.729,1.125c1.621,0,3.062-0.355,4.325-1.067s2.19-1.685,2.782-2.919
			c0.452-0.953,0.678-2.358,0.678-4.217L75.078,122.487z"/>
	</g>
	<g>
		<path d="M23.005,193.987l19.476-34.375h5.49l5.646,34.375h-4.453l-1.653-9.906H33.594l-5.513,9.906H23.005z M35.561,180.55h11.397
			l-1.336-8.623c-0.526-3.426-0.854-6.28-0.981-8.564c-0.786,1.973-1.933,4.313-3.441,7.021L35.561,180.55z"/>
		<path d="M74.359,190.894c-1.465,1.266-2.875,2.191-4.23,2.777s-2.805,0.879-4.347,0.879c-2.291,0-4.137-0.676-5.539-2.028
			s-2.103-3.083-2.103-5.194c0-1.391,0.315-2.622,0.947-3.693c0.631-1.07,1.469-1.93,2.514-2.579
			c1.044-0.649,2.323-1.114,3.835-1.396c0.938-0.188,2.741-0.336,5.408-0.445c2.667-0.109,4.579-0.391,5.736-0.845
			c0.331-1.157,0.497-2.119,0.497-2.886c0-0.985-0.36-1.76-1.08-2.322c-0.986-0.783-2.425-1.174-4.318-1.174
			c-1.784,0-3.243,0.396-4.377,1.188c-1.134,0.793-1.959,1.917-2.476,3.375l-4.281-0.375c0.875-2.474,2.262-4.368,4.16-5.684
			c1.898-1.314,4.293-1.973,7.184-1.973c3.078,0,5.516,0.734,7.312,2.205c1.375,1.094,2.062,2.517,2.062,4.268
			c0,1.329-0.195,2.869-0.586,4.62l-1.383,6.191c-0.438,1.97-0.656,3.572-0.656,4.808c0,0.781,0.172,1.907,0.516,3.377h-4.3
			C74.62,193.175,74.454,192.144,74.359,190.894z M75.943,181.368c-0.596,0.235-1.235,0.416-1.918,0.541s-1.81,0.258-3.382,0.398
			c-2.485,0.219-4.234,0.496-5.249,0.832c-1.015,0.337-1.779,0.873-2.294,1.607c-0.515,0.735-0.772,1.549-0.772,2.439
			c0,1.189,0.409,2.166,1.229,2.933s1.986,1.149,3.5,1.149c1.404,0,2.754-0.371,4.049-1.114s2.319-1.778,3.073-3.108
			C74.931,185.717,75.52,183.824,75.943,181.368z"/>
	</g>
	<g>
		<path d="M102.812,134.987v-34.375h24.812v4.062h-20.25v10.5h18.969v4.062h-18.969v11.688h21.062v4.062H102.812z"/>
		<path d="M151.188,126.956l4.375,0.562c-0.688,2.545-1.96,4.52-3.819,5.924c-1.859,1.405-4.233,2.107-7.123,2.107
			c-3.64,0-6.525-1.121-8.657-3.365c-2.132-2.243-3.198-5.39-3.198-9.439c0-4.189,1.078-7.441,3.233-9.756
			c2.155-2.313,4.952-3.471,8.388-3.471c3.327,0,6.044,1.134,8.153,3.4c2.108,2.268,3.163,5.457,3.163,9.568
			c0,0.25-0.008,0.625-0.023,1.125h-18.57c0.156,2.737,0.929,4.833,2.319,6.287c1.39,1.455,3.123,2.182,5.2,2.182
			c1.546,0,2.866-0.407,3.959-1.223C149.68,130.044,150.547,128.743,151.188,126.956z M137.359,120.144h13.875
			c-0.188-2.096-0.718-3.668-1.591-4.717c-1.342-1.626-3.081-2.439-5.218-2.439c-1.935,0-3.561,0.649-4.879,1.947
			C138.229,116.233,137.5,117.97,137.359,120.144z"/>
	</g>
	<g>
		<path d="M101.062,193.987l7.188-34.375h24.969l-0.821,3.906h-20.401l-2.24,10.719h19.994l-0.812,3.906h-19.999l-2.496,11.938
			h21.762l-0.823,3.906H101.062z"/>
		<path d="M150.861,185.519l4.125,0.438c-0.593,2.045-1.953,3.988-4.082,5.83c-2.128,1.843-4.666,2.764-7.613,2.764
			c-1.84,0-3.528-0.426-5.063-1.277c-1.536-0.853-2.706-2.092-3.508-3.718c-0.803-1.626-1.205-3.479-1.205-5.558
			c0-2.721,0.627-5.359,1.883-7.915s2.882-4.456,4.878-5.698c1.997-1.244,4.157-1.865,6.481-1.865c2.963,0,5.331,0.922,7.101,2.766
			s2.656,4.359,2.656,7.547c0,1.219-0.11,2.469-0.33,3.75h-18.295c-0.062,0.485-0.094,0.924-0.094,1.314
			c0,2.333,0.533,4.113,1.601,5.342c1.067,1.229,2.372,1.844,3.915,1.844c1.449,0,2.875-0.477,4.277-1.432
			C148.992,188.695,150.082,187.318,150.861,185.519z M138.568,179.331h13.924c0.016-0.438,0.023-0.75,0.023-0.938
			c0-2.127-0.53-3.758-1.589-4.892s-2.422-1.701-4.088-1.701c-1.807,0-3.454,0.626-4.941,1.877
			C140.41,174.929,139.3,176.813,138.568,179.331z"/>
	</g>
	<g>
		<path d="M177.001,134.987v-34.375h15.228c3.056,0,5.379,0.309,6.97,0.928c1.59,0.617,2.861,1.709,3.812,3.273
			s1.427,3.293,1.427,5.186c0,2.44-0.788,4.498-2.362,6.172c-1.575,1.674-4.007,2.738-7.297,3.191
			c1.202,0.577,2.116,1.146,2.741,1.708c1.327,1.217,2.58,2.74,3.76,4.57l5.938,9.347h-5.68L197,127.843
			c-1.325-2.062-2.417-3.639-3.274-4.732c-0.858-1.093-1.626-1.857-2.304-2.295s-1.368-0.742-2.07-0.914
			c-0.515-0.109-1.356-0.164-2.526-0.164h-5.263v15.25H177.001z M181.563,115.8h9.753c2.074,0,3.694-0.215,4.862-0.645
			c1.167-0.43,2.054-1.118,2.662-2.064c0.607-0.945,0.911-1.974,0.911-3.084c0-1.626-0.588-2.963-1.764-4.011
			s-3.033-1.571-5.571-1.571h-10.853V115.8z"/>
		<path d="M211.009,134.987v-24.906h3.781v3.789c0.971-1.771,1.868-2.94,2.69-3.505s1.727-0.847,2.713-0.847
			c1.426,0,2.874,0.455,4.347,1.363l-1.476,3.905c-1.029-0.596-2.059-0.894-3.086-0.894c-0.92,0-1.747,0.277-2.479,0.832
			s-1.255,1.324-1.567,2.309c-0.47,1.5-0.704,3.141-0.704,4.922v13.031H211.009z"/>
	</g>
	<g>
		<path d="M175.532,193.987l7.188-34.375h14.379c2.837,0,4.987,0.238,6.453,0.716c1.465,0.478,2.614,1.373,3.448,2.687
			c0.834,1.314,1.251,2.973,1.251,4.975c0,2.801-0.913,5.125-2.74,6.971s-4.778,3.043-8.854,3.59
			c1.25,0.922,2.195,1.827,2.836,2.717c1.429,2.018,2.579,4.104,3.448,6.262l2.643,6.459h-5.133l-2.471-6.393
			c-0.89-2.311-1.905-4.309-3.044-5.994c-0.774-1.175-1.567-1.945-2.376-2.312c-0.81-0.367-2.126-0.551-3.948-0.551h-5.326
			l-3.188,15.25H175.532z M184.062,175.019h6.332c2.928,0,4.836-0.041,5.724-0.125c1.734-0.172,3.156-0.562,4.266-1.174
			c1.109-0.609,1.969-1.432,2.578-2.464s0.914-2.144,0.914-3.333c0-1.001-0.227-1.873-0.679-2.617
			c-0.452-0.742-1.045-1.247-1.777-1.514c-0.734-0.266-1.981-0.398-3.744-0.398h-11.183L184.062,175.019z"/>
		<path d="M209.509,193.987l5.219-24.906h3.776l-1.08,5.094c1.298-1.924,2.561-3.348,3.787-4.271
			c1.227-0.923,2.48-1.385,3.762-1.385c0.844,0,1.883,0.312,3.117,0.938l-1.734,3.938c-0.734-0.541-1.539-0.812-2.414-0.812
			c-1.484,0-3.014,0.829-4.588,2.486c-1.574,1.658-2.817,4.637-3.729,8.938l-2.085,9.982H209.509z"/>
	</g>
	<g>
		<path fill="#4682B4" d="M102.469,243.144h12.669c2.857,0,5.035,0.219,6.534,0.656c2.014,0.594,3.739,1.649,5.175,3.166
			s2.529,3.373,3.279,5.568c0.749,2.197,1.124,4.905,1.124,8.125c0,2.83-0.352,5.268-1.054,7.316
			c-0.859,2.501-2.084,4.525-3.677,6.072c-1.202,1.173-2.826,2.088-4.871,2.744c-1.53,0.484-3.575,0.727-6.136,0.727h-13.044
			V243.144z M109.406,248.956v22.75h5.177c1.937,0,3.334-0.109,4.193-0.328c1.124-0.281,2.057-0.757,2.799-1.429
			c0.742-0.672,1.347-1.776,1.815-3.315c0.468-1.539,0.703-3.636,0.703-6.291s-0.234-4.693-0.703-6.115
			c-0.469-1.421-1.125-2.529-1.968-3.326c-0.844-0.797-1.914-1.336-3.209-1.617c-0.968-0.219-2.866-0.328-5.692-0.328H109.406z"/>
		<path fill="#4682B4" d="M152.036,269.581l6.562,1.094c-0.843,2.414-2.174,4.252-3.992,5.514s-4.093,1.893-6.825,1.893
			c-4.324,0-7.524-1.414-9.6-4.244c-1.639-2.268-2.458-5.129-2.458-8.584c0-4.127,1.077-7.359,3.23-9.697
			c2.153-2.337,4.876-3.506,8.169-3.506c3.698,0,6.616,1.223,8.753,3.668s3.16,6.191,3.066,11.238h-16.469
			c0.047,1.953,0.577,3.473,1.59,4.559c1.013,1.086,2.275,1.629,3.788,1.629c1.028,0,1.894-0.281,2.595-0.844
			C151.147,271.737,151.677,270.831,152.036,269.581z M152.411,262.925c-0.047-1.908-0.538-3.359-1.473-4.354
			c-0.936-0.993-2.073-1.49-3.414-1.49c-1.435,0-2.619,0.524-3.554,1.572c-0.936,1.049-1.395,2.473-1.379,4.271H152.411z"/>
		<path fill="#4682B4" d="M164.853,277.519v-34.375h6.594v34.375H164.853z"/>
		<path fill="#4682B4" d="M178.717,249.237v-6.094h6.594v6.094H178.717z M178.717,277.519v-24.906h6.594v24.906H178.717z"/>
		<path fill="#4682B4" d="M199.48,277.519l-10.041-24.906h6.906l4.7,12.711l1.362,4.245c0.359-1.079,0.587-1.79,0.682-2.134
			c0.219-0.703,0.453-1.407,0.703-2.111l4.74-12.711h6.781l-9.898,24.906H199.48z"/>
		<path fill="#4682B4" d="M234.211,269.581l6.562,1.094c-0.844,2.414-2.174,4.252-3.992,5.514s-4.094,1.893-6.825,1.893
			c-4.324,0-7.524-1.414-9.6-4.244c-1.64-2.268-2.458-5.129-2.458-8.584c0-4.127,1.076-7.359,3.229-9.697
			c2.153-2.337,4.876-3.506,8.169-3.506c3.697,0,6.615,1.223,8.754,3.668c2.137,2.445,3.16,6.191,3.066,11.238h-16.469
			c0.047,1.953,0.576,3.473,1.59,4.559c1.012,1.086,2.275,1.629,3.787,1.629c1.028,0,1.894-0.281,2.596-0.844
			C233.322,271.737,233.852,270.831,234.211,269.581z M234.586,262.925c-0.047-1.908-0.539-3.359-1.474-4.354
			c-0.936-0.993-2.073-1.49-3.413-1.49c-1.436,0-2.619,0.524-3.555,1.572c-0.936,1.049-1.395,2.473-1.379,4.271H234.586z"/>
		<path fill="#4682B4" d="M253.34,277.519h-6.594v-24.906h6.125v3.539c1.046-1.672,1.986-2.773,2.822-3.305
			c0.834-0.531,1.783-0.797,2.846-0.797c1.498,0,2.942,0.414,4.332,1.242l-2.047,5.742c-1.107-0.719-2.137-1.078-3.088-1.078
			c-0.92,0-1.699,0.254-2.338,0.762c-0.641,0.509-1.143,1.428-1.51,2.757c-0.365,1.329-0.549,4.112-0.549,8.351V277.519z"/>
		<path fill="#4682B4" d="M271.172,260.206l-5.969-1.094c0.672-2.4,1.828-4.178,3.468-5.332c1.64-1.153,4.077-1.73,7.31-1.73
			c2.938,0,5.123,0.348,6.561,1.044c1.437,0.696,2.447,1.579,3.033,2.649c0.586,1.072,0.879,3.037,0.879,5.898l-0.094,7.692
			c0,2.188,0.105,3.804,0.316,4.843c0.211,1.04,0.605,2.154,1.184,3.342h-6.531c-0.172-0.439-0.382-1.09-0.631-1.953
			c-0.109-0.392-0.188-0.65-0.234-0.775c-1.122,1.097-2.322,1.92-3.601,2.469c-1.278,0.548-2.643,0.822-4.092,0.822
			c-2.557,0-4.571-0.695-6.045-2.087s-2.21-3.149-2.21-5.276c0-1.406,0.336-2.66,1.006-3.763c0.671-1.103,1.61-1.946,2.818-2.532
			c1.209-0.586,2.951-1.099,5.229-1.536c3.071-0.578,5.199-1.118,6.385-1.618v-0.658c0-1.271-0.311-2.177-0.934-2.718
			s-1.799-0.812-3.526-0.812c-1.168,0-2.079,0.231-2.733,0.693C272.106,258.236,271.577,259.047,271.172,260.206z M279.953,265.55
			c-0.84,0.281-2.17,0.617-3.99,1.008s-3.01,0.773-3.57,1.148c-0.855,0.609-1.283,1.383-1.283,2.32c0,0.922,0.342,1.719,1.027,2.391
			c0.684,0.672,1.555,1.008,2.613,1.008c1.182,0,2.311-0.391,3.383-1.172c0.794-0.594,1.314-1.32,1.564-2.18
			c0.17-0.562,0.256-1.633,0.256-3.211V265.55z"/>
		<path fill="#4682B4" d="M293.178,277.519v-34.375h6.594v12.375c2.031-2.312,4.438-3.469,7.219-3.469
			c3.031,0,5.539,1.099,7.523,3.295c1.984,2.197,2.977,5.352,2.977,9.463c0,4.253-1.012,7.528-3.035,9.826
			c-2.023,2.299-4.48,3.447-7.371,3.447c-1.422,0-2.824-0.355-4.207-1.066s-2.574-1.762-3.574-3.152v3.656H293.178z
			 M299.709,264.515c0,2.579,0.406,4.486,1.221,5.721c1.142,1.752,2.659,2.627,4.553,2.627c1.455,0,2.695-0.621,3.72-1.864
			s1.538-3.2,1.538-5.874c0-2.845-0.518-4.896-1.55-6.155s-2.354-1.888-3.966-1.888c-1.581,0-2.896,0.613-3.943,1.841
			C300.232,260.149,299.709,262.014,299.709,264.515z"/>
		<path fill="#4682B4" d="M323.307,277.519v-34.375h6.594v34.375H323.307z"/>
		<path fill="#4682B4" d="M351.576,269.581l6.562,1.094c-0.842,2.414-2.174,4.252-3.992,5.514s-4.093,1.893-6.824,1.893
			c-4.324,0-7.523-1.414-9.6-4.244c-1.639-2.268-2.459-5.129-2.459-8.584c0-4.127,1.077-7.359,3.23-9.697
			c2.153-2.337,4.876-3.506,8.169-3.506c3.698,0,6.616,1.223,8.753,3.668c2.139,2.445,3.16,6.191,3.066,11.238h-16.469
			c0.047,1.953,0.577,3.473,1.59,4.559c1.014,1.086,2.275,1.629,3.788,1.629c1.028,0,1.894-0.281,2.595-0.844
			S351.219,270.831,351.576,269.581z M351.951,262.925c-0.047-1.908-0.537-3.359-1.473-4.354c-0.936-0.993-2.073-1.49-3.414-1.49
			c-1.434,0-2.619,0.524-3.554,1.572c-0.936,1.049-1.396,2.473-1.38,4.271H351.951z"/>
	</g>
</g>
</svg>
