<?xml version="1.0" encoding="UTF-8" standalone="no"?>
<svg
   xmlns:dc="http://purl.org/dc/elements/1.1/"
   xmlns:cc="http://creativecommons.org/ns#"
   xmlns:rdf="http://www.w3.org/1999/02/22-rdf-syntax-ns#"
   xmlns:svg="http://www.w3.org/2000/svg"
   xmlns="http://www.w3.org/2000/svg"
   xmlns:sodipodi="http://sodipodi.sourceforge.net/DTD/sodipodi-0.dtd"
   xmlns:inkscape="http://www.inkscape.org/namespaces/inkscape"
   id="Layer_2"
   data-name="Layer 2"
   viewBox="0 0 92 91.999998"
   version="1.1"
   sodipodi:docname="Symbol-cropped.svg"
   width="92"
   height="92"
   inkscape:version="0.92.5 (2060ec1f9f, 2020-04-08)">
  <metadata
     id="metadata228">
    <rdf:RDF>
      <cc:Work
         rdf:about="">
        <dc:format>image/svg+xml</dc:format>
        <dc:type
           rdf:resource="http://purl.org/dc/dcmitype/StillImage" />
        <dc:title></dc:title>
      </cc:Work>
    </rdf:RDF>
  </metadata>
  <sodipodi:namedview
     pagecolor="#ffffff"
     bordercolor="#666666"
     borderopacity="1"
     objecttolerance="10"
     gridtolerance="10"
     guidetolerance="10"
     inkscape:pageopacity="0"
     inkscape:pageshadow="2"
     inkscape:window-width="1920"
     inkscape:window-height="1055"
     id="namedview226"
     showgrid="false"
     inkscape:zoom="4.1981686"
     inkscape:cx="101.72098"
     inkscape:cy="38.116416"
     inkscape:window-x="1920"
     inkscape:window-y="0"
     inkscape:window-maximized="1"
     inkscape:current-layer="Layer_2" />
  <defs
     id="defs4">
    <style
       id="style2">
      .cls-1 {
        fill: #89bd35;
      }

      .cls-2 {
        fill: #9d70ad;
      }

      .cls-3 {
        fill: #4da2da;
      }
    </style>
  </defs>
  <g
     id="Layer_1-2"
     data-name="Layer 1"
     transform="translate(7,6.9899984)">
    <g
       id="g222">
      <path
         d="m 156.1,77.1 -10.71,-10.71 6.57,-15.85 c 0.65,-1.57 -0.09,-3.36 -1.66,-4.01 L 138.98,41.84 V 23.43 c 0,-1.7 -1.37,-3.07 -3.07,-3.07 h -18.95 c 0,0 -4.89,-11.82 -4.89,-11.82 -0.65,-1.57 -2.44,-2.31 -4.01,-1.66 L 92.38,13.37 81.91,2.9 c -1.2,-1.2 -3.14,-1.2 -4.34,0 l -10.6,10.6 -16,-6.63 C 49.4,6.22 47.61,6.96 46.96,8.53 L 42.07,20.35 H 23.12 c -1.7,0 -3.07,1.37 -3.07,3.07 v 18.41 c 0,0 -11.32,4.69 -11.32,4.69 -1.57,0.65 -2.31,2.44 -1.66,4.01 L 13.77,66.7 2.92,77.55 c -1.2,1.2 -1.2,3.14 0,4.34 L 13.63,92.6 7.06,108.45 c -0.65,1.57 0.09,3.36 1.66,4.01 l 11.32,4.69 v 18.41 c 0,1.7 1.37,3.07 3.07,3.07 h 18.95 c 0,0 4.89,11.82 4.89,11.82 0.65,1.57 2.44,2.31 4.01,1.66 l 15.68,-6.49 10.47,10.47 c 1.2,1.2 3.14,1.2 4.34,0 l 10.6,-10.6 16,6.63 c 1.57,0.65 3.36,-0.09 4.01,-1.66 l 4.89,-11.82 h 18.95 c 1.7,0 3.07,-1.37 3.07,-3.07 v -18.41 c 0,0 11.32,-4.69 11.32,-4.69 1.57,-0.65 2.31,-2.44 1.66,-4.01 l -6.7,-16.17 10.85,-10.85 c 1.2,-1.2 1.2,-3.14 0,-4.34 z"
         id="path6"
         inkscape:connector-curvature="0" />
      <g
         id="g56">
        <g
           id="g12">
          <path
             class="cls-2"
             d="m 137.97,113.82 c 0,-0.16 -0.03,-0.33 -0.09,-0.54 l -0.24,-0.85 9.39,-3.89 -5.69,-13.75 4.26,-4.26 7.27,17.55 c 0.86,2.07 -0.13,4.46 -2.2,5.32 l -12.7,5.26 z"
             id="path8"
             inkscape:connector-curvature="0"
             style="fill:#9d70ad" />
          <path
             d="m 145.25,92.29 6.7,16.17 c 0.65,1.57 -0.09,3.36 -1.66,4.01 l -11.32,4.69 v -3.34 c 0,-0.28 -0.05,-0.55 -0.12,-0.81 l 9.5,-3.93 -5.82,-14.05 2.73,-2.73 m 0.7,-3.53 -2.12,2.12 -2.73,2.73 -0.95,0.94 0.51,1.23 5.06,12.2 -7.65,3.17 -1.63,0.68 0.47,1.7 c 0.03,0.12 0.05,0.22 0.05,0.28 v 6.34 l 2.77,-1.15 11.32,-4.69 c 1.25,-0.52 2.23,-1.49 2.74,-2.74 0.52,-1.25 0.52,-2.63 0,-3.88 l -6.7,-16.17 -1.15,-2.77 v 0 z"
             id="path10"
             inkscape:connector-curvature="0" />
        </g>
        <g
           id="g18">
          <path
             class="cls-2"
             d="m 109.22,153.36 c -0.54,0 -1.06,-0.1 -1.56,-0.31 l -17.38,-7.2 4.51,-4.51 13.75,5.69 4.06,-9.81 0.89,0.3 c 0.24,0.08 0.46,0.12 0.66,0.12 h 4.31 l -5.47,13.2 c -0.63,1.53 -2.11,2.51 -3.76,2.51 v 0 z"
             id="path14"
             inkscape:connector-curvature="0"
             style="fill:#9d70ad" />
          <path
             d="m 113.16,138.47 c 0.31,0.1 0.63,0.17 0.98,0.17 h 2.81 c 0,0 -4.89,11.82 -4.89,11.82 -0.49,1.18 -1.63,1.9 -2.84,1.9 -0.39,0 -0.79,-0.08 -1.17,-0.23 l -16,-6.63 2.97,-2.97 14.05,5.82 4.09,-9.87 m -1.13,-2.49 -0.72,1.73 -3.32,8.02 -12.2,-5.06 -1.23,-0.51 -0.95,0.94 -2.97,2.97 -2.12,2.12 2.77,1.15 16,6.63 c 0.62,0.26 1.27,0.39 1.94,0.39 2.06,0 3.9,-1.23 4.69,-3.13 l 4.89,-11.82 1.15,-2.77 h -2.99 c 0,0 -2.81,0 -2.81,0 -0.09,0 -0.2,-0.02 -0.34,-0.07 l -1.77,-0.6 v 0 z"
             id="path16"
             inkscape:connector-curvature="0" />
        </g>
        <g
           id="g24">
          <path
             class="cls-2"
             d="m 49.78,153.36 c -1.65,0 -3.13,-0.99 -3.76,-2.51 l -5.47,-13.2 h 4.3 c 0.2,0 0.42,-0.04 0.66,-0.12 l 0.89,-0.3 4.06,9.81 13.43,-5.56 4.51,4.51 -17.06,7.07 c -0.5,0.21 -1.02,0.31 -1.56,0.31 z"
             id="path20"
             inkscape:connector-curvature="0"
             style="fill:#9d70ad" />
          <path
             d="m 45.84,138.47 4.09,9.87 13.73,-5.69 2.97,2.97 -15.68,6.49 c -0.38,0.16 -0.78,0.23 -1.17,0.23 -1.2,0 -2.35,-0.71 -2.84,-1.9 l -4.89,-11.82 h 2.81 c 0.34,0 0.67,-0.07 0.98,-0.17 m 1.13,-2.49 -1.77,0.6 c -0.14,0.05 -0.25,0.07 -0.34,0.07 h -2.81 c 0,0 -2.99,0 -2.99,0 l 1.15,2.77 4.89,11.82 c 0.79,1.9 2.63,3.13 4.69,3.13 0.67,0 1.32,-0.13 1.94,-0.39 l 15.68,-6.49 2.77,-1.15 -2.12,-2.12 -2.97,-2.97 -0.95,-0.94 -1.23,0.51 -11.88,4.92 -3.32,-8.02 -0.72,-1.73 v 0 z"
             id="path22"
             inkscape:connector-curvature="0" />
        </g>
        <g
           id="g30">
          <path
             class="cls-2"
             d="m 8.33,113.4 c -2.07,-0.86 -3.06,-3.24 -2.2,-5.32 l 7.14,-17.23 4.26,4.26 -5.56,13.42 9.39,3.89 -0.23,0.85 c -0.06,0.22 -0.09,0.39 -0.09,0.55 v 4.84 z"
             id="path26"
             inkscape:connector-curvature="0"
             style="fill:#9d70ad" />
          <path
             d="m 13.61,92.61 2.73,2.73 -5.69,13.73 9.5,3.93 c -0.07,0.26 -0.12,0.53 -0.12,0.81 v 3.34 L 8.71,112.46 C 7.14,111.81 6.4,110.02 7.05,108.45 L 13.62,92.6 m -0.7,-3.53 -1.15,2.77 -6.57,15.85 c -1.07,2.58 0.16,5.55 2.74,6.62 l 11.32,4.69 2.77,1.15 v -6.34 c 0,-0.06 0.02,-0.16 0.05,-0.28 l 0.47,-1.7 -1.63,-0.68 -7.65,-3.17 4.92,-11.88 0.51,-1.23 -0.94,-0.95 -2.73,-2.73 -2.12,-2.12 v 0 z"
             id="path28"
             inkscape:connector-curvature="0" />
        </g>
        <g
           id="g36">
          <path
             class="cls-2"
             d="m 6.13,50.92 c -0.42,-1 -0.42,-2.11 0,-3.12 0.42,-1 1.2,-1.79 2.2,-2.2 l 12.71,-5.26 v 4.84 c 0,0.16 0.03,0.33 0.09,0.55 l 0.23,0.85 -9.39,3.89 5.69,13.75 -4.26,4.26 -7.27,-17.55 z"
             id="path32"
             inkscape:connector-curvature="0"
             style="fill:#9d70ad" />
          <path
             d="m 20.03,41.84 v 3.34 c 0,0.28 0.05,0.55 0.12,0.81 l -9.5,3.93 5.82,14.05 -2.73,2.73 -6.7,-16.17 C 6.39,48.96 7.13,47.17 8.7,46.52 l 11.32,-4.69 m 2,-2.99 -2.77,1.15 -11.32,4.69 c -1.25,0.52 -2.23,1.49 -2.74,2.74 -0.52,1.25 -0.52,2.63 0,3.88 l 6.7,16.17 1.15,2.77 2.12,-2.12 2.73,-2.73 0.94,-0.94 -0.51,-1.23 -5.06,-12.2 7.65,-3.17 1.63,-0.68 -0.47,-1.7 c -0.03,-0.12 -0.05,-0.22 -0.05,-0.28 v -6.34 0 z"
             id="path34"
             inkscape:connector-curvature="0" />
        </g>
        <g
           id="g42">
          <path
             class="cls-2"
             d="m 45.52,21.47 c -0.24,-0.08 -0.46,-0.12 -0.66,-0.12 h -4.31 l 5.47,-13.2 c 0.63,-1.53 2.11,-2.51 3.76,-2.51 0.54,0 1.06,0.1 1.56,0.31 l 17.38,7.2 -4.51,4.51 -13.75,-5.69 -4.06,9.81 -0.88,-0.3 z"
             id="path38"
             inkscape:connector-curvature="0"
             style="fill:#9d70ad" />
          <path
             d="m 49.78,6.64 c 0.39,0 0.79,0.08 1.17,0.23 l 16,6.63 -2.97,2.97 -14.05,-5.82 -4.09,9.87 c -0.31,-0.1 -0.63,-0.17 -0.98,-0.17 h -2.81 c 0,0 4.89,-11.82 4.89,-11.82 0.49,-1.18 1.63,-1.9 2.84,-1.9 m 0,-2 c -2.06,0 -3.9,1.23 -4.69,3.13 l -4.89,11.82 -1.15,2.77 h 2.99 c 0,0 2.81,0 2.81,0 0.09,0 0.2,0.02 0.34,0.07 l 1.77,0.6 0.72,-1.73 3.32,-8.02 12.2,5.06 1.23,0.51 0.95,-0.94 2.97,-2.97 2.12,-2.12 -2.77,-1.15 -16,-6.63 C 51.08,4.77 50.43,4.64 49.76,4.64 v 0 z"
             id="path40"
             inkscape:connector-curvature="0" />
        </g>
        <g
           id="g48">
          <path
             class="cls-2"
             d="M 108.53,11.96 95.11,17.52 90.6,13.01 107.66,5.94 c 0.5,-0.21 1.02,-0.31 1.56,-0.31 1.65,0 3.13,0.99 3.76,2.51 l 5.47,13.2 h -4.31 c -0.2,0 -0.42,0.04 -0.66,0.12 l -0.89,0.3 -4.06,-9.81 z"
             id="path44"
             inkscape:connector-curvature="0"
             style="fill:#9d70ad" />
          <path
             d="m 109.22,6.64 c 1.2,0 2.35,0.71 2.84,1.9 l 4.89,11.82 h -2.81 c -0.34,0 -0.67,0.07 -0.98,0.17 l -4.09,-9.87 -13.73,5.69 -2.97,-2.97 15.68,-6.49 c 0.38,-0.16 0.78,-0.23 1.17,-0.23 m 0,-2 c -0.67,0 -1.32,0.13 -1.94,0.39 l -15.68,6.49 -2.77,1.15 2.12,2.12 2.97,2.97 0.95,0.94 1.23,-0.51 11.88,-4.92 3.32,8.02 0.72,1.73 1.77,-0.6 c 0.14,-0.05 0.25,-0.07 0.34,-0.07 h 2.81 c 0,0 2.99,0 2.99,0 L 118.78,19.6 113.89,7.78 C 113.1,5.88 111.26,4.65 109.2,4.65 v 0 z"
             id="path46"
             inkscape:connector-curvature="0" />
        </g>
        <g
           id="g54">
          <path
             class="cls-2"
             d="m 141.48,63.89 5.56,-13.42 -9.39,-3.89 0.24,-0.85 c 0.06,-0.21 0.09,-0.38 0.09,-0.54 v -4.84 l 12.71,5.26 c 2.07,0.86 3.06,3.25 2.2,5.32 l -7.14,17.23 -4.26,-4.26 z"
             id="path50"
             inkscape:connector-curvature="0"
             style="fill:#9d70ad" />
          <path
             d="m 138.97,41.84 11.32,4.69 c 1.57,0.65 2.31,2.44 1.66,4.01 l -6.57,15.85 -2.73,-2.73 5.69,-13.73 -9.5,-3.93 c 0.07,-0.26 0.12,-0.53 0.12,-0.81 v -3.34 m -2,-2.99 v 6.34 c 0,0.06 -0.02,0.16 -0.05,0.28 l -0.47,1.7 1.63,0.68 7.65,3.17 -4.92,11.88 -0.51,1.23 0.95,0.94 2.73,2.73 2.12,2.12 1.15,-2.77 6.57,-15.85 c 1.07,-2.58 -0.16,-5.55 -2.74,-6.62 L 139.75,40 136.98,38.85 v 0 z"
             id="path52"
             inkscape:connector-curvature="0" />
        </g>
      </g>
      <g
         id="g82">
        <g
           id="g62">
          <path
             class="cls-1"
             d="m 126.23,98.73 c -1.09,0 -2.11,-0.42 -2.88,-1.19 l -1.06,-1.06 16.98,-16.98 -17.21,-17.21 1.28,-1.28 c 0.77,-0.77 1.79,-1.19 2.88,-1.19 1.09,0 2.11,0.42 2.88,1.19 l 15.38,15.38 c 1.59,1.59 1.59,4.17 0,5.76 l -15.39,15.38 c -0.77,0.77 -1.79,1.19 -2.88,1.19 z"
             id="path58"
             inkscape:connector-curvature="0"
             style="fill:#89bd35" />
          <path
             d="m 126.23,60.82 c 0.79,0 1.57,0.3 2.17,0.9 l 15.38,15.39 c 1.2,1.2 1.2,3.14 0,4.34 l -15.39,15.38 c -0.6,0.6 -1.39,0.9 -2.17,0.9 -0.78,0 -1.57,-0.3 -2.17,-0.9 l -0.35,-0.35 16.98,-16.98 -17.21,-17.21 0.58,-0.58 c 0.6,-0.6 1.39,-0.9 2.17,-0.9 m 0,-2 c -1.35,0 -2.63,0.53 -3.58,1.48 l -0.58,0.58 -1.41,1.41 1.41,1.41 15.79,15.79 -15.56,15.56 -1.41,1.41 1.41,1.41 0.35,0.35 c 0.96,0.96 2.23,1.49 3.59,1.49 1.36,0 2.63,-0.53 3.58,-1.48 L 145.2,82.84 c 0.96,-0.96 1.49,-2.23 1.49,-3.59 0,-1.36 -0.53,-2.63 -1.48,-3.59 L 129.83,60.27 c -0.96,-0.96 -2.23,-1.49 -3.59,-1.49 v 0 z"
             id="path60"
             inkscape:connector-curvature="0" />
        </g>
        <g
           id="g68">
          <path
             class="cls-1"
             d="m 32.77,99.18 c -1.09,0 -2.11,-0.42 -2.88,-1.19 L 14.51,82.6 c -1.59,-1.59 -1.59,-4.17 0,-5.76 L 29.9,61.46 c 0.77,-0.77 1.79,-1.19 2.88,-1.19 1.09,0 2.11,0.42 2.88,1.19 l 1.06,1.06 -16.98,16.98 17.21,17.21 -1.28,1.28 c -0.77,0.77 -1.79,1.19 -2.88,1.19 z"
             id="path64"
             inkscape:connector-curvature="0"
             style="fill:#89bd35" />
          <path
             d="m 32.77,61.27 c 0.79,0 1.57,0.3 2.17,0.9 l 0.35,0.35 -16.98,16.98 17.21,17.21 -0.58,0.58 c -0.6,0.6 -1.39,0.9 -2.17,0.9 -0.78,0 -1.57,-0.3 -2.17,-0.9 L 15.22,81.9 c -1.2,-1.2 -1.2,-3.14 0,-4.34 L 30.61,62.18 c 0.6,-0.6 1.39,-0.9 2.17,-0.9 m 0,-2 c -1.35,0 -2.63,0.53 -3.58,1.48 L 13.81,76.14 c -0.96,0.96 -1.49,2.23 -1.49,3.58 0,1.35 0.53,2.63 1.48,3.59 L 29.18,98.7 c 0.96,0.96 2.23,1.49 3.59,1.49 1.36,0 2.63,-0.53 3.58,-1.49 L 36.93,98.12 38.34,96.71 36.93,95.3 21.14,79.51 36.7,63.95 38.11,62.54 36.69,61.13 36.34,60.78 C 35.38,59.82 34.11,59.3 32.76,59.3 v 0 z"
             id="path66"
             inkscape:connector-curvature="0" />
        </g>
        <g
           id="g74">
          <path
             class="cls-1"
             d="m 79.27,145.68 c -1.09,0 -2.11,-0.42 -2.88,-1.19 L 61.01,129.1 c -0.77,-0.77 -1.19,-1.79 -1.19,-2.88 0,-1.09 0.42,-2.11 1.19,-2.88 l 1.28,-1.28 17.21,17.21 16.98,-16.98 1.06,1.06 c 1.59,1.59 1.59,4.17 0,5.76 l -15.39,15.38 c -0.77,0.77 -1.79,1.19 -2.88,1.19 z"
             id="path70"
             inkscape:connector-curvature="0"
             style="fill:#89bd35" />
          <path
             d="m 62.29,123.48 17.21,17.21 16.98,-16.98 0.35,0.35 c 1.2,1.2 1.2,3.14 0,4.34 l -15.39,15.38 c -0.6,0.6 -1.39,0.9 -2.17,0.9 -0.78,0 -1.57,-0.3 -2.17,-0.9 L 61.72,128.39 c -1.2,-1.2 -1.2,-3.14 0,-4.34 l 0.58,-0.58 m 0,-2.83 -1.41,1.41 -0.58,0.58 c -1.98,1.98 -1.98,5.19 0,7.17 l 15.38,15.39 c 0.96,0.96 2.23,1.49 3.59,1.49 1.36,0 2.63,-0.53 3.58,-1.49 l 15.39,-15.38 c 0.96,-0.96 1.49,-2.23 1.49,-3.59 0,-1.36 -0.53,-2.63 -1.48,-3.59 l -0.35,-0.35 -1.41,-1.41 -1.41,1.41 -15.56,15.56 -15.79,-15.79 -1.41,-1.41 v 0 z"
             id="path72"
             inkscape:connector-curvature="0" />
        </g>
        <g
           id="g80">
          <path
             class="cls-1"
             d="M 79.5,19.73 62.52,36.71 61.46,35.66 c -0.77,-0.77 -1.19,-1.79 -1.19,-2.88 0,-1.09 0.42,-2.11 1.19,-2.88 L 76.84,14.52 c 0.77,-0.77 1.79,-1.19 2.88,-1.19 1.09,0 2.11,0.42 2.88,1.19 L 97.98,29.9 c 0.77,0.77 1.19,1.79 1.19,2.88 0,1.09 -0.42,2.11 -1.19,2.88 L 96.7,36.94 79.49,19.73 Z"
             id="path76"
             inkscape:connector-curvature="0"
             style="fill:#89bd35" />
          <path
             d="m 79.73,14.32 c 0.79,0 1.57,0.3 2.17,0.9 l 15.38,15.39 c 1.2,1.2 1.2,3.14 0,4.34 L 96.7,35.53 79.49,18.32 62.51,35.3 62.16,34.95 c -1.2,-1.2 -1.2,-3.14 0,-4.34 L 77.55,15.23 c 0.6,-0.6 1.39,-0.9 2.17,-0.9 m 0,-2 v 0 c -1.35,0 -2.63,0.53 -3.59,1.48 L 60.74,29.19 c -0.96,0.96 -1.48,2.23 -1.48,3.59 0,1.36 0.53,2.63 1.49,3.59 l 0.35,0.35 1.41,1.41 1.41,-1.41 15.56,-15.56 15.79,15.79 1.41,1.41 1.41,-1.41 0.58,-0.58 c 0.96,-0.96 1.49,-2.23 1.49,-3.59 0,-1.36 -0.53,-2.63 -1.49,-3.59 L 83.29,13.8 C 82.33,12.84 81.06,12.31 79.7,12.31 v 0 z"
             id="path78"
             inkscape:connector-curvature="0" />
        </g>
      </g>
      <g
         id="g92">
        <path
           class="cls-3"
           d="m 49.3,85.69 h -0.5 c -1.7,0 -3.07,1.37 -3.07,3.07 v 21.76 c 0,1.7 1.37,3.07 3.07,3.07 h 21.76 c 1.7,0 3.07,-1.37 3.07,-3.07 V 109.7 H 49.3 c 0,0 0,-24.01 0,-24.01 z"
           id="path84"
           inkscape:connector-curvature="0"
           style="fill:#4da2da" />
        <path
           class="cls-3"
           d="m 110.2,85.69 h -0.5 v 24.01 c 0,0 -24.33,0 -24.33,0 v 0.82 c 0,1.7 1.37,3.07 3.07,3.07 h 21.76 c 1.7,0 3.07,-1.37 3.07,-3.07 V 88.76 c 0,-1.7 -1.37,-3.07 -3.07,-3.07 z"
           id="path86"
           inkscape:connector-curvature="0"
           style="fill:#4da2da" />
        <path
           class="cls-3"
           d="m 73.63,49.3 v -0.82 c 0,-1.7 -1.37,-3.07 -3.07,-3.07 H 48.8 c -1.7,0 -3.07,1.37 -3.07,3.07 v 21.76 c 0,1.7 1.37,3.07 3.07,3.07 h 0.5 V 49.3 c 0,0 24.33,0 24.33,0 z"
           id="path88"
           inkscape:connector-curvature="0"
           style="fill:#4da2da" />
        <path
           class="cls-3"
           d="m 109.7,73.31 h 0.5 c 1.7,0 3.07,-1.37 3.07,-3.07 V 48.48 c 0,-1.7 -1.37,-3.07 -3.07,-3.07 H 88.44 c -1.7,0 -3.07,1.37 -3.07,3.07 v 0.82 h 24.33 c 0,0 0,24.01 0,24.01 z"
           id="path90"
           inkscape:connector-curvature="0"
           style="fill:#4da2da" />
      </g>
      <g
         id="g144">
        <path
           class="cls-3"
           d="m 70.24,88.72 c 0.39,0.39 0.51,0.95 0.36,1.44 l 5.07,5.07 c 0.49,-0.14 1.05,-0.03 1.44,0.36 0.39,0.39 0.51,0.94 0.37,1.43 1.15,1.08 2.91,1.1 4.09,0.08 -0.17,-0.51 -0.07,-1.09 0.34,-1.49 0.14,-0.14 0.3,-0.25 0.48,-0.32 0.33,-0.13 0.7,-0.13 1.04,-0.01 l 4.97,-4.97 c -0.19,-0.51 -0.08,-1.11 0.33,-1.52 0.41,-0.41 1,-0.51 1.52,-0.33 l 4.97,-4.97 c -0.19,-0.51 -0.08,-1.11 0.33,-1.52 0.14,-0.14 0.3,-0.25 0.48,-0.32 0.33,-0.13 0.7,-0.13 1.04,-0.01 l 0.08,-0.08 c 1.14,-1.14 1.18,-2.95 0.15,-4.16 -0.56,0.33 -1.29,0.26 -1.77,-0.22 -0.48,-0.48 -0.56,-1.24 -0.21,-1.79 l -4.87,-4.87 c -0.56,0.35 -1.31,0.28 -1.79,-0.21 -0.48,-0.49 -0.56,-1.24 -0.21,-1.79 l -4.87,-4.87 c -0.56,0.35 -1.31,0.28 -1.79,-0.21 -0.48,-0.49 -0.55,-1.21 -0.22,-1.77 -1.21,-1 -2.99,-0.95 -4.12,0.18 l -0.1,0.1 c 0.1,0.32 0.1,0.67 -0.03,0.98 -0.07,0.17 -0.18,0.34 -0.32,0.48 v 0 c -0.39,0.39 -0.96,0.5 -1.46,0.34 l -5.01,5.01 c 0.16,0.5 0.05,1.07 -0.34,1.46 -0.39,0.39 -0.96,0.5 -1.46,0.34 l -5.01,5.01 c 0.16,0.5 0.05,1.07 -0.34,1.46 v 0 c -0.39,0.39 -0.94,0.5 -1.44,0.35 -1.02,1.17 -1.01,2.92 0.04,4.07 0.49,-0.14 1.04,-0.02 1.43,0.37 0.39,0.39 0.51,0.95 0.37,1.44 l 5.07,5.07 c 0.49,-0.14 1.05,-0.03 1.44,0.37 z m 4.73,-13.67 c 0.56,-0.56 1.48,-0.56 2.05,0.01 v 0 c 0.57,0.57 0.57,1.49 0,2.05 -0.57,0.56 -1.48,0.56 -2.05,0 v 0 C 74.4,76.54 74.4,75.62 74.96,75.06 Z m 8.91,2.1 c -0.56,0.56 -1.48,0.56 -2.05,0 -0.57,-0.57 -0.57,-1.49 0,-2.05 0.57,-0.56 1.48,-0.56 2.05,0 0.57,0.56 0.57,1.49 0,2.05 z M 83.91,84 c -0.56,0.56 -1.48,0.56 -2.05,0 -0.57,-0.57 -0.57,-1.49 0,-2.05 0.57,-0.56 1.48,-0.56 2.05,0 0.57,0.56 0.57,1.49 0,2.05 z m -8.9,-0.04 c -0.57,-0.57 -0.57,-1.49 0,-2.05 0.57,-0.56 1.48,-0.56 2.05,0 0.57,0.57 0.57,1.49 0,2.05 -0.57,0.56 -1.48,0.56 -2.05,0 z m 0.03,6.85 c -0.07,-0.07 -0.13,-0.15 -0.19,-0.23 -0.37,-0.57 -0.32,-1.33 0.18,-1.82 0.07,-0.07 0.15,-0.13 0.23,-0.19 0.56,-0.37 1.33,-0.3 1.83,0.19 0.57,0.57 0.57,1.49 0,2.05 v 0 c -0.56,0.56 -1.48,0.56 -2.05,-0.01 z m 8.9,0.04 c -0.56,0.56 -1.48,0.56 -2.05,0 -0.57,-0.56 -0.57,-1.49 0,-2.05 0.57,-0.56 1.48,-0.56 2.05,0 0.57,0.56 0.57,1.49 0,2.05 z m 6.81,-6.81 c -0.56,0.56 -1.48,0.56 -2.05,0 -0.57,-0.56 -0.57,-1.49 0,-2.05 0.56,-0.56 1.48,-0.56 2.05,0 0.57,0.56 0.57,1.49 0,2.05 z m -0.04,-8.9 c 0.57,0.57 0.57,1.49 0,2.05 v 0 c -0.56,0.56 -1.48,0.56 -2.05,-0.01 -0.07,-0.07 -0.13,-0.15 -0.19,-0.23 -0.37,-0.57 -0.32,-1.33 0.18,-1.82 0.07,-0.07 0.15,-0.13 0.23,-0.19 0.56,-0.37 1.33,-0.3 1.83,0.19 z M 82,68.06 c 0.56,-0.37 1.33,-0.3 1.83,0.2 v 0 c 0.57,0.57 0.57,1.49 0,2.05 v 0 c -0.42,0.42 -1.05,0.53 -1.57,0.31 -0.18,-0.07 -0.34,-0.18 -0.48,-0.32 v 0 c -0.21,-0.21 -0.35,-0.48 -0.4,-0.75 -0.07,-0.37 0,-0.75 0.21,-1.08 0.05,-0.08 0.11,-0.16 0.18,-0.23 0.07,-0.07 0.15,-0.13 0.23,-0.19 z m -7.07,0.15 c 0.56,-0.56 1.48,-0.56 2.05,0 0.57,0.56 0.57,1.49 0,2.05 -0.57,0.56 -1.48,0.56 -2.05,0 -0.57,-0.56 -0.57,-1.49 0,-2.05 z m -6.81,6.81 c 0.56,-0.56 1.48,-0.56 2.05,0 0.57,0.56 0.57,1.49 0,2.05 -0.57,0.56 -1.48,0.56 -2.05,0 -0.57,-0.56 -0.57,-1.49 0,-2.05 z m -0.36,8.15 c -0.07,-0.37 0,-0.75 0.21,-1.08 0.05,-0.08 0.11,-0.16 0.18,-0.23 0.14,-0.14 0.3,-0.25 0.48,-0.32 0.52,-0.21 1.15,-0.1 1.58,0.33 v 0 c 0.5,0.5 0.56,1.27 0.19,1.83 -0.05,0.08 -0.11,0.16 -0.19,0.23 -0.28,0.28 -0.65,0.42 -1.02,0.42 -0.37,0 -0.74,-0.15 -1.03,-0.43 v 0 c -0.21,-0.21 -0.35,-0.48 -0.4,-0.75 z"
           id="path94"
           inkscape:connector-curvature="0"
           style="fill:#4da2da" />
        <path
           d="M 70.24,88.72 C 69.85,88.33 69.29,88.21 68.8,88.35 l 1.81,1.81 c 0.14,-0.49 0.03,-1.05 -0.36,-1.44 z"
           id="path96"
           inkscape:connector-curvature="0" />
        <path
           d="m 77.12,95.6 c -0.39,-0.39 -0.95,-0.51 -1.44,-0.36 l 1.73,1.73 c 0,0 0.05,0.04 0.08,0.06 0.14,-0.49 0.02,-1.04 -0.37,-1.43 z"
           id="path98"
           inkscape:connector-curvature="0" />
        <path
           d="m 68.16,83.92 c 0.29,0.29 0.66,0.43 1.03,0.43 0.37,0 0.74,-0.14 1.02,-0.42 0.07,-0.07 0.13,-0.15 0.19,-0.23 0.37,-0.56 0.3,-1.33 -0.19,-1.83 v 0 c -0.43,-0.43 -1.05,-0.54 -1.58,-0.33 -0.17,0.07 -0.34,0.18 -0.48,0.32 -0.07,0.07 -0.13,0.15 -0.18,0.23 -0.21,0.32 -0.28,0.71 -0.21,1.08 0.05,0.27 0.19,0.54 0.4,0.75 z"
           id="path100"
           inkscape:connector-curvature="0" />
        <path
           d="m 63.36,81.84 c -0.39,-0.39 -0.94,-0.51 -1.43,-0.37 0.03,0.04 0.06,0.08 0.09,0.11 l 1.7,1.7 c 0.14,-0.49 0.03,-1.05 -0.37,-1.44 z"
           id="path102"
           inkscape:connector-curvature="0" />
        <path
           d="m 63.34,77.05 v 0 c 0.39,-0.39 0.5,-0.96 0.34,-1.46 l -1.65,1.65 c 0,0 -0.08,0.11 -0.13,0.16 0.5,0.15 1.05,0.04 1.44,-0.35 z"
           id="path104"
           inkscape:connector-curvature="0" />
        <path
           d="m 74.98,77.11 c 0.57,0.57 1.49,0.57 2.05,0 0.56,-0.57 0.56,-1.48 0,-2.05 v 0 c -0.57,-0.57 -1.49,-0.58 -2.05,-0.01 -0.56,0.57 -0.56,1.48 0.01,2.05 v 0 z"
           id="path106"
           inkscape:connector-curvature="0" />
        <path
           d="m 77.1,90.81 c 0.56,-0.56 0.56,-1.48 0,-2.05 -0.5,-0.5 -1.27,-0.56 -1.83,-0.19 -0.08,0.05 -0.16,0.11 -0.23,0.19 -0.49,0.49 -0.55,1.26 -0.18,1.82 0.05,0.08 0.12,0.16 0.19,0.23 0.57,0.57 1.49,0.57 2.05,0.01 v 0 z"
           id="path108"
           inkscape:connector-curvature="0" />
        <path
           d="m 81.85,81.93 c -0.56,0.56 -0.56,1.48 0,2.05 0.57,0.57 1.49,0.57 2.05,0 0.56,-0.56 0.56,-1.48 0,-2.05 -0.56,-0.57 -1.49,-0.57 -2.05,0 z"
           id="path110"
           inkscape:connector-curvature="0" />
        <path
           d="m 81.81,75.09 c -0.56,0.56 -0.56,1.48 0,2.05 0.57,0.57 1.49,0.57 2.05,0 0.56,-0.56 0.56,-1.48 0,-2.05 -0.56,-0.57 -1.49,-0.57 -2.05,0 z"
           id="path112"
           inkscape:connector-curvature="0" />
        <path
           d="m 77.05,81.91 c -0.57,-0.57 -1.49,-0.57 -2.05,0 -0.56,0.57 -0.56,1.48 0,2.05 0.56,0.57 1.49,0.57 2.05,0 0.56,-0.57 0.56,-1.48 0,-2.05 z"
           id="path114"
           inkscape:connector-curvature="0" />
        <path
           d="m 88.69,81.97 c -0.56,0.56 -0.56,1.48 0,2.05 0.56,0.57 1.49,0.57 2.05,0 0.56,-0.57 0.56,-1.48 0,-2.05 -0.56,-0.57 -1.49,-0.57 -2.05,0 z"
           id="path116"
           inkscape:connector-curvature="0" />
        <path
           d="m 81.88,88.78 c -0.56,0.56 -0.56,1.48 0,2.05 0.56,0.57 1.49,0.57 2.05,0 0.56,-0.57 0.56,-1.48 0,-2.05 -0.56,-0.57 -1.49,-0.57 -2.05,0 z"
           id="path118"
           inkscape:connector-curvature="0" />
        <path
           d="m 88.66,75.12 c -0.49,0.49 -0.55,1.26 -0.18,1.82 0.05,0.08 0.12,0.16 0.19,0.23 0.57,0.57 1.49,0.57 2.05,0.01 v 0 c 0.56,-0.56 0.56,-1.48 0,-2.05 -0.5,-0.5 -1.27,-0.56 -1.83,-0.19 -0.08,0.05 -0.16,0.11 -0.23,0.19 z"
           id="path120"
           inkscape:connector-curvature="0" />
        <path
           d="m 82.39,95.31 c -0.17,0.07 -0.34,0.18 -0.48,0.32 -0.4,0.4 -0.51,0.98 -0.34,1.49 0.06,-0.05 0.12,-0.09 0.18,-0.14 l 1.67,-1.67 c -0.34,-0.12 -0.71,-0.12 -1.04,0.01 z"
           id="path122"
           inkscape:connector-curvature="0" />
        <path
           d="m 88.73,88.81 c -0.41,0.41 -0.51,1 -0.33,1.52 l 1.84,-1.84 c -0.51,-0.19 -1.11,-0.08 -1.52,0.33 z"
           id="path124"
           inkscape:connector-curvature="0" />
        <path
           d="m 70.15,70.24 c 0.39,-0.39 0.5,-0.96 0.34,-1.46 l -1.81,1.81 c 0.5,0.16 1.07,0.05 1.46,-0.34 z"
           id="path126"
           inkscape:connector-curvature="0" />
        <path
           d="m 77,70.27 c 0.56,-0.56 0.56,-1.48 0,-2.05 -0.56,-0.57 -1.49,-0.57 -2.05,0 -0.56,0.56 -0.56,1.48 0,2.05 0.56,0.57 1.49,0.57 2.05,0 z"
           id="path128"
           inkscape:connector-curvature="0" />
        <path
           d="m 70.18,77.08 c 0.56,-0.56 0.56,-1.48 0,-2.05 -0.56,-0.57 -1.49,-0.57 -2.05,0 -0.56,0.57 -0.56,1.48 0,2.05 0.56,0.57 1.49,0.57 2.05,0 z"
           id="path130"
           inkscape:connector-curvature="0" />
        <path
           d="m 76.97,63.42 v 0 c 0.14,-0.14 0.25,-0.3 0.32,-0.48 0.13,-0.31 0.13,-0.66 0.03,-0.98 l -1.81,1.81 c 0.5,0.16 1.07,0.05 1.46,-0.34 z"
           id="path132"
           inkscape:connector-curvature="0" />
        <path
           d="m 81.6,68.47 c -0.21,0.32 -0.28,0.71 -0.21,1.08 0.05,0.27 0.19,0.54 0.4,0.75 v 0 c 0.14,0.14 0.31,0.25 0.48,0.32 0.53,0.22 1.15,0.11 1.57,-0.31 v 0 c 0.56,-0.56 0.56,-1.48 0,-2.05 v 0 c -0.5,-0.5 -1.27,-0.56 -1.83,-0.2 -0.08,0.05 -0.16,0.11 -0.23,0.19 -0.07,0.08 -0.13,0.15 -0.18,0.23 z"
           id="path134"
           inkscape:connector-curvature="0" />
        <path
           d="m 88.64,70.33 c 0.49,0.49 1.24,0.56 1.79,0.21 l -2.01,-2.01 c -0.35,0.56 -0.28,1.31 0.21,1.79 z"
           id="path136"
           inkscape:connector-curvature="0" />
        <path
           d="m 95.52,77.21 c 0.48,0.48 1.22,0.55 1.77,0.22 -0.05,-0.06 -0.09,-0.13 -0.15,-0.18 l -1.83,-1.83 c -0.35,0.56 -0.28,1.31 0.21,1.79 z"
           id="path138"
           inkscape:connector-curvature="0" />
        <path
           d="m 96.02,81.68 c -0.17,0.07 -0.34,0.18 -0.48,0.32 -0.41,0.41 -0.51,1 -0.33,1.52 l 1.84,-1.84 c -0.34,-0.12 -0.71,-0.12 -1.04,0.01 z"
           id="path140"
           inkscape:connector-curvature="0" />
        <path
           d="m 81.76,63.45 c 0.49,0.49 1.24,0.56 1.79,0.21 l -1.8,-1.8 c -0.07,-0.07 -0.15,-0.12 -0.22,-0.18 -0.33,0.56 -0.26,1.29 0.22,1.77 z"
           id="path142"
           inkscape:connector-curvature="0" />
      </g>
      <g
         id="g194">
        <g
           id="g150">
          <path
             class="cls-2"
             d="m 23.1,49.25 c -2.24,0 -4.07,-1.83 -4.07,-4.07 V 23.42 c 0,-2.24 1.83,-4.07 4.07,-4.07 h 21.76 c 2.24,0 4.07,1.83 4.07,4.07 v 1.5 H 24.92 c 0,0 0,24.33 0,24.33 z"
             id="path146"
             inkscape:connector-curvature="0"
             style="fill:#9d70ad" />
          <path
             d="m 23.1,20.35 h 21.76 c 1.7,0 3.07,1.38 3.07,3.07 v 0.5 H 23.92 c 0,0 0,24.33 0,24.33 H 23.1 c -1.7,0 -3.07,-1.37 -3.07,-3.07 V 23.42 c 0,-1.7 1.38,-3.07 3.07,-3.07 m 0,-2 v 0 c -2.8,0 -5.07,2.27 -5.07,5.07 v 21.76 c 0,1.35 0.53,2.63 1.48,3.59 0.96,0.96 2.23,1.49 3.59,1.49 h 2.82 V 25.93 c 0,0 22.01,0 22.01,0 h 2 c 0,0 0,-2 0,-2 v -0.5 c 0,-2.8 -2.27,-5.07 -5.07,-5.07 H 23.1 Z"
             id="path148"
             inkscape:connector-curvature="0" />
        </g>
        <g
           id="g156">
          <path
             class="cls-2"
             d="m 23.1,139.65 c -2.24,0 -4.07,-1.83 -4.07,-4.07 v -21.76 c 0,-2.24 1.83,-4.07 4.07,-4.07 h 1.82 v 24.33 h 24.01 v 1.5 c 0,2.24 -1.83,4.07 -4.07,4.07 z"
             id="path152"
             inkscape:connector-curvature="0"
             style="fill:#9d70ad" />
          <path
             d="m 23.92,110.75 v 24.33 c 0,0 24.01,0 24.01,0 v 0.5 c 0,1.7 -1.37,3.07 -3.07,3.07 H 23.1 c -1.7,0 -3.07,-1.37 -3.07,-3.07 v -21.76 c 0,-1.7 1.38,-3.07 3.07,-3.07 h 0.82 m 2,-2 H 23.1 c -1.35,0 -2.63,0.53 -3.58,1.48 -0.96,0.96 -1.49,2.23 -1.49,3.59 v 21.76 c 0,2.8 2.27,5.07 5.07,5.07 h 21.76 c 2.8,0 5.07,-2.27 5.07,-5.07 v -2.5 h -2 c 0,0 -22.01,0 -22.01,0 v -22.33 c 0,0 0,-2 0,-2 z"
             id="path154"
             inkscape:connector-curvature="0" />
        </g>
        <g
           id="g162">
          <path
             class="cls-2"
             d="M 134.08,49.25 V 24.92 h -24.01 v -1.5 c 0,-2.24 1.83,-4.07 4.07,-4.07 h 21.76 c 2.24,0 4.07,1.83 4.07,4.07 v 21.76 c 0,2.25 -1.83,4.07 -4.07,4.07 z"
             id="path158"
             inkscape:connector-curvature="0"
             style="fill:#9d70ad" />
          <path
             d="m 114.14,20.35 h 21.76 c 1.7,0 3.07,1.37 3.07,3.07 v 21.76 c 0,1.7 -1.38,3.07 -3.07,3.07 h -0.82 V 23.92 c 0,0 -24.01,0 -24.01,0 v -0.5 c 0,-1.7 1.37,-3.07 3.07,-3.07 m 0,-2 v 0 c -2.8,0 -5.07,2.27 -5.07,5.07 v 2.5 h 2 c 0,0 22.01,0 22.01,0 v 22.33 c 0,0 0,2 0,2 h 2.82 c 2.8,0 5.07,-2.27 5.07,-5.07 V 23.42 c 0,-2.8 -2.27,-5.07 -5.07,-5.07 z"
             id="path160"
             inkscape:connector-curvature="0" />
        </g>
        <g
           id="g168">
          <path
             class="cls-2"
             d="m 114.14,139.65 c -2.24,0 -4.07,-1.83 -4.07,-4.07 v -1.5 h 24.01 c 0,0 0,-24.33 0,-24.33 h 1.82 c 2.24,0 4.07,1.83 4.07,4.07 v 21.76 c 0,2.24 -1.83,4.07 -4.07,4.07 z"
             id="path164"
             inkscape:connector-curvature="0"
             style="fill:#9d70ad" />
          <path
             d="m 135.9,110.75 c 1.7,0 3.07,1.37 3.07,3.07 v 21.76 c 0,1.7 -1.38,3.07 -3.07,3.07 h -21.76 c -1.7,0 -3.07,-1.38 -3.07,-3.07 v -0.5 h 24.01 c 0,0 0,-24.33 0,-24.33 h 0.82 m 0,-2 h -2.82 v 24.33 c 0,0 -22.01,0 -22.01,0 h -2 c 0,0 0,2 0,2 v 0.5 c 0,2.8 2.27,5.07 5.07,5.07 h 21.76 c 2.8,0 5.07,-2.27 5.07,-5.07 v -21.76 c 0,-2.8 -2.27,-5.07 -5.07,-5.07 z"
             id="path166"
             inkscape:connector-curvature="0" />
        </g>
        <g
           id="g174">
          <path
             class="cls-2"
             d="m 20.46,99.18 c -1.09,0 -2.11,-0.42 -2.88,-1.19 L 2.2,82.6 C 0.61,81.01 0.61,78.43 2.2,76.84 L 17.58,61.46 c 0.77,-0.77 1.79,-1.19 2.88,-1.19 1.09,0 2.11,0.42 2.88,1.19 L 24.4,62.52 7.42,79.5 24.63,96.71 23.35,97.99 c -0.77,0.77 -1.79,1.19 -2.88,1.19 z"
             id="path170"
             inkscape:connector-curvature="0"
             style="fill:#9d70ad" />
          <path
             d="m 20.46,61.27 c 0.79,0 1.57,0.3 2.17,0.9 L 22.98,62.52 6,79.5 23.21,96.71 22.63,97.29 c -0.6,0.6 -1.39,0.9 -2.17,0.9 -0.78,0 -1.57,-0.3 -2.17,-0.9 L 2.9,81.9 C 1.7,80.7 1.7,78.76 2.9,77.56 L 18.29,62.18 c 0.6,-0.6 1.39,-0.9 2.17,-0.9 m 0,-2 c -1.35,0 -2.63,0.53 -3.58,1.49 L 1.49,76.15 C 0.53,77.11 0,78.38 0,79.74 c 0,1.36 0.53,2.63 1.48,3.59 l 15.39,15.39 c 0.96,0.96 2.23,1.49 3.58,1.49 1.35,0 2.63,-0.53 3.59,-1.48 L 24.62,98.15 26.03,96.74 24.62,95.33 8.83,79.54 24.39,63.98 25.8,62.57 24.39,61.16 24.04,60.81 c -0.96,-0.96 -2.23,-1.49 -3.59,-1.49 v 0 z"
             id="path172"
             inkscape:connector-curvature="0" />
        </g>
        <g
           id="g180">
          <path
             class="cls-2"
             d="m 79.27,158 c -1.09,0 -2.11,-0.42 -2.88,-1.19 L 61.01,141.43 c -1.59,-1.59 -1.59,-4.17 0,-5.76 l 1.28,-1.28 17.21,17.21 16.98,-16.98 1.06,1.05 c 1.59,1.59 1.59,4.17 0,5.76 l -15.39,15.38 c -0.77,0.77 -1.79,1.19 -2.88,1.19 z"
             id="path176"
             inkscape:connector-curvature="0"
             style="fill:#9d70ad" />
          <path
             d="m 62.29,135.8 17.21,17.21 16.98,-16.98 0.35,0.35 c 1.2,1.2 1.2,3.14 0,4.34 l -15.39,15.39 c -0.6,0.6 -1.39,0.9 -2.17,0.9 -0.78,0 -1.57,-0.3 -2.17,-0.9 L 61.71,140.72 c -1.2,-1.2 -1.2,-3.14 0,-4.34 l 0.58,-0.58 m 0,-2.83 -1.41,1.41 -0.58,0.58 c -0.96,0.96 -1.49,2.23 -1.49,3.59 0,1.36 0.53,2.63 1.49,3.59 l 15.38,15.39 c 0.96,0.96 2.23,1.49 3.59,1.49 1.36,0 2.63,-0.53 3.59,-1.49 l 15.39,-15.39 c 0.96,-0.96 1.48,-2.23 1.48,-3.59 0,-1.36 -0.53,-2.63 -1.49,-3.59 l -0.35,-0.35 -1.41,-1.41 -1.41,1.41 -15.56,15.56 -15.79,-15.79 -1.41,-1.41 v 0 z"
             id="path178"
             inkscape:connector-curvature="0" />
        </g>
        <g
           id="g186">
          <path
             class="cls-2"
             d="M 79.5,7.41 62.52,24.39 61.46,23.33 c -0.77,-0.77 -1.19,-1.79 -1.19,-2.88 0,-1.09 0.42,-2.11 1.19,-2.88 L 76.84,2.19 C 77.61,1.42 78.63,1 79.72,1 c 1.09,0 2.11,0.42 2.88,1.19 l 15.39,15.38 c 1.59,1.59 1.59,4.17 0,5.76 L 96.71,24.61 79.5,7.4 Z"
             id="path182"
             inkscape:connector-curvature="0"
             style="fill:#9d70ad" />
          <path
             d="m 79.73,2 c 0.79,0 1.57,0.3 2.17,0.9 l 15.39,15.39 c 1.2,1.2 1.2,3.14 0,4.34 L 96.71,23.21 79.5,6 62.52,22.98 62.17,22.63 c -1.2,-1.2 -1.2,-3.14 0,-4.34 L 77.56,2.9 C 78.16,2.3 78.95,2 79.73,2 m 0,-2 C 78.38,0 77.1,0.53 76.14,1.48 L 60.75,16.87 c -1.98,1.98 -1.98,5.19 0,7.17 l 0.35,0.35 1.41,1.41 1.41,-1.41 15.56,-15.56 15.79,15.79 1.41,1.41 1.41,-1.41 0.58,-0.58 c 0.96,-0.96 1.48,-2.23 1.48,-3.58 0,-1.35 -0.53,-2.63 -1.48,-3.59 L 83.28,1.48 C 82.32,0.52 81.05,0 79.7,0 v 0 z"
             id="path184"
             inkscape:connector-curvature="0" />
        </g>
        <g
           id="g192">
          <path
             class="cls-2"
             d="m 138.55,98.73 c -1.09,0 -2.11,-0.42 -2.88,-1.19 l -1.06,-1.06 16.98,-16.98 -17.21,-17.21 1.28,-1.28 c 0.77,-0.77 1.79,-1.19 2.88,-1.19 1.09,0 2.11,0.42 2.88,1.19 l 15.38,15.38 c 0.77,0.77 1.19,1.79 1.19,2.88 0,1.09 -0.42,2.11 -1.19,2.88 l -15.38,15.38 c -0.77,0.77 -1.79,1.19 -2.88,1.19 z"
             id="path188"
             inkscape:connector-curvature="0"
             style="fill:#9d70ad" />
          <path
             d="m 138.55,60.82 c 0.79,0 1.57,0.3 2.17,0.9 l 15.38,15.39 c 1.2,1.2 1.2,3.14 0,4.34 l -15.39,15.38 c -0.6,0.6 -1.39,0.9 -2.17,0.9 -0.78,0 -1.57,-0.3 -2.17,-0.9 L 136.02,96.48 153,79.5 135.79,62.29 l 0.58,-0.58 c 0.6,-0.6 1.39,-0.9 2.17,-0.9 m 0,-2 c -1.35,0 -2.63,0.53 -3.58,1.48 l -0.58,0.58 -1.41,1.41 1.41,1.41 15.79,15.79 -15.56,15.56 -1.41,1.41 1.41,1.41 0.35,0.35 c 0.96,0.96 2.23,1.48 3.59,1.48 1.36,0 2.63,-0.53 3.58,-1.48 l 15.39,-15.38 c 0.96,-0.96 1.48,-2.23 1.48,-3.59 0,-1.36 -0.53,-2.63 -1.49,-3.59 L 142.13,60.26 c -0.96,-0.96 -2.23,-1.49 -3.59,-1.49 v 0 z"
             id="path190"
             inkscape:connector-curvature="0" />
        </g>
      </g>
      <g
         id="g220">
        <g
           id="g200">
          <path
             class="cls-1"
             d="m 35.74,127.65 c -2.24,0 -4.07,-1.83 -4.07,-4.07 v -21.76 c 0,-2.24 1.83,-4.07 4.07,-4.07 h 1.5 v 24.01 h 24.33 v 1.82 c 0,2.24 -1.83,4.07 -4.07,4.07 z"
             id="path196"
             inkscape:connector-curvature="0"
             style="fill:#89bd35" />
          <path
             d="m 36.24,98.75 v 24.01 c 0,0 24.33,0 24.33,0 v 0.82 c 0,1.7 -1.37,3.07 -3.07,3.07 H 35.74 c -1.7,0 -3.07,-1.37 -3.07,-3.07 v -21.76 c 0,-1.7 1.38,-3.07 3.07,-3.07 h 0.5 m 2,-2 h -2.5 c -2.8,0 -5.07,2.27 -5.07,5.07 v 21.76 c 0,2.8 2.27,5.07 5.07,5.07 H 57.5 c 2.8,0 5.07,-2.27 5.07,-5.07 v -2.82 h -2 c 0,0 -22.33,0 -22.33,0 V 98.75 c 0,0 0,-2 0,-2 z"
             id="path198"
             inkscape:connector-curvature="0" />
        </g>
        <g
           id="g206">
          <path
             class="cls-1"
             d="m 101.5,127.65 c -2.24,0 -4.07,-1.83 -4.07,-4.07 v -1.82 h 24.33 V 97.75 h 1.5 c 2.24,0 4.07,1.83 4.07,4.07 v 21.76 c 0,2.24 -1.83,4.07 -4.07,4.07 z"
             id="path202"
             inkscape:connector-curvature="0"
             style="fill:#89bd35" />
          <path
             d="m 123.26,98.75 c 1.7,0 3.07,1.37 3.07,3.07 v 21.76 c 0,1.7 -1.37,3.07 -3.07,3.07 H 101.5 c -1.7,0 -3.07,-1.37 -3.07,-3.07 v -0.82 h 24.33 c 0,0 0,-24.01 0,-24.01 h 0.5 m 0,-2 h -2.5 v 24.01 H 98.43 c 0,0 -2,0 -2,0 v 2.82 c 0,2.8 2.27,5.07 5.07,5.07 h 21.76 c 2.8,0 5.07,-2.27 5.07,-5.07 v -21.76 c 0,-2.8 -2.27,-5.07 -5.07,-5.07 z"
             id="path204"
             inkscape:connector-curvature="0" />
        </g>
        <g
           id="g212">
          <path
             class="cls-1"
             d="m 35.74,61.25 c -2.24,0 -4.07,-1.83 -4.07,-4.07 V 35.42 c 0,-2.24 1.83,-4.07 4.07,-4.07 H 57.5 c 2.24,0 4.07,1.83 4.07,4.07 v 1.82 H 37.24 v 24.01 z"
             id="path208"
             inkscape:connector-curvature="0"
             style="fill:#89bd35" />
          <path
             d="M 35.74,32.35 H 57.5 c 1.7,0 3.07,1.37 3.07,3.07 v 0.82 H 36.24 c 0,0 0,24.01 0,24.01 h -0.5 c -1.7,0 -3.07,-1.37 -3.07,-3.07 V 35.42 c 0,-1.7 1.37,-3.07 3.07,-3.07 m 0,-2 v 0 c -2.8,0 -5.07,2.27 -5.07,5.07 v 21.76 c 0,2.8 2.27,5.07 5.07,5.07 h 2.5 V 38.24 h 22.33 c 0,0 2,0 2,0 v -2.82 c 0,-2.8 -2.27,-5.07 -5.07,-5.07 z"
             id="path210"
             inkscape:connector-curvature="0" />
        </g>
        <g
           id="g218">
          <path
             class="cls-1"
             d="M 121.76,61.25 V 37.24 H 97.43 v -1.82 c 0,-2.24 1.83,-4.07 4.07,-4.07 h 21.76 c 2.24,0 4.07,1.83 4.07,4.07 v 21.76 c 0,2.24 -1.83,4.07 -4.07,4.07 z"
             id="path214"
             inkscape:connector-curvature="0"
             style="fill:#89bd35" />
          <path
             d="m 101.5,32.35 h 21.76 c 1.7,0 3.07,1.37 3.07,3.07 v 21.76 c 0,1.7 -1.38,3.07 -3.07,3.07 h -0.5 V 36.24 c 0,0 -24.33,0 -24.33,0 v -0.82 c 0,-1.7 1.37,-3.07 3.07,-3.07 m 0,-2 v 0 c -1.35,0 -2.63,0.53 -3.59,1.48 -0.96,0.96 -1.49,2.23 -1.49,3.59 v 2.82 h 2 c 0,0 22.33,0 22.33,0 v 22.01 c 0,0 0,2 0,2 h 2.5 c 2.8,0 5.07,-2.27 5.07,-5.07 V 35.42 c 0,-2.8 -2.27,-5.07 -5.07,-5.07 h -21.76 z"
             id="path216"
             inkscape:connector-curvature="0" />
        </g>
      </g>
    </g>
  </g>
  <rect
     style="opacity:0.46500017;fill:none;fill-opacity:1;stroke:#2bea3b;stroke-width:0;stroke-miterlimit:4;stroke-dasharray:none;stroke-opacity:1"
     id="rect1039"
     width="92"
     height="92"
     x="5e-07"
     y="-92"
     transform="scale(1,-1)" />
</svg>
