<?xml version="1.0" encoding="UTF-8" standalone="no"?>
<!-- Created with Inkscape (http://www.inkscape.org/) -->

<svg
   xmlns:dc="http://purl.org/dc/elements/1.1/"
   xmlns:cc="http://creativecommons.org/ns#"
   xmlns:rdf="http://www.w3.org/1999/02/22-rdf-syntax-ns#"
   xmlns:svg="http://www.w3.org/2000/svg"
   xmlns="http://www.w3.org/2000/svg"
   xmlns:sodipodi="http://sodipodi.sourceforge.net/DTD/sodipodi-0.dtd"
   xmlns:inkscape="http://www.inkscape.org/namespaces/inkscape"
   width="300"
   height="300"
   viewBox="0 0 79.374999 79.374999"
   version="1.1"
   id="svg8"
   sodipodi:docname="graph.svg"
   inkscape:version="0.92.5 (2060ec1f9f, 2020-04-08)">
  <defs
     id="defs2" />
  <sodipodi:namedview
     id="base"
     pagecolor="#ffffff"
     bordercolor="#666666"
     borderopacity="1.0"
     inkscape:pageopacity="0.0"
     inkscape:pageshadow="2"
     inkscape:zoom="1.979899"
     inkscape:cx="145.2923"
     inkscape:cy="146.82719"
     inkscape:document-units="px"
     inkscape:current-layer="layer1"
     showgrid="false"
     units="px"
     width="300mm"
     inkscape:window-width="1920"
     inkscape:window-height="1015"
     inkscape:window-x="0"
     inkscape:window-y="0"
     inkscape:window-maximized="1" />
  <metadata
     id="metadata5">
    <rdf:RDF>
      <cc:Work
         rdf:about="">
        <dc:format>image/svg+xml</dc:format>
        <dc:type
           rdf:resource="http://purl.org/dc/dcmitype/StillImage" />
        <dc:title></dc:title>
      </cc:Work>
    </rdf:RDF>
  </metadata>
  <g
     inkscape:label="Layer 1"
     inkscape:groupmode="layer"
     id="layer1"
     transform="translate(0,-217.625)">
    <path
       style="opacity:1;fill:#000000;fill-opacity:1;stroke:none;stroke-width:10;stroke-miterlimit:4;stroke-dasharray:none;stroke-opacity:1"
       d="m 173.10156,46.138672 c -0.83329,8.27e-4 -1.73837,0.03306 -2.77734,0.08984 -0.34554,0.01888 -0.68716,0.06074 -1.0293,0.111328 -26.91731,-1.879879 -33.09921,37.174999 -4.49609,42.55664 2.35491,0.384594 4.73857,0.556317 7.10742,0.390625 2.34984,0.749004 2.50767,0.832937 4.58398,1.027344 -1.51504,1.241848 -3.08342,2.420403 -4.48828,3.791016 -2.75711,2.355439 -3.66863,3.057533 -6.45898,5.847656 -0.76505,0.764979 -1.44828,1.606809 -2.18359,2.400399 -1.27535,1.37642 -2.59867,2.70898 -3.84766,4.10937 -0.87723,0.98358 -1.63948,2.06686 -2.5293,3.03906 -1.56011,1.70461 -3.21116,3.32421 -4.8164,4.98633 -5.41107,6.01606 -11.05223,12.03818 -15.39258,18.91016 -4.3258,6.84888 -7.06636,14.55567 -8.39453,22.51562 -3.75882,30.07057 38.76852,35.38502 42.52734,5.31446 0.56207,-2.60561 1.77234,-5.00471 3.39258,-7.12696 0.65582,-0.85901 1.47285,-1.58204 2.18555,-2.39453 8.64469,-9.85459 -2.27181,2.2952 7.50976,-8.51758 4.68622,-4.52201 8.63376,-9.71716 13.20703,-14.34765 0.26678,-0.27013 0.60976,-0.45569 0.9043,-0.69532 0.54749,-0.4453 1.08027,-0.90602 1.62109,-1.35937 3.39823,-2.93019 6.87016,-5.76132 10.05274,-8.92383 0.47273,-0.30243 1.60119,-0.88222 1.13672,-0.78906 -0.219,0.044 -0.5467,0.27341 -0.83594,0.49414 0.45726,-0.46012 0.90802,-0.92831 1.35156,-1.4043 0.49306,-0.52914 -0.81838,0.81318 -1.5332,1.53711 -0.30399,0.24326 -0.50018,0.42596 -0.31836,0.24024 1.11028,-1.13415 2.00953,-1.99886 2.81054,-2.74414 -0.4007,0.24669 -0.62383,0.35227 -0.37695,0.10742 0.34629,-0.34344 0.70834,-0.67078 1.06445,-1.00391 0.25738,-0.15019 0.5229,-0.28788 0.78516,-0.43555 0.51727,-0.45067 0.79246,-0.68177 1.17774,-1 0.0608,0.0924 0.10311,0.16361 0.1621,0.25586 -0.44724,0.23215 -0.89217,0.49208 -1.33984,0.74414 -0.42747,0.37245 -0.93083,0.82791 -1.47266,1.33204 0.82093,-0.50541 2.41927,-1.63289 2.85352,-2.00977 0.26092,0.41178 0.49457,0.80756 0.55078,1.02344 0.4446,1.70747 0.52699,4.39412 0.63281,6.17383 h -0.002 c -2.15899,30.22756 40.5891,33.28026 42.74805,3.05273 0.25338,-7.87037 -0.53501,-15.2524 -3.03711,-22.76758 -1.74057,-5.227807 -4.58465,-9.947108 -7.16797,-14.771486 -1.08896,-2.640195 -2.05935,-5.326797 -3.08984,-7.992188 0.0193,-0.946758 -0.26833,-1.920581 -0.40821,-2.865234 -0.13143,-0.887584 -0.2679,-1.651302 -0.41601,-2.378907 2.53834,-18.418403 -14.07636,-28.038405 -27.41211,-24.091797 -3.088,-0.740759 -6.24625,-1.255807 -9.54492,-1.490234 -5.4961,-0.390576 -10.94509,0.432209 -16.39063,0.97461 -2.85524,-0.0033 -5.70828,-0.136171 -8.56445,-0.203126 -0.86763,-0.380094 -1.87805,-0.484771 -2.80469,-0.716796 -2.88128,-0.721389 -4.73644,-0.998576 -7.23633,-0.996094 z m 7.06641,1.505859 c 0.31108,-0.04317 0.83701,0.05179 1.40039,0.1875 -0.56064,-0.0071 -1.12055,-0.01973 -1.68164,-0.01758 0.0296,-0.09609 0.13019,-0.148957 0.28125,-0.169922 z m 64.50195,27.238281 c 0.30634,-0.02874 0.49519,0.711794 0.62891,1.5625 -0.20793,-0.52115 -0.41223,-1.044485 -0.62891,-1.5625 z M 168.3457,88.203125 c 0.70781,0.204987 0.88552,0.271506 1.42383,0.433594 -0.50052,-0.09884 -1.00389,-0.221276 -1.51758,-0.384766 -0.034,-0.01096 0.0594,-0.06017 0.0937,-0.04883 z m 11.49414,2.439453 c 0.0185,0.0019 0.0204,0.002 0.0391,0.0039 -0.001,0.002 -0.003,0.0039 -0.004,0.0059 -0.0667,0.109378 -0.0655,0.07993 -0.0352,-0.0098 z"
       transform="matrix(0.26458333,0,0,0.26458333,0,217.625)"
       id="path848"
       inkscape:connector-curvature="0" />
    <path
       style="opacity:1;fill:#000000;fill-opacity:1;stroke:none;stroke-width:2.64583325;stroke-miterlimit:4;stroke-dasharray:none;stroke-opacity:1"
       id="path860"
       d="m 42.060346,263.28363 c 0.231815,0.29735 0.969807,1.25175 1.252929,1.58874 0.107027,0.12739 0.459063,0.52898 0.642086,0.657 0.01998,0.014 0.05132,-0.013 0.07312,-0.002 0.132776,0.0665 0.25441,0.15328 0.381617,0.22992 0.616135,0.60754 0.416851,0.34696 0.827471,0.94859 0.05569,0.0816 0.0945,0.17631 0.162999,0.24748 0.02294,0.0238 -0.04565,-0.11653 -0.01863,-0.0975 0.181002,0.12771 0.59313,0.58219 0.737802,0.73583 0.326313,0.40652 0.776321,0.67947 1.18379,0.99663 0.04501,0.035 -0.185293,-0.0813 -0.134043,-0.10636 0.0609,-0.0297 0.124436,0.0538 0.186656,0.0807 -0.306173,-0.14933 -0.549445,-0.2728 0.629396,0.41986 0.02804,0.0165 -0.08008,-0.10247 -0.06119,-0.076 0.126582,0.17733 0.284765,0.3349 0.384331,0.52869 0.06955,0.13538 0.232719,0.53776 0.114387,0.44204 -0.299678,-0.24241 -0.468641,-0.61209 -0.702963,-0.91814 -0.196427,-0.0104 -0.392851,-0.0207 -0.589278,-0.0311 1.542323,-0.43912 2.163337,1.74206 0.621012,2.18118 v 0 c -0.24261,0.003 -0.485222,0.006 -0.727835,0.008 -0.284059,-0.32208 -0.536339,-0.67527 -0.85218,-0.96625 -0.06929,-0.0638 0.0414,0.1881 0.09307,0.26689 0.06942,0.10582 0.264504,0.14811 0.262152,0.27464 -0.0044,0.23648 -1.123024,-1.39251 0.307493,0.0494 0.09541,0.0962 -0.261871,-0.0695 -0.392808,-0.10419 -0.753038,-0.34659 -1.418598,-0.88556 -1.977133,-1.49588 -0.147032,-0.15802 -0.286343,-0.32384 -0.443376,-0.47193 -0.261392,-0.2465 -0.72435,-0.56509 -0.788101,-0.97435 -0.136242,-0.0836 -0.813739,-0.49907 -0.820933,-0.5045 -0.816176,-0.61645 -1.404789,-1.67718 -2.073735,-2.43171 -1.04362,-1.21756 0.678264,-2.69346 1.721884,-1.4759 z"
       inkscape:connector-curvature="0" />
    <path
       style="opacity:1;fill:#000000;fill-opacity:1;stroke:none;stroke-width:2.64583325;stroke-miterlimit:4;stroke-dasharray:none;stroke-opacity:1"
       id="path866"
       d="m 49.978595,265.76862 c -0.06618,0.36721 -0.13235,0.73442 -0.198522,1.10163 -0.04533,0.30344 -0.08409,0.60793 -0.135996,0.91031 -0.07567,0.44081 -0.160277,0.73592 -0.215495,1.15214 -0.0011,0.009 0.0177,-0.0127 0.01543,-0.0211 -0.05726,-0.2129 -0.127566,-0.42207 -0.191349,-0.63311 0.308438,0.42973 0.308089,0.9878 0.250317,1.48951 0.01725,-0.13847 0.01273,0.31021 0.01244,0.35186 -0.0013,0.41374 -7.93e-4,0.82748 -5.29e-4,1.24122 0.0072,0.62962 -0.01161,0.73373 -0.734343,1.42958 -0.173437,0.16698 -0.446945,0.17916 -0.670414,0.26874 -1.097434,0.25032 -2.211372,0.39524 -3.337605,0.37893 -0.963274,-0.0139 -0.388888,-0.0771 -1.070073,0.0272 -0.550963,0.13391 -1.107464,0.1748 -1.664872,0.0697 0.38246,0.0379 -0.146341,0.032 -0.227127,0.0326 -1.603605,0.006 -1.612172,-2.26179 -0.0086,-2.26785 v 0 c 0.227962,8e-4 0.455435,-0.0312 0.682381,0.0118 0.256284,0.0456 0.655992,-0.0292 0.960287,-0.0995 0.245205,-0.0233 0.489434,-0.0619 0.735611,-0.0697 0.406683,-0.0129 0.81268,0.0839 1.220337,0.0282 0.631209,-0.027 0.816822,-0.0819 1.461574,-0.17682 0.155311,-0.0229 0.311092,-0.0424 0.466641,-0.0636 0.0915,-0.026 0.284474,-0.17269 0.274505,-0.0781 -0.176821,1.67804 -0.417208,0.89522 -0.356193,0.51047 -2.64e-4,-0.41982 -0.0011,-0.83964 5.29e-4,-1.25946 0.0016,-0.19852 -0.01169,-0.39693 0.0024,-0.5953 0.02896,-0.25032 -0.05072,-0.23023 0.188304,0.13116 -0.0874,-0.24253 -0.204759,-0.47629 -0.262221,-0.7276 -0.03537,-0.1547 0.07252,-0.70461 0.09289,-0.81297 0.163378,-0.86913 0.293481,-1.7423 0.459208,-2.61135 0.198903,-1.59123 2.449248,-1.30994 2.250345,0.28129 z"
       inkscape:connector-curvature="0" />
    <path
       style="opacity:1;fill:#000000;fill-opacity:1;stroke:none;stroke-width:2.64583325;stroke-miterlimit:4;stroke-dasharray:none;stroke-opacity:1"
       id="path876"
       d="m 34.512961,261.24632 c -0.456911,0.14661 -0.926494,0.27537 -1.403403,0.33879 -0.26136,0.0348 -0.552063,0.0417 -0.81788,0.0476 -0.119853,-7.9e-4 -0.239246,-0.0107 -0.358986,-0.0147 -0.0258,-7.9e-4 -0.05375,-0.0103 -0.07741,3e-5 -0.0127,0.006 -0.02204,0.0168 -0.03305,0.0252 -0.04813,0.028 -0.119962,0.0786 -0.180282,0.061 -0.0315,-0.009 -0.05703,-0.0326 -0.08693,-0.0462 -0.0066,-0.003 0.0096,0.0134 0.0075,0.0203 -0.05501,0.011 -0.110559,0.0113 -0.166203,0.009 -0.258919,-0.0264 -0.504217,0.0523 -0.755489,0.0981 -0.323226,0.0589 -0.314862,0.0499 -0.622702,0.069 -0.167349,0.008 -0.333616,0.0456 -0.501605,0.0458 -0.06337,8e-5 -0.126783,-0.0102 -0.189918,-0.0147 -0.07091,8e-4 -0.141774,0.003 -0.212807,0.003 -0.02193,-8e-4 -0.0097,-2.7e-4 -0.03674,-5.3e-4 -0.141732,-0.002 -0.139603,-0.20195 0.0021,-0.20044 v 0 c 0.02974,2.6e-4 0.01781,-2e-5 0.03586,5.3e-4 0.07549,5.2e-4 0.150736,-0.003 0.226118,-0.002 0.05453,0.004 0.1108,0.0143 0.165492,0.0145 0.167232,2.6e-4 0.332687,-0.0394 0.499353,-0.0457 0.291002,-0.0172 0.284252,-0.009 0.592659,-0.0649 0.268044,-0.0489 0.531452,-0.1298 0.807521,-0.10235 0.05173,0.003 0.100182,-5e-5 0.156025,-0.009 0.06298,0.006 0.13901,0.008 0.133456,0.0374 -0.0033,0.0174 -0.03415,-0.009 -0.05169,-0.0115 -0.0026,-2.6e-4 -0.0084,0.005 -0.0059,0.005 0.0109,-8e-4 0.02215,-0.002 0.03201,-0.007 0.02299,-0.0109 0.0437,-0.0261 0.06555,-0.0391 0.0377,-0.0149 0.07432,-0.0329 0.113117,-0.0447 0.02925,-0.009 0.06117,-10e-4 0.09172,3e-5 0.115673,0.004 0.231013,0.013 0.346774,0.0145 0.244329,-0.005 0.549783,-0.0131 0.785738,-0.0443 0.465312,-0.0616 0.923613,-0.18678 1.369518,-0.32938 0.132717,-0.0498 0.203099,0.13792 0.07038,0.18769 z"
       inkscape:connector-curvature="0" />
    <path
       style="opacity:1;fill:#000000;fill-opacity:1;stroke:none;stroke-width:2.64583325;stroke-miterlimit:4;stroke-dasharray:none;stroke-opacity:1"
       id="path878"
       d="m 29.228552,261.54933 c 0.259691,-0.22249 0.503529,-0.49598 0.824685,-0.63518 0.05442,-0.0236 0.254553,-0.0411 0.165047,-0.0455 -0.05243,0.0459 0.107773,-0.0863 0.08995,-0.0559 -0.05927,0.10131 -0.142701,0.0514 0.02238,-0.0685 0.02845,-0.0207 0.07021,-0.004 0.105317,-0.006 0.141613,0.006 0.133054,0.20632 -0.0085,0.20027 v 0 c -0.03982,-0.0256 -0.06836,-0.0363 0.01572,-0.11933 0.01593,-0.0157 0.01648,0.0449 0.01013,0.0664 -0.03292,0.11142 -0.03649,0.0925 -0.09321,0.12445 -0.151048,0.10336 -0.08269,0.0257 -0.210802,0.0798 -0.304726,0.12866 -0.532365,0.39331 -0.77893,0.60094 -0.100227,0.10022 -0.241967,-0.0415 -0.14174,-0.14174 z"
       inkscape:connector-curvature="0" />
    <path
       style="opacity:1;fill:#000000;fill-opacity:1;stroke:none;stroke-width:2.64583325;stroke-miterlimit:4;stroke-dasharray:none;stroke-opacity:1"
       id="path882"
       d="m 29.444471,261.96486 c 0.429313,0.21466 0.361529,0.17483 0.77157,0.40256 0.07907,0.0439 0.154067,0.0955 0.235593,0.13461 0.02937,0.0141 0.0628,0.0176 0.09474,0.024 0.0024,5.3e-4 0.0069,-0.006 0.0059,-0.004 -0.02577,0.0562 -0.05377,0.11128 -0.08065,0.16692 0.222478,-0.0355 0.09687,0.0305 0.140423,-0.12503 0.0021,-0.008 0.01527,0.006 0.02339,0.007 0.08583,0.007 -0.0772,-0.0613 0.118364,0.0491 0.109416,0.0901 -0.01802,0.24484 -0.127429,0.15474 v 0 c 0.0069,-0.002 0.02785,-0.005 0.02082,-0.007 -0.071,-0.0192 -0.283551,-0.0238 -0.217964,-0.19071 0.0199,-0.0506 0.102394,-0.0369 0.153594,-0.0553 -0.01019,0.0668 -0.0021,0.13909 -0.03054,0.20032 -0.0086,0.0184 -0.04112,8e-4 -0.06094,-0.004 -0.04725,-0.011 -0.09526,-0.022 -0.139123,-0.0428 -0.08058,-0.0381 -0.154228,-0.0894 -0.232127,-0.13266 -0.40595,-0.2256 -0.337278,-0.18528 -0.76523,-0.39925 -0.126778,-0.0634 -0.03713,-0.24268 0.08965,-0.17929 z"
       inkscape:connector-curvature="0" />
  </g>
</svg>
