<?xml version="1.0" standalone="no"?>
<!DOCTYPE svg PUBLIC "-//W3C//DTD SVG 1.1//EN" "http://www.w3.org/Graphics/SVG/1.1/DTD/svg11.dtd" >
<svg xmlns="http://www.w3.org/2000/svg">
<metadata>
This is a custom SVG webfont generated by Font Squirrel.
Copyright   : c Jakob Fischer at wwwpizzadudedk  DO NOT DISTRIBUTE WITHOUT AUTHORS PERMISSION
</metadata>
<defs>
<font id="webfontNdXXRyjK" horiz-adv-x="1638" >
<font-face units-per-em="2048" ascent="1638" descent="-410" />
<missing-glyph horiz-adv-x="500" />
<glyph unicode=" " />
<glyph unicode="!" d="M596 -180q0 72 40 125t109 53q66 0 107 -55.5t41 -122.5q0 -68 -41 -125t-107 -57t-110 59q-39 53 -39 123zM645 715v659l96 129l103 -127v-661l-96 -129z" />
<glyph unicode="&#x22;" d="M43 1153v236l111 112l114 -112v-236l-110 -113zM602 1153v236l109 112l118 -112v-236l-110 -113z" />
<glyph unicode="#" d="M43 -137v655l92 103l-92 96v657l115 129l121 -127v-639h346v637l116 129l123 -127v-639h346v641l115 129l121 -127v-663l-92 -103l92 -96v-655l-115 -131l-121 131v637h-346v-637l-116 -131l-123 129v639h-346v-637l-115 -131z" />
<glyph unicode="$" d="M43 717v661l115 129l2 -2l98 94h389l101 -92l94 92h389l127 -116l-127 -123h-367v-621h367l127 -118l-4 -5l92 -98v-659l-115 -133l-4 4l-96 -92h-389l-101 92l-94 -92h-389l-127 116l127 123h367v621h-367l-127 118l4 2zM279 739h346v621h-346v-621zM864 -123h346v621 h-346v-621z" />
<glyph unicode="%" d="M43 717v661l115 129l2 -2l98 94h389l127 -116l-6 -4l96 -99v-397l293 426h100v-262l-280 -408h254l127 -118l-4 -5l92 -98v-659l-115 -133l-4 4l-96 -92h-389l-127 116l4 4l-94 99v397l-293 -426h-101v260l281 410h-254l-127 118l4 2zM279 739h346v621h-346v-621z M864 -123h346v621h-346v-621z" />
<glyph unicode="&#x26;" d="M43 -141v659l90 103l-90 96v661l115 129l2 -2l96 94h387l127 -116l-4 -4l94 -99v-663l-92 -103l92 -96v-356l264 385h129v-219l-309 -451h281l127 -117l-127 -122h-385l-101 92l-96 -92h-385l-127 116l4 4zM279 -123h344v621h-344v-621zM279 739h344v621h-344v-621z" />
<glyph unicode="'" d="M659 1153v236l82 112l88 -112v-236l-81 -113z" />
<glyph unicode="(" d="M659 -143v661l86 103l-86 96v661l109 129l4 -4l92 96h367l119 -116l-119 -123h-346v-643l-88 -103l88 -96v-641h346l119 -117l-119 -122h-367l-119 116l3 4z" />
<glyph unicode=")" d="M139 -246l119 123h346v641l88 103l-88 96v643h-346l-119 117l119 122h367l118 -116l-4 -4l90 -99v-663l-86 -103l86 -96v-659l-108 -131l-4 4l-92 -94h-367z" />
<glyph unicode="*" d="M242 94l307 455h129v-219l-338 -494h-98v258zM242 1141v260h98l338 -494v-219h-129zM811 330v219h129l307 -455v-258h-98zM811 688v219l338 494h98v-260l-307 -453h-129z" />
<glyph unicode="+" d="M137 616l125 121h365v637l114 129l121 -127v-639h363l127 -116l-125 -121h-365v-637l-114 -131l-121 129v639h-363z" />
<glyph unicode="," d="M596 -223q0 66 42 110.5t107 44.5q63 0 105.5 -46t42.5 -109q0 -68 -37 -154q-47 -109 -111 -108q-63 0 -110 100q-39 84 -39 162z" />
<glyph unicode="-" d="M137 616l125 86h385l101 -65l94 65h383l127 -81l-125 -86h-385l-101 65l-94 -65h-383z" />
<glyph unicode="." d="M596 -213q0 63 43 104t106 41q61 0 104.5 -42t43.5 -103q0 -59 -44 -104t-104 -45q-61 0 -105 44t-44 105z" />
<glyph unicode="/" d="M242 94l307 455h129v-219l-338 -494h-98v258zM811 688v219l338 494h98v-260l-307 -453h-129z" />
<glyph unicode="0" d="M43 -141v659l92 103l-92 96v661l115 129l2 -2l98 94h389l101 -92l94 92h389l127 -116l-2 -2l90 -99v-665l-92 -103l92 -96v-659l-115 -133l-4 4l-96 -92h-389l-101 92l-94 -92h-389l-127 116l4 4zM188 614l91 -96v-358l266 387h131v-219l-309 -451h280l101 -92l94 92h368 v641l90 103l-90 96v360l-266 -387h-131v219l309 451h-280l-101 92l-94 -92h-368v-643z" />
<glyph unicode="1" d="M137 -246l125 123h365v641l92 103l-92 96v643h-363l-127 117l125 122h385l125 -116l-4 -4l94 -99v-663l-92 -103l92 -96v-641h363l127 -117l-125 -122h-385l-101 92l-94 -92h-383z" />
<glyph unicode="2" d="M43 -141v659l115 129l2 -2l98 94h389l101 -94l94 94h368v621h-368l-101 92l-94 -92h-389l-127 117l127 122h389l101 -92l94 92h389l127 -116l-2 -2l90 -99v-665l-115 -129l-4 4l-96 -94h-389l-101 94l-94 -94h-368v-621h368l101 -92l94 92h389l127 -117l-127 -122h-389 l-101 92l-94 -92h-389l-127 116l4 4z" />
<glyph unicode="3" d="M137 -246l127 123h385l101 -92l96 92h364v621h-364l-127 118l127 123h364v621h-364l-101 92l-94 -92h-387l-127 117l127 122h385l101 -92l96 92h385l127 -116l-2 -2l90 -99v-665l-90 -103l90 -96v-659l-115 -133l-4 4l-94 -92h-387l-101 92l-94 -92h-387z" />
<glyph unicode="4" d="M43 717v657l115 129l121 -127v-639h368l101 -92l94 92h368v641l115 129l121 -127v-663l-92 -103l92 -96v-655l-115 -131l-121 131v637h-368l-101 92l-94 -92h-389l-127 116l4 2z" />
<glyph unicode="5" d="M43 717v661l115 129l2 -2l98 94h389l101 -92l94 92h389l127 -116l-127 -123h-389l-101 92l-94 -92h-368v-621h368l101 -94l94 94h389l127 -118l-4 -5l92 -98v-659l-115 -133l-4 4l-96 -92h-389l-101 92l-94 -92h-389l-127 116l127 123h389l101 -92l94 92h368v621h-368 l-101 94l-94 -94h-389l-127 118l4 2z" />
<glyph unicode="6" d="M43 -141v659l92 103l-92 96v661l115 129l2 -2l98 94h389l101 -92l94 92h389l127 -116l-127 -123h-389l-101 92l-94 -92h-368v-621h368l101 -94l94 94h389l127 -118l-4 -5l92 -98v-659l-115 -133l-4 4l-96 -92h-389l-101 92l-94 -92h-389l-127 116l4 4zM279 -123h368 l101 -92l94 92h368v621h-368l-101 94l-94 -94h-368v-621z" />
<glyph unicode="7" d="M137 1477l125 122h385l101 -92l94 92h383l127 -116l-99 -97v-237l-311 -455h-129v219l305 447h-276l-101 92l-94 -92h-383zM236 94l311 459h129v-221l-340 -496h-100v258z" />
<glyph unicode="8" d="M43 -141v659l92 103l-92 96v661l115 129l2 -2l98 94h389l101 -92l94 92h389l127 -116l-2 -2l90 -99v-665l-92 -103l92 -96v-659l-115 -133l-4 4l-96 -92h-389l-101 92l-94 -92h-389l-127 116l4 4zM279 -123h368l101 -92l94 92h368v621h-368l-101 94l-94 -94h-368v-621z M279 739h368l101 -94l94 94h368v621h-368l-101 92l-94 -92h-368v-621z" />
<glyph unicode="9" d="M43 717v661l115 129l2 -2l98 94h389l101 -92l94 92h389l127 -116l-2 -2l90 -99v-665l-92 -103l92 -96v-659l-115 -133l-4 4l-96 -92h-389l-101 92l-94 -92h-389l-127 116l127 123h389l101 -92l94 92h368v621h-368l-101 94l-94 -94h-389l-127 118l4 2zM279 739h368 l101 -94l94 94h368v621h-368l-101 92l-94 -92h-368v-621z" />
<glyph unicode=":" d="M596 371q0 70 41 120t108 50q63 0 105.5 -52.5t42.5 -117.5q0 -66 -42 -121t-106 -55q-66 0 -108 57q-41 51 -41 119zM596 866q0 68 42 121t107 53q66 0 107 -53t41 -121t-41 -119t-107 -51t-107.5 51t-41.5 119z" />
<glyph unicode=";" d="M596 362q0 70 41 121.5t108 51.5q66 0 107 -53.5t41 -119.5q0 -72 -37 -167q-47 -123 -111 -123q-63 0 -110 112q-39 94 -39 178zM596 864q0 68 42 122t107 54q66 0 107 -54t41 -122t-39 -116q-43 -55 -109 -56q-66 0 -107.5 52t-41.5 120z" />
<glyph unicode="&#x3c;" d="M858 330v219h115l274 -455v-258h-88zM858 688v219l301 494h88v-260l-274 -453h-115z" />
<glyph unicode="=" d="M137 436l125 113h385l101 -84l94 84h383l127 -107l-125 -112h-385l-101 84l-94 -84h-383zM137 795l125 112h385l101 -84l94 84h383l127 -106l-125 -113h-385l-101 84l-94 -84h-383z" />
<glyph unicode="&#x3e;" d="M242 94l274 455h115v-219l-301 -494h-88v258zM242 1141v260h88l301 -494v-219h-115z" />
<glyph unicode="?" d="M137 1477l127 122h385l101 -92l96 92h385l127 -116l-2 -2l90 -97v-665l-115 -129l-4 4l-94 -92h-367v-639l-114 -131l-123 131v657l114 129l5 -4l98 96h364v619h-364l-101 92l-94 -92h-387z" />
<glyph unicode="@" d="M43 -141v659l92 103l-92 96v661l115 129l2 -2l98 94h389l101 -92l94 92h389l127 -116l-2 -2l90 -99v-665l-92 -103l92 -96v-659l-115 -133l-4 4l-96 -92h-389l-101 92l-94 -92h-389l-127 116l4 4zM279 160l233 338h-233v-338zM279 739h233l-233 338v-338zM367 -123h258 v377zM367 1360l258 -377v377h-258zM864 -123h258l-258 377v-377zM864 983l258 377h-258v-377zM977 498l233 -338v338h-233zM977 739h233v338z" />
<glyph unicode="A" d="M43 -139v655l115 129l2 -4l71 68v196l342 496h103v-260l-283 -406h254l101 -92l94 92h254l-283 406v260h102l342 -496v-194l101 -93l-4 -4l92 -98v-653l-115 -131l-121 129v637h-368l-101 92l-94 -92h-368v-635l-115 -131z" />
<glyph unicode="B" d="M43 -141v659l92 103l-92 96v661l115 129l2 -2l98 94h389l101 -92l94 92h389l127 -116l-2 -2l90 -99v-665l-92 -103l92 -96v-659l-115 -133l-4 4l-96 -92h-389l-101 92l-94 -92h-389l-127 116l4 4zM279 -123h368l101 -92l94 92h368v621h-368l-101 94l-94 -94h-368v-621z M279 739h368l101 -94l94 94h368v621h-368l-101 92l-94 -92h-368v-621z" />
<glyph unicode="C" d="M43 -141v659l90 103l-90 96v661l115 129l2 -2l96 94h387l100 -92l95 92h387l127 -116l-127 -123h-385l-101 92l-96 -92h-364v-643l-93 -103l93 -96v-641h364l100 -92l95 92h387l127 -117l-127 -122h-385l-101 92l-96 -92h-385l-127 116l4 4z" />
<glyph unicode="D" d="M43 -141v659l90 103l-90 96v661l115 129l2 -2l96 94h385l125 -116l-125 -123h-365v-643l-90 -103l90 -96v-641h365l125 -117l-125 -122h-385l-125 116l2 4zM807 88l313 459h127v-219l-340 -500h-100v260zM807 1147v262h100l340 -500v-219h-127z" />
<glyph unicode="E" d="M43 -141v659l90 103l-90 96v661l115 129l2 -2l96 94h387l100 -92l95 92h387l127 -116l-127 -123h-385l-101 92l-96 -92h-364v-621h364l100 -94l95 94h387l127 -118l-127 -123h-385l-101 94l-96 -94h-364v-621h364l100 -92l95 92h387l127 -117l-127 -122h-385l-101 92 l-96 -92h-385l-127 116l4 4z" />
<glyph unicode="F" d="M43 -137v657l90 103l-90 96v659l115 129l2 -2l96 94h387l100 -92l95 92h387l127 -116l-127 -123h-385l-101 92l-96 -92h-364v-619h364l100 -94l95 94h387l127 -118l-127 -121h-385l-101 92l-96 -92h-364v-639l-115 -131z" />
<glyph unicode="G" d="M43 -141v659l92 103l-92 96v661l115 129l2 -2l98 94h389l101 -92l94 92h389l127 -116l-127 -123h-389l-101 92l-94 -92h-368v-643l-91 -103l91 -96v-641h368l101 -92l94 92h368v621h-368l-127 118l127 123h389l127 -118l-4 -5l92 -98v-659l-115 -133l-4 4l-96 -92h-389 l-101 92l-94 -92h-389l-127 116l4 4z" />
<glyph unicode="H" d="M43 -137v655l92 103l-92 96v657l115 129l121 -127v-639h368l101 -92l94 92h368v641l115 129l121 -127v-663l-92 -103l92 -96v-655l-115 -131l-121 131v637h-368l-101 92l-94 -92h-368v-637l-115 -131z" />
<glyph unicode="I" d="M137 -246l125 123h365v641l92 103l-92 96v643h-363l-127 117l125 122h385l101 -92l94 92h383l127 -116l-125 -123h-365v-643l-92 -103l92 -96v-641h363l127 -117l-125 -122h-385l-101 92l-94 -92h-383z" />
<glyph unicode="J" d="M43 -141v659l115 129l121 -129v-641h368l101 -92l94 92h368v641l90 103l-90 96v643h-368l-127 117l127 122h389l127 -116l-2 -2l90 -99v-665l-92 -103l92 -96v-659l-115 -133l-4 4l-96 -92h-389l-101 92l-94 -92h-389l-127 116l4 4z" />
<glyph unicode="K" d="M43 -137v655l90 103l-90 96v657l115 129l118 -127v-639h365l125 -116l-125 -121h-365v-637l-114 -131zM807 328v221h129l311 -459v-258h-100zM807 688v221l340 496h100v-260l-311 -457h-129z" />
<glyph unicode="L" d="M43 -143v659l90 100l-90 99v659l115 129l121 -129v-659l-93 -103l93 -96v-639h364l100 -92l95 92h387l127 -117l-127 -122h-385l-101 92l-96 -92h-385l-127 116l4 4z" />
<glyph unicode="M" d="M43 -137v655l92 103l-92 96v657l115 129l94 -98h80l344 -496v-221h-131l-266 385v-356l-91 -103l91 -96v-655l-115 -131zM813 688v221l344 496h76l92 102l121 -127v-663l-92 -103l92 -96v-655l-115 -131l-121 131v655l90 103l-90 96v356l-266 -385h-131z" />
<glyph unicode="N" d="M43 -137v655l92 103l-92 96v657l115 129l94 -98h80l344 -496v-221h-131l-266 385v-356l-91 -103l91 -96v-655l-115 -131zM813 328v221h131l266 -387v356l90 103l-90 96v661l115 129l121 -127v-663l-92 -103l92 -96v-655l-115 -131l-94 100h-80z" />
<glyph unicode="O" d="M43 -141v659l92 103l-92 96v661l115 129l2 -2l98 94h389l101 -92l94 92h389l127 -116l-2 -2l90 -99v-665l-92 -103l92 -96v-659l-115 -133l-4 4l-96 -92h-389l-101 92l-94 -92h-389l-127 116l4 4zM188 614l91 -96v-641h368l101 -92l94 92h368v641l90 103l-90 96v643h-368 l-101 92l-94 -92h-368v-643z" />
<glyph unicode="P" d="M43 -137v657l92 103l-92 96v659l115 129l2 -2l98 94h389l101 -92l94 92h389l127 -116l-2 -2l90 -97v-665l-115 -129l-4 4l-96 -92h-389l-101 92l-94 -92h-368v-639l-115 -131zM279 741h368l101 -94l94 94h368v619h-368l-101 92l-94 -92h-368v-619z" />
<glyph unicode="Q" d="M43 -141v659l92 103l-92 96v661l115 129l2 -2l98 94h389l101 -92l94 92h389l127 -116l-2 -2l90 -99v-665l-92 -103l92 -96v-659l-115 -133l-4 4l-96 -92h-389l-101 92l-94 -92h-389l-127 116l4 4zM188 614l91 -96v-641h368l101 -92l94 92h280l-309 451v219h131l266 -387 v358l90 103l-90 96v643h-368l-101 92l-94 -92h-368v-643z" />
<glyph unicode="R" d="M43 -137v657l92 103l-92 96v659l115 129l2 -2l98 94h389l101 -92l94 92h389l127 -116l-2 -2l90 -97v-665l-115 -129l-4 4l-96 -92h-254l280 -410v-260h-100l-344 498v198l-72 66l-94 -92h-368v-639l-115 -131zM279 741h368l101 -94l94 94h368v619h-368l-101 92l-94 -92 h-368v-619z" />
<glyph unicode="S" d="M43 717v661l115 129l2 -2l98 94h389l101 -92l94 92h389l127 -116l-127 -123h-389l-101 92l-94 -92h-368v-621h368l101 -94l94 94h389l127 -118l-4 -5l92 -98v-659l-115 -133l-4 4l-96 -92h-389l-101 92l-94 -92h-389l-127 116l127 123h389l101 -92l94 92h368v621h-368 l-101 94l-94 -94h-389l-127 118l4 2z" />
<glyph unicode="T" d="M137 1477l125 122h385l101 -92l94 92h383l127 -116l-125 -123h-365v-641l-92 -103l92 -96v-657l-114 -131l-121 131v657l92 103l-92 96v641h-363z" />
<glyph unicode="U" d="M43 -143v659l92 100l-92 99v659l115 129l121 -129v-659l-91 -103l91 -96v-639h368l101 -92l94 92h368v639l90 100l-90 99v663l115 129l121 -129v-663l-92 -103l92 -96v-657l-115 -133l-4 4l-96 -92h-389l-101 92l-94 -92h-389l-127 116l4 4z" />
<glyph unicode="V" d="M43 719v655l115 129l121 -127v-657l-115 -129zM231 332v219h127l318 -457v-258h-103zM813 94l317 457h127v-219l-342 -496h-102v258zM1210 719v659l115 129l121 -127v-661l-115 -129z" />
<glyph unicode="W" d="M43 -137v655l92 103l-92 96v657l115 129l121 -127v-659l-91 -103l91 -96v-356l266 387h131v-221l-344 -496h-80l-88 -100zM813 328v221h131l266 -387v356l90 103l-90 96v661l115 129l121 -127v-663l-92 -103l92 -96v-655l-115 -131l-94 100h-80z" />
<glyph unicode="X" d="M242 94l307 455h129v-219l-338 -494h-98v258zM242 1141v260h98l338 -494v-219h-129zM811 330v219h129l307 -455v-258h-98zM811 688v219l338 494h98v-260l-307 -453h-129z" />
<glyph unicode="Y" d="M242 1141v260h98l338 -496v-219h-129zM629 -139v655l112 127l119 -125v-655l-112 -131zM811 686v219l338 496h98v-260l-307 -455h-129z" />
<glyph unicode="Z" d="M137 -246l99 96v238l311 459h129v-219l-305 -451h276l101 -92l94 92h383l127 -117l-125 -122h-385l-101 92l-94 -92h-383zM137 1477l125 122h385l101 -92l94 92h383l127 -116l-99 -97v-239l-311 -457h-129v219l305 451h-276l-101 92l-94 -92h-383z" />
<glyph unicode="[" d="M659 -143v661l86 103l-86 96v661l109 129l4 -4l92 96h367l119 -116l-119 -123h-346v-643l-88 -103l88 -96v-641h346l119 -117l-119 -122h-367l-119 116l3 4z" />
<glyph unicode="\" d="M242 1141v260h98l338 -494v-219h-129zM811 330v219h129l307 -455v-258h-98z" />
<glyph unicode="]" d="M139 -246l119 123h346v641l88 103l-88 96v643h-346l-119 117l119 122h367l118 -116l-4 -4l90 -99v-663l-86 -103l86 -96v-659l-108 -131l-4 4l-92 -94h-367z" />
<glyph unicode="^" d="M242 733v205l336 463h100v-244l-311 -424h-125zM811 1157v244h100l336 -463v-205h-125z" />
<glyph unicode="_" d="M137 -281l125 86h385l101 -65l94 65h383l127 -81l-125 -86h-385l-101 65l-94 -65h-383z" />
<glyph unicode="`" d="M242 1157v244h88l301 -463v-205h-115z" />
<glyph unicode="a" d="M43 -139v655l115 129l2 -4l71 68v196l342 496h103v-260l-283 -406h254l101 -92l94 92h254l-283 406v260h102l342 -496v-194l101 -93l-4 -4l92 -98v-653l-115 -131l-121 129v637h-368l-101 92l-94 -92h-368v-635l-115 -131z" />
<glyph unicode="b" d="M43 -141v659l92 103l-92 96v661l115 129l2 -2l98 94h389l101 -92l94 92h389l127 -116l-2 -2l90 -99v-665l-92 -103l92 -96v-659l-115 -133l-4 4l-96 -92h-389l-101 92l-94 -92h-389l-127 116l4 4zM279 -123h368l101 -92l94 92h368v621h-368l-101 94l-94 -94h-368v-621z M279 739h368l101 -94l94 94h368v621h-368l-101 92l-94 -92h-368v-621z" />
<glyph unicode="c" d="M43 -141v659l90 103l-90 96v661l115 129l2 -2l96 94h387l100 -92l95 92h387l127 -116l-127 -123h-385l-101 92l-96 -92h-364v-643l-93 -103l93 -96v-641h364l100 -92l95 92h387l127 -117l-127 -122h-385l-101 92l-96 -92h-385l-127 116l4 4z" />
<glyph unicode="d" d="M43 -141v659l90 103l-90 96v661l115 129l2 -2l96 94h385l125 -116l-125 -123h-365v-643l-90 -103l90 -96v-641h365l125 -117l-125 -122h-385l-125 116l2 4zM807 88l313 459h127v-219l-340 -500h-100v260zM807 1147v262h100l340 -500v-219h-127z" />
<glyph unicode="e" d="M43 -141v659l90 103l-90 96v661l115 129l2 -2l96 94h387l100 -92l95 92h387l127 -116l-127 -123h-385l-101 92l-96 -92h-364v-621h364l100 -94l95 94h387l127 -118l-127 -123h-385l-101 94l-96 -94h-364v-621h364l100 -92l95 92h387l127 -117l-127 -122h-385l-101 92 l-96 -92h-385l-127 116l4 4z" />
<glyph unicode="f" d="M43 -137v657l90 103l-90 96v659l115 129l2 -2l96 94h387l100 -92l95 92h387l127 -116l-127 -123h-385l-101 92l-96 -92h-364v-619h364l100 -94l95 94h387l127 -118l-127 -121h-385l-101 92l-96 -92h-364v-639l-115 -131z" />
<glyph unicode="g" d="M43 -141v659l92 103l-92 96v661l115 129l2 -2l98 94h389l101 -92l94 92h389l127 -116l-127 -123h-389l-101 92l-94 -92h-368v-643l-91 -103l91 -96v-641h368l101 -92l94 92h368v621h-368l-127 118l127 123h389l127 -118l-4 -5l92 -98v-659l-115 -133l-4 4l-96 -92h-389 l-101 92l-94 -92h-389l-127 116l4 4z" />
<glyph unicode="h" d="M43 -137v655l92 103l-92 96v657l115 129l121 -127v-639h368l101 -92l94 92h368v641l115 129l121 -127v-663l-92 -103l92 -96v-655l-115 -131l-121 131v637h-368l-101 92l-94 -92h-368v-637l-115 -131z" />
<glyph unicode="i" d="M137 -246l125 123h365v641l92 103l-92 96v643h-363l-127 117l125 122h385l101 -92l94 92h383l127 -116l-125 -123h-365v-643l-92 -103l92 -96v-641h363l127 -117l-125 -122h-385l-101 92l-94 -92h-383z" />
<glyph unicode="j" d="M43 -141v659l115 129l121 -129v-641h368l101 -92l94 92h368v641l90 103l-90 96v643h-368l-127 117l127 122h389l127 -116l-2 -2l90 -99v-665l-92 -103l92 -96v-659l-115 -133l-4 4l-96 -92h-389l-101 92l-94 -92h-389l-127 116l4 4z" />
<glyph unicode="k" d="M43 -137v655l90 103l-90 96v657l115 129l118 -127v-639h365l125 -116l-125 -121h-365v-637l-114 -131zM807 328v221h129l311 -459v-258h-100zM807 688v221l340 496h100v-260l-311 -457h-129z" />
<glyph unicode="l" d="M43 -143v659l90 100l-90 99v659l115 129l121 -129v-659l-93 -103l93 -96v-639h364l100 -92l95 92h387l127 -117l-127 -122h-385l-101 92l-96 -92h-385l-127 116l4 4z" />
<glyph unicode="m" d="M43 -137v655l92 103l-92 96v657l115 129l94 -98h80l344 -496v-221h-131l-266 385v-356l-91 -103l91 -96v-655l-115 -131zM813 688v221l344 496h76l92 102l121 -127v-663l-92 -103l92 -96v-655l-115 -131l-121 131v655l90 103l-90 96v356l-266 -385h-131z" />
<glyph unicode="n" d="M43 -137v655l92 103l-92 96v657l115 129l94 -98h80l344 -496v-221h-131l-266 385v-356l-91 -103l91 -96v-655l-115 -131zM813 328v221h131l266 -387v356l90 103l-90 96v661l115 129l121 -127v-663l-92 -103l92 -96v-655l-115 -131l-94 100h-80z" />
<glyph unicode="o" d="M43 -141v659l92 103l-92 96v661l115 129l2 -2l98 94h389l101 -92l94 92h389l127 -116l-2 -2l90 -99v-665l-92 -103l92 -96v-659l-115 -133l-4 4l-96 -92h-389l-101 92l-94 -92h-389l-127 116l4 4zM188 614l91 -96v-641h368l101 -92l94 92h368v641l90 103l-90 96v643h-368 l-101 92l-94 -92h-368v-643z" />
<glyph unicode="p" d="M43 -137v657l92 103l-92 96v659l115 129l2 -2l98 94h389l101 -92l94 92h389l127 -116l-2 -2l90 -97v-665l-115 -129l-4 4l-96 -92h-389l-101 92l-94 -92h-368v-639l-115 -131zM279 741h368l101 -94l94 94h368v619h-368l-101 92l-94 -92h-368v-619z" />
<glyph unicode="q" d="M43 -141v659l92 103l-92 96v661l115 129l2 -2l98 94h389l101 -92l94 92h389l127 -116l-2 -2l90 -99v-665l-92 -103l92 -96v-659l-115 -133l-4 4l-96 -92h-389l-101 92l-94 -92h-389l-127 116l4 4zM188 614l91 -96v-641h368l101 -92l94 92h280l-309 451v219h131l266 -387 v358l90 103l-90 96v643h-368l-101 92l-94 -92h-368v-643z" />
<glyph unicode="r" d="M43 -137v657l92 103l-92 96v659l115 129l2 -2l98 94h389l101 -92l94 92h389l127 -116l-2 -2l90 -97v-665l-115 -129l-4 4l-96 -92h-254l280 -410v-260h-100l-344 498v198l-72 66l-94 -92h-368v-639l-115 -131zM279 741h368l101 -94l94 94h368v619h-368l-101 92l-94 -92 h-368v-619z" />
<glyph unicode="s" d="M43 717v661l115 129l2 -2l98 94h389l101 -92l94 92h389l127 -116l-127 -123h-389l-101 92l-94 -92h-368v-621h368l101 -94l94 94h389l127 -118l-4 -5l92 -98v-659l-115 -133l-4 4l-96 -92h-389l-101 92l-94 -92h-389l-127 116l127 123h389l101 -92l94 92h368v621h-368 l-101 94l-94 -94h-389l-127 118l4 2z" />
<glyph unicode="t" d="M137 1477l125 122h385l101 -92l94 92h383l127 -116l-125 -123h-365v-641l-92 -103l92 -96v-657l-114 -131l-121 131v657l92 103l-92 96v641h-363z" />
<glyph unicode="u" d="M43 -143v659l92 100l-92 99v659l115 129l121 -129v-659l-91 -103l91 -96v-639h368l101 -92l94 92h368v639l90 100l-90 99v663l115 129l121 -129v-663l-92 -103l92 -96v-657l-115 -133l-4 4l-96 -92h-389l-101 92l-94 -92h-389l-127 116l4 4z" />
<glyph unicode="v" d="M43 719v655l115 129l121 -127v-657l-115 -129zM231 332v219h127l318 -457v-258h-103zM813 94l317 457h127v-219l-342 -496h-102v258zM1210 719v659l115 129l121 -127v-661l-115 -129z" />
<glyph unicode="w" d="M43 -137v655l92 103l-92 96v657l115 129l121 -127v-659l-91 -103l91 -96v-356l266 387h131v-221l-344 -496h-80l-88 -100zM813 328v221h131l266 -387v356l90 103l-90 96v661l115 129l121 -127v-663l-92 -103l92 -96v-655l-115 -131l-94 100h-80z" />
<glyph unicode="x" d="M242 94l307 455h129v-219l-338 -494h-98v258zM242 1141v260h98l338 -494v-219h-129zM811 330v219h129l307 -455v-258h-98zM811 688v219l338 494h98v-260l-307 -453h-129z" />
<glyph unicode="y" d="M242 1141v260h98l338 -496v-219h-129zM629 -139v655l112 127l119 -125v-655l-112 -131zM811 686v219l338 496h98v-260l-307 -455h-129z" />
<glyph unicode="z" d="M137 -246l99 96v238l311 459h129v-219l-305 -451h276l101 -92l94 92h383l127 -117l-125 -122h-385l-101 92l-94 -92h-383zM137 1477l125 122h385l101 -92l94 92h383l127 -116l-99 -97v-239l-311 -457h-129v219l305 451h-276l-101 92l-94 -92h-383z" />
<glyph unicode="{" d="M137 616l125 123h365v639l114 129l2 -4l99 96h383l127 -116l-125 -123h-365v-643l-92 -103l92 -96v-641h363l127 -117l-125 -122h-385l-125 116l2 4l-92 99v641h-363z" />
<glyph unicode="|" d="M659 -139v657l66 103l-66 96v657l82 129l88 -127v-659l-65 -103l65 -96v-655l-81 -131z" />
<glyph unicode="}" d="M137 -246l125 123h365v641l92 103l-92 96v643h-363l-127 117l125 122h385l125 -116l-4 -4l94 -99v-641h363l127 -118l-125 -123h-365v-639l-114 -131l-5 4l-96 -94h-383z" />
<glyph unicode="&#xa0;" />
<glyph unicode="&#xad;" d="M137 616l125 86h385l101 -65l94 65h383l127 -81l-125 -86h-385l-101 65l-94 -65h-383z" />
<glyph unicode="&#x2000;" horiz-adv-x="819" />
<glyph unicode="&#x2001;" />
<glyph unicode="&#x2002;" horiz-adv-x="819" />
<glyph unicode="&#x2003;" />
<glyph unicode="&#x2004;" horiz-adv-x="544" />
<glyph unicode="&#x2005;" horiz-adv-x="409" />
<glyph unicode="&#x2006;" horiz-adv-x="272" />
<glyph unicode="&#x2007;" horiz-adv-x="272" />
<glyph unicode="&#x2008;" horiz-adv-x="204" />
<glyph unicode="&#x2009;" horiz-adv-x="327" />
<glyph unicode="&#x200a;" horiz-adv-x="90" />
<glyph unicode="&#x2010;" d="M137 616l125 86h385l101 -65l94 65h383l127 -81l-125 -86h-385l-101 65l-94 -65h-383z" />
<glyph unicode="&#x2011;" d="M137 616l125 86h385l101 -65l94 65h383l127 -81l-125 -86h-385l-101 65l-94 -65h-383z" />
<glyph unicode="&#x2012;" d="M137 616l125 86h385l101 -65l94 65h383l127 -81l-125 -86h-385l-101 65l-94 -65h-383z" />
<glyph unicode="&#x2013;" horiz-adv-x="1024" d="M205 512v205h614v-205h-614z" />
<glyph unicode="&#x2014;" horiz-adv-x="2048" d="M205 512v205h1638v-205h-1638z" />
<glyph unicode="&#x2018;" d="M242 1157v244h88l301 -463v-205h-115z" />
<glyph unicode="&#x2019;" d="M659 1153v236l82 112l88 -112v-236l-81 -113z" />
<glyph unicode="&#x201c;" d="M43 1153v236l111 112l114 -112v-236l-110 -113zM602 1153v236l109 112l118 -112v-236l-110 -113z" />
<glyph unicode="&#x201d;" d="M43 1153v236l111 112l114 -112v-236l-110 -113zM602 1153v236l109 112l118 -112v-236l-110 -113z" />
<glyph unicode="&#x2026;" horiz-adv-x="4915" d="M3873 -213q0 63 43 104t106 41q61 0 104.5 -42t43.5 -103q0 -59 -44 -104t-104 -45q-61 0 -105 44t-44 105zM2234 -213q0 63 43 104t106 41q61 0 104.5 -42t43.5 -103q0 -59 -44 -104t-104 -45q-61 0 -105 44t-44 105zM596 -213q0 63 43 104t106 41q61 0 104.5 -42 t43.5 -103q0 -59 -44 -104t-104 -45q-61 0 -105 44t-44 105z" />
<glyph unicode="&#x202f;" horiz-adv-x="327" />
<glyph unicode="&#x205f;" horiz-adv-x="409" />
<glyph unicode="&#x2122;" horiz-adv-x="3276" d="M1681 -137v655l92 103l-92 96v657l115 129l94 -98h80l344 -496v-221h-131l-266 385v-356l-91 -103l91 -96v-655l-115 -131zM2451 688v221l344 496h76l92 102l121 -127v-663l-92 -103l92 -96v-655l-115 -131l-121 131v655l90 103l-90 96v356l-266 -385h-131zM137 1477 l125 122h385l101 -92l94 92h383l127 -116l-125 -123h-365v-641l-92 -103l92 -96v-657l-114 -131l-121 131v657l92 103l-92 96v641h-363z" />
<glyph unicode="&#xe000;" horiz-adv-x="1400" d="M0 1400h1400v-1400h-1400v1400z" />
<glyph unicode="&#xfb01;" horiz-adv-x="3276" d="M1775 -246l125 123h365v641l92 103l-92 96v643h-363l-127 117l125 122h385l101 -92l94 92h383l127 -116l-125 -123h-365v-643l-92 -103l92 -96v-641h363l127 -117l-125 -122h-385l-101 92l-94 -92h-383zM43 -137v657l90 103l-90 96v659l115 129l2 -2l96 94h387l100 -92 l95 92h387l127 -116l-127 -123h-385l-101 92l-96 -92h-364v-619h364l100 -94l95 94h387l127 -118l-127 -121h-385l-101 92l-96 -92h-364v-639l-115 -131z" />
<glyph unicode="&#xfb02;" horiz-adv-x="3276" d="M1681 -143v659l90 100l-90 99v659l115 129l121 -129v-659l-93 -103l93 -96v-639h364l100 -92l95 92h387l127 -117l-127 -122h-385l-101 92l-96 -92h-385l-127 116l4 4zM43 -137v657l90 103l-90 96v659l115 129l2 -2l96 94h387l100 -92l95 92h387l127 -116l-127 -123h-385 l-101 92l-96 -92h-364v-619h364l100 -94l95 94h387l127 -118l-127 -121h-385l-101 92l-96 -92h-364v-639l-115 -131z" />
<glyph unicode="&#xfb03;" horiz-adv-x="4915" d="M3414 -246l125 123h365v641l92 103l-92 96v643h-363l-127 117l125 122h385l101 -92l94 92h383l127 -116l-125 -123h-365v-643l-92 -103l92 -96v-641h363l127 -117l-125 -122h-385l-101 92l-94 -92h-383zM1681 -137v657l90 103l-90 96v659l115 129l2 -2l96 94h387l100 -92 l95 92h387l127 -116l-127 -123h-385l-101 92l-96 -92h-364v-619h364l100 -94l95 94h387l127 -118l-127 -121h-385l-101 92l-96 -92h-364v-639l-115 -131zM43 -137v657l90 103l-90 96v659l115 129l2 -2l96 94h387l100 -92l95 92h387l127 -116l-127 -123h-385l-101 92l-96 -92 h-364v-619h364l100 -94l95 94h387l127 -118l-127 -121h-385l-101 92l-96 -92h-364v-639l-115 -131z" />
<glyph unicode="&#xfb04;" horiz-adv-x="4915" d="M3320 -143v659l90 100l-90 99v659l115 129l121 -129v-659l-93 -103l93 -96v-639h364l100 -92l95 92h387l127 -117l-127 -122h-385l-101 92l-96 -92h-385l-127 116l4 4zM1681 -137v657l90 103l-90 96v659l115 129l2 -2l96 94h387l100 -92l95 92h387l127 -116l-127 -123 h-385l-101 92l-96 -92h-364v-619h364l100 -94l95 94h387l127 -118l-127 -121h-385l-101 92l-96 -92h-364v-639l-115 -131zM43 -137v657l90 103l-90 96v659l115 129l2 -2l96 94h387l100 -92l95 92h387l127 -116l-127 -123h-385l-101 92l-96 -92h-364v-619h364l100 -94l95 94 h387l127 -118l-127 -121h-385l-101 92l-96 -92h-364v-639l-115 -131z" />
</font>
</defs>
</svg>
