<?xml version="1.0" standalone="no"?>
<!DOCTYPE svg PUBLIC "-//W3C//DTD SVG 1.1//EN" "http://www.w3.org/Graphics/SVG/1.1/DTD/svg11.dtd" >
<svg xmlns="http://www.w3.org/2000/svg">
<metadata>
This is a custom SVG webfont generated by Font Squirrel.
Copyright   :  19992001 WolfBainX  Apostrophic Labs All rights reserved Visit wwwapsotrophiclabcom or email infoapostrophiclabcom for more info
Designer    : WolfBainX  Apostrophe
Foundry URL : wwwapostrophiclabcom
</metadata>
<defs>
<font id="webfontvvf3RP0h" horiz-adv-x="1779" >
<font-face units-per-em="2048" ascent="1638" descent="-410" />
<missing-glyph horiz-adv-x="1085" />
<glyph unicode=" "  horiz-adv-x="1085" />
<glyph unicode="&#x09;" horiz-adv-x="1085" />
<glyph unicode="&#xa0;" horiz-adv-x="1085" />
<glyph unicode="!" horiz-adv-x="1202" d="M-127 131q-4 -49 20.5 -88t68.5 -64.5t105.5 -39t131.5 -13.5q68 0 121 15.5t92 38t63.5 48t34.5 44.5q12 25 10 57.5t-26.5 64t-74.5 59.5t-130 42q-92 18 -167 10t-128 -32.5t-84 -62.5t-37 -79zM37 553q-16 -53 3 -82t87 -51q63 -23 132 -37t147 -25q68 -10 99.5 -0.5 t43.5 50.5q41 113 94 239l114 259l125 264l128 257q23 43 4 73t-90 59q-72 29 -164 52t-170 36q-84 16 -123 4.5t-61 -58.5q-45 -102 -99 -237l-104 -278q-51 -142 -95 -280.5t-71 -244.5z" />
<glyph unicode="&#x22;" horiz-adv-x="1685" d="M158 1231q-35 -66 90 -74q51 -4 106.5 -2t96.5 8q98 8 161 70q31 31 68 75t68 93q27 35 49 73.5t37.5 74.5t21.5 66t0 46q-6 31 -63 63q-43 25 -93.5 44.5t-109.5 35.5q-66 20 -107 16.5t-55 -46.5q-23 -57 -57 -132l-74 -149l-76 -145zM803 1200q-55 -66 80 -80 q51 -4 103 -7t104 1q104 4 176 57q37 27 82 68t89 88t80.5 95t59.5 89q23 55 22 68q0 23 -49 66q-37 23 -82 45t-102 43q-127 51 -172 -21q-35 -53 -86 -123l-106 -142l-107 -138q-53 -66 -92 -109z" />
<glyph unicode="#" horiz-adv-x="2154" d="M-116 529.5q-7 -15.5 30 -50.5q63 -53 131 -80.5t176 -17.5l-4 -29q-25 -90 30.5 -138t153.5 -77q57 -16 83 -13t42 40q25 59 46.5 125.5t50.5 142.5q92 14 182 21.5t182 21.5q-10 -25 -13 -44t-13 -40l-7.5 -45t0.5 -37q10 -49 54.5 -80.5t121.5 -54.5q53 -16 84 -13 t48 40q23 66 53 142l67 169q78 4 150 9t143 9q68 6 80 20.5t-24 47.5q-25 25 -48.5 41t-53.5 27.5t-69.5 17.5t-99.5 6l49 120l54 120q86 4 166.5 7t158.5 7q68 4 82.5 16.5t-24.5 47.5q-25 25 -48.5 43t-56.5 30.5t-78 19.5t-114 7q25 35 38 65.5t29 59.5q41 74 -6 128 t-151 97q-113 49 -154 -20q-41 -72 -85 -160t-85 -182q-82 -4 -169 -9.5t-179 -9.5l30.5 57.5t24.5 55.5q37 76 -15.5 128t-156.5 95q-109 47 -147 -22q-41 -74 -82 -162t-82 -187q-119 -14 -221.5 -22t-184.5 -23q-72 -10 -81 -24.5t32 -48.5q33 -31 64.5 -53.5t71.5 -36 t91.5 -16.5t124.5 5h13q-23 -59 -40.5 -114.5t-39.5 -108.5q-92 -14 -172 -22.5t-158 -22.5q-68 -10 -75 -25.5zM702 643l47 113l44 112q86 10 173 16.5t183 14.5q-29 -59 -51.5 -114.5t-38.5 -112.5q-86 -6 -175.5 -13.5z" />
<glyph unicode="$" horiz-adv-x="1662" d="M-131 446q0 -27 90 -88q68 -47 141.5 -79.5t151.5 -57.5q-16 -45 -23 -100q-10 -74 29 -145.5t143 -106.5q57 -20 89 -15t42 42q12 53 37 124.5t54 137.5q4 -2 34 -2h41q119 0 207 21.5t150.5 53t101.5 69.5t64 69q27 51 11.5 92t-61 76.5t-113 67.5t-143.5 62l-154 61 q-79 32 -145 67q-57 35 -70.5 74.5t3 78.5t54.5 75t81 62.5t86 40t68 7.5q23 -6 22 -29q10 -35 -1 -85t-21 -87q-4 -37 14 -66.5t53 -53.5t85 -42t110 -33q88 -18 131 27q18 27 34.5 64.5t29 77.5t19.5 80t7 73q0 18 -3 39.5t-16.5 44t-40 46t-71.5 48.5l-66 31 q-31 14 -61 24q16 39 30.5 78t24.5 70q23 74 -24 128t-140 89q-109 47 -157 -21q-29 -47 -66 -122l-74 -146q-53 -2 -98 -10t-82 -21q-160 -57 -271.5 -151t-168.5 -187q-23 -53 -17.5 -100t32 -90t72.5 -79t105 -66q86 -45 194 -84l197 -72q89 -33 136 -59.5t14 -45.5 q-25 -14 -77 -16t-122.5 7t-154.5 30.5t-172 56.5q-33 14 -76 23.5t-88 11.5t-90 -3t-80 -19q-41 -17 -41 -48z" />
<glyph unicode="%" horiz-adv-x="2672" d="M50 1043q3 -85 59 -150q31 -29 68.5 -57.5t78.5 -44.5q51 -20 116.5 -33t123.5 -21q172 -14 301 45q68 33 114.5 80t76.5 101.5t43 113t13 113.5q113 -23 235 -15.5t230 44.5l-328 -258l-329 -272l-291 -251l-215 -194q-39 -41 -50 -73t-1 -58.5t37.5 -50t68.5 -46.5 q51 -20 77 -23t63 23q72 70 187 170l255 215l291 237l297 235l273 212l220 164q80 59 62.5 117.5t-94.5 112.5q-82 61 -158 8q-72 -49 -157 -85t-173 -59.5t-170 -34t-143 -5.5q-162 6 -240 75q-31 27 -57.5 47.5t-50.5 36.5q-47 23 -110.5 41.5t-149.5 28.5q-51 6 -118 -2 t-118 -29q-109 -49 -186.5 -126t-115.5 -162t-35 -170zM391 974q-2 79 41 189q18 39 50 80t67 73t67.5 50t55.5 12q27 -6 36 -33.5t9 -66.5t-11.5 -86t-25.5 -96q-43 -117 -107.5 -172.5t-121.5 -40.5q-58 12 -60 91zM1274.5 377.5q-23.5 -107.5 19.5 -200.5t162 -136 q51 -20 111.5 -31.5t126.5 -17.5q168 -18 297 41q68 33 118 79t82.5 99t49 110.5t16.5 112.5q0 39 -4 74t-15 67q-10 37 -40.5 73t-88.5 65q-41 20 -111.5 39.5t-142.5 29.5q-53 6 -121.5 -2t-119.5 -28q-141 -61 -228.5 -164t-111 -210.5zM1591 223q0 41 13.5 89t44.5 102 q18 39 50 80t67.5 73.5t70.5 50t59 11.5q20 -6 29.5 -35t8.5 -70t-13 -89t-33 -91q-51 -113 -118.5 -170t-120.5 -43q-58 14 -58 92z" />
<glyph unicode="&#x26;" horiz-adv-x="2338" d="M-139.5 330.5q10.5 -62.5 75 -127t195.5 -127.5q121 -55 233.5 -81t215 -30t194.5 7.5t176 27.5q236 37 432 115q45 -20 82 -43q45 -23 79 -36t63.5 -21.5t57.5 -10.5t62 0q68 8 107 21.5t90 36t54 42t-62 54.5l-98 58l-105 65q23 14 40 30.5t42 32.5q35 33 61.5 66.5 t39 67.5t5 68t-37.5 68q-29 29 -78 29q-41 0 -113 -33l-132 -69q-60 -33 -128 -64l-151 109q-74 55 -142 112l147 56l143 57q69 29 130 60.5t107 64.5q174 117 154.5 252t-236.5 266q-90 55 -170 85t-158 41t-158 8t-168 -13q-94 -12 -186 -34.5t-172 -55.5t-145.5 -75 t-108.5 -91q-92 -106 -78 -205.5t133 -230.5l40 -41l54 -54q-133 -47 -244.5 -98t-193.5 -110q-80 -61 -119 -124t-28.5 -125.5zM420 291q0 47 70.5 113.5t244.5 144.5l151 -114q73 -54 150 -103q-109 -37 -205 -60.5t-173.5 -35t-133 -9.5t-82.5 21q-22 16 -22 43z M825 1169q23 27 68 54.5t101.5 50t119 40t121.5 25.5q51 -35 64.5 -73.5t-1 -75.5t-49.5 -71t-78 -54q-57 -35 -138 -67.5t-173 -63.5l-12 14q-111 127 -23 221z" />
<glyph unicode="'" horiz-adv-x="954" d="M121 1200q-51 -63 78 -80q53 -4 104 -7t103 1q104 4 176 57q37 27 82 68t88 88t80.5 95t60.5 89l16 43q6 16 6 25q0 25 -51 66q-37 23 -81 45t-103 43q-125 51 -170 -21l-88 -123l-107 -141l-106 -137z" />
<glyph unicode="(" horiz-adv-x="1095" d="M55 886q-47 -212 4.5 -421t210.5 -387q92 -92 204 -121t224 -25q66 6 77 15.5t-17 44.5q-131 150 -174 323.5t-16.5 351t115.5 345.5t222 307q156 160 -94 336q-109 78 -195 8q-229 -164 -371.5 -364.5t-189.5 -412.5z" />
<glyph unicode=")" horiz-adv-x="1220" d="M-221 -4q-72 -59 63 -70q266 -16 424 74q184 111 318.5 274.5t208 350t80 381t-65.5 366.5q-51 104 -176 180t-346 99q-55 6 -84 3t-39 -14.5t-6 -29t16 -39.5q100 -190 120.5 -411.5t-32.5 -437.5t-176 -406.5t-305 -319.5z" />
<glyph unicode="*" horiz-adv-x="2140" d="M14 944.5q-4 -16.5 39 -47.5q78 -57 171 -85t227 1l126 26l125 23q-10 -23 -13 -47t-13 -53q-12 -47 -3 -81t34.5 -58.5t64.5 -42t88 -29.5q66 -20 89.5 -16t37.5 40q27 72 46.5 135.5t43.5 129.5l103.5 -48.5t117.5 -52.5q143 -66 238 -65q94 0 180 31q51 23 55.5 36 t-55.5 41l-204 99l-187 92l229 33q111 16 230 28q117 12 41 72q-33 27 -70 47.5t-84 31.5t-107.5 14t-140.5 -3q-51 -4 -104 -9t-107 -11q14 37 32 75.5t40 79.5q37 74 -14 128t-158 97q-109 47 -147 -22q-86 -156 -140 -301q-51 25 -94 51.5t-100 54.5q-109 61 -216.5 68.5 t-211.5 -21.5q-106 -31 -19 -83l212 -121l194 -105q-145 -25 -272.5 -51.5t-231.5 -50.5q-68 -14 -72 -30.5z" />
<glyph unicode="+" horiz-adv-x="2199" d="M-124 790.5q-5 -12.5 7 -30.5q23 -35 68 -81t90 -75q25 -16 45 -24.5t40.5 -12.5t43.5 -4q25 0 59 4q68 8 139.5 15.5t149.5 11.5q-16 -57 -23.5 -104.5t-17.5 -83.5q-6 -68 90 -103q66 -23 117 -38l104 -32q63 -16 86 -10t35 45l53 168q28 92 66 191q174 10 339 13 t327 7q66 0 83 13.5t-5 48.5q-25 31 -44.5 60.5t-56.5 64.5q-61 57 -180 61q-143 4 -356 0q16 41 38.5 79t38.5 73q23 35 15 56t-60 50q-45 29 -117.5 55.5t-140.5 42.5q-53 12 -92 -3t-55 -44q-41 -61 -79 -145t-75 -182q-180 -6 -342 -17.5t-280 -25.5q-25 -4 -49.5 -9.5 t-40 -13.5t-20.5 -20.5z" />
<glyph unicode="," horiz-adv-x="942" d="M-315 -188q-55 -61 59 -82q57 -14 123.5 -22.5t132.5 -6.5q51 4 89 15.5t83 39.5q31 20 75 55l89 71q45 38 87 78t69 75q31 35 27.5 60.5t-54.5 54.5q-59 35 -125 60.5t-133 45.5q-66 20 -108 16t-72 -41q-68 -111 -164 -216z" />
<glyph unicode="-" d="M-297 897q37 -41 79 -80t101 -80q57 -43 107.5 -55t107.5 -2q109 18 227.5 30.5t242.5 22.5t249 17l246 12q72 2 89 16.5t-11 59.5q-31 37 -59.5 75.5t-71.5 83.5q-88 76 -207 76q-135 0 -282.5 -6t-289 -15.5t-266.5 -20.5t-217 -23q-133 -17 -45 -111z" />
<glyph unicode="." horiz-adv-x="995" d="M-86 150q-4 -47 19.5 -85t68.5 -65t106.5 -40t131.5 -11q68 0 121 15.5t90.5 37t61.5 46t32 42.5q14 27 14 60q0 47 -55 94t-174 71q-90 16 -164 8t-128 -32.5t-86 -62t-38 -78.5z" />
<glyph unicode="/" horiz-adv-x="1595" d="M-180 74q6 -37 63 -60l88 -38q45 -19 111 -42q68 -23 102.5 -15.5t63.5 44.5l161 190l212 243l238 269l241 266l217 233l166 173q37 37 35 62.5t-68 60.5q-57 31 -119.5 58.5t-128.5 52.5q-127 53 -203 -23q-74 -66 -175 -177l-214 -246l-229 -279l-220 -278l-187 -241 l-128 -171q-32 -47 -26 -82z" />
<glyph unicode="0" horiz-adv-x="2058" d="M-72.5 532.5q9.5 -172.5 90.5 -307.5q20 -29 52 -54.5t69 -48t74 -39.5t72 -30q104 -35 220 -53t224 -25q174 -10 303 8.5t248 88.5q168 100 275.5 243.5t162 299t58.5 310t-37 279.5q-23 68 -74 124t-156 108q-92 41 -226 68.5t-284 41.5q-109 10 -233.5 -9t-220.5 -62 q-219 -104 -358.5 -263t-204 -333t-55 -346.5zM512 438q-8 80 10.5 174.5t59.5 186.5t105.5 181t137 156.5t145 105.5t130.5 28q53 -10 75.5 -69.5t22.5 -145.5t-18.5 -181.5t-49.5 -181.5q-35 -109 -91 -197.5t-121.5 -152t-134 -93.5t-130.5 -18q-66 14 -99.5 70.5 t-41.5 136.5z" />
<glyph unicode="1" horiz-adv-x="1163" d="M-31 172q-10 -53 8.5 -84t71.5 -53q72 -25 142 -36l143 -24q39 -6 63.5 -7t40 3t24.5 15.5t15 29.5q23 88 55 199l72 230l83 245l87 242l85 221q42 104 79 182q23 43 4.5 65.5t-90.5 51.5q-78 33 -153.5 53.5t-153.5 32.5q-41 6 -68.5 8t-50.5 -3t-43.5 -16t-44.5 -30 q-53 -43 -116.5 -101.5t-108.5 -115.5q-41 -49 -11.5 -70.5t138.5 -56.5q-47 -117 -91.5 -257t-81 -276.5t-63.5 -255t-35 -192.5z" />
<glyph unicode="2" horiz-adv-x="1861" d="M-215 208.5q4 -18.5 19.5 -36.5t33.5 -33q20 -18 50 -39.5t63 -42.5l64 -39q32 -18 57 -30q20 -12 40.5 -21.5t49 -13.5t71.5 -2t109 10q88 12 220 26.5t276.5 27t286 22.5t249.5 14q68 6 86.5 18.5t-4.5 49.5q-16 31 -51 69.5t-72 67.5q-41 35 -86 50.5t-112 12.5 q-45 0 -101.5 -2t-118 -5t-125 -8t-122.5 -11q131 63 264 140t253 157t218 158.5t160 150.5q55 59 93 115.5t49 112t-9.5 110.5t-81.5 115q-47 39 -122 78.5t-172 70.5t-213 44.5t-243 -1.5q-217 -25 -404.5 -113t-320.5 -219q-39 -43 -53 -71.5t-9 -48t27.5 -30.5t57.5 -20 q61 -12 128.5 -19t135.5 -5t130 14t116 37l138 79q69 38 131.5 63.5t113.5 33.5t86 -6t-3 -69.5t-130.5 -136.5t-226.5 -179t-290.5 -199.5t-325.5 -199t-327 -172.5q-35 -18 -46 -37t-7 -37.5z" />
<glyph unicode="3" horiz-adv-x="1951" d="M-223 258q4 -18 32.5 -44t92.5 -58q205 -119 409.5 -162t395.5 -43q248 0 448.5 47t353.5 176q63 57 94 120.5t19 130.5t-69.5 131.5t-170.5 123.5q-57 31 -122.5 48t-137.5 32q135 37 243 77t185 85q63 37 103.5 91t43.5 118.5t-38 135t-141 142.5q-96 63 -190.5 97 t-182.5 46.5t-169 8t-151 -12.5q-96 -12 -188 -37.5t-172 -57.5t-146.5 -68.5t-111.5 -71.5q-72 -57 22 -109q47 -25 118 -41t146.5 -21t149.5 3t127 33l81 29q42 15 84 27.5t80 20t70 7.5q49 0 68 -19q33 -25 -1 -64.5t-142.5 -90t-295 -105.5t-458.5 -111 q-115 -25 -39 -100q86 -88 211 -133t256 -33q106 8 171 4t122 -32q27 -14 42 -42t12 -62t-28.5 -73t-78.5 -77q-59 -39 -127 -61.5t-151 -27t-184.5 13t-228.5 58.5q-86 29 -196.5 35t-202.5 -31q-29 -10 -45 -22.5t-12 -30.5z" />
<glyph unicode="4" horiz-adv-x="2136" d="M-146 673q1 -34 37 -71q53 -45 117 -89t131 -79q59 -35 112.5 -38t117.5 5q119 12 243 22l258 19q-31 -92 -51 -162.5t-31 -119.5q-14 -53 5.5 -81t85.5 -56q66 -23 136 -40.5t130 -27.5q78 -12 106.5 -2t40.5 49q29 98 71 218l93 255l135 4l135 4q72 4 91.5 18.5 t3.5 53.5q-25 35 -40.5 64.5t-45.5 66.5q-55 66 -176 68l121 295q56 139 108 243q25 43 8.5 66.5t-88.5 52.5l-112 36l-142 44q-74 23 -142.5 41t-109.5 27q-39 6 -67.5 9t-53 0t-50 -12.5t-58.5 -23.5q-121 -68 -272.5 -165t-301 -204.5t-283.5 -216t-220 -196.5 q-43 -43 -42 -77zM424 709l169 127l185 132l197 130q100 63 201 119q-53 -113 -101 -234l-98 -244q-145 -8 -287.5 -14t-265.5 -16z" />
<glyph unicode="5" horiz-adv-x="1771" d="M-162 270q6 -35 117 -108q123 -104 299 -144.5t369 -37.5q170 2 299 30.5t220 69.5t148.5 89t83.5 89q66 92 83.5 174t-10.5 150.5t-95.5 123t-171.5 91.5q-227 80 -482 80q37 72 86.5 151.5t108.5 161.5l364 28q174 13 334 23q78 6 97.5 20.5t-2.5 55.5q-16 37 -31 78 t-51 80q-53 72 -207 65q-193 -4 -393.5 -12t-417.5 -29q-147 -14 -203 -90q-113 -168 -191.5 -308t-123.5 -253q-23 -53 -5.5 -83t58.5 -50l57 -26l47 -20l44 -18q22 -8 46 -20q23 -12 39.5 -18.5t37 -8.5t48 2t74.5 12q41 8 95.5 13.5t107.5 6.5t96 -3t61 -12 q16 -12 31 -45t15 -76q0 -41 -24 -88t-67 -86q-33 -31 -76.5 -54.5t-105 -30.5t-145.5 8t-195 64q-39 18 -92 27.5t-111.5 10.5t-115 -6t-101.5 -25q-31 -10 -42 -23t-7 -29z" />
<glyph unicode="6" horiz-adv-x="1839" d="M-113 420q-2 -74 21.5 -135.5t79 -111.5t144.5 -91t220 -74q137 -29 245 -39t192.5 -6t151.5 20.5t122 39.5q86 37 167 97t141.5 137t92 165t19.5 180q-6 47 -25.5 88t-63.5 78t-116 68.5t-182 60.5q-72 16 -143.5 25.5t-149.5 7.5q125 123 281.5 236.5t349.5 211.5 q63 35 47.5 59.5t-80.5 49.5q-33 10 -78 20.5t-96 20.5t-101.5 18l-93.5 15q-47 6 -78 6q-29 0 -52 -5.5t-46 -15.5l-53 -24q-270 -141 -447.5 -295t-281 -301.5t-145.5 -278.5t-42 -227zM424 337q2 83 68 206q41 39 90 69.5t100 48t100 22.5t88 -5q84 -23 80 -96.5 t-71 -167.5q-82 -111 -184.5 -161t-194.5 -22q-78 23 -76 106z" />
<glyph unicode="7" horiz-adv-x="1933" d="M66.5 1454q-13.5 -14 23.5 -49q14 -18 37 -39l47 -41l49 -40l43 -34q57 -35 122 -44t130 -1q51 4 125 9l155 12l164 12q83 6 156 10l-268 -247q-133 -128 -257 -261t-234.5 -267t-200.5 -263q-31 -49 -28 -78t54 -63q53 -35 122 -64t136 -51q72 -20 102.5 -16t59.5 41 q119 152 260.5 313.5t292.5 317.5l306 302l298 269q53 45 50 81.5t-54 75.5l-85 71q-48 40 -113 81q-51 41 -105.5 53t-132.5 12q-141 -4 -303 -10t-321.5 -15t-307 -22.5t-258.5 -31.5q-51 -9 -64.5 -23z" />
<glyph unicode="8" horiz-adv-x="1964" d="M-121 385q-29 -125 93 -229.5t384 -155.5q137 -29 282.5 -37t283 10.5t261.5 63.5t222 125q84 74 132 146.5t36 145t-97 145.5t-264 146q166 59 292 119t194 129q66 61 79 124t-15.5 121t-96.5 111.5t-164 100.5q-160 72 -324.5 98.5t-338.5 -12.5q-205 -47 -364 -125 t-257 -182q-119 -123 -64.5 -234.5t271.5 -206.5q-102 -41 -194.5 -85t-166 -93t-123 -105.5t-61.5 -119.5zM438 307.5q2 26.5 27 59.5q51 66 144 127t229 112q63 -31 90.5 -62.5t28.5 -66.5t-20.5 -70.5t-53.5 -72.5q-78 -78 -176.5 -109.5t-169.5 -15.5q-27 6 -51.5 19.5 t-37 33t-10.5 46zM721 994q-8 44 29.5 94.5t125 104.5t224.5 107q172 -80 85 -170t-401 -212q-55 32 -63 76z" />
<glyph unicode="9" horiz-adv-x="1828" d="M-34.5 1012.5q-20.5 -97.5 11.5 -189.5q14 -53 46 -96t85.5 -79t132 -64.5t187.5 -51.5q37 -10 77 -13t81 -7q-113 -94 -247 -182t-294 -170q-33 -16 -43 -29.5t-5 -26t22.5 -23.5l39.5 -24q63 -31 120 -46l128 -36q78 -23 130 -12.5t118 37.5q238 102 440.5 246.5 t349 301.5t223.5 310.5t62 271.5q-8 74 -48 132.5t-110.5 104.5t-170 83t-228.5 70q-127 31 -231.5 38t-189.5 -2.5t-152.5 -29t-120.5 -41.5q-102 -47 -190.5 -122t-145.5 -164t-77.5 -186.5zM523 851q-5 40 8.5 87t39.5 96q33 53 79 101.5t97.5 83t103.5 52t95 7.5 q51 -12 68.5 -55t5.5 -107.5t-55 -147.5t-113 -177q-117 -72 -225 -46q-49 10 -74 38t-30 68z" />
<glyph unicode=":" horiz-adv-x="1107" d="M-131 172q-12 -47 4 -84t53 -64.5t92.5 -46t120.5 -24.5q133 -16 230.5 18.5t126.5 100.5q8 27 6 63.5t-24.5 71.5t-72 65.5t-135.5 45t-156.5 8t-121.5 -26.5t-83 -54t-40 -73zM76 788q-4 -47 20.5 -84.5t70.5 -65.5t107.5 -42t131.5 -14q68 0 121 15t91.5 38.5 t63.5 49.5t35 44q4 14 6 28.5t2 30.5q0 47 -53.5 95.5t-175.5 70.5q-88 16 -163 8t-130.5 -32.5t-88 -61.5t-38.5 -80z" />
<glyph unicode=";" horiz-adv-x="1171" d="M-229 -229q-39 -70 90 -99q66 -16 131 -26.5t129 -7.5q51 4 87 18t66 49q27 25 60 65t65.5 86t62.5 94t48 91q37 53 -19.5 104.5t-189.5 104.5q-59 27 -112.5 47t-95.5 27.5t-70.5 -3t-36.5 -42.5q-43 -135 -104 -264zM-162 946q12 -55 50 -101t91.5 -79t119 -50.5 t134.5 -17.5q74 0 123.5 18.5t80 46.5t45 58.5t18.5 52.5q6 31 -5.5 71t-45 78t-94 70.5t-152.5 51.5q-90 20 -162 10t-119 -40t-69.5 -75t-14.5 -94z" />
<glyph unicode="&#x3c;" horiz-adv-x="1568" d="M-37 666q10 -23 51 -35l456 -117q226 -59 431 -125q63 -23 92 -16.5t51 41.5q29 47 41 118q4 35 -20.5 56.5t-77.5 42.5q-86 29 -197.5 61.5t-244.5 67.5l312 86q153 41 306 76q63 12 71.5 29.5t-36.5 47.5q-70 53 -162 105q-37 20 -69.5 27.5t-71.5 4.5t-91 -15 l-128 -27q-70 -16 -146 -37l-151 -42l-145 -42q-69 -20 -121 -39q-49 -12 -75 -36t-38 -53.5t-17.5 -61t-13.5 -60.5q-12 -18 -6 -57z" />
<glyph unicode="=" horiz-adv-x="1964" d="M-14 563l57 -64q33 -36 70 -65q37 -31 80 -40t114 -1q575 61 1188 74q66 2 85 14.5t-3 46.5q-16 29 -36.5 57.5t-57.5 61.5q-55 57 -176 58q-139 2 -297 -1.5t-321 -11.5t-321.5 -19t-299.5 -26q-53 -6 -82 -26.5t0 -57.5zM41 995q16 -31 47 -66.5t62 -64.5 q37 -35 76.5 -44t111.5 -5q299 23 597 28t615 1q66 -4 86.5 8t3.5 47q-14 29 -33.5 57.5t-47.5 63.5q-45 57 -177 63q-133 8 -293.5 11.5t-327.5 2.5t-329 -7.5t-297 -16.5q-53 -4 -86 -21.5t-8 -56.5z" />
<glyph unicode="&#x3e;" horiz-adv-x="1667" d="M-22.5 610.5q-18.5 -18.5 18.5 -47.5l103 -68q52 -34 104 -57q53 -25 87 -26.5t85 14.5q86 25 173 46.5t179 40.5l193 40l215 41q63 14 91.5 29.5t53.5 50.5q39 57 68 139q16 45 -6.5 62.5t-75.5 33.5q-121 37 -253 73l-261 69l-248 60q-119 28 -211 46q-51 10 -88 4 t-47 -35q-10 -35 -8 -80t12 -75q12 -18 21.5 -30.5t22.5 -21t32.5 -14.5t54.5 -12l209 -48l215 -54q-195 -35 -375 -75t-305 -75q-41 -12 -59.5 -30.5z" />
<glyph unicode="?" horiz-adv-x="2041" d="M43 1173.5q4 -18.5 26.5 -31t57.5 -20.5q68 -18 138.5 -26.5t139 -5t130 17.5t110.5 39l128 64q62 32 123.5 58.5t122 43t122.5 16.5q41 0 77.5 -14.5t47.5 -46.5q6 -25 -8.5 -54.5t-52.5 -62.5t-105.5 -70t-167.5 -75l-181 -75q-101 -42 -193.5 -98.5t-160 -130 t-82.5 -170.5q-10 -49 5.5 -76.5t80.5 -49.5q59 -18 131 -38t133.5 -27t101.5 2t36 46q18 78 67.5 135.5t118 101.5t149.5 77.5l162.5 64.5t158.5 64.5t136.5 76.5t104.5 99.5t52 124t-35 142.5t-154 155q-51 39 -128 74.5t-173.5 59t-208 32t-234.5 -6.5 q-205 -23 -381 -100.5t-317 -200.5q-47 -41 -64.5 -68.5t-13.5 -46zM143 133q-8 -47 12.5 -82t62.5 -60.5t100.5 -41t123.5 -21.5q147 -14 243.5 24t121.5 95q4 6 4 25v30q0 25 -9 48.5t-35 45t-72 41t-117 33.5q-92 18 -170 13.5t-135.5 -25t-90.5 -53.5t-39 -72z" />
<glyph unicode="@" horiz-adv-x="2680" d="M-37 712.5q8 -112.5 55.5 -205.5t128 -169t181 -134.5t215 -97t227.5 -61.5q205 -43 356.5 -44t262.5 22q37 8 41 24t-25 37q-43 31 -113.5 52.5t-138.5 31.5q-45 6 -87 7l-86 2q-44 1 -94 5t-112 15q-53 10 -116.5 33.5t-124 61.5t-110.5 91t-75.5 124t-21.5 158t53 193 q72 160 207 270.5t299 172t340 73.5t334 -22q123 -27 204.5 -72t131 -100.5t72 -118t24.5 -125t-9.5 -120.5t-29.5 -105q-39 -88 -87 -153.5t-96.5 -104.5t-92.5 -52.5t-77 2.5q-23 10 -22 43q0 39 18.5 100.5t41 125t45 118t30.5 79t10 43t-10 34t-41 30.5t-80 34 q-25 51 -82 88t-135 53q-109 20 -222.5 -0.5t-215.5 -72.5t-185 -133t-128 -179q-49 -98 -38 -170t60 -123t124 -82t151 -45q252 -47 413 39q88 -82 244 -106q98 -20 202.5 -18.5t202 37.5t181.5 111.5t143 204.5q59 123 53 252t-86 245t-235.5 209t-397.5 146 q-160 37 -329.5 48.5t-335.5 -4t-321.5 -57.5t-284.5 -111.5t-225.5 -166t-143.5 -219.5q-45 -131 -37 -243.5zM939 534.5q-7 30.5 2 76.5t42 114q31 68 86 125t112.5 98t106.5 62.5t72 17.5q51 -12 63 -53q-45 -113 -97 -209t-105.5 -165t-106.5 -104.5t-100 -27.5 q-27 4 -47.5 19.5t-27.5 46z" />
<glyph unicode="A" horiz-adv-x="2158" d="M-235 126q0 -23 13 -38q13 -16 39.5 -27.5l61.5 -27.5q43 -16 90 -30l84 -23q49 -12 81 -12q12 0 21 1q34 6 62 41l90 134q47 69 113 147q82 14 179 26.5t204 22.5l217 20l219 21q20 -158 49 -279q14 -57 44 -79.5t102 -36.5q72 -16 138 -19.5t144 -3.5t100 14 q18 12 18 40q0 5 -1 12q-18 172 -33.5 361.5t-26 371.5t-13.5 345q-1 70 -1 131q0 82 2 148v8q0 42 -22 69q-25 30 -109 46l-119 21q-59 10 -128.5 19.5t-152.5 16.5t-190 11q-23 1 -43 1q-89 0 -141 -22q-63 -27 -104 -69q-76 -82 -161 -184l-174 -217l-178 -232l-171 -234 l-154 -224q-72 -108 -125 -197q-24 -46 -24 -73zM684 647l260 329l232 277q0 -135 8 -278.5t18 -290.5q-260 -12 -518 -37z" />
<glyph unicode="B" horiz-adv-x="2086" d="M-95 236q3 -25 16 -44.5t37 -36.5l56 -42q43 -25 79 -43.5t71 -34t72.5 -29.5t82.5 -26q45 -18 82 -27.5t74 -11.5q11 -1 22 -1q27 0 57 4q42 5 99 15q106 18 226 46t237 62.5t221.5 76.5t180.5 89q106 59 153 122q31 41 31 93q0 27 -8 56q-23 72 -97.5 138.5 t-185.5 102.5q92 33 160 66l133 66q59 33 108.5 70.5t82 80.5t42.5 89q4 16 4 33q0 30 -12 62q-39 88 -107.5 153t-162.5 122q-72 41 -183.5 62.5t-244.5 25.5q-41 1 -83 1q-95 0 -197 -6q-146 -9 -289.5 -29.5t-274.5 -49.5t-233 -61q-14 -127 -47 -275.5t-71 -299.5 l-73 -295q-35 -144 -53 -263q-6 -27 -6 -47q0 -7 1 -14zM451 262q23 78 49 154l55 153q115 25 209 33q58 5 107 5q30 0 57 -2q70 -5 113.5 -19.5t58.5 -34.5q3 -7 3 -15q0 -26 -33 -57q-42 -39 -128 -79t-211.5 -75.5t-279.5 -62.5zM672 874l67 175q31 82 68 153 q115 33 214 49.5t176 19.5q16 1 32 0q56 0 93 -8q48 -11 60 -32q4 -7 4 -14q0 -24 -33 -58q-44 -45 -136.5 -96t-230.5 -101.5t-314 -87.5z" />
<glyph unicode="C" horiz-adv-x="1929" d="M-137 609q-7 -51 -7 -100q0 -67 13 -130q23 -109 90 -193q20 -29 51 -53t68 -45.5t77 -38t78 -29.5l207 -44q115 -24 254 -31q34 -2 68.5 -2t68.5 2q70 4 135.5 15t123 27.5t100.5 35.5q82 41 162 102t131 133q20 31 31.5 56.5t5 46t-35 36t-83.5 25.5q-84 16 -159 15 q-170 0 -288 -81q-199 -143 -316 -143q-20 0 -38 4q-61 12 -92 65.5t-35 132.5q-1 14 -1 28q0 67 16 145q19 94 61 186q41 86 108.5 182.5t143.5 176t149 129.5q61 41 108 40q10 0 19 -2q53 -12 64.5 -56t11.5 -97q0 -29 10 -66q12 -43 38 -76.5t70 -59t107.5 -43 t153.5 -30.5q35 -5 60 -4h15q28 2 43 9.5t23 19.5t17 27q14 31 23 69.5t13.5 81.5t4.5 86t-5 80q-10 66 -49 117t-145 102q-53 20 -119.5 41t-140.5 37t-152 27.5t-151 15.5q-20 1 -40 1q-81 0 -172 -13q-114 -16 -225 -74q-141 -74 -256.5 -175t-201.5 -219t-140.5 -244 t-70.5 -248z" />
<glyph unicode="D" horiz-adv-x="2203" d="M-109 237q4 -32 20.5 -54.5t42.5 -40.5l54 -36q78 -41 139.5 -68.5t145.5 -55.5q97 -35 191 -36q65 0 128 17q299 57 527.5 149.5t389.5 205t256 237.5t129 249q19 68 18 134q0 54 -12 105q-28 116 -114 208q-94 109 -225 174.5t-281.5 98t-310.5 38.5q-42 1 -83 1 q-116 0 -228 -11q-152 -14 -288 -43.5t-236 -62.5l-252 -1129q-11 -38 -11 -65q-1 -8 0 -15zM465 283q78 248 161 481t181 457q97 19 178 19q64 0 118 -12q122 -28 173 -85q23 -29 36 -70q10 -31 10 -70q0 -12 -1 -24q-6 -78 -54 -172t-150.5 -188.5t-263.5 -182 t-388 -153.5z" />
<glyph unicode="E" horiz-adv-x="1734" d="M-139 270q-3 -16 -3 -30q0 -35 17 -62q25 -39 76 -67q57 -37 102 -60.5t97 -46.5q20 -10 45.5 -18.5t58.5 -12.5q26 -3 60 -3h17q44 1 105 12l378 49l388 51q78 10 92.5 25.5t-2.5 56.5l-44 72q-22 35 -58 73q-31 35 -78 47q-35 9 -88 10q-18 0 -37 -1 q-145 -6 -271 -15.5t-261 -25.5q25 53 46 109l44 116q166 23 343 42l351 40q78 10 95.5 24.5t-5.5 57.5q-16 37 -36.5 71.5t-57.5 71.5q-31 35 -76 46q-38 10 -100 10q-11 0 -23 -1q-92 -2 -174 -5t-168 -11l79 176q36 84 75 160q190 16 361 28.5t331 22.5q78 6 98 22 q12 9 12 27q0 13 -5 31q-16 37 -33 67.5t-53 69.5q-44 70 -185 70h-8q-158 -4 -315.5 -15.5t-308 -28t-288 -34.5t-251.5 -37z" />
<glyph unicode="F" horiz-adv-x="1712" d="M-159 125q1 -20 10.5 -35.5t30 -28t55.5 -24.5q57 -16 131.5 -34.5t143.5 -27.5q34 -4 63.5 -4t53.5 4q48 8 54 45l84 249q47 138 104 286q160 23 327 43t327 37q78 6 98 22.5t-2 57.5q-16 35 -36.5 70.5t-59.5 72.5q-54 56 -173 56q-12 0 -24 -1q-86 -2 -167 -6 t-163 -10q45 94 74 179t66 153q190 16 364 28l334 25q78 6 95 21q10 8 10 26q0 13 -5 31q-23 74 -96 141q-25 20 -46 34.5t-44 22t-50.5 9.5t-66.5 2q-156 -4 -316.5 -12.5t-315 -19.5t-295 -26.5t-252.5 -33.5q1 -15 0 -30q0 -70 -15 -162q-18 -112 -50 -238.5t-71 -258.5 l-74 -249l-65 -215q-29 -96 -37 -152q-1 -18 -1 -33v-14z" />
<glyph unicode="G" horiz-adv-x="1990" d="M-152 421q20 -112 89 -200q37 -57 108.5 -105t149.5 -77q209 -66 444 -86q67 -7 132 -7q188 0 351 62q162 68 297 191t230 297q21 44 21 74q0 39 -56 85l-59.5 49.5t-67.5 49.5q-51 35 -111 45q-33 6 -77 5q-35 0 -78 -3q-82 -8 -194 -17.5t-216 -23.5q-53 -6 -99 -10.5 t-77 -12.5t-44 -21.5t-1 -37.5q51 -104 144 -151q82 -41 226 -40h39q-45 -63 -97 -119.5t-107.5 -95.5t-111.5 -57q-34 -11 -67 -11q-22 0 -45 5q-61 14 -94 72.5t-36 141.5v19q0 75 21 160q24 96 75 184q53 106 126.5 202.5t151.5 167.5t152 110q58 31 105 30q12 0 24 -2 q27 -4 37 -26.5t20 -53.5q4 -16 7 -33.5t3 -35.5t2 -34.5t6 -33.5q16 -88 109.5 -143t288.5 -72q17 -1 32 -1q44 0 64 9q27 12 43 48q8 29 14.5 69.5t8.5 84.5q1 22 1 44.5t-1 44.5q-2 45 -11 80q-16 66 -58 118t-134 95q-47 25 -108.5 44.5t-129 34.5t-138.5 25.5 t-138 16.5q-48 4 -101 4t-111 -4q-116 -8 -212 -51q-152 -68 -279 -166t-221 -214t-155.5 -241t-84.5 -248q-12 -64 -11 -125q-1 -56 9 -109z" />
<glyph unicode="H" horiz-adv-x="2035" d="M-139 170q-12 -25 -12 -45q0 -22 15 -38q28 -30 95 -52q53 -23 133 -37t152 -29q39 -6 63 -7h8q19 0 32 4q15 5 24.5 16.5t15.5 29.5q31 98 64.5 219t85.5 256q119 12 236.5 22.5t236.5 22.5q-31 -111 -53.5 -203.5t-32.5 -164.5q-8 -20 -8 -37q0 -14 6 -27 q12 -27 43.5 -46t81 -33.5t110.5 -26.5l115 -20q53 -9 91 -11t60.5 8.5t22.5 38.5q49 166 110 350l126 365l128 344q63 164 119 291q8 21 9 38q0 15 -8 26q-15 24 -87 53q-78 29 -159.5 52t-159.5 36q-55 10 -92 9q-18 0 -32 -2q-42 -7 -67 -59q-53 -135 -110 -311 l-123 -362q-104 -4 -218 -10.5t-233 -14.5l108 287q50 133 95 227q9 23 9 40q0 15 -7 27q-14 24 -92 52q-72 29 -167 53.5t-175 38.5q-52 11 -87 11q-18 0 -31 -3q-40 -8 -62 -59q-41 -137 -85 -310l-92 -353q-47 -179 -98 -350t-104 -306z" />
<glyph unicode="I" horiz-adv-x="937" d="M-180 170q-3 -18 -4 -33q0 -30 14 -50q20 -30 88 -52q66 -23 136.5 -37l148.5 -29q42 -7 69 -6q23 0 35 4q27 10 39 45l62 202l74 232l83 246l86 241l84 218q41 102 76 178q11 27 11 43q0 13 -8 24q-9 13 -31.5 25.5t-61.5 26.5q-72 29 -166 54.5t-176 37.5q-48 8 -81 8 q-24 0 -41 -4q-40 -10 -62 -55q-33 -76 -70 -184l-76 -232q-39 -123 -75.5 -254l-67.5 -252t-54.5 -224t-31.5 -173z" />
<glyph unicode="J" horiz-adv-x="1884" d="M-138 388q3 -69 44 -134q25 -47 63.5 -89t99 -79t144.5 -65.5t201 -47.5q113 -18 204 -21q25 -1 50 -1q64 0 118 6q76 8 136.5 24.5t113.5 38.5q129 57 233.5 177t187.5 292.5t146.5 390.5t112.5 474q5 18 5 31q0 18 -11 33q-10 13 -31.5 24.5t-60.5 27.5 q-78 29 -176.5 50.5t-175.5 35.5q-45 7 -78 7q-27 0 -46 -4q-42 -10 -57 -58l-54 -238q-32 -136 -72.5 -280.5t-88 -283t-100.5 -248t-111 -175.5q-56 -64 -115 -63h-3q-35 2 -55.5 14.5t-31 36t-15.5 58t-11 84.5q-6 152 -334 237q-47 14 -82 14q-38 0 -61 -16 q-45 -31 -68 -96q-22 -78 -22 -141q1 -8 1 -16z" />
<glyph unicode="K" horiz-adv-x="1996" d="M-188 170q-3 -15 -3 -29q0 -54 46 -84q57 -37 190 -61l121 -24q55 -11 94 -13h12q31 0 49 9q22 11 21 44l65 203l74 240q59 -59 129 -120l138 -114l123 -96l90 -68q80 -59 160 -67q29 -3 59 -3q51 0 100 9q51 4 103.5 14t89.5 25q66 20 74 42q1 3 2 7q0 20 -44 49 l-113.5 90t-133.5 116l-138 130l-129 129l256 163l254 173q121 86 220.5 166t156.5 145q45 51 50 86q1 6 1 11q0 29 -22 59q-39 43 -81 80t-99.5 65.5t-104.5 28.5q-37 0 -82 -35q-63 -51 -169 -126l-229 -160l-255 -174l-248 -169l93 246q42 111 83 197q14 25 14 42 q0 13 -8 22q-18 22 -96 52q-72 29 -166 54.5t-176 38.5q-45 8 -79 8q-24 0 -41 -4q-42 -10 -64 -56q-33 -76 -71 -185l-78 -235l-79 -260q-39 -133 -71.5 -256.5t-56 -229t-31.5 -175.5z" />
<glyph unicode="L" horiz-adv-x="1599" d="M-188 260q-5 -19 -6 -35q0 -27 15 -50q24 -36 75 -64l107 -61q40 -24 91 -46q20 -10 44 -18.5t56 -13.5q23 -4 52 -3h25q46 2 112 15l378 50l388 50q45 6 68.5 12t30.5 15q5 5 5 12q0 4 -2 9q-4 13 -16 36q-14 35 -37.5 71.5t-62.5 71.5q-37 37 -81 48q-32 8 -83 9 q-18 0 -39 -1q-135 -6 -253 -14.5t-251 -22.5q45 131 98 270l109 274l109 261q54 125 104 225q13 24 13 41q0 13 -7 23q-16 24 -88 52.5t-166 52t-176 36.5q-47 9 -82 8q-22 0 -38 -3q-42 -9 -71 -54q-41 -84 -84 -187.5t-84 -218.5l-82 -233q-40 -119 -74 -230.5 t-58.5 -211t-38.5 -175.5z" />
<glyph unicode="M" horiz-adv-x="2775" d="M-180 160q-3 -16 -3 -30q0 -32 16 -52q24 -29 95 -53q57 -20 128 -36t139 -26q34 -5 58 -5q26 0 40 6q27 11 41 48q18 86 48 195.5t66.5 230.5t79.5 248l88 250q31 -180 76 -356.5t96 -317.5q14 -35 27.5 -57.5t31 -36.5t40 -23.5t55.5 -17.5q98 -23 207 -37q35 -5 57 -5 h7q24 1 38.5 7t24.5 20l27 35q45 70 119 171l161 213l177 226l169 206q-41 -106 -77.5 -223t-65.5 -225.5t-49.5 -201t-28.5 -151.5q-6 -20 -6 -37q0 -26 14 -45q23 -31 94 -53q55 -20 127 -35t144 -25q33 -5 57 -5q32 0 48 9q28 16 44 54q18 72 48 174l67 220l79 246 l83 248l80 229q39 108 71 187q11 27 11.5 47.5t-11.5 35.5q-23 30 -104 52q-119 33 -241 56.5t-232 40.5q-76 14 -129 13h-19q-57 -3 -103 -27.5t-89 -72t-101 -120.5l-123 -143l-127 -154l-120 -154l-103 -139l-67 282l-37 158q-12 55 -15.5 75.5t-3.5 35.5q-8 31 -17 55.5 t-29.5 45t-56.5 36.5t-99 31q-96 23 -195.5 39t-236.5 28q-34 3 -61 3q-47 0 -75 -9q-43 -14 -71 -67q-33 -76 -71 -182.5t-77 -227.5l-78 -249q-39 -128 -70.5 -248.5t-55 -227t-31.5 -182.5z" />
<glyph unicode="N" horiz-adv-x="2109" d="M-176 180q-6 -23 -6 -41q0 -25 11 -42q19 -30 85 -52q66 -29 139 -42l146 -26q47 -9 76 -8q19 0 29 3q28 9 38 44q18 74 47 170l64 205l72 226l75 233q35 -96 75 -192.5t82 -187.5t84 -171t83 -141q55 -90 184 -123q72 -16 142.5 -29.5t142.5 -23.5q38 -6 68 -6 q95 0 108 59l90 316l106 354l112 345q56 167 105 291q11 27 11 47q0 14 -6 26q-8 15 -30 29.5t-61 29.5q-47 18 -81.5 28l-66.5 18.5t-64 13.5l-70 11q-43 6 -75 7q-30 0 -51 -6q-44 -11 -61 -56q-68 -174 -140.5 -392t-123.5 -454q-33 92 -64 192l-61 190l-51 168l-37 124 q-16 61 -50 93t-116 52q-98 29 -190 47.5t-188 34.5q-39 6 -70.5 6t-55.5 -6q-48 -12 -73 -59q-37 -86 -76 -201l-79 -243l-77 -258l-67 -246l-53 -210q-23 -94 -31 -147z" />
<glyph unicode="O" horiz-adv-x="2086" d="M-77 530q9 -172 104 -307q41 -57 116.5 -102t153.5 -74q98 -35 219 -52.5t232 -25.5q63 -4 119 -4q100 0 185 13q132 22 251 85q168 104 276.5 249t163.5 301.5t59 311.5q0 14 1 28q0 138 -38 253q-27 72 -78 129.5t-155 106.5q-92 43 -228.5 72.5t-285.5 44.5 q-37 4 -77 4q-20 0 -40 -1q-61 -3 -122.5 -13.5t-118 -28t-101.5 -37.5q-215 -109 -360.5 -269.5t-214.5 -335.5q-61 -155 -62 -307q0 -21 1 -41zM531 439q-1 17 -1 34q0 68 17 145q20 96 61 183q41 84 103.5 174t133 160.5t141.5 112.5q57 34 104 34q11 0 22 -2 q55 -10 81 -71.5t29 -147.5v-25q0 -75 -16 -159q-18 -98 -53 -185q-41 -109 -99.5 -201t-124 -156.5t-132.5 -94.5q-46 -21 -90 -21q-20 0 -39 4q-66 14 -99 73.5t-38 142.5z" />
<glyph unicode="P" horiz-adv-x="2125" d="M-76 162q-11 -25 -10 -46q0 -23 13 -40q26 -33 79 -54.5t128 -34.5l151 -28q38 -5 63.5 -5t39.5 5q28 10 44 43q29 104 63.5 210.5t75.5 217.5q174 31 348.5 74t332 95t290.5 111.5t223 120.5q55 37 101.5 76t74 81t33.5 88q1 9 2 19q0 38 -20 81q-51 104 -133 175.5 t-178 131.5q-78 45 -183 62q-93 16 -199 16h-25q-120 -2 -251 -19.5t-260 -45.5t-251 -61.5t-224 -66.5q-27 -8 -51.5 -87t-51 -197.5t-53.5 -259.5l-54 -272q-28 -132 -57.5 -237.5t-60.5 -152.5zM702 782l86 214q41 101 86 194q100 27 195.5 40t172.5 14h14q68 0 113 -9 q50 -10 58 -31q9 -14 9 -31q0 -27 -22 -61q-36 -55 -128 -114.5t-238.5 -117t-345.5 -98.5z" />
<glyph unicode="Q" horiz-adv-x="2080" d="M-77 530q9 -172 104 -307q41 -57 116.5 -102t153.5 -74q98 -35 215 -53.5t236 -24.5q55 -2 107 -2t101 2q98 4 185 31l24 -12q12 -6 29 -17q76 -45 175 -44q28 0 58 3q55 8 108.5 20.5t104.5 33.5q61 19 61 41q0 20 -48 53q-43 31 -79 63.5t-87 67.5q113 106 183.5 236 t102.5 265q28 119 28 233q0 15 -1 30q-4 129 -39 233q-27 72 -76 129.5t-153 106.5q-92 43 -228.5 72.5t-285.5 44.5q-37 4 -77 4q-20 0 -40 -1q-61 -3 -122.5 -13.5t-118 -28t-101.5 -37.5q-215 -109 -360.5 -269.5t-214.5 -335.5q-61 -155 -62 -307q0 -21 1 -41zM530 481 q2 66 15 137q37 137 111.5 271.5t185.5 245.5q55 55 109.5 92t102.5 49q21 5 40 5q24 0 45 -8q37 -15 55 -65q18 -43 24 -105q2 -28 2 -59q0 -36 -3 -74q-6 -71 -23.5 -142.5t-44.5 -135.5q-23 -72 -54.5 -135t-76.5 -117q-82 -10 -145.5 -22t-114.5 -29q-63 -21 -63 -48 q0 -19 30 -42l33 -29q16 -14 39 -28q-47 -24 -90 -24q-20 0 -39 5q-51 12 -81 49t-44 90q-13 47 -13 103v16z" />
<glyph unicode="R" horiz-adv-x="2185" d="M-76 162q-4 -19 -3 -35q0 -29 11 -50q18 -32 72 -54q53 -20 116.5 -28.5t141.5 -23.5q36 -5 60.5 -5t37.5 5q27 10 41 43l75 223q38 112 83 230q76 -61 169 -124l187 -120q94 -57 183.5 -106t158.5 -82q104 -43 185 -48q23 -2 45 -2q53 0 98 9q55 6 92 11t88 34 q51 25 51 46q0 20 -59 52q-76 41 -162 94l-173 110l-169 114l-149 106q317 92 536.5 197.5t305.5 228.5q32 40 31 89q0 45 -21 100q-51 104 -133 175.5t-178 131.5q-119 68 -274 83q-70 7 -144 7q-88 0 -181 -10q-171 -18 -348.5 -60.5t-341.5 -87.5q-47 -14 -94 -97 t-91 -204t-83 -263t-70.5 -276.5l-55.5 -245t-38 -167.5zM690 791l96 218q43 101 88 187q104 31 197.5 43t171.5 12q160 0 195 -47q6 -9 5 -19q0 -25 -30 -63q-43 -53 -140 -112.5t-245 -118.5t-338 -100z" />
<glyph unicode="S" horiz-adv-x="1806" d="M-274 342q0 -33 120 -111q231 -154 457 -215q211 -58 437 -57h30q180 2 309 30.5t215 70.5t137.5 90.5t77.5 91.5q28 39 28 74q0 17 -6 32q-19 49 -79.5 94t-153 87l-193.5 84l-204 87q-102 45 -184 95q-63 37 -81 82q-10 26 -10 51q0 20 6 41q13 47 52 93t88 86 t102.5 70.5t98.5 45.5q42 19 64 19q4 0 7 -1q23 -4 27 -25.5t-5 -55.5t-23 -73l-26 -77q-13 -39 -18 -68q-1 -9 -1 -17q0 -135 362 -216q43 -10 73 -11q17 0 30 3q36 9 65 46q27 39 52.5 92.5t46 110t34.5 111.5t20 100q-2 25 -6 52.5t-19.5 57t-46 59.5t-85.5 61 q-82 45 -203 81.5t-240 61.5q-76 14 -147 16q-18 1 -35 1q-52 0 -98 -5q-61 -6 -110.5 -19.5t-82.5 -27.5q-94 -35 -188 -87t-176 -112.5t-142.5 -125t-87.5 -121.5q-42 -71 -42 -140q0 -63 29 -119q30 -58 87 -108.5t133 -89.5q70 -39 157 -77l174 -75l167 -70 q80 -34 133 -62.5t71.5 -51t-14.5 -37.5q-41 -23 -108 -25q-11 -1 -23 -1q-59 0 -134 13q-89 15 -196.5 48t-226.5 82q-43 18 -96 28.5t-112 13.5q-19 1 -39 1q-39 0 -78 -4q-59 -6 -113 -21q-57 -20 -57 -57z" />
<glyph unicode="T" horiz-adv-x="1996" d="M17 1454q-7 -5 -6 -13q0 -13 16 -36l70 -88q42 -53 98 -88q51 -35 93 -42q17 -3 39 -3q31 0 70 6q51 8 124 14t151 15q-47 -117 -94.5 -260.5t-88 -287t-71.5 -276.5t-43 -227q-7 -20 -8 -37q0 -16 7 -30q13 -28 46 -48t84 -34.5t112 -26.5l115 -23q51 -10 90 -12h13 q30 0 49 8q23 10 26 39q41 145 93 307l110 327l117 326l114 306l254 15l228 13q41 2 63.5 6.5t30.5 11.5q7 6 7 15q0 13 -11 37q-23 41 -61.5 84t-92.5 80q-27 20 -64.5 29.5t-115.5 9.5q-102 -2 -224 -7t-254 -11.5t-268.5 -14.5t-268.5 -18.5t-255 -21.5t-225 -23 q-52 -9 -69 -21z" />
<glyph unicode="U" horiz-adv-x="2031" d="M-88 464q4 -153 88 -255q45 -57 108.5 -96t135.5 -68q172 -66 440 -78q43 -2 82 -2q86 0 159 9q105 13 210 49q145 57 255.5 178t197.5 292t155.5 386t130.5 464q7 22 7 40q0 16 -6 26q-13 23 -91 51q-72 25 -158 50.5t-162 37.5q-41 7 -75 7q-29 0 -53 -5 q-52 -10 -56 -55l-66 -241q-39 -138 -88 -283.5t-107 -285.5t-125 -246.5t-140 -167.5q-60 -49 -124 -48q-15 0 -30 2q-66 12 -87 71q-16 42 -16 100q0 22 3 45q8 87 40.5 195.5t78 220.5t96.5 220l96 197q12 25 12 48q0 68 -106 116q-68 29 -139.5 51t-149.5 37 q-52 10 -88 10q-20 0 -36 -3q-42 -9 -64 -54q-82 -158 -161 -337t-125 -352q-42 -159 -42 -301v-25z" />
<glyph unicode="V" horiz-adv-x="2099" d="M59 1466q27 -342 78 -650t133 -572q8 -25 25.5 -51.5t46.5 -54t69 -51.5t93 -42q98 -33 188 -53.5t195 -40.5q65 -12 110 -13q30 0 52 6q55 13 100 64l140 194l159 231l164 249l153 246l128.5 221t88.5 176q18 30 19 54q0 5 -1 11q-5 28 -31.5 49t-70 39.5t-96.5 37.5 q-51 18 -100 32.5t-92 17.5q-10 1 -20 0q-31 0 -56 -7q-33 -10 -51 -39l-330 -539q-170 -281 -360 -553q-27 137 -50 271l-42 257l-35 229q-16 105 -31 187q-18 104 -189 141q-72 16 -134 23.5t-140 7.5q-39 0 -61.5 -4t-33.5 -13t-14.5 -25t-3.5 -36z" />
<glyph unicode="W" horiz-adv-x="2887" d="M4 547q0 -117 6 -222.5t17 -187.5q4 -57 31.5 -84.5t99.5 -44.5q78 -16 161.5 -31.5t176.5 -25.5q36 -4 64 -5q25 0 45 4q42 7 79 50l93 128l123 165l139 181l141 177q0 -66 8 -137.5t20.5 -140l24.5 -128.5l20 -102q10 -43 45 -78.5t121 -56.5q43 -6 76 -13t68 -13 l73 -14q39 -7 95 -13q51 -6 89 -6q35 0 60 5q51 11 80 50l114 191l137 224l150 240l154 239l147 220l131 182q25 36 26 73q0 5 -1 10q-4 42 -70 77q-113 51 -243 86q-43 10 -72 15q-16 2 -30 2q-11 0 -20 -1q-22 -3 -40.5 -16.5t-36.5 -38.5l-116 -162l-167 -242l-190 -283 l-184 -283q8 109 18 220l20 208q9 96 15 167.5t6 100.5q0 25 -2 43t-11 30.5t-31 22.5t-60 21l-65 15q-30 7 -58.5 13l-59.5 12l-69 11q-39 5 -68 5t-48 -5q-38 -10 -69 -45q-43 -43 -117 -136l-163 -211l-181 -247l-174 -242q8 111 22.5 230.5t30.5 228.5l27 195l19 129 q6 23 5 47t-11.5 47.5t-32 44t-60.5 35.5q-68 25 -144.5 38t-170.5 25q-34 4 -59 4q-35 0 -54 -8q-31 -14 -41 -63q-14 -92 -25 -205t-18.5 -234t-11.5 -244.5t-4 -242.5z" />
<glyph unicode="X" horiz-adv-x="2125" d="M-233 158q0 -18 27.5 -45t68.5 -54.5t88 -52t86 -41.5q53 -24 98 -24q53 0 94 34l239 202l294 245l164 -228q70 -93 106 -128q25 -25 47.5 -42.5t48 -28.5t55 -18.5t70.5 -9.5q83 -4 162 -4t154 4q68 6 81 26q4 5 3 12q0 18 -27 46l-209 305l-241 357l386 300l316 244 q45 35 55 73q2 6 2 13q0 32 -43 68q-41 35 -100 76t-125 69q-63 23 -117 23q-53 0 -104 -35q-104 -74 -241 -183l-300 -245l-109 164l-94 143q-37 45 -85 74t-140 35q-43 2 -86 3t-80 1h-78h-40q-18 0 -35 -2q-78 -6 -96 -25q-7 -7 -6 -19q0 -19 16 -50l78 -121l99 -151 l115 -170l123 -179l-201 -164l-185 -157l-160 -144l-129 -123q-45 -42 -45 -73z" />
<glyph unicode="Y" horiz-adv-x="1955" d="M-9 1537q-5 -6 -5 -15q0 -16 14 -43l93 -200l110 -226l116 -235l113 -228q-37 -129 -60.5 -240.5t-47.5 -197.5q-3 -18 -4 -33q0 -30 14 -48q20 -28 86 -57q63 -18 142 -35.5t151 -31.5q43 -7 71 -7q21 0 32 4q28 9 44 50q31 111 67 226.5t87 244.5l247 242l236 239 l197 212q86 97 127 161q33 46 33 74q0 32 -56 69q-43 25 -105.5 53.5t-123.5 47.5q-55 17 -103 16h-10q-51 -2 -74 -41l-269 -298l-284 -298l-137 277q-66 129 -125 227q-18 25 -34.5 43t-37 31.5t-47 21.5t-65.5 14q-65 9 -128 9h-26q-76 -2 -153 -6q-72 -7 -85 -22z" />
<glyph unicode="Z" horiz-adv-x="1689" d="M-235 189q0 -19 12 -35q12 -18 32.5 -35t40.5 -31l109 -61q43 -25 94 -50q25 -12 50.5 -20t58.5 -13q23 -4 52 -4q11 0 24 1q43 2 104 12q90 14 190 28l204 26l206 26l199 24q78 6 99.5 22.5t-1.5 57.5q-27 68 -104 146q-29 33 -85 46q-39 9 -88 9q-22 0 -47 -2 q-119 -10 -226 -21.5t-216 -27.5l564 475l562 457q51 39 54 72v5q0 31 -23 66l-34 61q-17 33 -56 76q-29 35 -67 49q-34 13 -98 13h-19q-143 -4 -304 -11.5t-321 -17.5t-309.5 -24.5t-267.5 -30.5q-51 -10 -66.5 -23.5t6.5 -50.5q29 -37 73 -86t73 -78q51 -37 110 -47 q33 -6 70 -6q29 0 61 4q96 12 194.5 20.5t217.5 20.5l-323 -263l-314 -276l-272 -255q-123 -120 -195 -199q-24 -27 -24 -49z" />
<glyph unicode="[" horiz-adv-x="1370" d="M-59 229q-12 -59 7 -94t60 -65q45 -23 84 -45.5t84 -40.5q51 -23 108.5 -32t143.5 1l216 24l204 23q78 0 97.5 16.5t-3.5 55.5q-25 35 -39 67.5t-51 67.5q-61 66 -199 55q-51 -2 -97 -4t-97 -4l82 248q45 131 95 263l102 259q52 127 104 238q92 4 181 10t167 10 q72 6 94.5 20.5t-0.5 53.5q-16 37 -36.5 67.5t-57.5 67.5q-31 35 -75 53.5t-116 16.5q-109 -2 -235.5 -6.5t-249.5 -14.5q-131 -10 -158 -74q-59 -127 -120.5 -288.5t-118 -329.5t-103 -330t-73.5 -289z" />
<glyph unicode="\" horiz-adv-x="1613" d="M53 1497q27 -80 78 -200l116 -258l136 -284l142 -282l133 -247q62 -112 108 -181q18 -25 35.5 -43t38 -31.5t46 -20.5t60.5 -9q61 -6 121 -7q61 0 127 5q78 4 95.5 20t-5.5 51l-102 210l-120 258l-125 280l-119 276l-101 248q-45 115 -72 195q-12 25 -24.5 40t-30 26 t-44 17.5t-69.5 12.5q-82 10 -152.5 12t-148.5 0q-158 -4 -123 -88z" />
<glyph unicode="]" horiz-adv-x="1433" d="M-166 125q29 -35 59.5 -66.5t61.5 -56.5q37 -25 77 -36t122 -3q94 10 194.5 18.5t206.5 18.5q49 0 79 6t47 15.5t25.5 21.5t14.5 27l95 286l114 329q59 167 122.5 326.5t123.5 280.5q14 37 8 62.5t-58 60.5q-37 29 -71.5 52.5t-71.5 45.5q-45 29 -88 39.5t-121 6.5 q-147 -6 -279.5 -14.5t-238.5 -20.5q-66 -6 -85 -27.5t-10 -52.5t38.5 -66t62.5 -67q29 -37 70 -48.5t123 -7.5q37 2 71.5 5.5t73.5 5.5l-95 -240l-101 -263q-50 -134 -94 -265t-77 -242q-86 -8 -178 -20.5t-159 -22.5q-132 -22 -62 -88z" />
<glyph unicode="^" horiz-adv-x="2013" d="M90 1059q-63 -53 4 -111q41 -35 78 -59.5t80 -48.5q47 -27 78 -27q39 0 71 27l229 170q124 92 271 186l95 -209q44 -98 85 -164q47 -66 158 -82q68 -10 126 -13t114 -5q63 -2 81.5 11.5t2.5 47.5l-62 132l-69 157q-35 82 -67 166t-54 162q-14 49 -35 70.5t-64 50.5 q-45 23 -97 43l-105 43q-51 16 -93.5 15t-97.5 -36q-104 -59 -211 -131l-204 -143l-179 -137q-82 -66 -135 -115z" />
<glyph unicode="_" horiz-adv-x="1937" d="M-90 -383q-16 -37 9.5 -52.5t88.5 -15.5h2015q53 -4 86 7.5t51.5 31t29 43t18.5 45.5l20 48q10 23 5 40t-29.5 27t-85.5 8h-2009q-68 0 -103 -14t-51 -51q-16 -31 -25.5 -59.5z" />
<glyph unicode="`" d="M391 1991q74 -29 176.5 -64t222.5 -69l247 -69q128 -34 251 -58q53 -14 116.5 -6t141.5 34q-2 -2 14.5 6.5t29 22.5t7 31.5t-50.5 33.5q-104 27 -211 58l-210 63q-103 33 -199.5 68t-177.5 72q-43 20 -101.5 19t-150.5 -30q-51 -14 -73 -41.5t-32 -70.5z" />
<glyph unicode="a" horiz-adv-x="2158" d="M-235 126q0 -23 13 -38q13 -16 39.5 -27.5l61.5 -27.5q43 -16 90 -30l84 -23q49 -12 81 -12q12 0 21 1q34 6 62 41l90 134q47 69 113 147q82 14 179 26.5t204 22.5l217 20l219 21q20 -158 49 -279q14 -57 44 -79.5t102 -36.5q72 -16 138 -19.5t144 -3.5t100 14 q18 12 18 40q0 5 -1 12q-18 172 -33.5 361.5t-26 371.5t-13.5 345q-1 70 -1 131q0 82 2 148v8q0 42 -22 69q-25 30 -109 46l-119 21q-59 10 -128.5 19.5t-152.5 16.5t-190 11q-23 1 -43 1q-89 0 -141 -22q-63 -27 -104 -69q-76 -82 -161 -184l-174 -217l-178 -232l-171 -234 l-154 -224q-72 -108 -125 -197q-24 -46 -24 -73zM684 647l260 329l232 277q0 -135 8 -278.5t18 -290.5q-260 -12 -518 -37z" />
<glyph unicode="b" horiz-adv-x="2086" d="M-95 236q3 -25 16 -44.5t37 -36.5l56 -42q43 -25 79 -43.5t71 -34t72.5 -29.5t82.5 -26q45 -18 82 -27.5t74 -11.5q11 -1 22 -1q27 0 57 4q42 5 99 15q106 18 226 46t237 62.5t221.5 76.5t180.5 89q106 59 153 122q31 41 31 93q0 27 -8 56q-23 72 -97.5 138.5 t-185.5 102.5q92 33 160 66l133 66q59 33 108.5 70.5t82 80.5t42.5 89q4 16 4 33q0 30 -12 62q-39 88 -107.5 153t-162.5 122q-72 41 -183.5 62.5t-244.5 25.5q-41 1 -83 1q-95 0 -197 -6q-146 -9 -289.5 -29.5t-274.5 -49.5t-233 -61q-14 -127 -47 -275.5t-71 -299.5 l-73 -295q-35 -144 -53 -263q-6 -27 -6 -47q0 -7 1 -14zM451 262q23 78 49 154l55 153q115 25 209 33q58 5 107 5q30 0 57 -2q70 -5 113.5 -19.5t58.5 -34.5q3 -7 3 -15q0 -26 -33 -57q-42 -39 -128 -79t-211.5 -75.5t-279.5 -62.5zM672 874l67 175q31 82 68 153 q115 33 214 49.5t176 19.5q16 1 32 0q56 0 93 -8q48 -11 60 -32q4 -7 4 -14q0 -24 -33 -58q-44 -45 -136.5 -96t-230.5 -101.5t-314 -87.5z" />
<glyph unicode="c" horiz-adv-x="1929" d="M-137 609q-7 -51 -7 -100q0 -67 13 -130q23 -109 90 -193q20 -29 51 -53t68 -45.5t77 -38t78 -29.5l207 -44q115 -24 254 -31q34 -2 68.5 -2t68.5 2q70 4 135.5 15t123 27.5t100.5 35.5q82 41 162 102t131 133q20 31 31.5 56.5t5 46t-35 36t-83.5 25.5q-84 16 -159 15 q-170 0 -288 -81q-199 -143 -316 -143q-20 0 -38 4q-61 12 -92 65.5t-35 132.5q-1 14 -1 28q0 67 16 145q19 94 61 186q41 86 108.5 182.5t143.5 176t149 129.5q61 41 108 40q10 0 19 -2q53 -12 64.5 -56t11.5 -97q0 -29 10 -66q12 -43 38 -76.5t70 -59t107.5 -43 t153.5 -30.5q35 -5 60 -4h15q28 2 43 9.5t23 19.5t17 27q14 31 23 69.5t13.5 81.5t4.5 86t-5 80q-10 66 -49 117t-145 102q-53 20 -119.5 41t-140.5 37t-152 27.5t-151 15.5q-20 1 -40 1q-81 0 -172 -13q-114 -16 -225 -74q-141 -74 -256.5 -175t-201.5 -219t-140.5 -244 t-70.5 -248z" />
<glyph unicode="d" horiz-adv-x="2203" d="M-109 237q4 -32 20.5 -54.5t42.5 -40.5l54 -36q78 -41 139.5 -68.5t145.5 -55.5q97 -35 191 -36q65 0 128 17q299 57 527.5 149.5t389.5 205t256 237.5t129 249q19 68 18 134q0 54 -12 105q-28 116 -114 208q-94 109 -225 174.5t-281.5 98t-310.5 38.5q-42 1 -83 1 q-116 0 -228 -11q-152 -14 -288 -43.5t-236 -62.5l-252 -1129q-11 -38 -11 -65q-1 -8 0 -15zM465 283q78 248 161 481t181 457q97 19 178 19q64 0 118 -12q122 -28 173 -85q23 -29 36 -70q10 -31 10 -70q0 -12 -1 -24q-6 -78 -54 -172t-150.5 -188.5t-263.5 -182 t-388 -153.5z" />
<glyph unicode="e" horiz-adv-x="1734" d="M-139 270q-3 -16 -3 -30q0 -35 17 -62q25 -39 76 -67q57 -37 102 -60.5t97 -46.5q20 -10 45.5 -18.5t58.5 -12.5q26 -3 60 -3h17q44 1 105 12l378 49l388 51q78 10 92.5 25.5t-2.5 56.5l-44 72q-22 35 -58 73q-31 35 -78 47q-35 9 -88 10q-18 0 -37 -1 q-145 -6 -271 -15.5t-261 -25.5q25 53 46 109l44 116q166 23 343 42l351 40q78 10 95.5 24.5t-5.5 57.5q-16 37 -36.5 71.5t-57.5 71.5q-31 35 -76 46q-38 10 -100 10q-11 0 -23 -1q-92 -2 -174 -5t-168 -11l79 176q36 84 75 160q190 16 361 28.5t331 22.5q78 6 98 22 q12 9 12 27q0 13 -5 31q-16 37 -33 67.5t-53 69.5q-44 70 -185 70h-8q-158 -4 -315.5 -15.5t-308 -28t-288 -34.5t-251.5 -37z" />
<glyph unicode="f" horiz-adv-x="1712" d="M-159 125q1 -20 10.5 -35.5t30 -28t55.5 -24.5q57 -16 131.5 -34.5t143.5 -27.5q34 -4 63.5 -4t53.5 4q48 8 54 45l84 249q47 138 104 286q160 23 327 43t327 37q78 6 98 22.5t-2 57.5q-16 35 -36.5 70.5t-59.5 72.5q-54 56 -173 56q-12 0 -24 -1q-86 -2 -167 -6 t-163 -10q45 94 74 179t66 153q190 16 364 28l334 25q78 6 95 21q10 8 10 26q0 13 -5 31q-23 74 -96 141q-25 20 -46 34.5t-44 22t-50.5 9.5t-66.5 2q-156 -4 -316.5 -12.5t-315 -19.5t-295 -26.5t-252.5 -33.5q1 -15 0 -30q0 -70 -15 -162q-18 -112 -50 -238.5t-71 -258.5 l-74 -249l-65 -215q-29 -96 -37 -152q-1 -18 -1 -33v-14z" />
<glyph unicode="g" horiz-adv-x="1990" d="M-152 421q20 -112 89 -200q37 -57 108.5 -105t149.5 -77q209 -66 444 -86q67 -7 132 -7q188 0 351 62q162 68 297 191t230 297q21 44 21 74q0 39 -56 85l-59.5 49.5t-67.5 49.5q-51 35 -111 45q-33 6 -77 5q-35 0 -78 -3q-82 -8 -194 -17.5t-216 -23.5q-53 -6 -99 -10.5 t-77 -12.5t-44 -21.5t-1 -37.5q51 -104 144 -151q82 -41 226 -40h39q-45 -63 -97 -119.5t-107.5 -95.5t-111.5 -57q-34 -11 -67 -11q-22 0 -45 5q-61 14 -94 72.5t-36 141.5v19q0 75 21 160q24 96 75 184q53 106 126.5 202.5t151.5 167.5t152 110q58 31 105 30q12 0 24 -2 q27 -4 37 -26.5t20 -53.5q4 -16 7 -33.5t3 -35.5t2 -34.5t6 -33.5q16 -88 109.5 -143t288.5 -72q17 -1 32 -1q44 0 64 9q27 12 43 48q8 29 14.5 69.5t8.5 84.5q1 22 1 44.5t-1 44.5q-2 45 -11 80q-16 66 -58 118t-134 95q-47 25 -108.5 44.5t-129 34.5t-138.5 25.5 t-138 16.5q-48 4 -101 4t-111 -4q-116 -8 -212 -51q-152 -68 -279 -166t-221 -214t-155.5 -241t-84.5 -248q-12 -64 -11 -125q-1 -56 9 -109z" />
<glyph unicode="h" horiz-adv-x="2035" d="M-139 170q-12 -25 -12 -45q0 -22 15 -38q28 -30 95 -52q53 -23 133 -37t152 -29q39 -6 63 -7h8q19 0 32 4q15 5 24.5 16.5t15.5 29.5q31 98 64.5 219t85.5 256q119 12 236.5 22.5t236.5 22.5q-31 -111 -53.5 -203.5t-32.5 -164.5q-8 -20 -8 -37q0 -14 6 -27 q12 -27 43.5 -46t81 -33.5t110.5 -26.5l115 -20q53 -9 91 -11t60.5 8.5t22.5 38.5q49 166 110 350l126 365l128 344q63 164 119 291q8 21 9 38q0 15 -8 26q-15 24 -87 53q-78 29 -159.5 52t-159.5 36q-55 10 -92 9q-18 0 -32 -2q-42 -7 -67 -59q-53 -135 -110 -311 l-123 -362q-104 -4 -218 -10.5t-233 -14.5l108 287q50 133 95 227q9 23 9 40q0 15 -7 27q-14 24 -92 52q-72 29 -167 53.5t-175 38.5q-52 11 -87 11q-18 0 -31 -3q-40 -8 -62 -59q-41 -137 -85 -310l-92 -353q-47 -179 -98 -350t-104 -306z" />
<glyph unicode="i" horiz-adv-x="937" d="M-180 170q-3 -18 -4 -33q0 -30 14 -50q20 -30 88 -52q66 -23 136.5 -37l148.5 -29q42 -7 69 -6q23 0 35 4q27 10 39 45l62 202l74 232l83 246l86 241l84 218q41 102 76 178q11 27 11 43q0 13 -8 24q-9 13 -31.5 25.5t-61.5 26.5q-72 29 -166 54.5t-176 37.5q-48 8 -81 8 q-24 0 -41 -4q-40 -10 -62 -55q-33 -76 -70 -184l-76 -232q-39 -123 -75.5 -254l-67.5 -252t-54.5 -224t-31.5 -173z" />
<glyph unicode="j" horiz-adv-x="1884" d="M-138 388q3 -69 44 -134q25 -47 63.5 -89t99 -79t144.5 -65.5t201 -47.5q113 -18 204 -21q25 -1 50 -1q64 0 118 6q76 8 136.5 24.5t113.5 38.5q129 57 233.5 177t187.5 292.5t146.5 390.5t112.5 474q5 18 5 31q0 18 -11 33q-10 13 -31.5 24.5t-60.5 27.5 q-78 29 -176.5 50.5t-175.5 35.5q-45 7 -78 7q-27 0 -46 -4q-42 -10 -57 -58l-54 -238q-32 -136 -72.5 -280.5t-88 -283t-100.5 -248t-111 -175.5q-56 -64 -115 -63h-3q-35 2 -55.5 14.5t-31 36t-15.5 58t-11 84.5q-6 152 -334 237q-47 14 -82 14q-38 0 -61 -16 q-45 -31 -68 -96q-22 -78 -22 -141q1 -8 1 -16z" />
<glyph unicode="k" horiz-adv-x="1996" d="M-188 170q-3 -15 -3 -29q0 -54 46 -84q57 -37 190 -61l121 -24q55 -11 94 -13h12q31 0 49 9q22 11 21 44l65 203l74 240q59 -59 129 -120l138 -114l123 -96l90 -68q80 -59 160 -67q29 -3 59 -3q51 0 100 9q51 4 103.5 14t89.5 25q66 20 74 42q1 3 2 7q0 20 -44 49 l-113.5 90t-133.5 116l-138 130l-129 129l256 163l254 173q121 86 220.5 166t156.5 145q45 51 50 86q1 6 1 11q0 29 -22 59q-39 43 -81 80t-99.5 65.5t-104.5 28.5q-37 0 -82 -35q-63 -51 -169 -126l-229 -160l-255 -174l-248 -169l93 246q42 111 83 197q14 25 14 42 q0 13 -8 22q-18 22 -96 52q-72 29 -166 54.5t-176 38.5q-45 8 -79 8q-24 0 -41 -4q-42 -10 -64 -56q-33 -76 -71 -185l-78 -235l-79 -260q-39 -133 -71.5 -256.5t-56 -229t-31.5 -175.5z" />
<glyph unicode="l" horiz-adv-x="1599" d="M-188 260q-5 -19 -6 -35q0 -27 15 -50q24 -36 75 -64l107 -61q40 -24 91 -46q20 -10 44 -18.5t56 -13.5q23 -4 52 -3h25q46 2 112 15l378 50l388 50q45 6 68.5 12t30.5 15q5 5 5 12q0 4 -2 9q-4 13 -16 36q-14 35 -37.5 71.5t-62.5 71.5q-37 37 -81 48q-32 8 -83 9 q-18 0 -39 -1q-135 -6 -253 -14.5t-251 -22.5q45 131 98 270l109 274l109 261q54 125 104 225q13 24 13 41q0 13 -7 23q-16 24 -88 52.5t-166 52t-176 36.5q-47 9 -82 8q-22 0 -38 -3q-42 -9 -71 -54q-41 -84 -84 -187.5t-84 -218.5l-82 -233q-40 -119 -74 -230.5 t-58.5 -211t-38.5 -175.5z" />
<glyph unicode="m" horiz-adv-x="2775" d="M-180 160q-3 -16 -3 -30q0 -32 16 -52q24 -29 95 -53q57 -20 128 -36t139 -26q34 -5 58 -5q26 0 40 6q27 11 41 48q18 86 48 195.5t66.5 230.5t79.5 248l88 250q31 -180 76 -356.5t96 -317.5q14 -35 27.5 -57.5t31 -36.5t40 -23.5t55.5 -17.5q98 -23 207 -37q35 -5 57 -5 h7q24 1 38.5 7t24.5 20l27 35q45 70 119 171l161 213l177 226l169 206q-41 -106 -77.5 -223t-65.5 -225.5t-49.5 -201t-28.5 -151.5q-6 -20 -6 -37q0 -26 14 -45q23 -31 94 -53q55 -20 127 -35t144 -25q33 -5 57 -5q32 0 48 9q28 16 44 54q18 72 48 174l67 220l79 246 l83 248l80 229q39 108 71 187q11 27 11.5 47.5t-11.5 35.5q-23 30 -104 52q-119 33 -241 56.5t-232 40.5q-76 14 -129 13h-19q-57 -3 -103 -27.5t-89 -72t-101 -120.5l-123 -143l-127 -154l-120 -154l-103 -139l-67 282l-37 158q-12 55 -15.5 75.5t-3.5 35.5q-8 31 -17 55.5 t-29.5 45t-56.5 36.5t-99 31q-96 23 -195.5 39t-236.5 28q-34 3 -61 3q-47 0 -75 -9q-43 -14 -71 -67q-33 -76 -71 -182.5t-77 -227.5l-78 -249q-39 -128 -70.5 -248.5t-55 -227t-31.5 -182.5z" />
<glyph unicode="n" horiz-adv-x="2109" d="M-176 180q-6 -23 -6 -41q0 -25 11 -42q19 -30 85 -52q66 -29 139 -42l146 -26q47 -9 76 -8q19 0 29 3q28 9 38 44q18 74 47 170l64 205l72 226l75 233q35 -96 75 -192.5t82 -187.5t84 -171t83 -141q55 -90 184 -123q72 -16 142.5 -29.5t142.5 -23.5q38 -6 68 -6 q95 0 108 59l90 316l106 354l112 345q56 167 105 291q11 27 11 47q0 14 -6 26q-8 15 -30 29.5t-61 29.5q-47 18 -81.5 28l-66.5 18.5t-64 13.5l-70 11q-43 6 -75 7q-30 0 -51 -6q-44 -11 -61 -56q-68 -174 -140.5 -392t-123.5 -454q-33 92 -64 192l-61 190l-51 168l-37 124 q-16 61 -50 93t-116 52q-98 29 -190 47.5t-188 34.5q-39 6 -70.5 6t-55.5 -6q-48 -12 -73 -59q-37 -86 -76 -201l-79 -243l-77 -258l-67 -246l-53 -210q-23 -94 -31 -147z" />
<glyph unicode="o" horiz-adv-x="2086" d="M-77 530q9 -172 104 -307q41 -57 116.5 -102t153.5 -74q98 -35 219 -52.5t232 -25.5q63 -4 119 -4q100 0 185 13q132 22 251 85q168 104 276.5 249t163.5 301.5t59 311.5q0 14 1 28q0 138 -38 253q-27 72 -78 129.5t-155 106.5q-92 43 -228.5 72.5t-285.5 44.5 q-37 4 -77 4q-20 0 -40 -1q-61 -3 -122.5 -13.5t-118 -28t-101.5 -37.5q-215 -109 -360.5 -269.5t-214.5 -335.5q-61 -155 -62 -307q0 -21 1 -41zM531 439q-1 17 -1 34q0 68 17 145q20 96 61 183q41 84 103.5 174t133 160.5t141.5 112.5q57 34 104 34q11 0 22 -2 q55 -10 81 -71.5t29 -147.5v-25q0 -75 -16 -159q-18 -98 -53 -185q-41 -109 -99.5 -201t-124 -156.5t-132.5 -94.5q-46 -21 -90 -21q-20 0 -39 4q-66 14 -99 73.5t-38 142.5z" />
<glyph unicode="p" horiz-adv-x="2125" d="M-76 162q-11 -25 -10 -46q0 -23 13 -40q26 -33 79 -54.5t128 -34.5l151 -28q38 -5 63.5 -5t39.5 5q28 10 44 43q29 104 63.5 210.5t75.5 217.5q174 31 348.5 74t332 95t290.5 111.5t223 120.5q55 37 101.5 76t74 81t33.5 88q1 9 2 19q0 38 -20 81q-51 104 -133 175.5 t-178 131.5q-78 45 -183 62q-93 16 -199 16h-25q-120 -2 -251 -19.5t-260 -45.5t-251 -61.5t-224 -66.5q-27 -8 -51.5 -87t-51 -197.5t-53.5 -259.5l-54 -272q-28 -132 -57.5 -237.5t-60.5 -152.5zM702 782l86 214q41 101 86 194q100 27 195.5 40t172.5 14h14q68 0 113 -9 q50 -10 58 -31q9 -14 9 -31q0 -27 -22 -61q-36 -55 -128 -114.5t-238.5 -117t-345.5 -98.5z" />
<glyph unicode="q" horiz-adv-x="2080" d="M-77 530q9 -172 104 -307q41 -57 116.5 -102t153.5 -74q98 -35 215 -53.5t236 -24.5q55 -2 107 -2t101 2q98 4 185 31l24 -12q12 -6 29 -17q76 -45 175 -44q28 0 58 3q55 8 108.5 20.5t104.5 33.5q61 19 61 41q0 20 -48 53q-43 31 -79 63.5t-87 67.5q113 106 183.5 236 t102.5 265q28 119 28 233q0 15 -1 30q-4 129 -39 233q-27 72 -76 129.5t-153 106.5q-92 43 -228.5 72.5t-285.5 44.5q-37 4 -77 4q-20 0 -40 -1q-61 -3 -122.5 -13.5t-118 -28t-101.5 -37.5q-215 -109 -360.5 -269.5t-214.5 -335.5q-61 -155 -62 -307q0 -21 1 -41zM530 481 q2 66 15 137q37 137 111.5 271.5t185.5 245.5q55 55 109.5 92t102.5 49q21 5 40 5q24 0 45 -8q37 -15 55 -65q18 -43 24 -105q2 -28 2 -59q0 -36 -3 -74q-6 -71 -23.5 -142.5t-44.5 -135.5q-23 -72 -54.5 -135t-76.5 -117q-82 -10 -145.5 -22t-114.5 -29q-63 -21 -63 -48 q0 -19 30 -42l33 -29q16 -14 39 -28q-47 -24 -90 -24q-20 0 -39 5q-51 12 -81 49t-44 90q-13 47 -13 103v16z" />
<glyph unicode="r" horiz-adv-x="2185" d="M-76 162q-4 -19 -3 -35q0 -29 11 -50q18 -32 72 -54q53 -20 116.5 -28.5t141.5 -23.5q36 -5 60.5 -5t37.5 5q27 10 41 43l75 223q38 112 83 230q76 -61 169 -124l187 -120q94 -57 183.5 -106t158.5 -82q104 -43 185 -48q23 -2 45 -2q53 0 98 9q55 6 92 11t88 34 q51 25 51 46q0 20 -59 52q-76 41 -162 94l-173 110l-169 114l-149 106q317 92 536.5 197.5t305.5 228.5q32 40 31 89q0 45 -21 100q-51 104 -133 175.5t-178 131.5q-119 68 -274 83q-70 7 -144 7q-88 0 -181 -10q-171 -18 -348.5 -60.5t-341.5 -87.5q-47 -14 -94 -97 t-91 -204t-83 -263t-70.5 -276.5l-55.5 -245t-38 -167.5zM690 791l96 218q43 101 88 187q104 31 197.5 43t171.5 12q160 0 195 -47q6 -9 5 -19q0 -25 -30 -63q-43 -53 -140 -112.5t-245 -118.5t-338 -100z" />
<glyph unicode="s" horiz-adv-x="1806" d="M-274 348q0 -37 124 -112q231 -154 458 -218q213 -60 443 -59h29q180 2 308.5 30.5t214.5 71.5t137 92.5t78 92.5q28 41 28 77q0 16 -6 32q-18 50 -78.5 96.5t-152.5 88.5l-195 85l-206 88q-103 45 -187 96q-61 37 -79 83q-10 26 -10 53q0 20 6 41q13 48 51 95t88 87 t104.5 72t101.5 46q42 19 64 19h8q23 -4 26.5 -26t-4.5 -56.5t-22.5 -73.5t-27.5 -79t-17 -71q-2 -10 -2 -19q0 -136 362 -216q46 -12 77 -12q17 0 30 4q35 10 63 45q27 39 53.5 93t47 112.5t35 116t18.5 100.5q-2 25 -5 53.5t-18.5 58t-47.5 60t-87 61.5q-86 45 -207 83 t-239 63q-78 14 -150 16q-18 1 -35 0q-52 0 -99 -4q-62 -6 -111.5 -19.5t-82.5 -27.5q-96 -35 -191 -88.5t-177 -114.5t-142.5 -125.5t-87.5 -126.5q-42 -74 -42 -142q0 -63 29 -119q30 -58 87 -109.5t133 -92.5q70 -39 159 -78l177 -76l168 -72q80 -34 133 -62.5t72.5 -52 t-15.5 -38.5q-49 -27 -135 -27q-57 0 -131 12q-184 30 -428 134q-43 18 -96 28.5t-112 13.5q-18 1 -35 1q-41 0 -82 -5q-59 -7 -113 -21q-57 -21 -57 -58z" />
<glyph unicode="t" horiz-adv-x="1996" d="M17 1454q-7 -5 -6 -13q0 -13 16 -36l70 -88q42 -53 98 -88q51 -35 93 -42q17 -3 39 -3q31 0 70 6q51 8 124 14t151 15q-47 -117 -94.5 -260.5t-88 -287t-71.5 -276.5t-43 -227q-7 -20 -8 -37q0 -16 7 -30q13 -28 46 -48t84 -34.5t112 -26.5l115 -23q51 -10 90 -12h13 q30 0 49 8q23 10 26 39q41 145 93 307l110 327l117 326l114 306l254 15l228 13q41 2 63.5 6.5t30.5 11.5q7 6 7 15q0 13 -11 37q-23 41 -61.5 84t-92.5 80q-27 20 -64.5 29.5t-115.5 9.5q-102 -2 -224 -7t-254 -11.5t-268.5 -14.5t-268.5 -18.5t-255 -21.5t-225 -23 q-52 -9 -69 -21z" />
<glyph unicode="u" horiz-adv-x="2031" d="M-88 464q4 -153 88 -255q45 -57 108.5 -96t135.5 -68q172 -66 440 -78q43 -2 82 -2q86 0 159 9q105 13 210 49q145 57 255.5 178t197.5 292t155.5 386t130.5 464q7 22 7 40q0 16 -6 26q-13 23 -91 51q-72 25 -158 50.5t-162 37.5q-41 7 -75 7q-29 0 -53 -5 q-52 -10 -56 -55l-66 -241q-39 -138 -88 -283.5t-107 -285.5t-125 -246.5t-140 -167.5q-60 -49 -124 -48q-15 0 -30 2q-66 12 -87 71q-16 42 -16 100q0 22 3 45q8 87 40.5 195.5t78 220.5t96.5 220l96 197q12 25 12 48q0 68 -106 116q-68 29 -139.5 51t-149.5 37 q-52 10 -88 10q-20 0 -36 -3q-42 -9 -64 -54q-82 -158 -161 -337t-125 -352q-42 -159 -42 -301v-25z" />
<glyph unicode="v" horiz-adv-x="2099" d="M59 1466q27 -342 78 -650t133 -572q8 -25 25.5 -51.5t46.5 -54t69 -51.5t93 -42q98 -33 188 -53.5t195 -40.5q65 -12 110 -13q30 0 52 6q55 13 100 64l140 194l159 231l164 249l153 246l128.5 221t88.5 176q18 30 19 54q0 5 -1 11q-5 28 -31.5 49t-70 39.5t-96.5 37.5 q-51 18 -100 32.5t-92 17.5q-10 1 -20 0q-31 0 -56 -7q-33 -10 -51 -39l-330 -539q-170 -281 -360 -553q-27 137 -50 271l-42 257l-35 229q-16 105 -31 187q-18 104 -189 141q-72 16 -134 23.5t-140 7.5q-39 0 -61.5 -4t-33.5 -13t-14.5 -25t-3.5 -36z" />
<glyph unicode="w" horiz-adv-x="2887" d="M4 547q0 -117 6 -222.5t17 -187.5q4 -57 31.5 -84.5t99.5 -44.5q78 -16 161.5 -31.5t176.5 -25.5q36 -4 64 -5q25 0 45 4q42 7 79 50l93 128l123 165l139 181l141 177q0 -66 8 -137.5t20.5 -140l24.5 -128.5l20 -102q10 -43 45 -78.5t121 -56.5q43 -6 76 -13t68 -13 l73 -14q39 -7 95 -13q51 -6 89 -6q35 0 60 5q51 11 80 50l114 191l137 224l150 240l154 239l147 220l131 182q25 36 26 73q0 5 -1 10q-4 42 -70 77q-113 51 -243 86q-43 10 -72 15q-16 2 -30 2q-11 0 -20 -1q-22 -3 -40.5 -16.5t-36.5 -38.5l-116 -162l-167 -242l-190 -283 l-184 -283q8 109 18 220l20 208q9 96 15 167.5t6 100.5q0 25 -2 43t-11 30.5t-31 22.5t-60 21l-65 15q-30 7 -58.5 13l-59.5 12l-69 11q-39 5 -68 5t-48 -5q-38 -10 -69 -45q-43 -43 -117 -136l-163 -211l-181 -247l-174 -242q8 111 22.5 230.5t30.5 228.5l27 195l19 129 q6 23 5 47t-11.5 47.5t-32 44t-60.5 35.5q-68 25 -144.5 38t-170.5 25q-34 4 -59 4q-35 0 -54 -8q-31 -14 -41 -63q-14 -92 -25 -205t-18.5 -234t-11.5 -244.5t-4 -242.5z" />
<glyph unicode="x" horiz-adv-x="2125" d="M-233 158q0 -18 27.5 -45t68.5 -54.5t88 -52t86 -41.5q53 -24 98 -24q53 0 94 34l239 202l294 245l164 -228q70 -93 106 -128q25 -25 47.5 -42.5t48 -28.5t55 -18.5t70.5 -9.5q83 -4 162 -4t154 4q68 6 81 26q4 5 3 12q0 18 -27 46l-209 305l-241 357l386 300l316 244 q45 35 55 73q2 6 2 13q0 32 -43 68q-41 35 -100 76t-125 69q-63 23 -117 23q-53 0 -104 -35q-104 -74 -241 -183l-300 -245l-109 164l-94 143q-37 45 -85 74t-140 35q-43 2 -86 3t-80 1h-78h-40q-18 0 -35 -2q-78 -6 -96 -25q-7 -7 -6 -19q0 -19 16 -50l78 -121l99 -151 l115 -170l123 -179l-201 -164l-185 -157l-160 -144l-129 -123q-45 -42 -45 -73z" />
<glyph unicode="y" horiz-adv-x="1955" d="M-9 1537q-5 -6 -5 -15q0 -16 14 -43l93 -200l110 -226l116 -235l113 -228q-37 -129 -60.5 -240.5t-47.5 -197.5q-3 -18 -4 -33q0 -30 14 -48q20 -28 86 -57q63 -18 142 -35.5t151 -31.5q43 -7 71 -7q21 0 32 4q28 9 44 50q31 111 67 226.5t87 244.5l247 242l236 239 l197 212q86 97 127 161q33 46 33 74q0 32 -56 69q-43 25 -105.5 53.5t-123.5 47.5q-55 17 -103 16h-10q-51 -2 -74 -41l-269 -298l-284 -298l-137 277q-66 129 -125 227q-18 25 -34.5 43t-37 31.5t-47 21.5t-65.5 14q-65 9 -128 9h-26q-76 -2 -153 -6q-72 -7 -85 -22z" />
<glyph unicode="z" horiz-adv-x="1689" d="M-235 189q0 -19 12 -35q12 -18 32.5 -35t40.5 -31l109 -61q43 -25 94 -50q25 -12 50.5 -20t58.5 -13q23 -4 52 -4q11 0 24 1q43 2 104 12q90 14 190 28l204 26l206 26l199 24q78 6 99.5 22.5t-1.5 57.5q-27 68 -104 146q-29 33 -85 46q-39 9 -88 9q-22 0 -47 -2 q-119 -10 -226 -21.5t-216 -27.5l564 475l562 457q51 39 54 72v5q0 31 -23 66l-34 61q-17 33 -56 76q-29 35 -67 49q-34 13 -98 13h-19q-143 -4 -304 -11.5t-321 -17.5t-309.5 -24.5t-267.5 -30.5q-51 -10 -66.5 -23.5t6.5 -50.5q29 -37 73 -86t73 -78q51 -37 110 -47 q33 -6 70 -6q29 0 61 4q96 12 194.5 20.5t217.5 20.5l-323 -263l-314 -276l-272 -255q-123 -120 -195 -199q-24 -27 -24 -49z" />
<glyph unicode="{" horiz-adv-x="1527" d="M-63 801l58 -84q34 -47 77 -82q37 -25 58.5 -35t57.5 -12l-102 -359q-14 -59 4.5 -94t75.5 -65l86 -45.5t82 -40.5q51 -23 106.5 -34t149.5 3l214 24l206 23q78 0 97 16.5t-3 55.5q-16 35 -36.5 67.5t-57.5 67.5q-61 66 -195 55q-51 -2 -96 -4t-96 -4q35 117 78.5 248 t93.5 263l101 260q52 128 103 237q96 4 183.5 10t165.5 10q78 6 97 20.5t-3 53.5q-16 37 -34.5 67.5t-55.5 67.5q-63 72 -195 70q-109 -2 -235.5 -6.5t-245.5 -14.5q-78 -4 -112 -22.5t-50 -51.5q-51 -117 -104 -258l-113 -297q-92 -8 -168 -14t-129 -16q-98 -14 -63 -80z " />
<glyph unicode="|" horiz-adv-x="1613" d="M113 49q-10 -49 8 -77.5t86 -51.5q53 -16 110.5 -30.5t128.5 -28.5q76 -12 101.5 -1t42.5 50q23 86 62 213l90 274l107 304l109 301l100 267l77 197q25 43 9 66.5t-93 52.5q-72 29 -143 45l-142 33q-78 16 -120 6t-64 -55q-33 -78 -76 -204l-90 -276l-97 -313l-90 -309 l-72 -270q-32 -123 -44 -193z" />
<glyph unicode="}" horiz-adv-x="1697" d="M-184 180q-8 -12 6 -36.5t37.5 -51t51.5 -51.5l44 -39q37 -25 77 -36t118 -3q94 10 194 18.5t205 18.5q49 0 79.5 6t49 15.5t28 21.5t15.5 27q31 104 73 231l93 268q78 12 162 15.5t147.5 9.5t93 22.5t-1.5 57.5q-23 37 -43 75.5t-51 73.5q-61 70 -188 70q51 111 92 212 l78 187q14 37 8 62.5t-58 60.5q-37 29 -71.5 52.5t-71.5 45.5q-45 29 -88 39.5t-121 6.5q-147 -6 -279.5 -14.5t-238.5 -20.5q-27 -4 -51.5 -9.5t-39.5 -14.5t-19.5 -22.5t8.5 -31.5l44 -68q22 -33 58 -67q18 -18 36.5 -30.5t41 -19t51.5 -7.5t70 1q37 2 71.5 5.5t73.5 5.5 l-95 -240l-101 -263q-50 -134 -94 -265t-77 -242q-70 -6 -140 -13t-128.5 -16.5t-99.5 -21t-49 -25.5z" />
<glyph unicode="~" horiz-adv-x="2230" d="M-41 1135q0 -82 199 -82q109 0 188 30q6 0 37 15l71 32q40 18 84 33t78 15q43 0 105.5 -6.5t127 -16.5t122 -22.5t88.5 -26.5q68 -31 171 -45t243 -14q92 0 196.5 27.5t226.5 80.5q248 106 248 186q0 41 -86 66q-70 20 -147 20q-92 0 -180 -41l-45 -26l-65 -37 q-34 -18 -66.5 -32.5t-49.5 -12.5q-59 2 -117.5 15.5t-116.5 28.5l-115 31q-56 15 -112 25q-92 20 -176 30.5t-170 10.5q-74 0 -180 -21.5t-210.5 -54t-190.5 -68.5t-117 -67q-41 -40 -41 -73z" />
<glyph unicode="&#xa2;" horiz-adv-x="1675" d="M74 578.5q2 -132.5 76 -224.5q27 -37 72.5 -65.5t96.5 -46.5q-4 -16 -6 -31.5t-2 -32.5q-10 -74 28 -145.5t142 -106.5q59 -20 90 -15t41 42q10 45 30 103.5l42 117.5h10q49 -2 100.5 1t100.5 11.5t91 20.5t73 26q61 29 119.5 74t97.5 99q16 23 24.5 42t3 34.5t-26 26.5 t-60.5 19q-207 37 -330 -49q-172 -123 -264 -102q-45 8 -68 48t-26 98.5t11.5 128t45.5 136.5q31 63 81 134t106 130.5t110.5 95.5t93.5 30q39 -10 47 -42t8 -73q0 -12 2 -23.5t6 -23.5q20 -66 79 -102.5t192 -53.5q35 -4 55 -3t31.5 7t17.5 15.5l12 19.5q23 45 29 111.5 t0 122.5q-8 49 -35.5 86.5t-109.5 74.5l-54 19q16 35 27.5 69.5t22.5 63.5q23 74 -23.5 128t-138.5 89q-111 47 -158 -21q-31 -47 -64 -116l-71 -142q-66 0 -137.5 -14t-143.5 -49q-156 -80 -268.5 -207t-171.5 -265t-57 -270.5z" />
<glyph unicode="&#xa3;" horiz-adv-x="1982" d="M-127 655l57 -64q33 -36 70 -65q37 -31 80 -40t115 -1l53 7q-35 -135 -53 -232q-14 -49 9 -85t75 -64l107 -61q40 -24 91 -46q20 -10 44 -18.5t55.5 -13.5t77.5 -3t112 15l378 50l388 50q45 6 68.5 12t30.5 14.5t3 21.5t-16 36q-14 35 -38 71.5t-62 71.5q-37 37 -81 48.5 t-122 7.5q-135 -6 -253 -14.5t-251 -22.5q16 51 36 104l40 107q246 12 495 18q66 2 85.5 14.5t-3.5 47.5q-16 29 -36.5 57.5t-57.5 60.5q-55 57 -176 58q-51 0 -102.5 1t-104.5 -1l53 141h197q98 0 201 -2q66 -4 86 8t4 47q-14 29 -33.5 57.5t-48.5 63.5q-45 57 -176 64 q-29 2 -59.5 3t-65.5 3l43 92q20 45 42.5 86t6.5 64.5t-88 52t-166 52t-176 36.5q-78 14 -120 5t-71 -54q-35 -70 -70 -154l-73 -176l-233 -8q-115 -4 -217 -13q-53 -4 -86 -21.5t-9 -56.5q16 -31 47 -66.5t62 -64.5q37 -35 77 -44t111 -5q41 4 79 5t75 6q-10 -37 -22.5 -74 t-22.5 -74q-205 -12 -379 -31q-53 -6 -82 -26.5t0 -57.5z" />
<glyph unicode="&#xa5;" horiz-adv-x="1955" d="M-96.5 382.5q-28.5 -20.5 2.5 -56.5q23 -29 55.5 -65t69.5 -64q39 -31 81 -40.5t113 -0.5q23 4 49 6l56 4q-6 -4 -6 -14q-10 -53 10 -81t86 -57q63 -18 142 -35.5t151 -31.5q76 -12 103.5 -3t43.5 50q14 53 31 107l33 110q123 6 243 10l248 8q66 2 85.5 14.5t-5.5 47.5 q-16 29 -36.5 57.5t-57.5 61.5q-51 57 -176 57q-51 0 -104.5 1t-106.5 -1l73 70l76 71q74 0 151 -1t154 -1q66 -4 86.5 8.5t4.5 47.5q-14 29 -34 57.5l-46 62.5q-37 37 -90 52l141 144l124 133q56 62 99 115.5t68 92.5q37 51 32.5 79.5t-55.5 63.5q-43 25 -105.5 53.5 t-124 47t-112.5 16.5t-74 -41l-269 -298l-284 -298l-137 277q-66 129 -125 227q-18 25 -34.5 43t-37 31.5t-47 21.5t-65.5 14q-78 10 -153.5 8.5t-153.5 -5.5q-72 -6 -85.5 -21.5t9.5 -58.5q57 -131 136 -296l165 -333q-68 -4 -128 -7t-120 -7q-53 -4 -84.5 -21.5 t-9.5 -56.5q16 -31 47 -67t62 -64q37 -35 76.5 -44.5t111.5 -4.5l176 12l-20 -76l-21 -72q-109 -6 -209 -14t-196 -18q-54 -7 -82.5 -27.5z" />
<glyph unicode="&#xa9;" horiz-adv-x="3753" d="M35.5 505q17.5 -130 114.5 -249q63 -84 165.5 -147.5t266.5 -108.5q178 -49 387 -74.5t433 -31t455.5 11t454.5 53.5t431 94.5t384 132t312.5 169t218.5 206.5q72 100 101.5 215t12 225.5t-82 210t-183.5 166.5q-72 61 -176 117.5t-228 105t-260.5 87t-272.5 66.5 t-265 42t-240 14q-219 0 -439 -40.5t-426 -112.5t-390 -171.5t-333.5 -215t-255 -243.5t-154 -260t-31 -262zM474 580.5q13 99.5 75.5 205t167 211t237.5 200.5t288 175t318.5 135.5t328.5 80t319 9.5q162 -16 323.5 -64t305 -117.5t259 -158t185.5 -181.5t82 -187t-51 -180 q-66 -66 -144 -132.5t-168 -128t-195.5 -114.5t-228.5 -92q-180 -57 -346 -96.5t-349 -54.5t-396 -3t-490 62q-201 33 -318.5 97t-166.5 149t-36 184.5zM1155 704.5q-12 -88.5 4.5 -168t65.5 -141.5q31 -41 88 -72.5t114 -48.5q66 -16 149 -33.5t185 -21.5 q102 -6 201.5 10.5t163.5 44.5q59 31 117.5 76t95.5 99q35 45 28.5 74.5t-88.5 43.5q-102 20 -183 7t-140 -54q-172 -125 -262 -102q-43 8 -65.5 48t-26 97.5t11 126t45.5 135.5q29 61 78 132t104 129.5t109.5 94.5t91.5 29q41 -10 49 -40.5t8 -71.5q0 -12 2 -23.5t2 -23.5 q23 -63 82.5 -100.5t188.5 -53.5q37 -4 57 -3t31.5 6t17.5 14.5l12 19.5q20 47 26.5 112.5t0.5 120.5q-8 47 -35.5 85t-109.5 75q-37 14 -85 29.5t-102.5 27t-111 19.5t-111.5 12q-72 4 -155 -9t-164 -54q-102 -53 -187.5 -127t-148 -160t-102.5 -179t-52 -181.5z" />
<glyph unicode="&#xad;" d="M-297 897q37 -41 79 -80t101 -80q57 -43 107.5 -55t107.5 -2q109 18 227.5 30.5t242.5 22.5t249 17l246 12q72 2 89 16.5t-11 59.5q-31 37 -59.5 75.5t-71.5 83.5q-88 76 -207 76q-135 0 -282.5 -6t-289 -15.5t-266.5 -20.5t-217 -23q-133 -17 -45 -111z" />
<glyph unicode="&#xae;" horiz-adv-x="3753" d="M35.5 505q17.5 -130 114.5 -249q63 -84 165.5 -147.5t266.5 -108.5q178 -49 387 -74.5t433 -31t455.5 11t454.5 53.5t431 94.5t384 132t312.5 169t218.5 206.5q72 100 101.5 215t12 225.5t-82 210t-183.5 166.5q-72 61 -176 117.5t-228 105t-260.5 87t-272.5 66.5 t-265 42t-240 14q-219 0 -439 -40.5t-426 -112.5t-390 -171.5t-333.5 -215t-255 -243.5t-154 -260t-31 -262zM474 580.5q13 99.5 75.5 205t167 211t237.5 200.5t288 175t318.5 135.5t328.5 80t319 9.5q162 -16 323.5 -64t305 -117.5t259 -158t185.5 -181.5t82 -187t-51 -180 q-66 -66 -144 -132.5t-168 -128t-195.5 -114.5t-228.5 -92q-180 -57 -346 -96.5t-349 -54.5t-396 -3t-490 62q-201 33 -318.5 97t-166.5 149t-36 184.5zM1212.5 434q-10.5 -41 5 -63.5t52.5 -36.5q41 -16 86 -22.5t100 -16.5q51 -8 69.5 0t28.5 31l59 161l58 166 q55 -45 122 -90t136 -86l134 -76l114 -59q78 -33 134 -37t104 6q41 4 67.5 7.5t63.5 25.5q29 16 33 30.5t-37 39.5l-120 68.5t-125 79.5l-122 83l-111 78q227 66 387 141.5t226 165.5q37 53 4 135q-37 74 -95.5 126t-129.5 95q-84 49 -196 60.5t-235.5 -1.5t-253 -44 t-247.5 -64q-35 -10 -68 -70.5t-64.5 -146.5t-59.5 -189l-51 -200q-24 -96 -41 -176t-27.5 -121zM1761 887l73 159q32 73 62 134q82 23 147.5 32t123.5 9q53 0 89 -9.5t46 -25.5q14 -23 -15.5 -61t-99 -81t-177.5 -84.5t-249 -72.5z" />
<glyph unicode="&#xb4;" d="M394 1819.5q-5 -17.5 7.5 -31.5t30 -22.5t14.5 -6.5q78 -27 140.5 -35t115.5 7q123 25 252 58.5t248 68t221.5 69.5t175.5 64q-10 43 -31.5 70.5t-72.5 41.5q-92 29 -149.5 30t-102.5 -19q-80 -37 -176 -72t-199.5 -67.5l-211.5 -63.5l-210 -58q-47 -16 -52 -33.5z" />
<glyph unicode="&#x2000;" horiz-adv-x="1064" />
<glyph unicode="&#x2001;" horiz-adv-x="2131" />
<glyph unicode="&#x2002;" horiz-adv-x="1064" />
<glyph unicode="&#x2003;" horiz-adv-x="2131" />
<glyph unicode="&#x2004;" horiz-adv-x="710" />
<glyph unicode="&#x2005;" horiz-adv-x="532" />
<glyph unicode="&#x2006;" horiz-adv-x="354" />
<glyph unicode="&#x2007;" horiz-adv-x="354" />
<glyph unicode="&#x2008;" horiz-adv-x="266" />
<glyph unicode="&#x2009;" horiz-adv-x="425" />
<glyph unicode="&#x200a;" horiz-adv-x="116" />
<glyph unicode="&#x2010;" d="M-297 897q37 -41 79 -80t101 -80q57 -43 107.5 -55t107.5 -2q109 18 227.5 30.5t242.5 22.5t249 17l246 12q72 2 89 16.5t-11 59.5q-31 37 -59.5 75.5t-71.5 83.5q-88 76 -207 76q-135 0 -282.5 -6t-289 -15.5t-266.5 -20.5t-217 -23q-133 -17 -45 -111z" />
<glyph unicode="&#x2011;" d="M-297 897q37 -41 79 -80t101 -80q57 -43 107.5 -55t107.5 -2q109 18 227.5 30.5t242.5 22.5t249 17l246 12q72 2 89 16.5t-11 59.5q-31 37 -59.5 75.5t-71.5 83.5q-88 76 -207 76q-135 0 -282.5 -6t-289 -15.5t-266.5 -20.5t-217 -23q-133 -17 -45 -111z" />
<glyph unicode="&#x2012;" d="M-297 897q37 -41 79 -80t101 -80q57 -43 107.5 -55t107.5 -2q109 18 227.5 30.5t242.5 22.5t249 17l246 12q72 2 89 16.5t-11 59.5q-31 37 -59.5 75.5t-71.5 83.5q-88 76 -207 76q-135 0 -282.5 -6t-289 -15.5t-266.5 -20.5t-217 -23q-133 -17 -45 -111z" />
<glyph unicode="&#x2013;" horiz-adv-x="2500" d="M-45 748q31 -33 78 -66t110 -68q68 -35 136.5 -45t166.5 -2q170 14 354.5 25.5t375 20t381 13.5t372.5 9q104 2 142 14.5t10 48.5q-23 29 -44.5 63t-72.5 70q-72 63 -270 64q-203 0 -428.5 -5t-441.5 -12.5t-409.5 -17.5t-332.5 -20q-215 -12 -127 -92z" />
<glyph unicode="&#x2014;" horiz-adv-x="3803" d="M-45 748q31 -33 78 -66t110 -68q68 -35 136.5 -45t166.5 -2q86 8 240 14.5t352.5 11.5t428.5 9l467 8q237 4 469.5 6t433 5.5t359.5 5.5t251 4q104 2 142 14t11 49q-25 29 -45 63t-71 70q-76 63 -271 64q-102 0 -275 -1t-390 -3t-465 -5l-499 -6q-251 -3 -490.5 -7.5 t-441 -9.5t-351 -10t-219.5 -9q-215 -12 -127 -92z" />
<glyph unicode="&#x2018;" horiz-adv-x="1179" d="M140 1659.5q5 -23.5 20.5 -55t27.5 -78.5q23 -41 49.5 -82t56.5 -80t59.5 -73t56.5 -58q63 -66 161 -90q45 -10 101.5 -17.5t107.5 -11.5q133 -8 84 64l-71 125l-84 154l-83 160q-40 79 -67 138q-33 70 -168 49l-104 -27q-51 -13 -88 -30q-41 -23 -52.5 -43.5t-6.5 -44z " />
<glyph unicode="&#x2019;" horiz-adv-x="1044" d="M217 1208q-27 -70 98 -67q66 0 116 3t91 11q51 10 83 28.5t63 53.5q20 31 45.5 77t48 97t41 104.5t26.5 96.5q2 20 1 37.5t-8 33t-24.5 28.5t-49.5 30q-43 20 -98.5 37.5t-112.5 31.5q-68 16 -106 10.5t-48 -48.5l-35 -135q-20 -77 -44 -155l-46 -152q-23 -73 -41 -122z " />
<glyph unicode="&#x201c;" horiz-adv-x="1748" d="M19.5 1664q7.5 -28 30 -60.5t54.5 -73.5q63 -78 134 -155t137 -124q43 -35 82 -53t98 -29q51 -8 104.5 -11t106.5 -5q125 -2 63 68q-35 49 -92 121l-117 152l-118 156q-57 77 -92 134q-45 76 -170 39q-104 -29 -177 -68q-33 -18 -42 -40.5t-1.5 -50.5zM750.5 1692.5 q-7.5 -25.5 15.5 -68.5q14 -43 43 -98.5t64.5 -109.5t76.5 -103t78 -80q37 -35 73 -56.5t89 -33.5q43 -10 99.5 -17.5t107.5 -11.5q131 -8 86 64l-73 125l-85 154l-83 160q-40 79 -66 138q-33 70 -166 49l-106 -27q-52 -13 -89 -30q-57 -29 -64.5 -54.5z" />
<glyph unicode="&#x201d;" horiz-adv-x="1730" d="M217 1208q-27 -70 98 -67q66 0 118 3t89 11q51 10 83 28.5t63 53.5q20 31 45.5 77t48 97t41 104.5t26.5 96.5q2 20 1 37.5t-8 33t-24.5 28.5t-49.5 30q-43 20 -98.5 37.5t-112.5 31.5q-68 16 -106 10.5t-48 -48.5l-35 -135q-20 -77 -44 -155l-46 -152q-23 -73 -41 -122z M860 1212q-47 -68 86 -73q117 -12 207 2q53 4 89 21.5t73 49.5q43 33 89 92.5t85 123t61.5 121t18.5 87.5q-8 31 -64 64q-37 23 -89 42l-105 40q-131 47 -166 -29q-23 -57 -60 -131l-77 -149l-81 -146z" />
<glyph unicode="&#x2022;" horiz-adv-x="1460" d="M104 768q-8 -84 35 -150.5t122 -113.5t186.5 -70.5t228.5 -19.5q119 0 212 26.5t160.5 65.5t109.5 82t59 76q10 25 16 49t6 55q0 41 -24.5 84t-73.5 82t-126 70.5t-181 54.5q-158 29 -288 14.5t-224.5 -58.5t-151 -108.5t-66.5 -138.5z" />
<glyph unicode="&#x2026;" horiz-adv-x="3383" d="M-86 150q-4 -47 19.5 -85t68.5 -65t106.5 -40t131.5 -11q68 0 121 15.5t90.5 37t61.5 46t32 42.5q14 27 14 60q0 47 -55 94t-174 71q-90 16 -164 8t-128 -32.5t-86 -62t-38 -78.5zM1100 150q-6 -47 20.5 -85t73.5 -65t109.5 -40t130.5 -11q68 0 121 15.5t90.5 37t61.5 46 t32 42.5q14 27 14 60q0 47 -55.5 94t-173.5 71q-88 16 -164 8t-132.5 -32.5t-90 -61t-37.5 -79.5zM2294 150q-6 -47 20.5 -85t73.5 -65t109.5 -40t130.5 -11q68 0 121 15.5t90.5 37t61.5 46t32 42.5q14 27 14 60q0 47 -55.5 94t-173.5 71q-88 16 -164 8t-132.5 -32.5 t-90 -61t-37.5 -79.5z" />
<glyph unicode="&#x202f;" horiz-adv-x="425" />
<glyph unicode="&#x205f;" horiz-adv-x="532" />
<glyph unicode="&#x20ac;" horiz-adv-x="2306" d="M-123 618.5q-29 -20.5 2 -57.5q23 -29 55.5 -64.5t69.5 -64.5q37 -31 80 -40t115 -1q14 2 24 2t21 2q18 -117 94 -209q41 -57 119 -100t155 -66l206 -44q114 -24 255 -31q68 -4 137.5 0t135 15t123 27.5t100.5 35.5q80 41 160.5 102t132.5 133q20 31 31.5 56.5t5 46 t-35 36t-83.5 25.5q-276 51 -447 -66q-233 -166 -356 -139q-68 12 -96.5 74.5t-28.5 152.5q133 8 264 13l273 8q63 2 83.5 14.5t-4.5 46.5q-16 29 -36.5 57.5t-57.5 61.5q-55 57 -176 57q-72 2 -145.5 1t-155.5 -3q12 37 31 74l17 34l20 36q117 2 235.5 1t241.5 -3 q66 -4 86 8t4 47q-14 29 -33.5 57.5t-48.5 63.5q-45 57 -174 63l-135 6q43 49 86 90.5t84 70t77.5 44t67.5 8.5q53 -12 64.5 -56t11.5 -97q0 -16 2 -32.5t6 -33.5q14 -43 40 -76.5t70 -59t107.5 -43t153.5 -30.5q47 -6 74.5 -4t43 9.5t23.5 19.5t16 27q27 61 36.5 151 t-1.5 166q-4 33 -15 61.5t-32.5 55t-56.5 52.5t-88 50q-53 20 -120 41t-140.5 37t-151.5 27.5t-151 15.5q-98 4 -212 -12.5t-227 -73.5q-145 -76 -262 -179.5t-205 -223.5q-113 -4 -216 -9.5t-199 -11.5q-53 -4 -85 -21.5t-10 -56.5q16 -31 47 -66.5t62 -64.5q37 -35 77 -44 t111 -5q16 2 33 2q18 0 35 2q-14 -37 -25 -74l-20 -73q-74 -4 -147.5 -11.5t-145.5 -13.5q-53 -6 -82 -26.5z" />
<glyph unicode="&#x2122;" horiz-adv-x="2834" d="M7 1510.5q-9 -7.5 7 -29.5l40 -54q24 -31 59 -53q31 -20 55.5 -24t60.5 2q31 4 76 8l92 8q-29 -70 -56.5 -155t-52 -170t-43 -163.5t-24.5 -136.5q-16 -47 27 -67.5t117 -36.5q76 -14 119.5 -20.5t52.5 28.5q25 86 56 182l65 195l68 194l67 181q82 4 154 9l134 9 q47 2 55.5 10.5t-1.5 30.5q-25 51 -91 96q-16 12 -37.5 18.5t-68.5 6.5q-92 -2 -208 -7t-237.5 -13.5l-238.5 -17.5t-209 -19q-29 -4 -38 -11.5zM1036 731q-6 -33 8.5 -49t55.5 -31q35 -12 76 -21t81 -16q43 -6 59.5 0.5t26.5 28.5q10 51 28 115.5l39.5 137.5t46.5 147 l52 149q16 -106 45 -210.5t60 -188.5q12 -41 31.5 -56.5t58.5 -25.5q27 -6 56.5 -11.5t64.5 -9.5q47 -6 60 1t30 32q27 41 72 101l97 127l105 134l101 123q-25 -63 -46.5 -132.5t-39 -134t-29.5 -119t-16 -89.5q-8 -31 5 -49t58 -33q29 -10 73 -19t85 -16q47 -8 63.5 2.5 t26.5 32.5q14 63 45 166t68 214l74 217l65 177q14 33 1 50.5t-61 31.5q-72 18 -145.5 32.5t-136.5 25.5q-53 8 -88 7t-62.5 -16.5t-53.5 -44t-58 -71.5l-73 -84l-75 -91l-70 -91l-61 -84l-40 167q-15 61 -22.5 94t-9.5 45.5t-2 20.5q-4 18 -10 33.5t-18.5 28t-34 21.5 t-57.5 18q-57 14 -117 23t-139 18q-55 4 -83 -4.5t-44 -41.5q-27 -68 -63 -173t-68.5 -217.5t-59.5 -218t-35 -173.5z" />
<glyph unicode="&#xe000;" horiz-adv-x="1580" d="M0 1580h1580v-1580h-1580v1580z" />
<glyph unicode="&#xfb01;" horiz-adv-x="2721" d="M-159 124.5q1 -20.5 10.5 -35.5t30 -27.5t55.5 -24.5q57 -16 131.5 -34.5t143.5 -27t117 0t54 44.5l84 249q47 138 104 286q160 23 327 43t327 37q78 6 98 22.5t-2 57.5q-16 35 -36.5 70.5t-59.5 72.5q-59 61 -197 55q-86 -2 -167 -6t-163 -10q45 94 74 179t66 153 l186 16l248 23l270 25l252 24q-31 -88 -62 -190l-63 -206l-59 -210q-29 -104 -51.5 -199.5l-40 -176.5t-23.5 -138q-10 -53 11.5 -83t88.5 -53q66 -23 135.5 -37t147.5 -28q39 -6 64.5 -7t41 4t24.5 16t15 30l62 202l75 232l82 246q42 125 85 240l82 219q40 102 77 178 q27 49 -21 100t-144.5 91t-224.5 62.5t-257 14.5q-102 -6 -247 -16l-306 -23q-162 -12 -331 -26l-322 -28q-154 -13 -279 -27.5t-200 -26.5q4 -80 -14.5 -191.5t-50.5 -238.5t-71 -259l-74 -249l-65 -215q-29 -96 -37 -152q-2 -27 -1 -47.5z" />
<glyph unicode="&#xfb02;" horiz-adv-x="3176" d="M-159 124.5q1 -20.5 10.5 -35.5t30 -27.5t55.5 -24.5q57 -16 131.5 -34.5t143.5 -27t117 0t54 44.5l84 249q47 138 104 286q160 23 327 43t327 37q78 6 98 22.5t-2 57.5q-16 35 -36.5 70.5t-59.5 72.5q-59 61 -197 55q-86 -2 -167 -6t-163 -10q45 94 74 179t66 153 q63 6 171 13l234 15l262 17q135 8 256 16q-51 -127 -101 -269t-93 -280.5t-77 -262.5t-48 -216q-14 -49 10.5 -85t75.5 -64l107 -61q40 -24 91 -46q20 -10 43 -18t56 -13.5t78 -3.5t110 15l378 50l388 50q45 6 69.5 12t32 14.5t2 21.5t-17.5 36q-14 35 -37.5 72t-60.5 71 q-37 37 -81 48.5t-122 7.5q-135 -6 -254 -14.5t-252 -22.5q45 131 99 270l108 275l110 260q54 125 103 225q23 43 7.5 79t-59.5 62.5t-107.5 46t-134 31.5t-142.5 17.5t-131 3.5q-104 -2 -254 -9.5l-320 -16.5t-348 -21.5t-339 -25.5t-291 -26.5t-205 -25.5 q4 -80 -14.5 -191.5t-50.5 -238.5t-71 -259l-74 -249l-65 -215q-29 -96 -37 -152q-2 -27 -1 -47.5z" />
<glyph unicode="&#xfb03;" horiz-adv-x="4362" d="M3244 170q-3 -18 -4 -33q0 -30 14 -50q20 -30 88 -52q66 -23 136.5 -37l148.5 -29q42 -7 69 -6q23 0 35 4q27 10 39 45l62 202l74 232l83 246l86 241l84 218q41 102 76 178q11 27 11 43q0 13 -8 24q-9 13 -31.5 25.5t-61.5 26.5q-72 29 -166 54.5t-176 37.5q-48 8 -81 8 q-24 0 -41 -4q-40 -10 -62 -55q-33 -76 -70 -184l-76 -232q-39 -123 -75.5 -254l-67.5 -252t-54.5 -224t-31.5 -173zM1553 125q1 -20 10.5 -35.5t30 -28t55.5 -24.5q57 -16 131.5 -34.5t143.5 -27.5q34 -4 63.5 -4t53.5 4q48 8 54 45l84 249q47 138 104 286q160 23 327 43 t327 37q78 6 98 22.5t-2 57.5q-16 35 -36.5 70.5t-59.5 72.5q-54 56 -173 56q-12 0 -24 -1q-86 -2 -167 -6t-163 -10q45 94 74 179t66 153q190 16 364 28l334 25q78 6 95 21q10 8 10 26q0 13 -5 31q-23 74 -96 141q-25 20 -46 34.5t-44 22t-50.5 9.5t-66.5 2 q-156 -4 -316.5 -12.5t-315 -19.5t-295 -26.5t-252.5 -33.5q1 -15 0 -30q0 -70 -15 -162q-18 -112 -50 -238.5t-71 -258.5l-74 -249l-65 -215q-29 -96 -37 -152q-1 -18 -1 -33v-14zM-159 125q1 -20 10.5 -35.5t30 -28t55.5 -24.5q57 -16 131.5 -34.5t143.5 -27.5 q34 -4 63.5 -4t53.5 4q48 8 54 45l84 249q47 138 104 286q160 23 327 43t327 37q78 6 98 22.5t-2 57.5q-16 35 -36.5 70.5t-59.5 72.5q-54 56 -173 56q-12 0 -24 -1q-86 -2 -167 -6t-163 -10q45 94 74 179t66 153q190 16 364 28l334 25q78 6 95 21q10 8 10 26q0 13 -5 31 q-23 74 -96 141q-25 20 -46 34.5t-44 22t-50.5 9.5t-66.5 2q-156 -4 -316.5 -12.5t-315 -19.5t-295 -26.5t-252.5 -33.5q1 -15 0 -30q0 -70 -15 -162q-18 -112 -50 -238.5t-71 -258.5l-74 -249l-65 -215q-29 -96 -37 -152q-1 -18 -1 -33v-14z" />
<glyph unicode="&#xfb04;" horiz-adv-x="5023" d="M3236 260q-5 -19 -6 -35q0 -27 15 -50q24 -36 75 -64l107 -61q40 -24 91 -46q20 -10 44 -18.5t56 -13.5q23 -4 52 -3h25q46 2 112 15l378 50l388 50q45 6 68.5 12t30.5 15q5 5 5 12q0 4 -2 9q-4 13 -16 36q-14 35 -37.5 71.5t-62.5 71.5q-37 37 -81 48q-32 8 -83 9 q-18 0 -39 -1q-135 -6 -253 -14.5t-251 -22.5q45 131 98 270l109 274l109 261q54 125 104 225q13 24 13 41q0 13 -7 23q-16 24 -88 52.5t-166 52t-176 36.5q-47 9 -82 8q-22 0 -38 -3q-42 -9 -71 -54q-41 -84 -84 -187.5t-84 -218.5l-82 -233q-40 -119 -74 -230.5 t-58.5 -211t-38.5 -175.5zM1553 125q1 -20 10.5 -35.5t30 -28t55.5 -24.5q57 -16 131.5 -34.5t143.5 -27.5q34 -4 63.5 -4t53.5 4q48 8 54 45l84 249q47 138 104 286q160 23 327 43t327 37q78 6 98 22.5t-2 57.5q-16 35 -36.5 70.5t-59.5 72.5q-54 56 -173 56q-12 0 -24 -1 q-86 -2 -167 -6t-163 -10q45 94 74 179t66 153q190 16 364 28l334 25q78 6 95 21q10 8 10 26q0 13 -5 31q-23 74 -96 141q-25 20 -46 34.5t-44 22t-50.5 9.5t-66.5 2q-156 -4 -316.5 -12.5t-315 -19.5t-295 -26.5t-252.5 -33.5q1 -15 0 -30q0 -70 -15 -162 q-18 -112 -50 -238.5t-71 -258.5l-74 -249l-65 -215q-29 -96 -37 -152q-1 -18 -1 -33v-14zM-159 125q1 -20 10.5 -35.5t30 -28t55.5 -24.5q57 -16 131.5 -34.5t143.5 -27.5q34 -4 63.5 -4t53.5 4q48 8 54 45l84 249q47 138 104 286q160 23 327 43t327 37q78 6 98 22.5 t-2 57.5q-16 35 -36.5 70.5t-59.5 72.5q-54 56 -173 56q-12 0 -24 -1q-86 -2 -167 -6t-163 -10q45 94 74 179t66 153q190 16 364 28l334 25q78 6 95 21q10 8 10 26q0 13 -5 31q-23 74 -96 141q-25 20 -46 34.5t-44 22t-50.5 9.5t-66.5 2q-156 -4 -316.5 -12.5t-315 -19.5 t-295 -26.5t-252.5 -33.5q1 -15 0 -30q0 -70 -15 -162q-18 -112 -50 -238.5t-71 -258.5l-74 -249l-65 -215q-29 -96 -37 -152q-1 -18 -1 -33v-14z" />
</font>
</defs>
</svg>
