<?xml version="1.0" encoding="UTF-8" standalone="no"?>
<svg
   xmlns:dc="http://purl.org/dc/elements/1.1/"
   xmlns:cc="http://creativecommons.org/ns#"
   xmlns:rdf="http://www.w3.org/1999/02/22-rdf-syntax-ns#"
   xmlns:svg="http://www.w3.org/2000/svg"
   xmlns="http://www.w3.org/2000/svg"
   xmlns:sodipodi="http://sodipodi.sourceforge.net/DTD/sodipodi-0.dtd"
   xmlns:inkscape="http://www.inkscape.org/namespaces/inkscape"
   version="1.1"
   x="0px"
   y="0px"
   viewBox="0 0 100 100"
   enable-background="new 0 0 100 100"
   xml:space="preserve"
   id="svg2"
   inkscape:version="0.48.4 r9939"
   width="100%"
   height="100%"
   sodipodi:docname="email.svg"><metadata
     id="metadata16"><rdf:RDF><cc:Work
         rdf:about=""><dc:format>image/svg+xml</dc:format><dc:type
           rdf:resource="http://purl.org/dc/dcmitype/StillImage" /><dc:title></dc:title></cc:Work></rdf:RDF></metadata><defs
     id="defs14" /><sodipodi:namedview
     pagecolor="#ffffff"
     bordercolor="#666666"
     borderopacity="1"
     objecttolerance="10"
     gridtolerance="10"
     guidetolerance="10"
     inkscape:pageopacity="0"
     inkscape:pageshadow="2"
     inkscape:window-width="1920"
     inkscape:window-height="1053"
     id="namedview12"
     showgrid="false"
     inkscape:zoom="1.888"
     inkscape:cx="50"
     inkscape:cy="62.5"
     inkscape:window-x="1920"
     inkscape:window-y="0"
     inkscape:window-maximized="1"
     inkscape:current-layer="svg2" /><g
     id="g4"
     transform="translate(0,-0.05932204)"><path
       d="M 94.925,22.723 C 94.874,22.603 94.802,22.495 94.711,22.405 94.706,22.4 94.7,22.399 94.695,22.394 94.607,22.311 94.507,22.243 94.393,22.195 94.285,22.151 94.17,22.132 94.057,22.128 94.044,22.127 94.034,22.12 94.021,22.12 H 94.02 c -10e-4,0 -0.002,0 -0.004,0 H 5.983 c -0.002,0 -0.003,0 -0.004,0 h 0 c -0.005,0 -0.01,0.003 -0.015,0.003 C 5.841,22.125 5.721,22.148 5.605,22.196 5.493,22.242 5.395,22.31 5.308,22.393 5.302,22.398 5.295,22.399 5.289,22.405 5.198,22.496 5.126,22.603 5.075,22.723 5.026,22.842 5,22.969 5,23.096 c 0,0.001 0,0.002 0,0.002 v 53.805 c 0,0.017 0.009,0.032 0.01,0.05 0.004,0.068 0.023,0.134 0.04,0.2 0.016,0.058 0.026,0.115 0.053,0.168 0.025,0.053 0.062,0.097 0.098,0.145 0.04,0.058 0.079,0.112 0.131,0.159 0.013,0.012 0.019,0.028 0.032,0.039 0.044,0.036 0.097,0.053 0.145,0.08 0.041,0.022 0.075,0.05 0.119,0.066 0.114,0.044 0.23,0.071 0.351,0.071 0,0 0,0 0.001,0 h 88.043 c 0.001,0 0.001,0 0.001,0 0.12,0 0.236,-0.027 0.351,-0.071 0.044,-0.017 0.079,-0.044 0.12,-0.066 0.047,-0.027 0.101,-0.044 0.144,-0.08 0.014,-0.011 0.02,-0.027 0.032,-0.039 0.052,-0.047 0.091,-0.102 0.131,-0.159 0.036,-0.048 0.072,-0.092 0.098,-0.145 0.026,-0.053 0.037,-0.11 0.053,-0.169 0.017,-0.066 0.036,-0.131 0.04,-0.199 0.001,-0.018 0.01,-0.033 0.01,-0.05 V 23.098 c 0,0 0,-10e-4 0,-0.002 C 95,22.969 94.974,22.842 94.925,22.723 z M 91.67,24.076 50,65.994 8.33,24.076 H 91.67 z M 6.957,25.469 28.667,47.308 6.957,74.139 v -48.67 z m 1.072,50.455 22.024,-27.22 19.253,19.368 c 0.001,10e-4 0.002,10e-4 0.002,0.002 10e-4,0 10e-4,0.001 0.002,0.002 0.066,0.065 0.146,0.104 0.224,0.148 0.034,0.019 0.063,0.05 0.098,0.064 0.118,0.048 0.242,0.071 0.368,0.071 0.126,0 0.25,-0.023 0.368,-0.071 0.034,-0.015 0.063,-0.046 0.098,-0.064 0.078,-0.044 0.157,-0.083 0.224,-0.148 0.001,-10e-4 0.001,-0.002 0.002,-0.002 0,-0.001 10e-4,-0.001 0.002,-0.002 L 69.947,48.704 91.971,75.924 H 8.029 z M 93.043,74.139 71.333,47.308 93.043,25.469 v 48.67 z"
       id="path6"
       inkscape:connector-curvature="0"
       style="fill:#000000" /></g></svg>