<?xml version="1.0" encoding="UTF-8" standalone="no"?>
<!-- Created with Inkscape (http://www.inkscape.org/) -->

<svg
   xmlns:dc="http://purl.org/dc/elements/1.1/"
   xmlns:cc="http://creativecommons.org/ns#"
   xmlns:rdf="http://www.w3.org/1999/02/22-rdf-syntax-ns#"
   xmlns:svg="http://www.w3.org/2000/svg"
   xmlns="http://www.w3.org/2000/svg"
   xmlns:sodipodi="http://sodipodi.sourceforge.net/DTD/sodipodi-0.dtd"
   xmlns:inkscape="http://www.inkscape.org/namespaces/inkscape"
   width="652.24634"
   height="359.74847"
   viewBox="0 0 172.57351 95.183449"
   version="1.1"
   id="svg8"
   inkscape:version="0.92.3 (2405546, 2018-03-11)"
   sodipodi:docname="dancefloor-sensor-layout.svg">
  <defs
     id="defs2" />
  <sodipodi:namedview
     id="base"
     pagecolor="#ffffff"
     bordercolor="#666666"
     borderopacity="1.0"
     inkscape:pageopacity="0.0"
     inkscape:pageshadow="2"
     inkscape:zoom="1"
     inkscape:cx="311.3633"
     inkscape:cy="285.89177"
     inkscape:document-units="px"
     inkscape:current-layer="layer1"
     showgrid="false"
     units="px"
     inkscape:window-width="1920"
     inkscape:window-height="1026"
     inkscape:window-x="0"
     inkscape:window-y="0"
     inkscape:window-maximized="1"
     fit-margin-top="0"
     fit-margin-left="0"
     fit-margin-right="0"
     fit-margin-bottom="0" />
  <metadata
     id="metadata5">
    <rdf:RDF>
      <cc:Work
         rdf:about="">
        <dc:format>image/svg+xml</dc:format>
        <dc:type
           rdf:resource="http://purl.org/dc/dcmitype/StillImage" />
        <dc:title></dc:title>
      </cc:Work>
    </rdf:RDF>
  </metadata>
  <g
     inkscape:label="Layer 1"
     inkscape:groupmode="layer"
     id="layer1"
     transform="translate(91.377373,-206.39922)">
    <path
       style="fill:#000000;fill-opacity:1;stroke:#000000;stroke-width:2.35479164;stroke-linejoin:miter;stroke-miterlimit:4;stroke-dasharray:none;stroke-dashoffset:0;stroke-opacity:1;paint-order:normal"
       id="path817"
       d="m 4.6302083,224.55607 c -0.1164336,6.45204 0.1945873,12.89382 0.6032111,19.33034 0.6245323,8.21772 1.5853177,16.40389 2.3606013,24.60758 0.3723802,3.7233 0.5849231,7.45414 0.6806742,11.19377 0.031966,1.4798 0.049847,2.95985 0.06023,4.43994 3.439e-4,0.0492 -0.080068,1.40155 0.1721363,1.60049 0.1328571,0.1048 0.3348519,-0.0491 0.5022778,-0.0736 0.5796381,0.0168 1.159198,0.0642 1.738915,0.0504 4.061064,-0.0968 8.098437,-0.68161 12.135525,-1.07626 5.243408,-0.51258 5.109664,-0.46494 10.392157,-0.82812 7.266504,-0.39819 14.568858,-0.46044 21.830406,0.0857 1.103307,0.083 2.203542,0.20269 3.305315,0.30404 3.707823,0.38293 7.401224,0.89951 11.118596,1.18533 0.745082,0.0556 1.491498,0.0864 2.238057,0.11231 1.308831,0.0455 1.244449,1.89649 -0.06438,1.85096 v 0 c -0.77252,-0.027 -1.544899,-0.059 -2.315887,-0.11666 -3.72655,-0.28742 -7.429508,-0.80111 -11.146293,-1.18767 -1.082238,-0.0999 -2.162955,-0.21784 -3.24671,-0.29958 -7.182177,-0.54168 -14.404966,-0.47958 -21.592145,-0.0867 -5.242634,0.36 -5.116817,0.31312 -10.325375,0.82232 -1.946523,0.1903 -6.973822,0.76002 -9.060833,0.91651 -1.134696,0.0851 -2.271987,0.18542 -3.409676,0.16452 -0.8340353,-0.0153 -1.6584061,-0.1819 -2.4876092,-0.27285 C 7.6478732,286.90421 7.069652,286.6341 6.7048175,286.15496 6.4235332,285.78554 6.4857949,284.55563 6.4829073,284.14329 6.472615,282.67378 6.4548953,281.20431 6.4232167,279.7351 6.3288184,276.03782 6.1185922,272.34935 5.7501517,268.66823 4.9731935,260.44557 4.0096228,252.24051 3.3850524,244.00368 2.9744958,237.52811 2.661508,231.04722 2.778125,224.55607 c 0,-1.30962 1.8520833,-1.30962 1.8520833,0 z"
       inkscape:connector-curvature="0" />
    <path
       style="fill:#00ff00;fill-opacity:1;stroke:#000000;stroke-width:2.35479164;stroke-linejoin:miter;stroke-miterlimit:4;stroke-dasharray:none;stroke-dashoffset:0;stroke-opacity:1;paint-order:normal"
       id="path819"
       d="m 4.4159077,223.55214 c 5.2921196,-0.45497 10.6139003,-0.4069 15.9203453,-0.35079 5.46148,0.17672 10.91696,0.55411 16.364111,0.98352 2.163416,0.19216 4.329057,0.35434 6.499948,0.42662 1.204671,0.033 2.409869,0.0318 3.614877,0.0305 1.530668,-0.003 3.061338,-0.004 4.592008,-0.005 1.594003,-0.0267 3.188769,0.0244 4.773978,0.19575 1.528743,0.22682 3.066031,0.25662 4.607493,0.22425 2.189576,-0.0596 4.354978,-0.34523 6.513515,-0.6951 1.280803,-0.17743 2.549472,-0.42531 3.824264,-0.63895 0.500867,-0.0482 1.269103,-0.31058 1.700466,0.10434 0.701673,0.67492 0.547442,1.15305 0.55027,1.98693 -0.40132,4.18479 -0.290435,8.39036 -0.157683,12.58489 0.141118,3.88218 0.32695,7.76508 0.678942,11.6344 0.09614,1.668 0.426264,3.30576 0.716004,4.94684 0.222957,1.51333 0.364049,3.03886 0.494332,4.56282 0.226661,1.8628 0.318804,3.73643 0.377492,5.61077 0.101647,1.98326 -0.0021,3.96213 -0.18292,5.93666 -0.11969,1.49996 -0.268557,2.997 -0.395454,4.49631 -0.200607,1.44125 -0.280416,2.89384 -0.409628,4.34183 -0.115261,1.49184 -0.295214,2.97726 -0.41878,4.46836 -0.07892,1.00754 -0.112263,2.01775 -0.127852,3.02801 -0.0035,0.27219 -0.0038,0.5444 -0.004,0.8166 -0.0011,1.30962 -1.853117,1.30816 -1.852083,-0.002 v 0 c 2.28e-4,-0.28128 5.29e-4,-0.56257 0.0043,-0.84384 0.01638,-1.0518 0.05147,-2.10354 0.133974,-3.15249 0.124257,-1.49514 0.303869,-2.98466 0.419833,-4.48054 0.130151,-1.44485 0.207108,-2.89478 0.408848,-4.33287 0.127587,-1.50351 0.276516,-3.00478 0.39657,-4.50899 0.17426,-1.89913 0.275775,-3.80213 0.176088,-5.70977 -0.05733,-1.84112 -0.148494,-3.68136 -0.371684,-5.51106 -0.125177,-1.46902 -0.261712,-2.93937 -0.472876,-4.39858 -0.298265,-1.69218 -0.63622,-3.3812 -0.73656,-5.10089 -0.354944,-3.90569 -0.543632,-7.82494 -0.685628,-11.74361 -0.133377,-4.22807 -0.247441,-8.46817 0.15726,-12.68639 0.01294,-0.18167 -0.106085,-0.43468 0.03883,-0.545 0.116972,-0.0891 0.23771,0.18255 0.377508,0.22805 0.0997,0.0324 0.211894,-0.0243 0.314513,-0.003 0.07729,0.0162 -0.15756,0.0111 -0.236096,0.0192 -0.171805,0.0179 -0.42337,0.0555 -0.588124,0.0789 -1.278019,0.21368 -2.549808,0.46259 -3.833762,0.64051 -2.243812,0.36358 -4.495477,0.65701 -6.771375,0.71855 -1.621502,0.0333 -3.239297,8.7e-4 -4.847543,-0.23486 -1.517502,-0.1686 -3.045431,-0.20737 -4.571452,-0.18474 -1.530273,7.4e-4 -3.060549,0.002 -4.59082,0.005 -1.226306,0.001 -2.452806,0.002 -3.678764,-0.0315 -2.198843,-0.0736 -4.392493,-0.23629 -6.583767,-0.43133 -5.405218,-0.42648 -10.81877,-0.8004 -16.238139,-0.97788 -5.231675,-0.0557 -10.4782788,-0.10389 -15.6961732,0.33956 -1.3016106,0.14463 -1.5061391,-1.69613 -0.2045282,-1.84075 z"
       inkscape:connector-curvature="0" />
    <path
       style="fill:#00ff00;fill-opacity:1;stroke:#00ff00;stroke-width:2.35479164;stroke-linejoin:miter;stroke-miterlimit:4;stroke-dasharray:none;stroke-dashoffset:0;stroke-opacity:1;paint-order:normal"
       id="path823"
       d="m 34.263541,228.05895 c 0.141769,2.68344 0.454909,5.35587 0.714865,8.03005 0.283813,3.38857 0.610468,6.77356 0.875403,10.16368 0.167441,2.1568 0.232365,4.31937 0.259344,6.48188 0.01371,1.69551 0.0085,3.39109 0.0064,5.08664 -0.0026,1.94977 -0.0032,3.89955 -0.0036,5.84933 -2.65e-4,2.24344 -2.65e-4,4.48687 -2.65e-4,6.7303 1.1e-5,1.83119 2.7e-5,3.66238 3.5e-5,5.49357 8e-6,1.32123 8e-6,2.64246 8e-6,3.96369 0,0.91864 0,1.83727 0,2.75591 -0.01548,0.074 0.03187,0.76166 0,0.74661 -0.471059,-0.22243 -0.892691,-0.53999 -1.312027,-0.84906 -0.06578,-0.0485 -0.138919,-0.12992 -0.125603,-0.21055 0.06531,-0.39539 0.233559,-0.76672 0.350338,-1.15008 0.917109,-3.22167 1.526508,-6.51585 2.153367,-9.80247 0.272867,-1.52683 0.551672,-3.06077 0.648504,-4.61156 0.04257,-0.68177 0.03008,-1.28883 0.02855,-1.97156 -0.05144,-2.01582 -0.34108,-4.01167 -0.644977,-6.00159 -0.346202,-1.91512 -0.643512,-3.8399 -1.065956,-5.74017 -0.420757,-1.87626 -0.810927,-3.758 -1.200346,-5.64097 -0.329271,-1.9856 -0.782116,-3.94689 -1.170432,-5.92081 -0.387305,-2.06687 -0.48772,-4.16967 -0.549302,-6.2668 -0.03448,-1.46313 -0.03341,-2.92674 -0.02979,-4.39017 0.0026,-0.72048 0.005,-1.44097 0.0065,-2.16145 7.94e-4,-0.40122 7.94e-4,-0.80244 7.94e-4,-1.20366 -0.0155,-0.48842 0.03843,-0.99906 0.536347,-1.273 0.194246,-0.10686 0.432853,-0.0962 0.64928,-0.14424 0.214434,0.0666 0.444679,0.0951 0.6433,0.19986 1.341162,0.70722 2.589331,3.13949 3.276554,4.40886 1.00339,2.13346 1.763999,4.38611 2.253917,6.69307 0.363876,1.71344 0.410461,2.36605 0.635109,4.11679 0.503226,4.03321 0.264427,8.09173 0.01886,12.1317 -0.193828,3.02922 -0.26662,6.06383 -0.395491,9.09608 -0.141668,3.03913 -0.187058,6.07967 -0.121393,9.12105 0.09449,2.10098 0.05977,4.20848 0.18679,6.30777 0.05919,1.18116 0.278027,2.33825 0.607854,3.47101 0.279077,0.96857 0.672409,1.89595 0.987126,2.85318 0.269957,0.66054 0.525743,1.32011 0.67991,2.01802 0.144243,0.88193 0.165518,-0.0227 -0.508143,-0.12259 -0.286959,-0.0425 -0.628417,0.44268 -0.836403,0.24045 -0.221374,-0.21524 0.0949,-0.61019 0.142341,-0.91529 0.498596,-4.8601 0.496884,-9.7631 0.474913,-14.64463 -0.07875,-3.26527 -0.216117,-6.53007 -0.485936,-9.78534 -0.145254,-1.9019 -0.272116,-3.80561 -0.450588,-5.70479 -0.100193,-1.81826 -0.385474,-3.6111 -0.670131,-5.40655 -0.406305,-2.13064 -0.569074,-4.29245 -0.670428,-6.45551 -0.06631,-2.08398 -0.196152,-4.16507 -0.272622,-6.24874 -0.05008,-1.41527 -0.06233,-2.83144 -0.06777,-4.24746 -0.0024,-0.95106 -0.0011,-1.90213 0,-2.85319 5.3e-4,-0.4979 7.94e-4,-0.9958 0.0011,-1.4937 7.9e-5,-0.35372 7.1e-5,-0.70744 6.6e-5,-1.06116 0.09004,-0.22046 0.04825,-0.57488 0.270121,-0.66139 1.181944,-0.46081 1.475769,-0.1296 2.036797,0.61701 0.22652,0.30144 0.429294,0.62078 0.621551,0.94515 0.597924,1.00883 0.949513,1.79533 1.468702,2.86425 1.478262,3.21698 2.840551,6.49795 3.827563,9.90278 0.202668,0.69914 0.371917,1.40753 0.557874,2.11129 0.846,3.46522 1.086218,7.029 1.334381,10.57478 0.161462,2.37053 0.188487,4.74693 0.203356,7.12197 0.03614,2.36264 -0.09163,4.72396 -0.347064,7.07205 -0.213368,1.97505 -0.604285,3.92583 -1.006253,5.86956 -0.414443,1.81454 -0.7273,3.65222 -1.227198,5.44616 -0.17448,0.80935 -0.52659,1.56338 -0.751631,2.35608 -0.192292,0.76406 -0.06961,2.21421 -1.890612,-0.11272 -0.269301,-0.34412 0.120086,-0.86564 0.180128,-1.29847 0.645266,-5.37617 0.972286,-10.78344 1.356212,-16.18261 0.212235,-2.90087 0.397039,-5.80396 0.486997,-8.71139 -0.0019,-1.10135 0.116187,-2.21214 -0.06637,-3.30372 -0.21451,-1.14205 -0.783587,-2.154 -1.368798,-3.14121 -0.806217,-1.27079 -1.561827,-2.57061 -2.242129,-3.91307 -0.721564,-1.4067 -1.217546,-2.89589 -1.6222,-4.41869 -0.464796,-1.76747 -0.961517,-3.52309 -1.274569,-5.32514 -0.184423,-1.30567 -0.41909,-2.60417 -0.448096,-3.92467 0.03322,-1.2444 0.329462,-2.45028 0.703194,-3.63038 0.213831,-0.82879 0.558397,-1.61157 0.847468,-2.41392 0.111808,-0.28038 0.165746,-0.57521 0.193262,-0.87416 0.131839,-1.30297 1.974514,-1.11652 1.842675,0.18645 v 0 c -0.04795,0.44984 -0.129739,0.89529 -0.294714,1.31886 -0.283718,0.77884 -0.615604,1.54024 -0.824161,2.34548 -0.317381,0.98707 -0.570304,1.99529 -0.615908,3.0362 0.01281,1.22519 0.267189,2.42854 0.42133,3.64085 0.300295,1.74899 0.793478,3.44984 1.239727,5.1657 0.370014,1.3984 0.821256,2.76578 1.484574,4.05725 0.660355,1.30729 1.400673,2.5692 2.183805,3.80661 0.70209,1.19019 1.361763,2.41822 1.604084,3.79576 0.182166,1.20989 0.112495,2.42922 0.08802,3.64917 -0.09099,2.93211 -0.276479,5.85989 -0.490775,8.78539 -0.386887,5.44042 -0.716579,10.88903 -1.369156,16.30601 -0.0584,0.42003 0.172218,1.01691 -0.175202,1.26008 -2.298226,1.60861 -1.935188,0.19426 -1.727512,-0.61976 0.231339,-0.78547 0.565113,-1.53735 0.746752,-2.33895 0.492239,-1.75189 0.786757,-3.55071 1.197129,-5.32244 0.390432,-1.88607 0.771012,-3.77893 0.978786,-5.69538 0.249719,-2.27729 0.370623,-4.56792 0.336156,-6.85941 -0.01458,-2.33578 -0.04044,-4.67292 -0.198877,-7.00429 -0.239871,-3.42998 -0.466021,-6.87821 -1.277665,-10.23173 -0.177882,-0.67583 -0.339561,-1.35613 -0.533648,-2.02749 -0.959417,-3.31861 -2.288585,-6.51512 -3.727355,-9.65062 -0.499616,-1.03163 -0.794266,-1.69601 -1.355246,-2.66329 -0.153564,-0.26478 -0.327192,-0.51743 -0.49521,-0.77328 -0.06879,-0.10475 -0.314754,-0.23236 -0.215096,-0.30833 1.409303,-1.07439 0.848315,0.36355 1.186881,-0.82841 5e-6,0.35392 1.3e-5,0.70783 -6.6e-5,1.06174 -1.48e-4,0.49833 -5.29e-4,0.99666 -0.0011,1.49499 -0.0011,0.94808 -0.0024,1.89617 -1.4e-5,2.84425 0.0053,1.39575 0.01725,2.79166 0.06654,4.18667 0.07615,2.0775 0.205909,4.15242 0.271849,6.23023 0.0975,2.09499 0.254206,4.1887 0.649613,6.252 0.290599,1.83429 0.580583,3.66631 0.684879,5.5236 0.178242,1.90591 0.307417,3.8161 0.452347,5.72472 0.273585,3.30341 0.413541,6.61646 0.492242,9.93003 0.02193,4.98768 0.02572,9.9984 -0.501005,14.96276 -0.073,0.40458 -0.0083,0.86069 -0.218982,1.21372 -0.974328,1.63276 -2.027674,1.01459 -2.214372,-0.33171 -0.136279,-0.63685 -0.398404,-1.22717 -0.629767,-1.83406 -0.321492,-0.97797 -0.72635,-1.92482 -1.006612,-2.91623 -0.365038,-1.26559 -0.611285,-2.55765 -0.677736,-3.87631 -0.124536,-2.12302 -0.09828,-4.2533 -0.189634,-6.37797 -0.06619,-3.08089 -0.02093,-6.16097 0.122634,-9.23957 0.129355,-3.04351 0.202435,-6.08937 0.397235,-9.12981 0.23859,-3.92422 0.478583,-7.86654 -0.0074,-11.78468 -0.211822,-1.66654 -0.255275,-2.28479 -0.597323,-3.91273 -0.452512,-2.15367 -1.159166,-4.25686 -2.084575,-6.25246 -0.580554,-1.08043 -0.60874,-1.19852 -1.261571,-2.17716 -0.168806,-0.25305 -0.343386,-0.50276 -0.531484,-0.74182 -0.135443,-0.17214 -0.291375,-0.32712 -0.437774,-0.49005 -0.05685,-0.0633 -0.149752,-0.1064 -0.171953,-0.1885 -0.01019,-0.0377 0.07373,-0.0256 0.110596,-0.0384 0.56429,-0.23563 0.533032,-0.2357 0.668798,-0.80924 0.07415,-0.31323 -0.103307,0.63417 2.1e-5,0.37454 -3.2e-5,0.40242 -1.35e-4,0.80483 -7.94e-4,1.20724 -0.0013,0.72078 -0.0039,1.44155 -0.0065,2.16232 -0.0036,1.44384 -0.0048,2.88787 0.029,4.33142 0.05814,1.99544 0.149545,3.99667 0.515334,5.96381 0.386364,1.96808 0.839616,3.92311 1.166816,5.90289 0.387614,1.87448 0.775689,3.74775 1.194884,5.61547 0.428596,1.94103 0.738413,3.90512 1.088607,5.86138 0.317289,2.08134 0.617562,4.16927 0.666163,6.27783 7.94e-4,0.79166 0.01413,1.35197 -0.0364,2.14513 -0.102571,1.60999 -0.38943,3.20284 -0.673442,4.78811 -0.639476,3.35274 -1.262946,6.71295 -2.201971,9.99851 -0.0649,0.21035 -0.616693,2.32365 -1.033557,2.40032 -1.715088,0.31542 -1.497225,-0.69629 -1.501918,-1.48028 0,-0.91864 0,-1.83727 0,-2.75591 0,-1.32123 0,-2.64246 -8e-6,-3.96368 -8e-6,-1.83119 -2.4e-5,-3.66238 -3.5e-5,-5.49357 -2e-6,-2.24357 -3.4e-5,-4.48714 2.65e-4,-6.7307 5.29e-4,-1.95044 0.0011,-3.90087 0.0036,-5.8513 0.0021,-1.68708 0.0073,-3.3742 -0.0062,-5.06124 -0.02633,-2.12206 -0.08967,-4.24421 -0.25386,-6.36067 -0.263837,-3.37847 -0.589827,-6.75179 -0.872342,-10.12874 -0.265726,-2.73359 -0.588986,-5.46551 -0.723553,-8.20924 0,-1.30962 1.852083,-1.30962 1.852083,0 z"
       inkscape:connector-curvature="0" />
    <path
       style="fill:#000000;fill-opacity:1;stroke:#00ff00;stroke-width:2.35479164;stroke-linejoin:miter;stroke-miterlimit:4;stroke-dasharray:none;stroke-dashoffset:0;stroke-opacity:1;paint-order:normal"
       id="path825"
       d="m 5.908753,251.13575 c 0.7399043,0.12677 1.0466707,0.19529 1.9014424,0.23413 1.5450984,0.0702 3.5364196,0.0102 5.0278886,-0.0536 2.905916,-0.12412 4.55475,-0.26797 7.505879,-0.48274 7.405918,-0.62897 14.76729,-1.66933 22.150483,-2.50722 2.993919,-0.2841 5.98398,-0.62937 8.985107,-0.8313 1.970561,-0.14965 3.944776,-0.15418 5.919705,-0.14386 1.771891,0.0243 3.529872,0.25015 5.291749,0.41434 1.056023,0.0981 2.116182,0.13453 3.176161,0.15226 0.590336,-7.9e-4 1.172985,-0.0173 1.753714,0.0993 0.415033,0.11974 0.809352,0.29534 1.231315,0.39064 0.252267,0.039 0.508458,0.0415 0.76318,0.0442 0.282176,0.001 0.564349,-8e-4 0.846521,-0.002 0.472012,-0.0234 0.878584,0.20886 1.29507,0.38921 0.300064,0.11037 0.614653,0.15315 0.918146,0.26166 0.186957,0.18457 0.532622,0.29253 0.560866,0.55372 0.117618,1.08765 -0.389956,1.40604 -1.15294,1.82187 -0.373729,0.20368 -0.763426,0.37907 -1.159822,0.53409 -0.957331,0.37437 -2.17474,0.69985 -3.152682,0.98241 -2.23895,0.59727 -4.511495,1.11041 -6.815294,1.38577 -1.146336,0.13702 -1.766858,0.1501 -2.901627,0.20755 -2.209491,0.1056 -4.415864,-0.0879 -6.605445,-0.36656 -1.820968,-0.28625 -3.62931,-0.62961 -5.463616,-0.81981 -1.900973,-0.15844 -3.802301,-0.30165 -5.708214,-0.38385 -1.674436,-0.0641 -3.350276,-0.0683 -5.025681,-0.0721 -1.825024,0.0119 -3.650924,-0.0313 -5.475089,0.0326 -1.856726,0.0608 -3.705441,0.16433 -5.545658,0.42282 -1.711251,0.28639 -3.403419,0.66853 -5.120726,0.91826 -1.49718,0.2301 -2.970821,0.58411 -4.462133,0.84897 -1.649627,0.2759 -3.321505,0.3588 -4.9905507,0.40899 -0.949062,0.0234 -1.8984521,0.0254 -2.8477387,0.0223 -0.4273381,-0.002 -0.8546759,-0.004 -1.2820182,-0.005 -0.2169562,-0.0253 -0.3364526,0.0906 -0.533592,0.22687 -0.191026,0.2548 -0.053976,0.26517 0.071761,-0.43679 0.012015,-0.0671 -0.078363,-0.18935 -0.011835,-0.20408 0.1341538,-0.0297 0.2630448,0.0795 0.3945671,0.11931 3.231733,0.95056 6.6303065,1.00202 9.9706615,1.09458 5.162247,0.0778 10.325395,0.0387 15.487963,0.021 4.381696,-0.016 8.763418,-0.0225 13.145137,-0.0261 3.459726,0.0822 6.91192,-0.10636 10.365169,-0.28001 3.043814,-0.0996 6.0795,-0.3388 9.116853,-0.54798 2.064179,-0.0919 4.123762,-0.25466 6.185715,-0.38349 1.144524,-0.0699 2.290842,-0.10061 3.437268,-0.11274 0.594284,-0.005 1.188588,-0.003 1.782882,-0.002 0.141758,0.0346 1.147143,-0.0961 1.192863,0.0709 0.156776,0.57293 0.09112,1.18448 0.136671,1.77672 -0.326107,0.17673 -0.639435,0.37941 -0.978326,0.53018 -0.87026,0.38719 -2.383496,0.86002 -3.247784,1.11503 -2.040126,0.60194 -4.109593,1.08073 -6.181998,1.55477 -2.365534,0.49569 -4.757859,0.90628 -7.17102,1.08215 -1.420561,0.10354 -1.712079,0.0746 -3.122589,0.0664 -3.121948,-0.0684 -6.221508,-0.50344 -9.315291,-0.8958 -2.328471,-0.31053 -4.672415,-0.44935 -7.018949,-0.5115 -2.357014,-0.11929 -4.705559,0.0901 -7.054662,0.24559 -2.603688,0.16468 -5.212617,0.21366 -7.820699,0.24576 -1.74957,0.0175 -3.499243,0.0174 -5.24888,0.0163 -1.303854,-10e-4 -2.607708,-0.002 -3.911562,-0.003 -1.228707,-0.0412 -2.452281,0.0738 -3.67662,0.15683 -0.838974,0.0602 -1.6796009,0.089 -2.5204554,0.1037 -0.3171772,0.0631 -0.711694,-0.0898 -1.0081133,0.0425 -0.1692447,0.0861 0.2223942,-0.11209 0.2714924,-0.16737 0.097987,-0.11032 0.109638,-0.28015 0.2062641,-0.39166 0.022191,-0.0256 0.049077,0.0478 0.066445,0.0769 0.070438,0.11802 0.1172977,0.25008 0.1959885,0.36276 0.1036489,0.14842 0.2322158,0.27778 0.3483237,0.41667 1.615836,1.76714 3.760316,2.86015 6.0075,3.6116 0.746287,0.24955 1.511069,0.43994 2.266604,0.65992 3.61692,0.85643 7.339886,1.26333 11.057419,1.17301 2.335633,-0.0568 3.596298,-0.23564 5.91862,-0.4785 5.047764,-0.58297 10.048084,-1.49839 15.023037,-2.51971 2.643184,-0.53305 5.262517,-1.19022 7.92436,-1.62549 1.943772,-0.25296 3.903679,-0.36644 5.859579,-0.48526 1.834663,-0.10078 3.6723,-0.12515 5.509305,-0.13957 1.428729,-0.008 2.857487,-0.006 4.286231,-0.005 0.915435,10e-4 1.83087,0.002 2.746304,0.002 0.713901,1.9e-4 1.4278,2e-4 2.141702,2e-4 0.405151,0 0.810302,-10e-6 1.215453,-2e-5 1.309619,-10e-6 1.309643,1.85207 2.1e-5,1.85209 v 0 c -0.405159,0 -0.810318,10e-6 -1.21548,10e-6 -0.714094,0 -1.428191,-10e-6 -2.142289,-1.9e-4 -0.915741,-2.7e-4 -1.831482,-8e-4 -2.747221,-0.002 -1.4234,-10e-4 -2.846816,-0.003 -4.270201,0.005 -1.804416,0.0141 -3.609459,0.0377 -5.411597,0.13622 -1.89376,0.11488 -3.791248,0.22498 -5.673844,0.46454 -2.637308,0.42844 -5.230791,1.08775 -7.84992,1.61179 -5.034629,1.0333 -10.095036,1.95885 -15.20345,2.54756 -2.416553,0.25103 -3.694456,0.43288 -6.129147,0.48838 -3.887328,0.0886 -7.779427,-0.34188 -11.559193,-1.24751 -0.805773,-0.23705 -1.621991,-0.44113 -2.417318,-0.71116 -2.559754,-0.8691 -4.979695,-2.15693 -6.7944932,-4.19574 -0.1802186,-0.23941 -0.3805349,-0.46492 -0.5406554,-0.71821 -0.5248764,-0.83027 -0.814569,-2.08872 0.3858038,-2.49754 0.4942649,-0.1332 0.9916575,-0.12156 1.50022,-0.11802 0.8098284,-0.014 1.6194378,-0.0417 2.4274478,-0.0997 1.266198,-0.0858 2.531884,-0.20211 3.802556,-0.16107 1.30402,5.3e-4 2.608041,10e-4 3.912061,0.003 1.741653,10e-4 3.483343,10e-4 5.224931,-0.0162 2.574883,-0.0316 5.15062,-0.0796 7.721182,-0.24186 2.406174,-0.15919 4.81198,-0.36999 7.226173,-0.24897 2.407968,0.0643 4.813287,0.20719 7.202744,0.52556 3.020632,0.38308 6.046703,0.81019 9.0946,0.88113 1.313222,0.01 1.60619,0.0378 2.930705,-0.0577 2.334675,-0.16835 4.649155,-0.56564 6.93775,-1.04428 3.235741,-0.73957 6.514301,-1.46126 9.577758,-2.76734 0.194294,0.45755 0.348867,0.93409 0.582885,1.37265 0.024,0.045 0.202033,-0.007 0.152757,0.006 -0.257251,0.0678 -0.56497,-0.0547 -0.825925,-0.001 -0.586479,-10e-4 -1.17297,-0.003 -1.75944,0.002 -1.114428,0.0117 -2.228755,0.0414 -3.341341,0.10924 -2.058029,0.12848 -4.113686,0.29116 -6.173933,0.38272 -3.048754,0.20988 -6.095844,0.44984 -9.151064,0.55002 -3.483708,0.17517 -6.966447,0.36427 -10.456653,0.28234 -4.380114,0.004 -8.760227,0.0101 -13.140317,0.0261 -5.181872,0.0178 -10.36433,0.0571 -15.545872,-0.0217 -3.559366,-0.0996 -7.185139,-0.16389 -10.6155093,-1.22977 -0.5204221,-0.23611 -1.2205517,-0.41502 -1.4461923,-1.05428 -0.276951,-0.78462 0.1396928,-1.24027 0.6493065,-1.67365 0.4766474,-0.31899 0.9850326,-0.57626 1.5763179,-0.54562 0.428021,7.9e-4 0.8560377,0.003 1.2840547,0.005 0.9288041,0.003 1.8577091,0.001 2.7862979,-0.0215 1.5793176,-0.0472 3.1615556,-0.12258 4.7228696,-0.38142 1.510602,-0.26704 3.002431,-0.62942 4.519581,-0.85822 1.720559,-0.2486 3.414549,-0.63912 5.12996,-0.91957 1.904413,-0.26515 3.817071,-0.37853 5.738443,-0.43958 1.846871,-0.0625 3.695211,-0.0238 5.542918,-0.0336 1.700683,0.004 3.401806,0.008 5.101492,0.0738 1.943259,0.0841 3.881935,0.22953 5.8201,0.39209 1.848398,0.19326 3.672004,0.53072 5.506284,0.82475 2.080929,0.26646 4.178159,0.45257 6.27826,0.35397 1.037913,-0.0514 1.68115,-0.0664 2.724907,-0.19017 2.221381,-0.26347 4.412559,-0.75816 6.571395,-1.33292 0.857949,-0.24703 2.046645,-0.56751 2.902096,-0.89009 0.321654,-0.12129 0.632206,-0.27063 0.942829,-0.41789 0.146537,-0.0695 0.325626,-0.35787 0.427702,-0.23186 1.935871,2.38977 -1.364134,-0.21198 0.506598,1.16577 -0.333068,-0.12959 -0.706232,-0.13146 -1.02725,-0.30572 -0.281342,-0.12563 -0.49189,-0.26198 -0.540684,-0.23156 -0.291206,0.001 -0.582417,0.003 -0.873625,0.002 -0.3877,-0.005 -0.77773,-0.014 -1.159047,-0.0915 -0.408493,-0.0956 -0.804389,-0.22894 -1.194674,-0.38258 -0.460652,-0.10399 -0.935262,-0.0349 -1.405135,-0.0602 -1.10698,-0.0187 -2.214111,-0.0574 -3.316939,-0.15999 -1.70798,-0.15927 -3.412021,-0.37935 -5.129546,-0.40637 -1.930318,-0.0101 -3.859913,-0.008 -5.78594,0.13973 -2.972869,0.19914 -5.934569,0.54352 -8.900347,0.82364 -7.407974,0.84053 -14.793989,1.88503 -22.224945,2.51415 -2.964946,0.21555 -4.66508,0.36336 -7.588632,0.48691 -1.620941,0.0685 -3.6083463,0.12649 -5.2638759,0.0451 -0.9090581,-0.0447 -1.2197273,-0.11253 -1.9789889,-0.24354 -1.2964583,-0.18521 -1.0345343,-2.01868 0.261924,-1.83347 z"
       inkscape:connector-curvature="0" />
    <rect
       style="fill:#000000;fill-opacity:1;stroke:none;stroke-width:2.35479164;stroke-linejoin:miter;stroke-miterlimit:4;stroke-dasharray:none;stroke-dashoffset:0;stroke-opacity:1;paint-order:normal"
       id="rect829"
       width="8.2020836"
       height="8.2020836"
       x="27.516666"
       y="253.34375" />
    <rect
       style="fill:#000000;fill-opacity:1;stroke:none;stroke-width:2.35479164;stroke-linejoin:miter;stroke-miterlimit:4;stroke-dasharray:none;stroke-dashoffset:0;stroke-opacity:1;paint-order:normal"
       id="rect829-3"
       width="8.2020836"
       height="8.2020836"
       x="47.75729"
       y="252.94687" />
    <rect
       style="fill:#000000;fill-opacity:1;stroke:none;stroke-width:2.35479164;stroke-linejoin:miter;stroke-miterlimit:4;stroke-dasharray:none;stroke-dashoffset:0;stroke-opacity:1;paint-order:normal"
       id="rect829-6"
       width="8.2020836"
       height="8.2020836"
       x="37.306252"
       y="243.02502" />
    <rect
       style="fill:#000000;fill-opacity:1;stroke:none;stroke-width:2.35479164;stroke-linejoin:miter;stroke-miterlimit:4;stroke-dasharray:none;stroke-dashoffset:0;stroke-opacity:1;paint-order:normal"
       id="rect829-7"
       width="8.2020836"
       height="8.2020836"
       x="37.967705"
       y="262.20731" />
    <text
       xml:space="preserve"
       style="font-style:normal;font-weight:normal;font-size:10.58333302px;line-height:1.25;font-family:sans-serif;letter-spacing:0px;word-spacing:0px;fill:#000000;fill-opacity:1;stroke:none;stroke-width:0.26458332"
       x="-88.900002"
       y="232.70624"
       id="text860"><tspan
         sodipodi:role="line"
         id="tspan858"
         x="-88.900002"
         y="232.70624"
         style="stroke-width:0.26458332">Detection area</tspan></text>
    <text
       xml:space="preserve"
       style="font-style:normal;font-weight:normal;font-size:10.58333302px;line-height:1.25;font-family:sans-serif;letter-spacing:0px;word-spacing:0px;fill:#000000;fill-opacity:1;stroke:none;stroke-width:0.26458332"
       x="-92.075005"
       y="267.10208"
       id="text864"><tspan
         sodipodi:role="line"
         id="tspan862"
         x="-92.075005"
         y="267.10208"
         style="stroke-width:0.26458332">Sensor on</tspan><tspan
         sodipodi:role="line"
         x="-92.075005"
         y="280.33124"
         style="stroke-width:0.26458332"
         id="tspan933">mounting tape</tspan></text>
    <text
       xml:space="preserve"
       style="font-style:normal;font-weight:normal;font-size:10.58333302px;line-height:1.25;font-family:sans-serif;letter-spacing:0px;word-spacing:0px;fill:#000000;fill-opacity:1;stroke:none;stroke-width:0.26458332"
       x="-65.616661"
       y="299.38126"
       id="text868"><tspan
         sodipodi:role="line"
         id="tspan866"
         x="-65.616661"
         y="299.38126"
         style="fill:#000000;stroke-width:0.26458332">Bumpon</tspan></text>
    <path
       style="fill:none;stroke:#000000;stroke-width:1.32291663;stroke-linecap:butt;stroke-linejoin:miter;stroke-miterlimit:4;stroke-dasharray:none;stroke-opacity:1"
       d="m 31.088539,228.58812 1.852189,54.55505"
       id="path870"
       inkscape:connector-curvature="0" />
    <path
       style="fill:none;stroke:#000000;stroke-width:1.32291663;stroke-linecap:butt;stroke-linejoin:miter;stroke-miterlimit:4;stroke-dasharray:none;stroke-opacity:1"
       d="m 51.725988,230.82872 1.852189,54.55506"
       id="path870-5"
       inkscape:connector-curvature="0" />
    <path
       style="fill:none;stroke:#000000;stroke-width:1.52994394;stroke-linecap:butt;stroke-linejoin:miter;stroke-miterlimit:4;stroke-dasharray:none;stroke-opacity:1"
       d="M 73.204281,246.98409 0.23818066,248.83627"
       id="path870-3"
       inkscape:connector-curvature="0" />
    <path
       style="fill:none;stroke:#000000;stroke-width:1.52994394;stroke-linecap:butt;stroke-linejoin:miter;stroke-miterlimit:4;stroke-dasharray:none;stroke-opacity:1"
       d="M 78.507362,264.58798 5.5412643,266.44016"
       id="path870-3-5"
       inkscape:connector-curvature="0" />
    <path
       style="fill:#000000;fill-opacity:1;stroke:none;stroke-width:1.32291663;stroke-linejoin:miter;stroke-miterlimit:4;stroke-dasharray:none;stroke-dashoffset:0;stroke-opacity:1;paint-order:normal"
       id="path908"
       d="m -24.991368,266.21229 c 3.59692,-0.0152 7.183663,-0.38758 10.759929,-0.74361 4.3116691,-0.49598 8.57005,-1.33208 12.7736987,-2.3997 2.4666102,-0.62213 4.8790658,-1.43 7.2707824,-2.29014 0.9003522,-0.30614 1.7715439,-0.69884 2.6804503,-0.97843 0.7417035,-0.2211 1.5194606,-0.18585 2.2800086,-0.26767 1.040213,-0.15346 2.083556,-0.29891 3.117759,-0.49239 1.310028,-0.25072 2.640256,-0.36937 3.949004,-0.62623 0.743555,-0.17912 1.512976,-0.23682 2.248383,-0.44761 0.261294,-0.0713 0.526532,-0.12339 0.792885,-0.171 1.289934,-0.22622 1.609858,1.59802 0.319924,1.82424 v 0 c -0.205392,0.035 -0.409246,0.0765 -0.6109,0.12954 -0.786709,0.21862 -1.600173,0.30533 -2.396659,0.48284 -1.314423,0.25368 -2.647257,0.38468 -3.963377,0.62897 -1.084753,0.20138 -2.178395,0.3564 -3.269741,0.51423 -0.644705,0.0627 -1.3007943,0.0446 -1.9337712,0.19865 -0.8809006,0.25598 -1.7132983,0.66848 -2.5872112,0.94767 -2.4478983,0.8803 -4.9175006,1.7056 -7.4419377,2.3425 -4.2933601,1.08884 -8.6421848,1.94348 -13.0458649,2.44751 -3.697326,0.36792 -7.408461,0.76107 -11.127651,0.74352 -1.30312,-0.13031 -1.118832,-1.97321 0.184289,-1.84289 z"
       inkscape:connector-curvature="0" />
    <path
       style="fill:#000000;fill-opacity:1;stroke:none;stroke-width:1.32291663;stroke-linejoin:miter;stroke-miterlimit:4;stroke-dasharray:none;stroke-dashoffset:0;stroke-opacity:1;paint-order:normal"
       id="path912"
       d="m 14.390858,251.96163 c 0.532839,0.87491 1.267421,1.60473 1.991421,2.3211 0.652809,0.66808 1.376702,1.25363 2.137459,1.79273 0.479805,0.34789 0.929993,0.72282 1.366674,1.12236 0.186522,0.17721 0.378093,0.32952 0.608768,0.42432 0.321694,0.13938 0.590467,0.38859 0.904291,0.53764 0.608494,0.23068 0.86642,0.75744 0.792409,1.38732 -0.144517,0.45367 -0.385045,0.8614 -0.680274,1.23215 -0.272302,0.28177 -0.581858,0.51633 -0.931424,0.6926 -0.287574,0.13668 -0.620792,0.19695 -0.899728,0.34883 -0.256065,0.16943 -0.469753,0.40444 -0.72634,0.60101 -0.529528,0.41545 -1.099219,0.76998 -1.689185,1.09224 -0.403195,0.20225 -0.770119,0.46415 -1.156901,0.69367 -1.13049,0.66113 -2.065476,-0.93762 -0.934986,-1.59875 v 0 c 0.407448,-0.2324 0.784344,-0.51822 1.208736,-0.72288 0.514307,-0.2765 1.005792,-0.58801 1.465311,-0.9491 0.366571,-0.25694 0.641172,-0.64091 1.072413,-0.80473 0.276639,-0.11821 0.579968,-0.2272 0.84984,-0.32545 0.121465,-0.0517 0.229155,-0.15454 0.34455,-0.2426 0.03697,-0.0497 0.348727,-0.653 0.251362,-0.32301 0.02942,0.57984 0.828277,0.88519 0.135431,0.53808 -0.254367,-0.14707 -0.500745,-0.31164 -0.751696,-0.46191 -0.413981,-0.18754 -0.786934,-0.43929 -1.11523,-0.75522 -0.378948,-0.34896 -0.76971,-0.67541 -1.188434,-0.97797 -0.839849,-0.60058 -1.644696,-1.2461 -2.36733,-1.98639 -0.810642,-0.80583 -1.62791,-1.62846 -2.228163,-2.60869 -0.726447,-1.08966 0.814579,-2.11702 1.541026,-1.02735 z"
       inkscape:connector-curvature="0" />
    <path
       style="fill:#00ff00;fill-opacity:1;stroke:none;stroke-width:1.32291663;stroke-linejoin:miter;stroke-miterlimit:4;stroke-dasharray:none;stroke-dashoffset:0;stroke-opacity:1;paint-order:normal"
       id="path914"
       d="m -13.492041,222.0695 c 1.457204,-3.48516 4.7666498,-5.72005 7.7326562,-7.83001 3.6731464,-2.48474 7.6779473,-4.45226 11.8858361,-5.85098 0.7167065,-0.23824 1.4462207,-0.43606 2.1693309,-0.65408 3.4546848,-0.94342 7.0301938,-1.29021 10.6004498,-1.33521 1.535873,0.0129 3.089594,0.0507 4.590263,0.41394 0.77112,0.18664 1.157155,0.3451 1.894454,0.60786 1.793193,0.67545 3.343556,1.76431 4.741482,3.05399 1.531318,1.46741 2.710728,3.21678 3.831452,5.00233 1.053431,1.76929 2.202839,3.47875 3.272058,5.23791 1.040323,1.63298 1.933074,3.34292 2.72085,5.10967 0.509659,1.20756 0.990957,2.42912 1.311709,3.70168 0.132405,0.55339 0.160592,1.12064 0.16269,1.687 -2.54e-4,0.17119 -0.0033,0.34237 -0.006,0.51354 -0.02016,1.30946 -1.872017,1.28096 -1.851864,-0.0285 v 0 c 0.0024,-0.15981 0.0054,-0.31961 0.0057,-0.47944 -0.0011,-0.41702 -0.01352,-0.83534 -0.10751,-1.24386 -0.288711,-1.1696 -0.745956,-2.2863 -1.20667,-3.39687 -0.754504,-1.69597 -1.612942,-3.33525 -2.611964,-4.90176 -1.06345,-1.75216 -2.210236,-3.45279 -3.257955,-5.21507 -1.033859,-1.64857 -2.112274,-3.26978 -3.522098,-4.62875 -1.207437,-1.12702 -2.552903,-2.0742 -4.106735,-2.66835 -0.617543,-0.22265 -0.99339,-0.37557 -1.633866,-0.53546 -1.372176,-0.34255 -2.798517,-0.36071 -4.203937,-0.37791 -3.397119,0.0383 -6.800233,0.36753 -10.0890206,1.25682 -0.6911429,0.20745 -1.3884679,0.39532 -2.0734292,0.62235 -4.0503805,1.3425 -7.9068,3.23017 -11.4430277,5.61925 -2.6347718,1.86727 -5.6225915,3.82139 -7.0309685,6.8521 -0.376316,1.25439 -2.15029,0.7222 -1.773974,-0.53219 z"
       inkscape:connector-curvature="0" />
    <circle
       style="fill:#0000ff;fill-opacity:1;stroke:none;stroke-width:1.32291663;stroke-linejoin:miter;stroke-miterlimit:4;stroke-dasharray:none;stroke-dashoffset:0;stroke-opacity:1;paint-order:normal"
       id="path916"
       cx="22.886454"
       cy="266.17606"
       r="2.778125" />
    <circle
       style="fill:#0000ff;fill-opacity:1;stroke:none;stroke-width:1.32291663;stroke-linejoin:miter;stroke-miterlimit:4;stroke-dasharray:none;stroke-dashoffset:0;stroke-opacity:1;paint-order:normal"
       id="path916-6"
       cx="32.808331"
       cy="274.77499"
       r="2.778125" />
    <circle
       style="fill:#0000ff;fill-opacity:1;stroke:none;stroke-width:1.32291663;stroke-linejoin:miter;stroke-miterlimit:4;stroke-dasharray:none;stroke-dashoffset:0;stroke-opacity:1;paint-order:normal"
       id="path916-2"
       cx="36.247917"
       cy="265.51459"
       r="2.778125" />
    <circle
       style="fill:#0000ff;fill-opacity:1;stroke:none;stroke-width:1.32291663;stroke-linejoin:miter;stroke-miterlimit:4;stroke-dasharray:none;stroke-dashoffset:0;stroke-opacity:1;paint-order:normal"
       id="path916-9"
       cx="49.477081"
       cy="265.25"
       r="2.778125" />
    <circle
       style="fill:#0000ff;fill-opacity:1;stroke:none;stroke-width:1.32291663;stroke-linejoin:miter;stroke-miterlimit:4;stroke-dasharray:none;stroke-dashoffset:0;stroke-opacity:1;paint-order:normal"
       id="path916-1"
       cx="60.325001"
       cy="265.51459"
       r="2.778125" />
    <circle
       style="fill:#0000ff;fill-opacity:1;stroke:none;stroke-width:1.32291663;stroke-linejoin:miter;stroke-miterlimit:4;stroke-dasharray:none;stroke-dashoffset:0;stroke-opacity:1;paint-order:normal"
       id="path916-27"
       cx="53.710415"
       cy="273.98126"
       r="2.778125" />
    <circle
       style="fill:#0000ff;fill-opacity:1;stroke:none;stroke-width:1.32291663;stroke-linejoin:miter;stroke-miterlimit:4;stroke-dasharray:none;stroke-dashoffset:0;stroke-opacity:1;paint-order:normal"
       id="path916-0"
       cx="61.118748"
       cy="247.25835"
       r="2.778125" />
    <circle
       style="fill:#0000ff;fill-opacity:1;stroke:none;stroke-width:1.32291663;stroke-linejoin:miter;stroke-miterlimit:4;stroke-dasharray:none;stroke-dashoffset:0;stroke-opacity:1;paint-order:normal"
       id="path916-93"
       cx="52.387497"
       cy="240.11458"
       r="2.778125" />
    <circle
       style="fill:#0000ff;fill-opacity:1;stroke:none;stroke-width:1.32291663;stroke-linejoin:miter;stroke-miterlimit:4;stroke-dasharray:none;stroke-dashoffset:0;stroke-opacity:1;paint-order:normal"
       id="path916-60"
       cx="47.889584"
       cy="245.93541"
       r="2.778125" />
    <circle
       style="fill:#0000ff;fill-opacity:1;stroke:none;stroke-width:1.32291663;stroke-linejoin:miter;stroke-miterlimit:4;stroke-dasharray:none;stroke-dashoffset:0;stroke-opacity:1;paint-order:normal"
       id="path916-62"
       cx="34.395832"
       cy="247.25833"
       r="2.778125" />
    <circle
       style="fill:#0000ff;fill-opacity:1;stroke:none;stroke-width:1.32291663;stroke-linejoin:miter;stroke-miterlimit:4;stroke-dasharray:none;stroke-dashoffset:0;stroke-opacity:1;paint-order:normal"
       id="path916-61"
       cx="30.956251"
       cy="240.37917"
       r="2.778125" />
    <circle
       style="fill:#0000ff;fill-opacity:1;stroke:none;stroke-width:1.32291663;stroke-linejoin:miter;stroke-miterlimit:4;stroke-dasharray:none;stroke-dashoffset:0;stroke-opacity:1;paint-order:normal"
       id="path916-8"
       cx="21.695833"
       cy="247.25833"
       r="2.778125" />
    <circle
       style="fill:#0000ff;fill-opacity:1;stroke:none;stroke-width:1.32291663;stroke-linejoin:miter;stroke-miterlimit:4;stroke-dasharray:none;stroke-dashoffset:0;stroke-opacity:1;paint-order:normal"
       id="path916-7"
       cx="31.749998"
       cy="252.02083"
       r="2.778125" />
    <circle
       style="fill:#0000ff;fill-opacity:1;stroke:none;stroke-width:1.32291663;stroke-linejoin:miter;stroke-miterlimit:4;stroke-dasharray:none;stroke-dashoffset:0;stroke-opacity:1;paint-order:normal"
       id="path916-92"
       cx="30.956249"
       cy="263.13333"
       r="2.778125" />
    <circle
       style="fill:#0000ff;fill-opacity:1;stroke:none;stroke-width:1.32291663;stroke-linejoin:miter;stroke-miterlimit:4;stroke-dasharray:none;stroke-dashoffset:0;stroke-opacity:1;paint-order:normal"
       id="path916-02"
       cx="51.064583"
       cy="250.43335"
       r="2.778125" />
    <circle
       style="fill:#0000ff;fill-opacity:1;stroke:none;stroke-width:1.32291663;stroke-linejoin:miter;stroke-miterlimit:4;stroke-dasharray:none;stroke-dashoffset:0;stroke-opacity:1;paint-order:normal"
       id="path916-3"
       cx="53.710415"
       cy="261.28125"
       r="2.778125" />
    <path
       style="fill:#0000ff;fill-opacity:1;stroke:none;stroke-width:1.32291663;stroke-linejoin:miter;stroke-miterlimit:4;stroke-dasharray:none;stroke-dashoffset:0;stroke-opacity:1;paint-order:normal"
       id="path1030"
       d="m -13.202194,295.52731 c 3.3126584,-1.79023 6.6320015,-3.57026 9.9607884,-5.33115 3.16808279,-1.69375 6.4118135,-3.23475 9.6953598,-4.68935 1.8048626,-0.8049 3.6287218,-1.55958 5.4825548,-2.24406 1.097624,-0.40657 2.215862,-0.7509 3.324524,-1.12484 0.670901,-0.22163 1.316107,-0.492 1.93427,-0.83383 0.845971,-0.48403 1.60863,-1.09305 2.438202,-1.60456 0.686925,-0.44724 1.41119,-0.83463 2.071168,-1.32233 0.463456,-0.30236 0.904547,-0.63524 1.326538,-0.9927 0.363028,-0.30249 0.745875,-0.55507 1.184035,-0.73567 0.191517,-0.0779 0.375354,-0.20506 0.587307,-0.28978 0.149827,-0.0606 0.309799,-0.0852 0.468675,-0.10786 1.298368,-0.17131 1.540639,1.66486 0.242269,1.83617 v 0 c -0.117988,0.0107 0.06556,-0.0224 -0.04982,0.002 -0.07102,0.0201 -0.375263,0.23418 -0.553283,0.27639 -0.260243,0.10167 -0.467788,0.25205 -0.683089,0.43306 -0.454837,0.38425 -0.927337,0.74663 -1.426723,1.07168 -0.703988,0.51403 -1.463653,0.93924 -2.197878,1.40753 -0.857134,0.52383 -1.635458,1.16495 -2.516553,1.65007 -0.715666,0.39017 -1.458497,0.71047 -2.233343,0.96507 -1.092138,0.36816 -2.193719,0.70698 -3.274964,1.10735 -1.817259,0.67057 -3.6046576,1.41094 -5.3737734,2.19993 -3.2443391,1.43707 -6.44937066,2.95939 -9.5794581,4.63311 -3.289551,1.74011 -6.5678781,3.50226 -9.8452075,5.26457 -1.110556,0.6941 -2.092159,-0.87646 -0.981602,-1.57056 z"
       inkscape:connector-curvature="0" />
  </g>
</svg>
